<?xml version="1.0" encoding="UTF-8" standalone="no"?>
<!DOCTYPE svg PUBLIC "-//W3C//DTD SVG 1.1//EN"
 "http://www.w3.org/Graphics/SVG/1.1/DTD/svg11.dtd">
<!-- Generated by graphviz version 2.40.1 (20161225.0304)
 -->
<!-- Title: snakemake_dag Pages: 1 -->
<svg width="1499pt" height="1017pt"
 viewBox="0.00 0.00 1499.00 1017.00" xmlns="http://www.w3.org/2000/svg" xmlns:xlink="http://www.w3.org/1999/xlink">
<g id="graph0" class="graph" transform="scale(1 1) rotate(0) translate(4 1013)">
<title>snakemake_dag</title>
<polygon fill="#ffffff" stroke="transparent" points="-4,4 -4,-1013 1495,-1013 1495,4 -4,4"/>
<!-- 0 -->
<g id="node1" class="node">
<title>0</title>
<path fill="none" stroke="#56d8c1" stroke-width="2" stroke-dasharray="5,2" d="M579,-36C579,-36 549,-36 549,-36 543,-36 537,-30 537,-24 537,-24 537,-12 537,-12 537,-6 543,0 549,0 549,0 579,0 579,0 585,0 591,-6 591,-12 591,-12 591,-24 591,-24 591,-30 585,-36 579,-36"/>
<text text-anchor="middle" x="564" y="-15.5" font-family="sans" font-size="10.00" fill="#000000">all</text>
</g>
<!-- 1 -->
<g id="node2" class="node">
<title>1</title>
<path fill="none" stroke="#d85656" stroke-width="2" stroke-dasharray="5,2" d="M100,-124C100,-124 12,-124 12,-124 6,-124 0,-118 0,-112 0,-112 0,-84 0,-84 0,-78 6,-72 12,-72 12,-72 100,-72 100,-72 106,-72 112,-78 112,-84 112,-84 112,-112 112,-112 112,-118 106,-124 100,-124"/>
<text text-anchor="middle" x="56" y="-112" font-family="sans" font-size="10.00" fill="#000000">fastqc_raw</text>
<text text-anchor="middle" x="56" y="-101" font-family="sans" font-size="10.00" fill="#000000">adapter: ATCACG</text>
<text text-anchor="middle" x="56" y="-90" font-family="sans" font-size="10.00" fill="#000000">lane: L003</text>
<text text-anchor="middle" x="56" y="-79" font-family="sans" font-size="10.00" fill="#000000">sample: 5517_hypo</text>
</g>
<!-- 1&#45;&gt;0 -->
<g id="edge1" class="edge">
<title>1&#45;&gt;0</title>
<path fill="none" stroke="#c0c0c0" stroke-width="2" d="M112.0717,-74.5382C115.0683,-73.6094 118.0566,-72.7544 121,-72 268.1263,-34.2911 449.6886,-22.6693 526.6798,-19.2936"/>
<polygon fill="#c0c0c0" stroke="#c0c0c0" stroke-width="2" points="526.9897,-22.7839 536.8351,-18.8702 526.698,-15.7899 526.9897,-22.7839"/>
</g>
<!-- 2 -->
<g id="node3" class="node">
<title>2</title>
<path fill="none" stroke="#d85656" stroke-width="2" stroke-dasharray="5,2" d="M230,-124C230,-124 142,-124 142,-124 136,-124 130,-118 130,-112 130,-112 130,-84 130,-84 130,-78 136,-72 142,-72 142,-72 230,-72 230,-72 236,-72 242,-78 242,-84 242,-84 242,-112 242,-112 242,-118 236,-124 230,-124"/>
<text text-anchor="middle" x="186" y="-112" font-family="sans" font-size="10.00" fill="#000000">fastqc_raw</text>
<text text-anchor="middle" x="186" y="-101" font-family="sans" font-size="10.00" fill="#000000">adapter: ATCACG</text>
<text text-anchor="middle" x="186" y="-90" font-family="sans" font-size="10.00" fill="#000000">lane: L004</text>
<text text-anchor="middle" x="186" y="-79" font-family="sans" font-size="10.00" fill="#000000">sample: 5517_hypo</text>
</g>
<!-- 2&#45;&gt;0 -->
<g id="edge2" class="edge">
<title>2&#45;&gt;0</title>
<path fill="none" stroke="#c0c0c0" stroke-width="2" d="M242.1196,-74.7157C245.1036,-73.7406 248.0762,-72.8271 251,-72 348.6083,-44.3889 467.5563,-28.5762 526.7756,-21.8628"/>
<polygon fill="#c0c0c0" stroke="#c0c0c0" stroke-width="2" points="527.2267,-25.3343 536.779,-20.7514 526.4536,-18.3771 527.2267,-25.3343"/>
</g>
<!-- 3 -->
<g id="node4" class="node">
<title>3</title>
<path fill="none" stroke="#d85656" stroke-width="2" stroke-dasharray="5,2" d="M358,-124C358,-124 272,-124 272,-124 266,-124 260,-118 260,-112 260,-112 260,-84 260,-84 260,-78 266,-72 272,-72 272,-72 358,-72 358,-72 364,-72 370,-78 370,-84 370,-84 370,-112 370,-112 370,-118 364,-124 358,-124"/>
<text text-anchor="middle" x="315" y="-112" font-family="sans" font-size="10.00" fill="#000000">fastqc_raw</text>
<text text-anchor="middle" x="315" y="-101" font-family="sans" font-size="10.00" fill="#000000">adapter: CAGATC</text>
<text text-anchor="middle" x="315" y="-90" font-family="sans" font-size="10.00" fill="#000000">lane: L001</text>
<text text-anchor="middle" x="315" y="-79" font-family="sans" font-size="10.00" fill="#000000">sample: 5517_liver</text>
</g>
<!-- 3&#45;&gt;0 -->
<g id="edge3" class="edge">
<title>3&#45;&gt;0</title>
<path fill="none" stroke="#c0c0c0" stroke-width="2" d="M370.0223,-75.2322C373.0482,-74.11 376.0551,-73.025 379,-72 429.5461,-54.4071 489.1553,-37.7165 526.7666,-27.6695"/>
<polygon fill="#c0c0c0" stroke="#c0c0c0" stroke-width="2" points="527.9977,-30.964 536.7658,-25.0166 526.2026,-24.1981 527.9977,-30.964"/>
</g>
<!-- 4 -->
<g id="node5" class="node">
<title>4</title>
<path fill="none" stroke="#d85656" stroke-width="2" stroke-dasharray="5,2" d="M486,-124C486,-124 400,-124 400,-124 394,-124 388,-118 388,-112 388,-112 388,-84 388,-84 388,-78 394,-72 400,-72 400,-72 486,-72 486,-72 492,-72 498,-78 498,-84 498,-84 498,-112 498,-112 498,-118 492,-124 486,-124"/>
<text text-anchor="middle" x="443" y="-112" font-family="sans" font-size="10.00" fill="#000000">fastqc_raw</text>
<text text-anchor="middle" x="443" y="-101" font-family="sans" font-size="10.00" fill="#000000">adapter: CAGATC</text>
<text text-anchor="middle" x="443" y="-90" font-family="sans" font-size="10.00" fill="#000000">lane: L002</text>
<text text-anchor="middle" x="443" y="-79" font-family="sans" font-size="10.00" fill="#000000">sample: 5517_liver</text>
</g>
<!-- 4&#45;&gt;0 -->
<g id="edge4" class="edge">
<title>4&#45;&gt;0</title>
<path fill="none" stroke="#c0c0c0" stroke-width="2" d="M482.6199,-71.805C497.3458,-62.0689 513.9528,-51.089 528.3067,-41.5989"/>
<polygon fill="#c0c0c0" stroke="#c0c0c0" stroke-width="2" points="530.5045,-44.3416 536.9159,-35.9069 526.6439,-38.5025 530.5045,-44.3416"/>
</g>
<!-- 5 -->
<g id="node6" class="node">
<title>5</title>
<path fill="none" stroke="#d8bc56" stroke-width="2" stroke-dasharray="5,2" d="M399,-412C399,-412 337,-412 337,-412 331,-412 325,-406 325,-400 325,-400 325,-388 325,-388 325,-382 331,-376 337,-376 337,-376 399,-376 399,-376 405,-376 411,-382 411,-388 411,-388 411,-400 411,-400 411,-406 405,-412 399,-412"/>
<text text-anchor="middle" x="368" y="-391.5" font-family="sans" font-size="10.00" fill="#000000">fastqc_filtered</text>
</g>
<!-- 5&#45;&gt;0 -->
<g id="edge5" class="edge">
<title>5&#45;&gt;0</title>
<path fill="none" stroke="#c0c0c0" stroke-width="2" d="M411.013,-383.1212C468.7088,-365.6442 564,-325.3703 564,-250 564,-250 564,-250 564,-178 564,-132.031 564,-78.633 564,-46.6205"/>
<polygon fill="#c0c0c0" stroke="#c0c0c0" stroke-width="2" points="567.5001,-46.2363 564,-36.2363 560.5001,-46.2364 567.5001,-46.2363"/>
</g>
<!-- 6 -->
<g id="node7" class="node">
<title>6</title>
<path fill="none" stroke="#d8bc56" stroke-width="2" stroke-dasharray="5,2" d="M345,-340C345,-340 283,-340 283,-340 277,-340 271,-334 271,-328 271,-328 271,-316 271,-316 271,-310 277,-304 283,-304 283,-304 345,-304 345,-304 351,-304 357,-310 357,-316 357,-316 357,-328 357,-328 357,-334 351,-340 345,-340"/>
<text text-anchor="middle" x="314" y="-319.5" font-family="sans" font-size="10.00" fill="#000000">fastqc_filtered</text>
</g>
<!-- 6&#45;&gt;0 -->
<g id="edge6" class="edge">
<title>6&#45;&gt;0</title>
<path fill="none" stroke="#c0c0c0" stroke-width="2" d="M335.1114,-303.9677C372.8671,-270.9841 453.0454,-197.5365 507,-124 525.3042,-99.0526 541.505,-67.498 551.911,-45.328"/>
<polygon fill="#c0c0c0" stroke="#c0c0c0" stroke-width="2" points="555.132,-46.7011 556.1381,-36.1541 548.7744,-43.7717 555.132,-46.7011"/>
</g>
<!-- 7 -->
<g id="node8" class="node">
<title>7</title>
<path fill="none" stroke="#d8bc56" stroke-width="2" stroke-dasharray="5,2" d="M1330,-268C1330,-268 1268,-268 1268,-268 1262,-268 1256,-262 1256,-256 1256,-256 1256,-244 1256,-244 1256,-238 1262,-232 1268,-232 1268,-232 1330,-232 1330,-232 1336,-232 1342,-238 1342,-244 1342,-244 1342,-256 1342,-256 1342,-262 1336,-268 1330,-268"/>
<text text-anchor="middle" x="1299" y="-247.5" font-family="sans" font-size="10.00" fill="#000000">fastqc_filtered</text>
</g>
<!-- 7&#45;&gt;0 -->
<g id="edge7" class="edge">
<title>7&#45;&gt;0</title>
<path fill="none" stroke="#c0c0c0" stroke-width="2" d="M1255.7041,-232.4875C1170.1028,-198.3134 972.706,-121.7375 802,-72 731.8476,-51.5602 648.2043,-34.1532 601.083,-24.9688"/>
<polygon fill="#c0c0c0" stroke="#c0c0c0" stroke-width="2" points="601.5224,-21.489 591.04,-23.0282 600.1944,-28.3619 601.5224,-21.489"/>
</g>
<!-- 8 -->
<g id="node9" class="node">
<title>8</title>
<path fill="none" stroke="#d8bc56" stroke-width="2" stroke-dasharray="5,2" d="M1405,-196C1405,-196 1343,-196 1343,-196 1337,-196 1331,-190 1331,-184 1331,-184 1331,-172 1331,-172 1331,-166 1337,-160 1343,-160 1343,-160 1405,-160 1405,-160 1411,-160 1417,-166 1417,-172 1417,-172 1417,-184 1417,-184 1417,-190 1411,-196 1405,-196"/>
<text text-anchor="middle" x="1374" y="-175.5" font-family="sans" font-size="10.00" fill="#000000">fastqc_filtered</text>
</g>
<!-- 8&#45;&gt;0 -->
<g id="edge8" class="edge">
<title>8&#45;&gt;0</title>
<path fill="none" stroke="#c0c0c0" stroke-width="2" d="M1351.47,-159.9343C1319.1954,-135.1916 1256.9471,-91.6018 1196,-72 1084.1743,-36.0346 719.8148,-22.5111 601.4855,-19.0027"/>
<polygon fill="#c0c0c0" stroke="#c0c0c0" stroke-width="2" points="601.2349,-15.494 591.1378,-18.703 601.0322,-22.4911 601.2349,-15.494"/>
</g>
<!-- 9 -->
<g id="node10" class="node">
<title>9</title>
<path fill="none" stroke="#70d856" stroke-width="2" stroke-dasharray="5,2" d="M726,-116C726,-116 678,-116 678,-116 672,-116 666,-110 666,-104 666,-104 666,-92 666,-92 666,-86 672,-80 678,-80 678,-80 726,-80 726,-80 732,-80 738,-86 738,-92 738,-92 738,-104 738,-104 738,-110 732,-116 726,-116"/>
<text text-anchor="middle" x="702" y="-95.5" font-family="sans" font-size="10.00" fill="#000000">merge_VCF</text>
</g>
<!-- 9&#45;&gt;0 -->
<g id="edge9" class="edge">
<title>9&#45;&gt;0</title>
<path fill="none" stroke="#c0c0c0" stroke-width="2" d="M670.6857,-79.8468C649.7177,-67.6914 622.0521,-51.6534 600.1481,-38.9554"/>
<polygon fill="#c0c0c0" stroke="#c0c0c0" stroke-width="2" points="601.862,-35.9034 591.4552,-33.916 598.3512,-41.9594 601.862,-35.9034"/>
</g>
<!-- 10 -->
<g id="node11" class="node">
<title>10</title>
<path fill="none" stroke="#d86e56" stroke-width="2" stroke-dasharray="5,2" d="M683.5,-268C683.5,-268 604.5,-268 604.5,-268 598.5,-268 592.5,-262 592.5,-256 592.5,-256 592.5,-244 592.5,-244 592.5,-238 598.5,-232 604.5,-232 604.5,-232 683.5,-232 683.5,-232 689.5,-232 695.5,-238 695.5,-244 695.5,-244 695.5,-256 695.5,-256 695.5,-262 689.5,-268 683.5,-268"/>
<text text-anchor="middle" x="644" y="-247.5" font-family="sans" font-size="10.00" fill="#000000">make_single_VCF</text>
</g>
<!-- 10&#45;&gt;0 -->
<g id="edge10" class="edge">
<title>10&#45;&gt;0</title>
<path fill="none" stroke="#c0c0c0" stroke-width="2" d="M637.7225,-231.7953C623.7608,-191.3064 590.0668,-93.5936 573.5083,-45.5742"/>
<polygon fill="#c0c0c0" stroke="#c0c0c0" stroke-width="2" points="576.8171,-44.4328 570.2483,-36.1201 570.1995,-46.7148 576.8171,-44.4328"/>
</g>
<!-- 10&#45;&gt;9 -->
<g id="edge16" class="edge">
<title>10&#45;&gt;9</title>
<path fill="none" stroke="#c0c0c0" stroke-width="2" d="M644.6994,-231.7787C645.9451,-213.1342 649.4039,-183.629 659,-160 664.1726,-147.2632 672.3305,-134.5498 680.1569,-123.9811"/>
<polygon fill="#c0c0c0" stroke="#c0c0c0" stroke-width="2" points="682.9705,-126.064 686.2991,-116.0056 677.4245,-121.7928 682.9705,-126.064"/>
</g>
<!-- 16 -->
<g id="node17" class="node">
<title>16</title>
<path fill="none" stroke="#d6d856" stroke-width="2" stroke-dasharray="5,2" d="M724,-196C724,-196 680,-196 680,-196 674,-196 668,-190 668,-184 668,-184 668,-172 668,-172 668,-166 674,-160 680,-160 680,-160 724,-160 724,-160 730,-160 736,-166 736,-172 736,-172 736,-184 736,-184 736,-190 730,-196 724,-196"/>
<text text-anchor="middle" x="702" y="-175.5" font-family="sans" font-size="10.00" fill="#000000">index_VCF</text>
</g>
<!-- 10&#45;&gt;16 -->
<g id="edge24" class="edge">
<title>10&#45;&gt;16</title>
<path fill="none" stroke="#c0c0c0" stroke-width="2" d="M658.6358,-231.8314C665.3161,-223.5386 673.3568,-213.557 680.6904,-204.4533"/>
<polygon fill="#c0c0c0" stroke="#c0c0c0" stroke-width="2" points="683.6194,-206.3965 687.1671,-196.4133 678.1681,-202.0052 683.6194,-206.3965"/>
</g>
<!-- 11 -->
<g id="node12" class="node">
<title>11</title>
<path fill="none" stroke="#d86e56" stroke-width="2" stroke-dasharray="5,2" d="M889.5,-268C889.5,-268 810.5,-268 810.5,-268 804.5,-268 798.5,-262 798.5,-256 798.5,-256 798.5,-244 798.5,-244 798.5,-238 804.5,-232 810.5,-232 810.5,-232 889.5,-232 889.5,-232 895.5,-232 901.5,-238 901.5,-244 901.5,-244 901.5,-256 901.5,-256 901.5,-262 895.5,-268 889.5,-268"/>
<text text-anchor="middle" x="850" y="-247.5" font-family="sans" font-size="10.00" fill="#000000">make_single_VCF</text>
</g>
<!-- 11&#45;&gt;0 -->
<g id="edge11" class="edge">
<title>11&#45;&gt;0</title>
<path fill="none" stroke="#c0c0c0" stroke-width="2" d="M854.9417,-231.7882C859.062,-212.8897 862.7069,-182.9434 852,-160 826.251,-104.8235 800.6599,-100.7762 747,-72 699.9033,-46.7435 639.488,-31.874 601.2457,-24.3305"/>
<polygon fill="#c0c0c0" stroke="#c0c0c0" stroke-width="2" points="601.5551,-20.8266 591.0769,-22.3945 600.2459,-27.7031 601.5551,-20.8266"/>
</g>
<!-- 11&#45;&gt;9 -->
<g id="edge17" class="edge">
<title>11&#45;&gt;9</title>
<path fill="none" stroke="#c0c0c0" stroke-width="2" d="M850.6711,-231.8258C850.4584,-212.1242 847.2678,-180.7281 831,-160 810.4156,-133.7717 775.9702,-118.0052 747.849,-108.9391"/>
<polygon fill="#c0c0c0" stroke="#c0c0c0" stroke-width="2" points="748.7848,-105.5655 738.1991,-106.0056 746.7488,-112.2629 748.7848,-105.5655"/>
</g>
<!-- 17 -->
<g id="node18" class="node">
<title>17</title>
<path fill="none" stroke="#d6d856" stroke-width="2" stroke-dasharray="5,2" d="M810,-196C810,-196 766,-196 766,-196 760,-196 754,-190 754,-184 754,-184 754,-172 754,-172 754,-166 760,-160 766,-160 766,-160 810,-160 810,-160 816,-160 822,-166 822,-172 822,-172 822,-184 822,-184 822,-190 816,-196 810,-196"/>
<text text-anchor="middle" x="788" y="-175.5" font-family="sans" font-size="10.00" fill="#000000">index_VCF</text>
</g>
<!-- 11&#45;&gt;17 -->
<g id="edge25" class="edge">
<title>11&#45;&gt;17</title>
<path fill="none" stroke="#c0c0c0" stroke-width="2" d="M834.3548,-231.8314C827.1409,-223.454 818.443,-213.3531 810.5395,-204.1749"/>
<polygon fill="#c0c0c0" stroke="#c0c0c0" stroke-width="2" points="813.0333,-201.7071 803.8559,-196.4133 807.7289,-206.2748 813.0333,-201.7071"/>
</g>
<!-- 12 -->
<g id="node13" class="node">
<title>12</title>
<path fill="none" stroke="#d8a456" stroke-width="2" stroke-dasharray="5,2" d="M476,-1009C476,-1009 388,-1009 388,-1009 382,-1009 376,-1003 376,-997 376,-997 376,-969 376,-969 376,-963 382,-957 388,-957 388,-957 476,-957 476,-957 482,-957 488,-963 488,-969 488,-969 488,-997 488,-997 488,-1003 482,-1009 476,-1009"/>
<text text-anchor="middle" x="432" y="-997" font-family="sans" font-size="10.00" fill="#000000">trimmomatic</text>
<text text-anchor="middle" x="432" y="-986" font-family="sans" font-size="10.00" fill="#000000">adapter: ATCACG</text>
<text text-anchor="middle" x="432" y="-975" font-family="sans" font-size="10.00" fill="#000000">lane: L003</text>
<text text-anchor="middle" x="432" y="-964" font-family="sans" font-size="10.00" fill="#000000">sample: 5517_hypo</text>
</g>
<!-- 12&#45;&gt;5 -->
<g id="edge12" class="edge">
<title>12&#45;&gt;5</title>
<path fill="none" stroke="#c0c0c0" stroke-width="2" d="M375.857,-976.345C308.9918,-967.2805 202.8256,-948.9155 175,-921 145.1673,-891.0711 153,-870.7579 153,-828.5 153,-828.5 153,-828.5 153,-538 153,-460.2819 251.1807,-421.8434 314.8485,-405.0876"/>
<polygon fill="#c0c0c0" stroke="#c0c0c0" stroke-width="2" points="315.9144,-408.4282 324.7502,-402.5818 314.1971,-401.6422 315.9144,-408.4282"/>
</g>
<!-- 38 -->
<g id="node39" class="node">
<title>38</title>
<path fill="none" stroke="#56a2d8" stroke-width="2" stroke-dasharray="5,2" d="M618,-921C618,-921 462,-921 462,-921 456,-921 450,-915 450,-909 450,-909 450,-897 450,-897 450,-891 456,-885 462,-885 462,-885 618,-885 618,-885 624,-885 630,-891 630,-897 630,-897 630,-909 630,-909 630,-915 624,-921 618,-921"/>
<text text-anchor="middle" x="540" y="-906" font-family="sans" font-size="10.00" fill="#000000">map_MT_PE_SE</text>
<text text-anchor="middle" x="540" y="-895" font-family="sans" font-size="10.00" fill="#000000">ref_genome_n: GCF_000002315.5</text>
</g>
<!-- 12&#45;&gt;38 -->
<g id="edge57" class="edge">
<title>12&#45;&gt;38</title>
<path fill="none" stroke="#c0c0c0" stroke-width="2" d="M467.3632,-956.805C480.159,-947.3266 494.5462,-936.6695 507.1198,-927.3557"/>
<polygon fill="#c0c0c0" stroke="#c0c0c0" stroke-width="2" points="509.5408,-929.918 515.4931,-921.1532 505.3742,-924.2931 509.5408,-929.918"/>
</g>
<!-- 13 -->
<g id="node14" class="node">
<title>13</title>
<path fill="none" stroke="#d8a456" stroke-width="2" stroke-dasharray="5,2" d="M237,-1009C237,-1009 149,-1009 149,-1009 143,-1009 137,-1003 137,-997 137,-997 137,-969 137,-969 137,-963 143,-957 149,-957 149,-957 237,-957 237,-957 243,-957 249,-963 249,-969 249,-969 249,-997 249,-997 249,-1003 243,-1009 237,-1009"/>
<text text-anchor="middle" x="193" y="-997" font-family="sans" font-size="10.00" fill="#000000">trimmomatic</text>
<text text-anchor="middle" x="193" y="-986" font-family="sans" font-size="10.00" fill="#000000">adapter: ATCACG</text>
<text text-anchor="middle" x="193" y="-975" font-family="sans" font-size="10.00" fill="#000000">lane: L004</text>
<text text-anchor="middle" x="193" y="-964" font-family="sans" font-size="10.00" fill="#000000">sample: 5517_hypo</text>
</g>
<!-- 13&#45;&gt;6 -->
<g id="edge13" class="edge">
<title>13&#45;&gt;6</title>
<path fill="none" stroke="#c0c0c0" stroke-width="2" d="M170.2295,-956.8402C147.2067,-927.6273 115,-877.928 115,-828.5 115,-828.5 115,-828.5 115,-466 115,-393.8398 201.9421,-354.1597 260.8922,-335.5487"/>
<polygon fill="#c0c0c0" stroke="#c0c0c0" stroke-width="2" points="262.2718,-338.7874 270.82,-332.528 260.2342,-332.0905 262.2718,-338.7874"/>
</g>
<!-- 41 -->
<g id="node42" class="node">
<title>41</title>
<path fill="none" stroke="#56a2d8" stroke-width="2" stroke-dasharray="5,2" d="M352,-921C352,-921 196,-921 196,-921 190,-921 184,-915 184,-909 184,-909 184,-897 184,-897 184,-891 190,-885 196,-885 196,-885 352,-885 352,-885 358,-885 364,-891 364,-897 364,-897 364,-909 364,-909 364,-915 358,-921 352,-921"/>
<text text-anchor="middle" x="274" y="-906" font-family="sans" font-size="10.00" fill="#000000">map_MT_PE_SE</text>
<text text-anchor="middle" x="274" y="-895" font-family="sans" font-size="10.00" fill="#000000">ref_genome_n: GCF_000002315.5</text>
</g>
<!-- 13&#45;&gt;41 -->
<g id="edge63" class="edge">
<title>13&#45;&gt;41</title>
<path fill="none" stroke="#c0c0c0" stroke-width="2" d="M219.5224,-956.805C228.7502,-947.6912 239.0814,-937.4875 248.2459,-928.4362"/>
<polygon fill="#c0c0c0" stroke="#c0c0c0" stroke-width="2" points="250.9644,-930.6705 255.6198,-921.1532 246.0455,-925.6901 250.9644,-930.6705"/>
</g>
<!-- 14 -->
<g id="node15" class="node">
<title>14</title>
<path fill="none" stroke="#d8a456" stroke-width="2" stroke-dasharray="5,2" d="M1315,-1009C1315,-1009 1229,-1009 1229,-1009 1223,-1009 1217,-1003 1217,-997 1217,-997 1217,-969 1217,-969 1217,-963 1223,-957 1229,-957 1229,-957 1315,-957 1315,-957 1321,-957 1327,-963 1327,-969 1327,-969 1327,-997 1327,-997 1327,-1003 1321,-1009 1315,-1009"/>
<text text-anchor="middle" x="1272" y="-997" font-family="sans" font-size="10.00" fill="#000000">trimmomatic</text>
<text text-anchor="middle" x="1272" y="-986" font-family="sans" font-size="10.00" fill="#000000">adapter: CAGATC</text>
<text text-anchor="middle" x="1272" y="-975" font-family="sans" font-size="10.00" fill="#000000">lane: L001</text>
<text text-anchor="middle" x="1272" y="-964" font-family="sans" font-size="10.00" fill="#000000">sample: 5517_liver</text>
</g>
<!-- 14&#45;&gt;7 -->
<g id="edge14" class="edge">
<title>14&#45;&gt;7</title>
<path fill="none" stroke="#c0c0c0" stroke-width="2" d="M1327.1352,-962.8807C1371.5785,-946.4461 1427.2918,-925.2601 1431,-921 1458.7448,-889.1259 1453,-870.7579 1453,-828.5 1453,-828.5 1453,-828.5 1453,-394 1453,-336.9832 1395.9835,-296.0384 1351.3363,-272.7167"/>
<polygon fill="#c0c0c0" stroke="#c0c0c0" stroke-width="2" points="1352.8104,-269.54 1342.3074,-268.148 1349.6499,-275.7859 1352.8104,-269.54"/>
</g>
<!-- 44 -->
<g id="node45" class="node">
<title>44</title>
<path fill="none" stroke="#56a2d8" stroke-width="2" stroke-dasharray="5,2" d="M1107,-921C1107,-921 951,-921 951,-921 945,-921 939,-915 939,-909 939,-909 939,-897 939,-897 939,-891 945,-885 951,-885 951,-885 1107,-885 1107,-885 1113,-885 1119,-891 1119,-897 1119,-897 1119,-909 1119,-909 1119,-915 1113,-921 1107,-921"/>
<text text-anchor="middle" x="1029" y="-906" font-family="sans" font-size="10.00" fill="#000000">map_MT_PE_SE</text>
<text text-anchor="middle" x="1029" y="-895" font-family="sans" font-size="10.00" fill="#000000">ref_genome_n: GCF_000002315.5</text>
</g>
<!-- 14&#45;&gt;44 -->
<g id="edge69" class="edge">
<title>14&#45;&gt;44</title>
<path fill="none" stroke="#c0c0c0" stroke-width="2" d="M1216.8595,-964.8468C1180.198,-952.7771 1131.9086,-936.8794 1093.4696,-924.2246"/>
<polygon fill="#c0c0c0" stroke="#c0c0c0" stroke-width="2" points="1094.5152,-920.8841 1083.9222,-921.0814 1092.3262,-927.533 1094.5152,-920.8841"/>
</g>
<!-- 15 -->
<g id="node16" class="node">
<title>15</title>
<path fill="none" stroke="#d8a456" stroke-width="2" stroke-dasharray="5,2" d="M1454,-1009C1454,-1009 1368,-1009 1368,-1009 1362,-1009 1356,-1003 1356,-997 1356,-997 1356,-969 1356,-969 1356,-963 1362,-957 1368,-957 1368,-957 1454,-957 1454,-957 1460,-957 1466,-963 1466,-969 1466,-969 1466,-997 1466,-997 1466,-1003 1460,-1009 1454,-1009"/>
<text text-anchor="middle" x="1411" y="-997" font-family="sans" font-size="10.00" fill="#000000">trimmomatic</text>
<text text-anchor="middle" x="1411" y="-986" font-family="sans" font-size="10.00" fill="#000000">adapter: CAGATC</text>
<text text-anchor="middle" x="1411" y="-975" font-family="sans" font-size="10.00" fill="#000000">lane: L002</text>
<text text-anchor="middle" x="1411" y="-964" font-family="sans" font-size="10.00" fill="#000000">sample: 5517_liver</text>
</g>
<!-- 15&#45;&gt;8 -->
<g id="edge15" class="edge">
<title>15&#45;&gt;8</title>
<path fill="none" stroke="#c0c0c0" stroke-width="2" d="M1434.3544,-956.9399C1457.9675,-927.8132 1491,-878.188 1491,-828.5 1491,-828.5 1491,-828.5 1491,-322 1491,-270.6273 1445.591,-227.3755 1411.3513,-202.0645"/>
<polygon fill="#c0c0c0" stroke="#c0c0c0" stroke-width="2" points="1413.0881,-199.0032 1402.9214,-196.022 1409.01,-204.6926 1413.0881,-199.0032"/>
</g>
<!-- 47 -->
<g id="node48" class="node">
<title>47</title>
<path fill="none" stroke="#56a2d8" stroke-width="2" stroke-dasharray="5,2" d="M1410,-921C1410,-921 1254,-921 1254,-921 1248,-921 1242,-915 1242,-909 1242,-909 1242,-897 1242,-897 1242,-891 1248,-885 1254,-885 1254,-885 1410,-885 1410,-885 1416,-885 1422,-891 1422,-897 1422,-897 1422,-909 1422,-909 1422,-915 1416,-921 1410,-921"/>
<text text-anchor="middle" x="1332" y="-906" font-family="sans" font-size="10.00" fill="#000000">map_MT_PE_SE</text>
<text text-anchor="middle" x="1332" y="-895" font-family="sans" font-size="10.00" fill="#000000">ref_genome_n: GCF_000002315.5</text>
</g>
<!-- 15&#45;&gt;47 -->
<g id="edge75" class="edge">
<title>15&#45;&gt;47</title>
<path fill="none" stroke="#c0c0c0" stroke-width="2" d="M1385.1324,-956.805C1376.1325,-947.6912 1366.0565,-937.4875 1357.1182,-928.4362"/>
<polygon fill="#c0c0c0" stroke="#c0c0c0" stroke-width="2" points="1359.4432,-925.8094 1349.9263,-921.1532 1354.4624,-930.7279 1359.4432,-925.8094"/>
</g>
<!-- 16&#45;&gt;9 -->
<g id="edge18" class="edge">
<title>16&#45;&gt;9</title>
<path fill="none" stroke="#c0c0c0" stroke-width="2" d="M702,-159.8468C702,-149.9251 702,-137.4167 702,-126.2492"/>
<polygon fill="#c0c0c0" stroke="#c0c0c0" stroke-width="2" points="705.5001,-126.0814 702,-116.0814 698.5001,-126.0814 705.5001,-126.0814"/>
</g>
<!-- 17&#45;&gt;9 -->
<g id="edge19" class="edge">
<title>17&#45;&gt;9</title>
<path fill="none" stroke="#c0c0c0" stroke-width="2" d="M768.4853,-159.8468C756.8299,-149.0045 741.8537,-135.0732 729.0669,-123.1785"/>
<polygon fill="#c0c0c0" stroke="#c0c0c0" stroke-width="2" points="731.1433,-120.3298 721.4375,-116.0814 726.3755,-125.4551 731.1433,-120.3298"/>
</g>
<!-- 18 -->
<g id="node19" class="node">
<title>18</title>
<path fill="none" stroke="#56d8d8" stroke-width="2" stroke-dasharray="5,2" d="M627.5,-484C627.5,-484 576.5,-484 576.5,-484 570.5,-484 564.5,-478 564.5,-472 564.5,-472 564.5,-460 564.5,-460 564.5,-454 570.5,-448 576.5,-448 576.5,-448 627.5,-448 627.5,-448 633.5,-448 639.5,-454 639.5,-460 639.5,-460 639.5,-472 639.5,-472 639.5,-478 633.5,-484 627.5,-484"/>
<text text-anchor="middle" x="602" y="-463.5" font-family="sans" font-size="10.00" fill="#000000">merge_bam</text>
</g>
<!-- 18&#45;&gt;10 -->
<g id="edge20" class="edge">
<title>18&#45;&gt;10</title>
<path fill="none" stroke="#c0c0c0" stroke-width="2" d="M602.4511,-447.7049C603.5732,-417.3572 607.4744,-354.9048 621,-304 623.3698,-295.0812 626.9412,-285.7147 630.5676,-277.3335"/>
<polygon fill="#c0c0c0" stroke="#c0c0c0" stroke-width="2" points="633.8424,-278.5862 634.7812,-268.0331 627.4663,-275.6975 633.8424,-278.5862"/>
</g>
<!-- 24 -->
<g id="node25" class="node">
<title>24</title>
<path fill="none" stroke="#56d873" stroke-width="2" stroke-dasharray="5,2" d="M703,-412C703,-412 653,-412 653,-412 647,-412 641,-406 641,-400 641,-400 641,-388 641,-388 641,-382 647,-376 653,-376 653,-376 703,-376 703,-376 709,-376 715,-382 715,-388 715,-388 715,-400 715,-400 715,-406 709,-412 703,-412"/>
<text text-anchor="middle" x="678" y="-391.5" font-family="sans" font-size="10.00" fill="#000000">bam2pileup</text>
</g>
<!-- 18&#45;&gt;24 -->
<g id="edge34" class="edge">
<title>18&#45;&gt;24</title>
<path fill="none" stroke="#c0c0c0" stroke-width="2" d="M621.178,-447.8314C630.3588,-439.1337 641.5006,-428.5783 651.4776,-419.1265"/>
<polygon fill="#c0c0c0" stroke="#c0c0c0" stroke-width="2" points="653.9757,-421.5811 658.8281,-412.1628 649.1615,-416.4995 653.9757,-421.5811"/>
</g>
<!-- 19 -->
<g id="node20" class="node">
<title>19</title>
<path fill="none" stroke="#88d856" stroke-width="2" stroke-dasharray="5,2" d="M714,-340C714,-340 642,-340 642,-340 636,-340 630,-334 630,-328 630,-328 630,-316 630,-316 630,-310 636,-304 642,-304 642,-304 714,-304 714,-304 720,-304 726,-310 726,-316 726,-316 726,-328 726,-328 726,-334 720,-340 714,-340"/>
<text text-anchor="middle" x="678" y="-319.5" font-family="sans" font-size="10.00" fill="#000000">pileup2mt_table</text>
</g>
<!-- 19&#45;&gt;10 -->
<g id="edge21" class="edge">
<title>19&#45;&gt;10</title>
<path fill="none" stroke="#c0c0c0" stroke-width="2" d="M669.4204,-303.8314C665.6642,-295.8771 661.1743,-286.369 657.0202,-277.5723"/>
<polygon fill="#c0c0c0" stroke="#c0c0c0" stroke-width="2" points="660.1301,-275.9612 652.6952,-268.4133 653.8004,-278.9503 660.1301,-275.9612"/>
</g>
<!-- 20 -->
<g id="node21" class="node">
<title>20</title>
<path fill="none" stroke="#56d8d8" stroke-width="2" stroke-dasharray="5,2" d="M958.5,-484C958.5,-484 907.5,-484 907.5,-484 901.5,-484 895.5,-478 895.5,-472 895.5,-472 895.5,-460 895.5,-460 895.5,-454 901.5,-448 907.5,-448 907.5,-448 958.5,-448 958.5,-448 964.5,-448 970.5,-454 970.5,-460 970.5,-460 970.5,-472 970.5,-472 970.5,-478 964.5,-484 958.5,-484"/>
<text text-anchor="middle" x="933" y="-463.5" font-family="sans" font-size="10.00" fill="#000000">merge_bam</text>
</g>
<!-- 20&#45;&gt;11 -->
<g id="edge22" class="edge">
<title>20&#45;&gt;11</title>
<path fill="none" stroke="#c0c0c0" stroke-width="2" d="M933.7635,-447.8057C934.3049,-416.5258 932.0031,-351.3564 907,-304 901.2898,-293.1848 892.5811,-283.3178 883.6769,-275.0626"/>
<polygon fill="#c0c0c0" stroke="#c0c0c0" stroke-width="2" points="885.7045,-272.1863 875.8721,-268.2398 881.0973,-277.4565 885.7045,-272.1863"/>
</g>
<!-- 27 -->
<g id="node28" class="node">
<title>27</title>
<path fill="none" stroke="#56d873" stroke-width="2" stroke-dasharray="5,2" d="M875,-412C875,-412 825,-412 825,-412 819,-412 813,-406 813,-400 813,-400 813,-388 813,-388 813,-382 819,-376 825,-376 825,-376 875,-376 875,-376 881,-376 887,-382 887,-388 887,-388 887,-400 887,-400 887,-406 881,-412 875,-412"/>
<text text-anchor="middle" x="850" y="-391.5" font-family="sans" font-size="10.00" fill="#000000">bam2pileup</text>
</g>
<!-- 20&#45;&gt;27 -->
<g id="edge38" class="edge">
<title>20&#45;&gt;27</title>
<path fill="none" stroke="#c0c0c0" stroke-width="2" d="M912.0556,-447.8314C901.9309,-439.0485 889.6223,-428.3712 878.6452,-418.8489"/>
<polygon fill="#c0c0c0" stroke="#c0c0c0" stroke-width="2" points="880.7851,-416.0718 870.9377,-412.1628 876.1981,-421.3595 880.7851,-416.0718"/>
</g>
<!-- 21 -->
<g id="node22" class="node">
<title>21</title>
<path fill="none" stroke="#88d856" stroke-width="2" stroke-dasharray="5,2" d="M886,-340C886,-340 814,-340 814,-340 808,-340 802,-334 802,-328 802,-328 802,-316 802,-316 802,-310 808,-304 814,-304 814,-304 886,-304 886,-304 892,-304 898,-310 898,-316 898,-316 898,-328 898,-328 898,-334 892,-340 886,-340"/>
<text text-anchor="middle" x="850" y="-319.5" font-family="sans" font-size="10.00" fill="#000000">pileup2mt_table</text>
</g>
<!-- 21&#45;&gt;11 -->
<g id="edge23" class="edge">
<title>21&#45;&gt;11</title>
<path fill="none" stroke="#c0c0c0" stroke-width="2" d="M850,-303.8314C850,-296.131 850,-286.9743 850,-278.4166"/>
<polygon fill="#c0c0c0" stroke="#c0c0c0" stroke-width="2" points="853.5001,-278.4132 850,-268.4133 846.5001,-278.4133 853.5001,-278.4132"/>
</g>
<!-- 22 -->
<g id="node23" class="node">
<title>22</title>
<path fill="none" stroke="#56d8a2" stroke-width="2" stroke-dasharray="5,2" d="M620,-556C620,-556 582,-556 582,-556 576,-556 570,-550 570,-544 570,-544 570,-532 570,-532 570,-526 576,-520 582,-520 582,-520 620,-520 620,-520 626,-520 632,-526 632,-532 632,-532 632,-544 632,-544 632,-550 626,-556 620,-556"/>
<text text-anchor="middle" x="601" y="-535.5" font-family="sans" font-size="10.00" fill="#000000">sort_bam</text>
</g>
<!-- 22&#45;&gt;18 -->
<g id="edge26" class="edge">
<title>22&#45;&gt;18</title>
<path fill="none" stroke="#c0c0c0" stroke-width="2" d="M601.2523,-519.8314C601.3593,-512.131 601.4865,-502.9743 601.6053,-494.4166"/>
<polygon fill="#c0c0c0" stroke="#c0c0c0" stroke-width="2" points="605.1049,-494.4609 601.7443,-484.4133 598.1056,-494.3637 605.1049,-494.4609"/>
</g>
<!-- 23 -->
<g id="node24" class="node">
<title>23</title>
<path fill="none" stroke="#56d8a2" stroke-width="2" stroke-dasharray="5,2" d="M491,-556C491,-556 453,-556 453,-556 447,-556 441,-550 441,-544 441,-544 441,-532 441,-532 441,-526 447,-520 453,-520 453,-520 491,-520 491,-520 497,-520 503,-526 503,-532 503,-532 503,-544 503,-544 503,-550 497,-556 491,-556"/>
<text text-anchor="middle" x="472" y="-535.5" font-family="sans" font-size="10.00" fill="#000000">sort_bam</text>
</g>
<!-- 23&#45;&gt;18 -->
<g id="edge27" class="edge">
<title>23&#45;&gt;18</title>
<path fill="none" stroke="#c0c0c0" stroke-width="2" d="M503.1382,-520.7542C520.3093,-511.2441 541.8544,-499.3114 560.4449,-489.0151"/>
<polygon fill="#c0c0c0" stroke="#c0c0c0" stroke-width="2" points="562.2496,-492.0166 569.3017,-484.1098 558.858,-485.8931 562.2496,-492.0166"/>
</g>
<!-- 24&#45;&gt;19 -->
<g id="edge28" class="edge">
<title>24&#45;&gt;19</title>
<path fill="none" stroke="#c0c0c0" stroke-width="2" d="M678,-375.8314C678,-368.131 678,-358.9743 678,-350.4166"/>
<polygon fill="#c0c0c0" stroke="#c0c0c0" stroke-width="2" points="681.5001,-350.4132 678,-340.4133 674.5001,-350.4133 681.5001,-350.4132"/>
</g>
<!-- 25 -->
<g id="node26" class="node">
<title>25</title>
<path fill="none" stroke="#56d8a2" stroke-width="2" stroke-dasharray="5,2" d="M953,-556C953,-556 915,-556 915,-556 909,-556 903,-550 903,-544 903,-544 903,-532 903,-532 903,-526 909,-520 915,-520 915,-520 953,-520 953,-520 959,-520 965,-526 965,-532 965,-532 965,-544 965,-544 965,-550 959,-556 953,-556"/>
<text text-anchor="middle" x="934" y="-535.5" font-family="sans" font-size="10.00" fill="#000000">sort_bam</text>
</g>
<!-- 25&#45;&gt;20 -->
<g id="edge29" class="edge">
<title>25&#45;&gt;20</title>
<path fill="none" stroke="#c0c0c0" stroke-width="2" d="M933.7477,-519.8314C933.6407,-512.131 933.5135,-502.9743 933.3947,-494.4166"/>
<polygon fill="#c0c0c0" stroke="#c0c0c0" stroke-width="2" points="936.8944,-494.3637 933.2557,-484.4133 929.8951,-494.4609 936.8944,-494.3637"/>
</g>
<!-- 26 -->
<g id="node27" class="node">
<title>26</title>
<path fill="none" stroke="#56d8a2" stroke-width="2" stroke-dasharray="5,2" d="M1170,-556C1170,-556 1132,-556 1132,-556 1126,-556 1120,-550 1120,-544 1120,-544 1120,-532 1120,-532 1120,-526 1126,-520 1132,-520 1132,-520 1170,-520 1170,-520 1176,-520 1182,-526 1182,-532 1182,-532 1182,-544 1182,-544 1182,-550 1176,-556 1170,-556"/>
<text text-anchor="middle" x="1151" y="-535.5" font-family="sans" font-size="10.00" fill="#000000">sort_bam</text>
</g>
<!-- 26&#45;&gt;20 -->
<g id="edge30" class="edge">
<title>26&#45;&gt;20</title>
<path fill="none" stroke="#c0c0c0" stroke-width="2" d="M1119.7659,-527.6842C1083.285,-515.6354 1022.5541,-495.5775 980.2873,-481.6178"/>
<polygon fill="#c0c0c0" stroke="#c0c0c0" stroke-width="2" points="981.3597,-478.2861 970.7666,-478.4734 979.1644,-484.933 981.3597,-478.2861"/>
</g>
<!-- 27&#45;&gt;21 -->
<g id="edge31" class="edge">
<title>27&#45;&gt;21</title>
<path fill="none" stroke="#c0c0c0" stroke-width="2" d="M850,-375.8314C850,-368.131 850,-358.9743 850,-350.4166"/>
<polygon fill="#c0c0c0" stroke="#c0c0c0" stroke-width="2" points="853.5001,-350.4132 850,-340.4133 846.5001,-350.4133 853.5001,-350.4132"/>
</g>
<!-- 28 -->
<g id="node29" class="node">
<title>28</title>
<path fill="none" stroke="#bed856" stroke-width="2" stroke-dasharray="5,2" d="M607.5,-628C607.5,-628 566.5,-628 566.5,-628 560.5,-628 554.5,-622 554.5,-616 554.5,-616 554.5,-604 554.5,-604 554.5,-598 560.5,-592 566.5,-592 566.5,-592 607.5,-592 607.5,-592 613.5,-592 619.5,-598 619.5,-604 619.5,-604 619.5,-616 619.5,-616 619.5,-622 613.5,-628 607.5,-628"/>
<text text-anchor="middle" x="587" y="-607.5" font-family="sans" font-size="10.00" fill="#000000">sam2bam</text>
</g>
<!-- 28&#45;&gt;22 -->
<g id="edge32" class="edge">
<title>28&#45;&gt;22</title>
<path fill="none" stroke="#c0c0c0" stroke-width="2" d="M590.5328,-591.8314C592.0301,-584.131 593.8105,-574.9743 595.4745,-566.4166"/>
<polygon fill="#c0c0c0" stroke="#c0c0c0" stroke-width="2" points="598.9465,-566.8975 597.4196,-556.4133 592.0752,-565.5614 598.9465,-566.8975"/>
</g>
<!-- 29 -->
<g id="node30" class="node">
<title>29</title>
<path fill="none" stroke="#bed856" stroke-width="2" stroke-dasharray="5,2" d="M444.5,-628C444.5,-628 403.5,-628 403.5,-628 397.5,-628 391.5,-622 391.5,-616 391.5,-616 391.5,-604 391.5,-604 391.5,-598 397.5,-592 403.5,-592 403.5,-592 444.5,-592 444.5,-592 450.5,-592 456.5,-598 456.5,-604 456.5,-604 456.5,-616 456.5,-616 456.5,-622 450.5,-628 444.5,-628"/>
<text text-anchor="middle" x="424" y="-607.5" font-family="sans" font-size="10.00" fill="#000000">sam2bam</text>
</g>
<!-- 29&#45;&gt;23 -->
<g id="edge33" class="edge">
<title>29&#45;&gt;23</title>
<path fill="none" stroke="#c0c0c0" stroke-width="2" d="M436.1124,-591.8314C441.5281,-583.7079 448.0242,-573.9637 453.9921,-565.0118"/>
<polygon fill="#c0c0c0" stroke="#c0c0c0" stroke-width="2" points="457.0896,-566.6753 459.7245,-556.4133 451.2653,-562.7923 457.0896,-566.6753"/>
</g>
<!-- 30 -->
<g id="node31" class="node">
<title>30</title>
<path fill="none" stroke="#d88d56" stroke-width="2" stroke-dasharray="5,2" d="M835.5,-484C835.5,-484 770.5,-484 770.5,-484 764.5,-484 758.5,-478 758.5,-472 758.5,-472 758.5,-460 758.5,-460 758.5,-454 764.5,-448 770.5,-448 770.5,-448 835.5,-448 835.5,-448 841.5,-448 847.5,-454 847.5,-460 847.5,-460 847.5,-472 847.5,-472 847.5,-478 841.5,-484 835.5,-484"/>
<text text-anchor="middle" x="803" y="-463.5" font-family="sans" font-size="10.00" fill="#000000">index_genome</text>
</g>
<!-- 30&#45;&gt;24 -->
<g id="edge35" class="edge">
<title>30&#45;&gt;24</title>
<path fill="none" stroke="#c0c0c0" stroke-width="2" d="M771.4572,-447.8314C755.3209,-438.5368 735.5014,-427.1208 718.2728,-417.1971"/>
<polygon fill="#c0c0c0" stroke="#c0c0c0" stroke-width="2" points="719.945,-414.1212 709.5327,-412.1628 716.4511,-420.187 719.945,-414.1212"/>
</g>
<!-- 30&#45;&gt;27 -->
<g id="edge39" class="edge">
<title>30&#45;&gt;27</title>
<path fill="none" stroke="#c0c0c0" stroke-width="2" d="M814.8601,-447.8314C820.1629,-439.7079 826.5237,-429.9637 832.3673,-421.0118"/>
<polygon fill="#c0c0c0" stroke="#c0c0c0" stroke-width="2" points="835.4448,-422.7003 837.9802,-412.4133 829.5831,-418.8739 835.4448,-422.7003"/>
</g>
<!-- 31 -->
<g id="node32" class="node">
<title>31</title>
<path fill="none" stroke="#bed856" stroke-width="2" stroke-dasharray="5,2" d="M1012.5,-628C1012.5,-628 971.5,-628 971.5,-628 965.5,-628 959.5,-622 959.5,-616 959.5,-616 959.5,-604 959.5,-604 959.5,-598 965.5,-592 971.5,-592 971.5,-592 1012.5,-592 1012.5,-592 1018.5,-592 1024.5,-598 1024.5,-604 1024.5,-604 1024.5,-616 1024.5,-616 1024.5,-622 1018.5,-628 1012.5,-628"/>
<text text-anchor="middle" x="992" y="-607.5" font-family="sans" font-size="10.00" fill="#000000">sam2bam</text>
</g>
<!-- 31&#45;&gt;25 -->
<g id="edge36" class="edge">
<title>31&#45;&gt;25</title>
<path fill="none" stroke="#c0c0c0" stroke-width="2" d="M977.3642,-591.8314C970.6839,-583.5386 962.6432,-573.557 955.3096,-564.4533"/>
<polygon fill="#c0c0c0" stroke="#c0c0c0" stroke-width="2" points="957.8319,-562.0052 948.8329,-556.4133 952.3806,-566.3965 957.8319,-562.0052"/>
</g>
<!-- 32 -->
<g id="node33" class="node">
<title>32</title>
<path fill="none" stroke="#bed856" stroke-width="2" stroke-dasharray="5,2" d="M1238.5,-628C1238.5,-628 1197.5,-628 1197.5,-628 1191.5,-628 1185.5,-622 1185.5,-616 1185.5,-616 1185.5,-604 1185.5,-604 1185.5,-598 1191.5,-592 1197.5,-592 1197.5,-592 1238.5,-592 1238.5,-592 1244.5,-592 1250.5,-598 1250.5,-604 1250.5,-604 1250.5,-616 1250.5,-616 1250.5,-622 1244.5,-628 1238.5,-628"/>
<text text-anchor="middle" x="1218" y="-607.5" font-family="sans" font-size="10.00" fill="#000000">sam2bam</text>
</g>
<!-- 32&#45;&gt;26 -->
<g id="edge37" class="edge">
<title>32&#45;&gt;26</title>
<path fill="none" stroke="#c0c0c0" stroke-width="2" d="M1201.0931,-591.8314C1193.2187,-583.3694 1183.708,-573.1489 1175.0987,-563.8971"/>
<polygon fill="#c0c0c0" stroke="#c0c0c0" stroke-width="2" points="1177.5092,-561.3497 1168.1346,-556.4133 1172.3847,-566.1183 1177.5092,-561.3497"/>
</g>
<!-- 33 -->
<g id="node34" class="node">
<title>33</title>
<path fill="none" stroke="#a7d856" stroke-width="2" stroke-dasharray="5,2" d="M637.5,-700C637.5,-700 528.5,-700 528.5,-700 522.5,-700 516.5,-694 516.5,-688 516.5,-688 516.5,-676 516.5,-676 516.5,-670 522.5,-664 528.5,-664 528.5,-664 637.5,-664 637.5,-664 643.5,-664 649.5,-670 649.5,-676 649.5,-676 649.5,-688 649.5,-688 649.5,-694 643.5,-700 637.5,-700"/>
<text text-anchor="middle" x="583" y="-679.5" font-family="sans" font-size="10.00" fill="#000000">filtering_mt_alignments</text>
</g>
<!-- 33&#45;&gt;28 -->
<g id="edge40" class="edge">
<title>33&#45;&gt;28</title>
<path fill="none" stroke="#c0c0c0" stroke-width="2" d="M584.0094,-663.8314C584.4372,-656.131 584.9459,-646.9743 585.4213,-638.4166"/>
<polygon fill="#c0c0c0" stroke="#c0c0c0" stroke-width="2" points="588.9169,-638.592 585.977,-628.4133 581.9276,-638.2037 588.9169,-638.592"/>
</g>
<!-- 34 -->
<g id="node35" class="node">
<title>34</title>
<path fill="none" stroke="#a7d856" stroke-width="2" stroke-dasharray="5,2" d="M398.5,-700C398.5,-700 289.5,-700 289.5,-700 283.5,-700 277.5,-694 277.5,-688 277.5,-688 277.5,-676 277.5,-676 277.5,-670 283.5,-664 289.5,-664 289.5,-664 398.5,-664 398.5,-664 404.5,-664 410.5,-670 410.5,-676 410.5,-676 410.5,-688 410.5,-688 410.5,-694 404.5,-700 398.5,-700"/>
<text text-anchor="middle" x="344" y="-679.5" font-family="sans" font-size="10.00" fill="#000000">filtering_mt_alignments</text>
</g>
<!-- 34&#45;&gt;29 -->
<g id="edge41" class="edge">
<title>34&#45;&gt;29</title>
<path fill="none" stroke="#c0c0c0" stroke-width="2" d="M364.1874,-663.8314C373.8514,-655.1337 385.5796,-644.5783 396.0816,-635.1265"/>
<polygon fill="#c0c0c0" stroke="#c0c0c0" stroke-width="2" points="398.7275,-637.454 403.8191,-628.1628 394.0447,-632.251 398.7275,-637.454"/>
</g>
<!-- 35 -->
<g id="node36" class="node">
<title>35</title>
<path fill="none" stroke="#56c1d8" stroke-width="2" stroke-dasharray="5,2" d="M881,-849C881,-849 725,-849 725,-849 719,-849 713,-843 713,-837 713,-837 713,-820 713,-820 713,-814 719,-808 725,-808 725,-808 881,-808 881,-808 887,-808 893,-814 893,-820 893,-820 893,-837 893,-837 893,-843 887,-849 881,-849"/>
<text text-anchor="middle" x="803" y="-837" font-family="sans" font-size="10.00" fill="#000000">make_mt_n_gmap_db</text>
<text text-anchor="middle" x="803" y="-826" font-family="sans" font-size="10.00" fill="#000000">ref_genome_mt: NC_001323.1</text>
<text text-anchor="middle" x="803" y="-815" font-family="sans" font-size="10.00" fill="#000000">ref_genome_n: GCF_000002315.5</text>
</g>
<!-- 35&#45;&gt;30 -->
<g id="edge42" class="edge">
<title>35&#45;&gt;30</title>
<path fill="none" stroke="#c0c0c0" stroke-width="2" d="M803,-807.6361C803,-779.2216 803,-726.7639 803,-682 803,-682 803,-682 803,-610 803,-569.876 803,-523.4631 803,-494.4177"/>
<polygon fill="#c0c0c0" stroke="#c0c0c0" stroke-width="2" points="806.5001,-494.1853 803,-484.1854 799.5001,-494.1854 806.5001,-494.1853"/>
</g>
<!-- 39 -->
<g id="node40" class="node">
<title>39</title>
<path fill="none" stroke="#568ad8" stroke-width="2" stroke-dasharray="5,2" d="M629,-772C629,-772 537,-772 537,-772 531,-772 525,-766 525,-760 525,-760 525,-748 525,-748 525,-742 531,-736 537,-736 537,-736 629,-736 629,-736 635,-736 641,-742 641,-748 641,-748 641,-760 641,-760 641,-766 635,-772 629,-772"/>
<text text-anchor="middle" x="583" y="-751.5" font-family="sans" font-size="10.00" fill="#000000">map_nuclear_MT_SE</text>
</g>
<!-- 35&#45;&gt;39 -->
<g id="edge60" class="edge">
<title>35&#45;&gt;39</title>
<path fill="none" stroke="#c0c0c0" stroke-width="2" d="M742.3017,-807.9453C712.3481,-797.802 676.245,-785.5761 645.9874,-775.3298"/>
<polygon fill="#c0c0c0" stroke="#c0c0c0" stroke-width="2" points="646.9785,-771.9703 636.3842,-772.0778 644.7332,-778.6004 646.9785,-771.9703"/>
</g>
<!-- 40 -->
<g id="node41" class="node">
<title>40</title>
<path fill="none" stroke="#56d88a" stroke-width="2" stroke-dasharray="5,2" d="M763,-772C763,-772 671,-772 671,-772 665,-772 659,-766 659,-760 659,-760 659,-748 659,-748 659,-742 665,-736 671,-736 671,-736 763,-736 763,-736 769,-736 775,-742 775,-748 775,-748 775,-760 775,-760 775,-766 769,-772 763,-772"/>
<text text-anchor="middle" x="717" y="-751.5" font-family="sans" font-size="10.00" fill="#000000">map_nuclear_MT_PE</text>
</g>
<!-- 35&#45;&gt;40 -->
<g id="edge62" class="edge">
<title>35&#45;&gt;40</title>
<path fill="none" stroke="#c0c0c0" stroke-width="2" d="M779.0442,-807.7476C768.6459,-798.7398 756.3857,-788.119 745.5215,-778.7076"/>
<polygon fill="#c0c0c0" stroke="#c0c0c0" stroke-width="2" points="747.754,-776.0109 737.904,-772.1087 743.1706,-781.3018 747.754,-776.0109"/>
</g>
<!-- 42 -->
<g id="node43" class="node">
<title>42</title>
<path fill="none" stroke="#568ad8" stroke-width="2" stroke-dasharray="5,2" d="M323,-772C323,-772 231,-772 231,-772 225,-772 219,-766 219,-760 219,-760 219,-748 219,-748 219,-742 225,-736 231,-736 231,-736 323,-736 323,-736 329,-736 335,-742 335,-748 335,-748 335,-760 335,-760 335,-766 329,-772 323,-772"/>
<text text-anchor="middle" x="277" y="-751.5" font-family="sans" font-size="10.00" fill="#000000">map_nuclear_MT_SE</text>
</g>
<!-- 35&#45;&gt;42 -->
<g id="edge66" class="edge">
<title>35&#45;&gt;42</title>
<path fill="none" stroke="#c0c0c0" stroke-width="2" d="M712.9753,-818.1056C597.3324,-804.6543 405.2206,-781.9421 345.4754,-772.0036"/>
<polygon fill="#c0c0c0" stroke="#c0c0c0" stroke-width="2" points="345.8132,-768.5085 335.3531,-770.1927 344.5805,-775.3991 345.8132,-768.5085"/>
</g>
<!-- 43 -->
<g id="node44" class="node">
<title>43</title>
<path fill="none" stroke="#56d88a" stroke-width="2" stroke-dasharray="5,2" d="M457,-772C457,-772 365,-772 365,-772 359,-772 353,-766 353,-760 353,-760 353,-748 353,-748 353,-742 359,-736 365,-736 365,-736 457,-736 457,-736 463,-736 469,-742 469,-748 469,-748 469,-760 469,-760 469,-766 463,-772 457,-772"/>
<text text-anchor="middle" x="411" y="-751.5" font-family="sans" font-size="10.00" fill="#000000">map_nuclear_MT_PE</text>
</g>
<!-- 35&#45;&gt;43 -->
<g id="edge68" class="edge">
<title>35&#45;&gt;43</title>
<path fill="none" stroke="#c0c0c0" stroke-width="2" d="M712.5751,-811.3147C641.4267,-797.7928 543.8231,-779.2432 479.1556,-766.953"/>
<polygon fill="#c0c0c0" stroke="#c0c0c0" stroke-width="2" points="479.5464,-763.4647 469.0688,-765.036 478.2394,-770.3417 479.5464,-763.4647"/>
</g>
<!-- 45 -->
<g id="node46" class="node">
<title>45</title>
<path fill="none" stroke="#568ad8" stroke-width="2" stroke-dasharray="5,2" d="M935,-772C935,-772 843,-772 843,-772 837,-772 831,-766 831,-760 831,-760 831,-748 831,-748 831,-742 837,-736 843,-736 843,-736 935,-736 935,-736 941,-736 947,-742 947,-748 947,-748 947,-760 947,-760 947,-766 941,-772 935,-772"/>
<text text-anchor="middle" x="889" y="-751.5" font-family="sans" font-size="10.00" fill="#000000">map_nuclear_MT_SE</text>
</g>
<!-- 35&#45;&gt;45 -->
<g id="edge72" class="edge">
<title>35&#45;&gt;45</title>
<path fill="none" stroke="#c0c0c0" stroke-width="2" d="M826.9558,-807.7476C837.3541,-798.7398 849.6143,-788.119 860.4785,-778.7076"/>
<polygon fill="#c0c0c0" stroke="#c0c0c0" stroke-width="2" points="862.8294,-781.3018 868.096,-772.1087 858.246,-776.0109 862.8294,-781.3018"/>
</g>
<!-- 46 -->
<g id="node47" class="node">
<title>46</title>
<path fill="none" stroke="#56d88a" stroke-width="2" stroke-dasharray="5,2" d="M1069,-772C1069,-772 977,-772 977,-772 971,-772 965,-766 965,-760 965,-760 965,-748 965,-748 965,-742 971,-736 977,-736 977,-736 1069,-736 1069,-736 1075,-736 1081,-742 1081,-748 1081,-748 1081,-760 1081,-760 1081,-766 1075,-772 1069,-772"/>
<text text-anchor="middle" x="1023" y="-751.5" font-family="sans" font-size="10.00" fill="#000000">map_nuclear_MT_PE</text>
</g>
<!-- 35&#45;&gt;46 -->
<g id="edge74" class="edge">
<title>35&#45;&gt;46</title>
<path fill="none" stroke="#c0c0c0" stroke-width="2" d="M863.6983,-807.9453C893.6519,-797.802 929.755,-785.5761 960.0126,-775.3298"/>
<polygon fill="#c0c0c0" stroke="#c0c0c0" stroke-width="2" points="961.2668,-778.6004 969.6158,-772.0778 959.0215,-771.9703 961.2668,-778.6004"/>
</g>
<!-- 48 -->
<g id="node49" class="node">
<title>48</title>
<path fill="none" stroke="#568ad8" stroke-width="2" stroke-dasharray="5,2" d="M1241,-772C1241,-772 1149,-772 1149,-772 1143,-772 1137,-766 1137,-760 1137,-760 1137,-748 1137,-748 1137,-742 1143,-736 1149,-736 1149,-736 1241,-736 1241,-736 1247,-736 1253,-742 1253,-748 1253,-748 1253,-760 1253,-760 1253,-766 1247,-772 1241,-772"/>
<text text-anchor="middle" x="1195" y="-751.5" font-family="sans" font-size="10.00" fill="#000000">map_nuclear_MT_SE</text>
</g>
<!-- 35&#45;&gt;48 -->
<g id="edge78" class="edge">
<title>35&#45;&gt;48</title>
<path fill="none" stroke="#c0c0c0" stroke-width="2" d="M893.4249,-811.3147C964.5733,-797.7928 1062.1769,-779.2432 1126.8444,-766.953"/>
<polygon fill="#c0c0c0" stroke="#c0c0c0" stroke-width="2" points="1127.7606,-770.3417 1136.9312,-765.036 1126.4536,-763.4647 1127.7606,-770.3417"/>
</g>
<!-- 49 -->
<g id="node50" class="node">
<title>49</title>
<path fill="none" stroke="#56d88a" stroke-width="2" stroke-dasharray="5,2" d="M1375,-772C1375,-772 1283,-772 1283,-772 1277,-772 1271,-766 1271,-760 1271,-760 1271,-748 1271,-748 1271,-742 1277,-736 1283,-736 1283,-736 1375,-736 1375,-736 1381,-736 1387,-742 1387,-748 1387,-748 1387,-760 1387,-760 1387,-766 1381,-772 1375,-772"/>
<text text-anchor="middle" x="1329" y="-751.5" font-family="sans" font-size="10.00" fill="#000000">map_nuclear_MT_PE</text>
</g>
<!-- 35&#45;&gt;49 -->
<g id="edge80" class="edge">
<title>35&#45;&gt;49</title>
<path fill="none" stroke="#c0c0c0" stroke-width="2" d="M893.0247,-818.1056C1008.6676,-804.6543 1200.7794,-781.9421 1260.5246,-772.0036"/>
<polygon fill="#c0c0c0" stroke="#c0c0c0" stroke-width="2" points="1261.4195,-775.3991 1270.6469,-770.1927 1260.1868,-768.5085 1261.4195,-775.3991"/>
</g>
<!-- 36 -->
<g id="node37" class="node">
<title>36</title>
<path fill="none" stroke="#a7d856" stroke-width="2" stroke-dasharray="5,2" d="M1075.5,-700C1075.5,-700 966.5,-700 966.5,-700 960.5,-700 954.5,-694 954.5,-688 954.5,-688 954.5,-676 954.5,-676 954.5,-670 960.5,-664 966.5,-664 966.5,-664 1075.5,-664 1075.5,-664 1081.5,-664 1087.5,-670 1087.5,-676 1087.5,-676 1087.5,-688 1087.5,-688 1087.5,-694 1081.5,-700 1075.5,-700"/>
<text text-anchor="middle" x="1021" y="-679.5" font-family="sans" font-size="10.00" fill="#000000">filtering_mt_alignments</text>
</g>
<!-- 36&#45;&gt;31 -->
<g id="edge43" class="edge">
<title>36&#45;&gt;31</title>
<path fill="none" stroke="#c0c0c0" stroke-width="2" d="M1013.6821,-663.8314C1010.5124,-655.9617 1006.73,-646.5712 1003.2187,-637.8533"/>
<polygon fill="#c0c0c0" stroke="#c0c0c0" stroke-width="2" points="1006.3992,-636.3815 999.4165,-628.4133 999.9061,-638.9968 1006.3992,-636.3815"/>
</g>
<!-- 37 -->
<g id="node38" class="node">
<title>37</title>
<path fill="none" stroke="#a7d856" stroke-width="2" stroke-dasharray="5,2" d="M1316.5,-700C1316.5,-700 1207.5,-700 1207.5,-700 1201.5,-700 1195.5,-694 1195.5,-688 1195.5,-688 1195.5,-676 1195.5,-676 1195.5,-670 1201.5,-664 1207.5,-664 1207.5,-664 1316.5,-664 1316.5,-664 1322.5,-664 1328.5,-670 1328.5,-676 1328.5,-676 1328.5,-688 1328.5,-688 1328.5,-694 1322.5,-700 1316.5,-700"/>
<text text-anchor="middle" x="1262" y="-679.5" font-family="sans" font-size="10.00" fill="#000000">filtering_mt_alignments</text>
</g>
<!-- 37&#45;&gt;32 -->
<g id="edge44" class="edge">
<title>37&#45;&gt;32</title>
<path fill="none" stroke="#c0c0c0" stroke-width="2" d="M1250.8969,-663.8314C1245.9326,-655.7079 1239.9778,-645.9637 1234.5072,-637.0118"/>
<polygon fill="#c0c0c0" stroke="#c0c0c0" stroke-width="2" points="1237.4536,-635.121 1229.2526,-628.4133 1231.4806,-638.7712 1237.4536,-635.121"/>
</g>
<!-- 38&#45;&gt;33 -->
<g id="edge45" class="edge">
<title>38&#45;&gt;33</title>
<path fill="none" stroke="#c0c0c0" stroke-width="2" d="M531.0194,-884.9328C516.5761,-853.1651 492.1093,-785.9395 516,-736 521.596,-724.3025 531.0993,-714.3295 541.2172,-706.2563"/>
<polygon fill="#c0c0c0" stroke="#c0c0c0" stroke-width="2" points="543.4496,-708.9583 549.4003,-700.1924 539.282,-703.3341 543.4496,-708.9583"/>
</g>
<!-- 51 -->
<g id="node52" class="node">
<title>51</title>
<path fill="none" stroke="#59d856" stroke-width="2" stroke-dasharray="5,2" d="M605,-846.5C605,-846.5 561,-846.5 561,-846.5 555,-846.5 549,-840.5 549,-834.5 549,-834.5 549,-822.5 549,-822.5 549,-816.5 555,-810.5 561,-810.5 561,-810.5 605,-810.5 605,-810.5 611,-810.5 617,-816.5 617,-822.5 617,-822.5 617,-834.5 617,-834.5 617,-840.5 611,-846.5 605,-846.5"/>
<text text-anchor="middle" x="583" y="-826" font-family="sans" font-size="10.00" fill="#000000">sam2fastq</text>
</g>
<!-- 38&#45;&gt;51 -->
<g id="edge81" class="edge">
<title>38&#45;&gt;51</title>
<path fill="none" stroke="#c0c0c0" stroke-width="2" d="M550.4091,-884.9656C555.5472,-876.0636 561.849,-865.1453 567.5373,-855.2901"/>
<polygon fill="#c0c0c0" stroke="#c0c0c0" stroke-width="2" points="570.5701,-857.037 572.5377,-846.6265 564.5075,-853.5378 570.5701,-857.037"/>
</g>
<!-- 39&#45;&gt;33 -->
<g id="edge46" class="edge">
<title>39&#45;&gt;33</title>
<path fill="none" stroke="#c0c0c0" stroke-width="2" d="M583,-735.8314C583,-728.131 583,-718.9743 583,-710.4166"/>
<polygon fill="#c0c0c0" stroke="#c0c0c0" stroke-width="2" points="586.5001,-710.4132 583,-700.4133 579.5001,-710.4133 586.5001,-710.4132"/>
</g>
<!-- 40&#45;&gt;33 -->
<g id="edge47" class="edge">
<title>40&#45;&gt;33</title>
<path fill="none" stroke="#c0c0c0" stroke-width="2" d="M683.1861,-735.8314C665.7293,-726.4516 644.2513,-714.9112 625.6648,-704.9244"/>
<polygon fill="#c0c0c0" stroke="#c0c0c0" stroke-width="2" points="627.2686,-701.8129 616.803,-700.1628 623.9554,-707.9792 627.2686,-701.8129"/>
</g>
<!-- 41&#45;&gt;34 -->
<g id="edge48" class="edge">
<title>41&#45;&gt;34</title>
<path fill="none" stroke="#c0c0c0" stroke-width="2" d="M256.6229,-884.9196C227.9637,-852.8418 177.0762,-784.7644 210,-736 223.3858,-716.1739 245.3968,-703.6254 267.7482,-695.6836"/>
<polygon fill="#c0c0c0" stroke="#c0c0c0" stroke-width="2" points="268.906,-698.9875 277.3241,-692.5543 266.7316,-692.3338 268.906,-698.9875"/>
</g>
<!-- 52 -->
<g id="node53" class="node">
<title>52</title>
<path fill="none" stroke="#59d856" stroke-width="2" stroke-dasharray="5,2" d="M299,-846.5C299,-846.5 255,-846.5 255,-846.5 249,-846.5 243,-840.5 243,-834.5 243,-834.5 243,-822.5 243,-822.5 243,-816.5 249,-810.5 255,-810.5 255,-810.5 299,-810.5 299,-810.5 305,-810.5 311,-816.5 311,-822.5 311,-822.5 311,-834.5 311,-834.5 311,-840.5 305,-846.5 299,-846.5"/>
<text text-anchor="middle" x="277" y="-826" font-family="sans" font-size="10.00" fill="#000000">sam2fastq</text>
</g>
<!-- 41&#45;&gt;52 -->
<g id="edge82" class="edge">
<title>41&#45;&gt;52</title>
<path fill="none" stroke="#c0c0c0" stroke-width="2" d="M274.7262,-884.9656C275.0664,-876.5178 275.4797,-866.2542 275.8601,-856.8064"/>
<polygon fill="#c0c0c0" stroke="#c0c0c0" stroke-width="2" points="279.3648,-856.7593 276.2701,-846.6265 272.3705,-856.4776 279.3648,-856.7593"/>
</g>
<!-- 42&#45;&gt;34 -->
<g id="edge49" class="edge">
<title>42&#45;&gt;34</title>
<path fill="none" stroke="#c0c0c0" stroke-width="2" d="M293.9069,-735.8314C301.7813,-727.3694 311.292,-717.1489 319.9013,-707.8971"/>
<polygon fill="#c0c0c0" stroke="#c0c0c0" stroke-width="2" points="322.6153,-710.1183 326.8654,-700.4133 317.4908,-705.3497 322.6153,-710.1183"/>
</g>
<!-- 43&#45;&gt;34 -->
<g id="edge50" class="edge">
<title>43&#45;&gt;34</title>
<path fill="none" stroke="#c0c0c0" stroke-width="2" d="M394.0931,-735.8314C386.2187,-727.3694 376.708,-717.1489 368.0987,-707.8971"/>
<polygon fill="#c0c0c0" stroke="#c0c0c0" stroke-width="2" points="370.5092,-705.3497 361.1346,-700.4133 365.3847,-710.1183 370.5092,-705.3497"/>
</g>
<!-- 44&#45;&gt;36 -->
<g id="edge51" class="edge">
<title>44&#45;&gt;36</title>
<path fill="none" stroke="#c0c0c0" stroke-width="2" d="M1045.0054,-884.953C1070.6051,-853.7779 1115.417,-788.1669 1090,-736 1084.2696,-724.2386 1074.6013,-714.2849 1064.2879,-706.2518"/>
<polygon fill="#c0c0c0" stroke="#c0c0c0" stroke-width="2" points="1066.0974,-703.2412 1055.9415,-700.2233 1061.9987,-708.9159 1066.0974,-703.2412"/>
</g>
<!-- 53 -->
<g id="node54" class="node">
<title>53</title>
<path fill="none" stroke="#59d856" stroke-width="2" stroke-dasharray="5,2" d="M1045,-846.5C1045,-846.5 1001,-846.5 1001,-846.5 995,-846.5 989,-840.5 989,-834.5 989,-834.5 989,-822.5 989,-822.5 989,-816.5 995,-810.5 1001,-810.5 1001,-810.5 1045,-810.5 1045,-810.5 1051,-810.5 1057,-816.5 1057,-822.5 1057,-822.5 1057,-834.5 1057,-834.5 1057,-840.5 1051,-846.5 1045,-846.5"/>
<text text-anchor="middle" x="1023" y="-826" font-family="sans" font-size="10.00" fill="#000000">sam2fastq</text>
</g>
<!-- 44&#45;&gt;53 -->
<g id="edge83" class="edge">
<title>44&#45;&gt;53</title>
<path fill="none" stroke="#c0c0c0" stroke-width="2" d="M1027.5476,-884.9656C1026.8672,-876.5178 1026.0406,-866.2542 1025.2797,-856.8064"/>
<polygon fill="#c0c0c0" stroke="#c0c0c0" stroke-width="2" points="1028.7514,-856.3132 1024.4599,-846.6265 1021.774,-856.8752 1028.7514,-856.3132"/>
</g>
<!-- 45&#45;&gt;36 -->
<g id="edge52" class="edge">
<title>45&#45;&gt;36</title>
<path fill="none" stroke="#c0c0c0" stroke-width="2" d="M922.3092,-735.8314C939.4273,-726.4942 960.4706,-715.016 978.7222,-705.0606"/>
<polygon fill="#c0c0c0" stroke="#c0c0c0" stroke-width="2" points="980.5985,-708.024 987.7015,-700.1628 977.2465,-701.8788 980.5985,-708.024"/>
</g>
<!-- 46&#45;&gt;36 -->
<g id="edge53" class="edge">
<title>46&#45;&gt;36</title>
<path fill="none" stroke="#c0c0c0" stroke-width="2" d="M1022.4953,-735.8314C1022.2814,-728.131 1022.0271,-718.9743 1021.7894,-710.4166"/>
<polygon fill="#c0c0c0" stroke="#c0c0c0" stroke-width="2" points="1025.2879,-710.3122 1021.5115,-700.4133 1018.2906,-710.5066 1025.2879,-710.3122"/>
</g>
<!-- 47&#45;&gt;37 -->
<g id="edge54" class="edge">
<title>47&#45;&gt;37</title>
<path fill="none" stroke="#c0c0c0" stroke-width="2" d="M1349.3771,-884.9196C1378.0363,-852.8418 1428.9238,-784.7644 1396,-736 1382.6142,-716.1739 1360.6032,-703.6254 1338.2518,-695.6836"/>
<polygon fill="#c0c0c0" stroke="#c0c0c0" stroke-width="2" points="1339.2684,-692.3338 1328.6759,-692.5543 1337.094,-698.9875 1339.2684,-692.3338"/>
</g>
<!-- 54 -->
<g id="node55" class="node">
<title>54</title>
<path fill="none" stroke="#59d856" stroke-width="2" stroke-dasharray="5,2" d="M1351,-846.5C1351,-846.5 1307,-846.5 1307,-846.5 1301,-846.5 1295,-840.5 1295,-834.5 1295,-834.5 1295,-822.5 1295,-822.5 1295,-816.5 1301,-810.5 1307,-810.5 1307,-810.5 1351,-810.5 1351,-810.5 1357,-810.5 1363,-816.5 1363,-822.5 1363,-822.5 1363,-834.5 1363,-834.5 1363,-840.5 1357,-846.5 1351,-846.5"/>
<text text-anchor="middle" x="1329" y="-826" font-family="sans" font-size="10.00" fill="#000000">sam2fastq</text>
</g>
<!-- 47&#45;&gt;54 -->
<g id="edge84" class="edge">
<title>47&#45;&gt;54</title>
<path fill="none" stroke="#c0c0c0" stroke-width="2" d="M1331.2738,-884.9656C1330.9336,-876.5178 1330.5203,-866.2542 1330.1399,-856.8064"/>
<polygon fill="#c0c0c0" stroke="#c0c0c0" stroke-width="2" points="1333.6295,-856.4776 1329.7299,-846.6265 1326.6352,-856.7593 1333.6295,-856.4776"/>
</g>
<!-- 48&#45;&gt;37 -->
<g id="edge55" class="edge">
<title>48&#45;&gt;37</title>
<path fill="none" stroke="#c0c0c0" stroke-width="2" d="M1211.9069,-735.8314C1219.7813,-727.3694 1229.292,-717.1489 1237.9013,-707.8971"/>
<polygon fill="#c0c0c0" stroke="#c0c0c0" stroke-width="2" points="1240.6153,-710.1183 1244.8654,-700.4133 1235.4908,-705.3497 1240.6153,-710.1183"/>
</g>
<!-- 49&#45;&gt;37 -->
<g id="edge56" class="edge">
<title>49&#45;&gt;37</title>
<path fill="none" stroke="#c0c0c0" stroke-width="2" d="M1312.0931,-735.8314C1304.2187,-727.3694 1294.708,-717.1489 1286.0987,-707.8971"/>
<polygon fill="#c0c0c0" stroke="#c0c0c0" stroke-width="2" points="1288.5092,-705.3497 1279.1346,-700.4133 1283.3847,-710.1183 1288.5092,-705.3497"/>
</g>
<!-- 50 -->
<g id="node51" class="node">
<title>50</title>
<path fill="none" stroke="#5673d8" stroke-width="2" stroke-dasharray="5,2" d="M954,-1001C954,-1001 814,-1001 814,-1001 808,-1001 802,-995 802,-989 802,-989 802,-977 802,-977 802,-971 808,-965 814,-965 814,-965 954,-965 954,-965 960,-965 966,-971 966,-977 966,-977 966,-989 966,-989 966,-995 960,-1001 954,-1001"/>
<text text-anchor="middle" x="884" y="-986" font-family="sans" font-size="10.00" fill="#000000">make_mt_gmap_db</text>
<text text-anchor="middle" x="884" y="-975" font-family="sans" font-size="10.00" fill="#000000">ref_genome_mt: NC_001323.1</text>
</g>
<!-- 50&#45;&gt;38 -->
<g id="edge58" class="edge">
<title>50&#45;&gt;38</title>
<path fill="none" stroke="#c0c0c0" stroke-width="2" d="M806.3708,-964.9467C753.1867,-952.5783 682.5676,-936.1552 627.4056,-923.3269"/>
<polygon fill="#c0c0c0" stroke="#c0c0c0" stroke-width="2" points="628.1768,-919.9129 617.6439,-921.0567 626.5912,-926.731 628.1768,-919.9129"/>
</g>
<!-- 50&#45;&gt;41 -->
<g id="edge64" class="edge">
<title>50&#45;&gt;41</title>
<path fill="none" stroke="#c0c0c0" stroke-width="2" d="M801.7327,-972.2108C690.8981,-957.6752 493.781,-931.8237 374.3613,-916.1621"/>
<polygon fill="#c0c0c0" stroke="#c0c0c0" stroke-width="2" points="374.4919,-912.6494 364.1217,-914.8192 373.5816,-919.5899 374.4919,-912.6494"/>
</g>
<!-- 50&#45;&gt;44 -->
<g id="edge70" class="edge">
<title>50&#45;&gt;44</title>
<path fill="none" stroke="#c0c0c0" stroke-width="2" d="M916.9027,-964.8468C937.7593,-953.3397 964.9226,-938.3531 987.2862,-926.0145"/>
<polygon fill="#c0c0c0" stroke="#c0c0c0" stroke-width="2" points="989.1625,-928.9767 996.2275,-921.0814 985.7809,-922.8477 989.1625,-928.9767"/>
</g>
<!-- 50&#45;&gt;47 -->
<g id="edge76" class="edge">
<title>50&#45;&gt;47</title>
<path fill="none" stroke="#c0c0c0" stroke-width="2" d="M966.1701,-968.3268C1041.0236,-954.9601 1151.7728,-935.1834 1231.7942,-920.8939"/>
<polygon fill="#c0c0c0" stroke="#c0c0c0" stroke-width="2" points="1232.6589,-924.2949 1241.8878,-919.0915 1231.4283,-917.4039 1232.6589,-924.2949"/>
</g>
<!-- 51&#45;&gt;39 -->
<g id="edge59" class="edge">
<title>51&#45;&gt;39</title>
<path fill="none" stroke="#c0c0c0" stroke-width="2" d="M583,-810.4656C583,-802.0178 583,-791.7542 583,-782.3064"/>
<polygon fill="#c0c0c0" stroke="#c0c0c0" stroke-width="2" points="586.5001,-782.1265 583,-772.1265 579.5001,-782.1265 586.5001,-782.1265"/>
</g>
<!-- 51&#45;&gt;40 -->
<g id="edge61" class="edge">
<title>51&#45;&gt;40</title>
<path fill="none" stroke="#c0c0c0" stroke-width="2" d="M615.4377,-810.4656C633.4917,-800.4281 656.1563,-787.8273 675.492,-777.0772"/>
<polygon fill="#c0c0c0" stroke="#c0c0c0" stroke-width="2" points="677.3573,-780.0448 684.3966,-772.1265 673.9558,-773.9267 677.3573,-780.0448"/>
</g>
<!-- 52&#45;&gt;42 -->
<g id="edge65" class="edge">
<title>52&#45;&gt;42</title>
<path fill="none" stroke="#c0c0c0" stroke-width="2" d="M277,-810.4656C277,-802.0178 277,-791.7542 277,-782.3064"/>
<polygon fill="#c0c0c0" stroke="#c0c0c0" stroke-width="2" points="280.5001,-782.1265 277,-772.1265 273.5001,-782.1265 280.5001,-782.1265"/>
</g>
<!-- 52&#45;&gt;43 -->
<g id="edge67" class="edge">
<title>52&#45;&gt;43</title>
<path fill="none" stroke="#c0c0c0" stroke-width="2" d="M309.4377,-810.4656C327.4917,-800.4281 350.1563,-787.8273 369.492,-777.0772"/>
<polygon fill="#c0c0c0" stroke="#c0c0c0" stroke-width="2" points="371.3573,-780.0448 378.3966,-772.1265 367.9558,-773.9267 371.3573,-780.0448"/>
</g>
<!-- 53&#45;&gt;45 -->
<g id="edge71" class="edge">
<title>53&#45;&gt;45</title>
<path fill="none" stroke="#c0c0c0" stroke-width="2" d="M990.5623,-810.4656C972.5083,-800.4281 949.8437,-787.8273 930.508,-777.0772"/>
<polygon fill="#c0c0c0" stroke="#c0c0c0" stroke-width="2" points="932.0442,-773.9267 921.6034,-772.1265 928.6427,-780.0448 932.0442,-773.9267"/>
</g>
<!-- 53&#45;&gt;46 -->
<g id="edge73" class="edge">
<title>53&#45;&gt;46</title>
<path fill="none" stroke="#c0c0c0" stroke-width="2" d="M1023,-810.4656C1023,-802.0178 1023,-791.7542 1023,-782.3064"/>
<polygon fill="#c0c0c0" stroke="#c0c0c0" stroke-width="2" points="1026.5001,-782.1265 1023,-772.1265 1019.5001,-782.1265 1026.5001,-782.1265"/>
</g>
<!-- 54&#45;&gt;48 -->
<g id="edge77" class="edge">
<title>54&#45;&gt;48</title>
<path fill="none" stroke="#c0c0c0" stroke-width="2" d="M1296.5623,-810.4656C1278.5083,-800.4281 1255.8437,-787.8273 1236.508,-777.0772"/>
<polygon fill="#c0c0c0" stroke="#c0c0c0" stroke-width="2" points="1238.0442,-773.9267 1227.6034,-772.1265 1234.6427,-780.0448 1238.0442,-773.9267"/>
</g>
<!-- 54&#45;&gt;49 -->
<g id="edge79" class="edge">
<title>54&#45;&gt;49</title>
<path fill="none" stroke="#c0c0c0" stroke-width="2" d="M1329,-810.4656C1329,-802.0178 1329,-791.7542 1329,-782.3064"/>
<polygon fill="#c0c0c0" stroke="#c0c0c0" stroke-width="2" points="1332.5001,-782.1265 1329,-772.1265 1325.5001,-782.1265 1332.5001,-782.1265"/>
</g>
</g>
</svg>
