<?xml version="1.0" encoding="UTF-8" standalone="no"?>
<!DOCTYPE svg PUBLIC "-//W3C//DTD SVG 1.1//EN"
 "http://www.w3.org/Graphics/SVG/1.1/DTD/svg11.dtd">
<!-- Generated by graphviz version 2.38.0 (20140413.2041)
 -->
<!-- Title: snakemake_dag Pages: 1 -->
<svg width="1821pt" height="558pt"
 viewBox="0.00 0.00 1820.70 558.00" xmlns="http://www.w3.org/2000/svg" xmlns:xlink="http://www.w3.org/1999/xlink">
<g id="graph0" class="graph" transform="scale(1 1) rotate(0) translate(4 554)">
<title>snakemake_dag</title>
<polygon fill="white" stroke="none" points="-4,4 -4,-554 1816.7,-554 1816.7,4 -4,4"/>
<!-- 0 -->
<g id="node1" class="node"><title>0</title>
<path fill="none" stroke="#56c1d8" stroke-width="2" d="M1106.2,-36C1106.2,-36 1076.2,-36 1076.2,-36 1070.2,-36 1064.2,-30 1064.2,-24 1064.2,-24 1064.2,-12 1064.2,-12 1064.2,-6 1070.2,-0 1076.2,-0 1076.2,-0 1106.2,-0 1106.2,-0 1112.2,-0 1118.2,-6 1118.2,-12 1118.2,-12 1118.2,-24 1118.2,-24 1118.2,-30 1112.2,-36 1106.2,-36"/>
<text text-anchor="middle" x="1091.2" y="-15.5" font-family="sans" font-size="10.00">all</text>
</g>
<!-- 1 -->
<g id="node2" class="node"><title>1</title>
<path fill="none" stroke="#d85656" stroke-width="2" d="M501.198,-108C501.198,-108 457.198,-108 457.198,-108 451.198,-108 445.198,-102 445.198,-96 445.198,-96 445.198,-84 445.198,-84 445.198,-78 451.198,-72 457.198,-72 457.198,-72 501.198,-72 501.198,-72 507.198,-72 513.198,-78 513.198,-84 513.198,-84 513.198,-96 513.198,-96 513.198,-102 507.198,-108 501.198,-108"/>
<text text-anchor="middle" x="479.198" y="-87.5" font-family="sans" font-size="10.00">make_VCF</text>
</g>
<!-- 1&#45;&gt;0 -->
<g id="edge1" class="edge"><title>1&#45;&gt;0</title>
<path fill="none" stroke="grey" stroke-width="2" d="M513.413,-85.0865C619.736,-72.9254 943.844,-35.8541 1054.06,-23.2482"/>
<polygon fill="grey" stroke="grey" stroke-width="2" points="1054.5,-26.7201 1064.04,-22.1063 1053.71,-19.7654 1054.5,-26.7201"/>
</g>
<!-- 2 -->
<g id="node3" class="node"><title>2</title>
<path fill="none" stroke="#d85656" stroke-width="2" d="M1113.2,-108C1113.2,-108 1069.2,-108 1069.2,-108 1063.2,-108 1057.2,-102 1057.2,-96 1057.2,-96 1057.2,-84 1057.2,-84 1057.2,-78 1063.2,-72 1069.2,-72 1069.2,-72 1113.2,-72 1113.2,-72 1119.2,-72 1125.2,-78 1125.2,-84 1125.2,-84 1125.2,-96 1125.2,-96 1125.2,-102 1119.2,-108 1113.2,-108"/>
<text text-anchor="middle" x="1091.2" y="-87.5" font-family="sans" font-size="10.00">make_VCF</text>
</g>
<!-- 2&#45;&gt;0 -->
<g id="edge2" class="edge"><title>2&#45;&gt;0</title>
<path fill="none" stroke="grey" stroke-width="2" d="M1091.2,-71.6966C1091.2,-63.9827 1091.2,-54.7125 1091.2,-46.1124"/>
<polygon fill="grey" stroke="grey" stroke-width="2" points="1094.7,-46.1043 1091.2,-36.1043 1087.7,-46.1044 1094.7,-46.1043"/>
</g>
<!-- 3 -->
<g id="node4" class="node"><title>3</title>
<path fill="none" stroke="#d85656" stroke-width="2" d="M1368.2,-108C1368.2,-108 1324.2,-108 1324.2,-108 1318.2,-108 1312.2,-102 1312.2,-96 1312.2,-96 1312.2,-84 1312.2,-84 1312.2,-78 1318.2,-72 1324.2,-72 1324.2,-72 1368.2,-72 1368.2,-72 1374.2,-72 1380.2,-78 1380.2,-84 1380.2,-84 1380.2,-96 1380.2,-96 1380.2,-102 1374.2,-108 1368.2,-108"/>
<text text-anchor="middle" x="1346.2" y="-87.5" font-family="sans" font-size="10.00">make_VCF</text>
</g>
<!-- 3&#45;&gt;0 -->
<g id="edge3" class="edge"><title>3&#45;&gt;0</title>
<path fill="none" stroke="grey" stroke-width="2" d="M1312.07,-79.6321C1264.31,-66.5198 1177.83,-42.7827 1128.45,-29.2248"/>
<polygon fill="grey" stroke="grey" stroke-width="2" points="1129.07,-25.7658 1118.5,-26.4937 1127.21,-32.5161 1129.07,-25.7658"/>
</g>
<!-- 4 -->
<g id="node5" class="node"><title>4</title>
<path fill="none" stroke="#59d856" stroke-width="2" d="M290.698,-180C290.698,-180 211.698,-180 211.698,-180 205.698,-180 199.698,-174 199.698,-168 199.698,-168 199.698,-156 199.698,-156 199.698,-150 205.698,-144 211.698,-144 211.698,-144 290.698,-144 290.698,-144 296.698,-144 302.698,-150 302.698,-156 302.698,-156 302.698,-168 302.698,-168 302.698,-174 296.698,-180 290.698,-180"/>
<text text-anchor="middle" x="251.198" y="-159.5" font-family="sans" font-size="10.00">make_single_VCF</text>
</g>
<!-- 4&#45;&gt;1 -->
<g id="edge4" class="edge"><title>4&#45;&gt;1</title>
<path fill="none" stroke="grey" stroke-width="2" d="M302.934,-145.116C342.856,-132.859 397.472,-116.091 435.281,-104.483"/>
<polygon fill="grey" stroke="grey" stroke-width="2" points="436.46,-107.782 444.992,-101.502 434.406,-101.091 436.46,-107.782"/>
</g>
<!-- 5 -->
<g id="node6" class="node"><title>5</title>
<path fill="none" stroke="#59d856" stroke-width="2" d="M518.698,-180C518.698,-180 439.698,-180 439.698,-180 433.698,-180 427.698,-174 427.698,-168 427.698,-168 427.698,-156 427.698,-156 427.698,-150 433.698,-144 439.698,-144 439.698,-144 518.698,-144 518.698,-144 524.698,-144 530.698,-150 530.698,-156 530.698,-156 530.698,-168 530.698,-168 530.698,-174 524.698,-180 518.698,-180"/>
<text text-anchor="middle" x="479.198" y="-159.5" font-family="sans" font-size="10.00">make_single_VCF</text>
</g>
<!-- 5&#45;&gt;1 -->
<g id="edge5" class="edge"><title>5&#45;&gt;1</title>
<path fill="none" stroke="grey" stroke-width="2" d="M479.198,-143.697C479.198,-135.983 479.198,-126.712 479.198,-118.112"/>
<polygon fill="grey" stroke="grey" stroke-width="2" points="482.698,-118.104 479.198,-108.104 475.698,-118.104 482.698,-118.104"/>
</g>
<!-- 6 -->
<g id="node7" class="node"><title>6</title>
<path fill="none" stroke="#59d856" stroke-width="2" d="M902.698,-180C902.698,-180 823.698,-180 823.698,-180 817.698,-180 811.698,-174 811.698,-168 811.698,-168 811.698,-156 811.698,-156 811.698,-150 817.698,-144 823.698,-144 823.698,-144 902.698,-144 902.698,-144 908.698,-144 914.698,-150 914.698,-156 914.698,-156 914.698,-168 914.698,-168 914.698,-174 908.698,-180 902.698,-180"/>
<text text-anchor="middle" x="863.198" y="-159.5" font-family="sans" font-size="10.00">make_single_VCF</text>
</g>
<!-- 6&#45;&gt;2 -->
<g id="edge6" class="edge"><title>6&#45;&gt;2</title>
<path fill="none" stroke="grey" stroke-width="2" d="M914.934,-145.116C954.856,-132.859 1009.47,-116.091 1047.28,-104.483"/>
<polygon fill="grey" stroke="grey" stroke-width="2" points="1048.46,-107.782 1056.99,-101.502 1046.41,-101.091 1048.46,-107.782"/>
</g>
<!-- 7 -->
<g id="node8" class="node"><title>7</title>
<path fill="none" stroke="#59d856" stroke-width="2" d="M1130.7,-180C1130.7,-180 1051.7,-180 1051.7,-180 1045.7,-180 1039.7,-174 1039.7,-168 1039.7,-168 1039.7,-156 1039.7,-156 1039.7,-150 1045.7,-144 1051.7,-144 1051.7,-144 1130.7,-144 1130.7,-144 1136.7,-144 1142.7,-150 1142.7,-156 1142.7,-156 1142.7,-168 1142.7,-168 1142.7,-174 1136.7,-180 1130.7,-180"/>
<text text-anchor="middle" x="1091.2" y="-159.5" font-family="sans" font-size="10.00">make_single_VCF</text>
</g>
<!-- 7&#45;&gt;2 -->
<g id="edge7" class="edge"><title>7&#45;&gt;2</title>
<path fill="none" stroke="grey" stroke-width="2" d="M1091.2,-143.697C1091.2,-135.983 1091.2,-126.712 1091.2,-118.112"/>
<polygon fill="grey" stroke="grey" stroke-width="2" points="1094.7,-118.104 1091.2,-108.104 1087.7,-118.104 1094.7,-118.104"/>
</g>
<!-- 8 -->
<g id="node9" class="node"><title>8</title>
<path fill="none" stroke="#59d856" stroke-width="2" d="M1310.7,-180C1310.7,-180 1231.7,-180 1231.7,-180 1225.7,-180 1219.7,-174 1219.7,-168 1219.7,-168 1219.7,-156 1219.7,-156 1219.7,-150 1225.7,-144 1231.7,-144 1231.7,-144 1310.7,-144 1310.7,-144 1316.7,-144 1322.7,-150 1322.7,-156 1322.7,-156 1322.7,-168 1322.7,-168 1322.7,-174 1316.7,-180 1310.7,-180"/>
<text text-anchor="middle" x="1271.2" y="-159.5" font-family="sans" font-size="10.00">make_single_VCF</text>
</g>
<!-- 8&#45;&gt;2 -->
<g id="edge8" class="edge"><title>8&#45;&gt;2</title>
<path fill="none" stroke="grey" stroke-width="2" d="M1227.16,-143.876C1199.14,-132.978 1162.99,-118.919 1135.01,-108.038"/>
<polygon fill="grey" stroke="grey" stroke-width="2" points="1136.07,-104.694 1125.48,-104.332 1133.53,-111.218 1136.07,-104.694"/>
</g>
<!-- 9 -->
<g id="node10" class="node"><title>9</title>
<path fill="none" stroke="#59d856" stroke-width="2" d="M1554.7,-180C1554.7,-180 1475.7,-180 1475.7,-180 1469.7,-180 1463.7,-174 1463.7,-168 1463.7,-168 1463.7,-156 1463.7,-156 1463.7,-150 1469.7,-144 1475.7,-144 1475.7,-144 1554.7,-144 1554.7,-144 1560.7,-144 1566.7,-150 1566.7,-156 1566.7,-156 1566.7,-168 1566.7,-168 1566.7,-174 1560.7,-180 1554.7,-180"/>
<text text-anchor="middle" x="1515.2" y="-159.5" font-family="sans" font-size="10.00">make_single_VCF</text>
</g>
<!-- 9&#45;&gt;3 -->
<g id="edge9" class="edge"><title>9&#45;&gt;3</title>
<path fill="none" stroke="grey" stroke-width="2" d="M1473.86,-143.876C1448.38,-133.324 1415.75,-119.809 1389.86,-109.085"/>
<polygon fill="grey" stroke="grey" stroke-width="2" points="1390.87,-105.716 1380.29,-105.123 1388.19,-112.183 1390.87,-105.716"/>
</g>
<!-- 10 -->
<g id="node11" class="node"><title>10</title>
<path fill="none" stroke="#bed856" stroke-width="2" d="M198.698,-252C198.698,-252 89.6977,-252 89.6977,-252 83.6977,-252 77.6977,-246 77.6977,-240 77.6977,-240 77.6977,-228 77.6977,-228 77.6977,-222 83.6977,-216 89.6977,-216 89.6977,-216 198.698,-216 198.698,-216 204.698,-216 210.698,-222 210.698,-228 210.698,-228 210.698,-240 210.698,-240 210.698,-246 204.698,-252 198.698,-252"/>
<text text-anchor="middle" x="144.198" y="-231.5" font-family="sans" font-size="10.00">filtering_mt_alignments</text>
</g>
<!-- 10&#45;&gt;4 -->
<g id="edge10" class="edge"><title>10&#45;&gt;4</title>
<path fill="none" stroke="grey" stroke-width="2" d="M170.373,-215.876C184.234,-206.808 201.439,-195.552 216.409,-185.759"/>
<polygon fill="grey" stroke="grey" stroke-width="2" points="218.47,-188.593 224.922,-180.19 214.637,-182.735 218.47,-188.593"/>
</g>
<!-- 11 -->
<g id="node12" class="node"><title>11</title>
<path fill="none" stroke="#bed856" stroke-width="2" d="M533.698,-252C533.698,-252 424.698,-252 424.698,-252 418.698,-252 412.698,-246 412.698,-240 412.698,-240 412.698,-228 412.698,-228 412.698,-222 418.698,-216 424.698,-216 424.698,-216 533.698,-216 533.698,-216 539.698,-216 545.698,-222 545.698,-228 545.698,-228 545.698,-240 545.698,-240 545.698,-246 539.698,-252 533.698,-252"/>
<text text-anchor="middle" x="479.198" y="-231.5" font-family="sans" font-size="10.00">filtering_mt_alignments</text>
</g>
<!-- 11&#45;&gt;5 -->
<g id="edge11" class="edge"><title>11&#45;&gt;5</title>
<path fill="none" stroke="grey" stroke-width="2" d="M479.198,-215.697C479.198,-207.983 479.198,-198.712 479.198,-190.112"/>
<polygon fill="grey" stroke="grey" stroke-width="2" points="482.698,-190.104 479.198,-180.104 475.698,-190.104 482.698,-190.104"/>
</g>
<!-- 12 -->
<g id="node13" class="node"><title>12</title>
<path fill="none" stroke="#bed856" stroke-width="2" d="M810.698,-252C810.698,-252 701.698,-252 701.698,-252 695.698,-252 689.698,-246 689.698,-240 689.698,-240 689.698,-228 689.698,-228 689.698,-222 695.698,-216 701.698,-216 701.698,-216 810.698,-216 810.698,-216 816.698,-216 822.698,-222 822.698,-228 822.698,-228 822.698,-240 822.698,-240 822.698,-246 816.698,-252 810.698,-252"/>
<text text-anchor="middle" x="756.198" y="-231.5" font-family="sans" font-size="10.00">filtering_mt_alignments</text>
</g>
<!-- 12&#45;&gt;6 -->
<g id="edge12" class="edge"><title>12&#45;&gt;6</title>
<path fill="none" stroke="grey" stroke-width="2" d="M782.373,-215.876C796.234,-206.808 813.439,-195.552 828.409,-185.759"/>
<polygon fill="grey" stroke="grey" stroke-width="2" points="830.47,-188.593 836.922,-180.19 826.637,-182.735 830.47,-188.593"/>
</g>
<!-- 13 -->
<g id="node14" class="node"><title>13</title>
<path fill="none" stroke="#bed856" stroke-width="2" d="M1145.7,-252C1145.7,-252 1036.7,-252 1036.7,-252 1030.7,-252 1024.7,-246 1024.7,-240 1024.7,-240 1024.7,-228 1024.7,-228 1024.7,-222 1030.7,-216 1036.7,-216 1036.7,-216 1145.7,-216 1145.7,-216 1151.7,-216 1157.7,-222 1157.7,-228 1157.7,-228 1157.7,-240 1157.7,-240 1157.7,-246 1151.7,-252 1145.7,-252"/>
<text text-anchor="middle" x="1091.2" y="-231.5" font-family="sans" font-size="10.00">filtering_mt_alignments</text>
</g>
<!-- 13&#45;&gt;7 -->
<g id="edge13" class="edge"><title>13&#45;&gt;7</title>
<path fill="none" stroke="grey" stroke-width="2" d="M1091.2,-215.697C1091.2,-207.983 1091.2,-198.712 1091.2,-190.112"/>
<polygon fill="grey" stroke="grey" stroke-width="2" points="1094.7,-190.104 1091.2,-180.104 1087.7,-190.104 1094.7,-190.104"/>
</g>
<!-- 14 -->
<g id="node15" class="node"><title>14</title>
<path fill="none" stroke="#bed856" stroke-width="2" d="M1384.7,-252C1384.7,-252 1275.7,-252 1275.7,-252 1269.7,-252 1263.7,-246 1263.7,-240 1263.7,-240 1263.7,-228 1263.7,-228 1263.7,-222 1269.7,-216 1275.7,-216 1275.7,-216 1384.7,-216 1384.7,-216 1390.7,-216 1396.7,-222 1396.7,-228 1396.7,-228 1396.7,-240 1396.7,-240 1396.7,-246 1390.7,-252 1384.7,-252"/>
<text text-anchor="middle" x="1330.2" y="-231.5" font-family="sans" font-size="10.00">filtering_mt_alignments</text>
</g>
<!-- 14&#45;&gt;8 -->
<g id="edge14" class="edge"><title>14&#45;&gt;8</title>
<path fill="none" stroke="grey" stroke-width="2" d="M1315.61,-215.697C1308.54,-207.305 1299.91,-197.07 1292.15,-187.861"/>
<polygon fill="grey" stroke="grey" stroke-width="2" points="1294.74,-185.495 1285.61,-180.104 1289.38,-190.006 1294.74,-185.495"/>
</g>
<!-- 15 -->
<g id="node16" class="node"><title>15</title>
<path fill="none" stroke="#bed856" stroke-width="2" d="M1692.7,-252C1692.7,-252 1583.7,-252 1583.7,-252 1577.7,-252 1571.7,-246 1571.7,-240 1571.7,-240 1571.7,-228 1571.7,-228 1571.7,-222 1577.7,-216 1583.7,-216 1583.7,-216 1692.7,-216 1692.7,-216 1698.7,-216 1704.7,-222 1704.7,-228 1704.7,-228 1704.7,-240 1704.7,-240 1704.7,-246 1698.7,-252 1692.7,-252"/>
<text text-anchor="middle" x="1638.2" y="-231.5" font-family="sans" font-size="10.00">filtering_mt_alignments</text>
</g>
<!-- 15&#45;&gt;9 -->
<g id="edge15" class="edge"><title>15&#45;&gt;9</title>
<path fill="none" stroke="grey" stroke-width="2" d="M1608.11,-215.876C1591.88,-206.639 1571.66,-195.131 1554.23,-185.212"/>
<polygon fill="grey" stroke="grey" stroke-width="2" points="1555.82,-182.094 1545.4,-180.19 1552.36,-188.178 1555.82,-182.094"/>
</g>
<!-- 16 -->
<g id="node17" class="node"><title>16</title>
<path fill="none" stroke="#568ad8" stroke-width="2" stroke-dasharray="5,2" d="M197.698,-478C197.698,-478 92.6977,-478 92.6977,-478 86.6977,-478 80.6977,-472 80.6977,-466 80.6977,-466 80.6977,-449 80.6977,-449 80.6977,-443 86.6977,-437 92.6977,-437 92.6977,-437 197.698,-437 197.698,-437 203.698,-437 209.698,-443 209.698,-449 209.698,-449 209.698,-466 209.698,-466 209.698,-472 203.698,-478 197.698,-478"/>
<text text-anchor="middle" x="145.198" y="-466" font-family="sans" font-size="10.00">map_MT_PE_SE</text>
<text text-anchor="middle" x="145.198" y="-455" font-family="sans" font-size="10.00">ref_genome_n: n2/map</text>
<text text-anchor="middle" x="145.198" y="-444" font-family="sans" font-size="10.00">sample: E</text>
</g>
<!-- 16&#45;&gt;10 -->
<g id="edge16" class="edge"><title>16&#45;&gt;10</title>
<path fill="none" stroke="grey" stroke-width="2" d="M108.692,-436.797C56.7211,-406.119 -28.2638,-344.573 10.1977,-288 23.6127,-268.268 45.6311,-255.882 67.9804,-248.108"/>
<polygon fill="grey" stroke="grey" stroke-width="2" points="69.0936,-251.426 77.5548,-245.05 66.964,-244.758 69.0936,-251.426"/>
</g>
<!-- 35 -->
<g id="node36" class="node"><title>35</title>
<path fill="none" stroke="#56d88a" stroke-width="2" d="M185.198,-398.5C185.198,-398.5 105.198,-398.5 105.198,-398.5 99.1977,-398.5 93.1977,-392.5 93.1977,-386.5 93.1977,-386.5 93.1977,-374.5 93.1977,-374.5 93.1977,-368.5 99.1977,-362.5 105.198,-362.5 105.198,-362.5 185.198,-362.5 185.198,-362.5 191.198,-362.5 197.198,-368.5 197.198,-374.5 197.198,-374.5 197.198,-386.5 197.198,-386.5 197.198,-392.5 191.198,-398.5 185.198,-398.5"/>
<text text-anchor="middle" x="145.198" y="-383.5" font-family="sans" font-size="10.00">sam2fastq</text>
<text text-anchor="middle" x="145.198" y="-372.5" font-family="sans" font-size="10.00">ref_genome_n: n2</text>
</g>
<!-- 16&#45;&gt;35 -->
<g id="edge64" class="edge"><title>16&#45;&gt;35</title>
<path fill="none" stroke="grey" stroke-width="2" d="M145.198,-436.795C145.198,-428.31 145.198,-418.243 145.198,-409.039"/>
<polygon fill="grey" stroke="grey" stroke-width="2" points="148.698,-408.777 145.198,-398.777 141.698,-408.777 148.698,-408.777"/>
</g>
<!-- 17 -->
<g id="node18" class="node"><title>17</title>
<path fill="none" stroke="#88d856" stroke-width="2" d="M257.198,-324C257.198,-324 165.198,-324 165.198,-324 159.198,-324 153.198,-318 153.198,-312 153.198,-312 153.198,-300 153.198,-300 153.198,-294 159.198,-288 165.198,-288 165.198,-288 257.198,-288 257.198,-288 263.198,-288 269.198,-294 269.198,-300 269.198,-300 269.198,-312 269.198,-312 269.198,-318 263.198,-324 257.198,-324"/>
<text text-anchor="middle" x="211.198" y="-303.5" font-family="sans" font-size="10.00">map_nuclear_MT_PE</text>
</g>
<!-- 17&#45;&gt;10 -->
<g id="edge17" class="edge"><title>17&#45;&gt;10</title>
<path fill="none" stroke="grey" stroke-width="2" d="M194.636,-287.697C186.522,-279.22 176.61,-268.864 167.727,-259.583"/>
<polygon fill="grey" stroke="grey" stroke-width="2" points="170.012,-256.908 160.569,-252.104 164.955,-261.749 170.012,-256.908"/>
</g>
<!-- 18 -->
<g id="node19" class="node"><title>18</title>
<path fill="none" stroke="#56d8c1" stroke-width="2" d="M123.198,-324C123.198,-324 31.1977,-324 31.1977,-324 25.1977,-324 19.1977,-318 19.1977,-312 19.1977,-312 19.1977,-300 19.1977,-300 19.1977,-294 25.1977,-288 31.1977,-288 31.1977,-288 123.198,-288 123.198,-288 129.198,-288 135.198,-294 135.198,-300 135.198,-300 135.198,-312 135.198,-312 135.198,-318 129.198,-324 123.198,-324"/>
<text text-anchor="middle" x="77.1977" y="-303.5" font-family="sans" font-size="10.00">map_nuclear_MT_SE</text>
</g>
<!-- 18&#45;&gt;10 -->
<g id="edge18" class="edge"><title>18&#45;&gt;10</title>
<path fill="none" stroke="grey" stroke-width="2" d="M93.7595,-287.697C101.873,-279.22 111.785,-268.864 120.669,-259.583"/>
<polygon fill="grey" stroke="grey" stroke-width="2" points="123.44,-261.749 127.826,-252.104 118.383,-256.908 123.44,-261.749"/>
</g>
<!-- 19 -->
<g id="node20" class="node"><title>19</title>
<path fill="none" stroke="#568ad8" stroke-width="2" stroke-dasharray="5,2" d="M530.698,-478C530.698,-478 425.698,-478 425.698,-478 419.698,-478 413.698,-472 413.698,-466 413.698,-466 413.698,-449 413.698,-449 413.698,-443 419.698,-437 425.698,-437 425.698,-437 530.698,-437 530.698,-437 536.698,-437 542.698,-443 542.698,-449 542.698,-449 542.698,-466 542.698,-466 542.698,-472 536.698,-478 530.698,-478"/>
<text text-anchor="middle" x="478.198" y="-466" font-family="sans" font-size="10.00">map_MT_PE_SE</text>
<text text-anchor="middle" x="478.198" y="-455" font-family="sans" font-size="10.00">ref_genome_n: n2/map</text>
<text text-anchor="middle" x="478.198" y="-444" font-family="sans" font-size="10.00">sample: D</text>
</g>
<!-- 19&#45;&gt;11 -->
<g id="edge19" class="edge"><title>19&#45;&gt;11</title>
<path fill="none" stroke="grey" stroke-width="2" d="M507.925,-436.949C519.711,-427.553 532.119,-415.229 539.198,-401 554.503,-370.233 544.641,-358.328 546.198,-324 546.923,-308.016 553.168,-302.402 546.198,-288 540.436,-276.097 530.561,-266.056 520.135,-258.024"/>
<polygon fill="grey" stroke="grey" stroke-width="2" points="521.896,-254.98 511.725,-252.016 517.827,-260.676 521.896,-254.98"/>
</g>
<!-- 37 -->
<g id="node38" class="node"><title>37</title>
<path fill="none" stroke="#56d88a" stroke-width="2" d="M518.198,-398.5C518.198,-398.5 438.198,-398.5 438.198,-398.5 432.198,-398.5 426.198,-392.5 426.198,-386.5 426.198,-386.5 426.198,-374.5 426.198,-374.5 426.198,-368.5 432.198,-362.5 438.198,-362.5 438.198,-362.5 518.198,-362.5 518.198,-362.5 524.198,-362.5 530.198,-368.5 530.198,-374.5 530.198,-374.5 530.198,-386.5 530.198,-386.5 530.198,-392.5 524.198,-398.5 518.198,-398.5"/>
<text text-anchor="middle" x="478.198" y="-383.5" font-family="sans" font-size="10.00">sam2fastq</text>
<text text-anchor="middle" x="478.198" y="-372.5" font-family="sans" font-size="10.00">ref_genome_n: n2</text>
</g>
<!-- 19&#45;&gt;37 -->
<g id="edge65" class="edge"><title>19&#45;&gt;37</title>
<path fill="none" stroke="grey" stroke-width="2" d="M478.198,-436.795C478.198,-428.31 478.198,-418.243 478.198,-409.039"/>
<polygon fill="grey" stroke="grey" stroke-width="2" points="481.698,-408.777 478.198,-398.777 474.698,-408.777 481.698,-408.777"/>
</g>
<!-- 20 -->
<g id="node21" class="node"><title>20</title>
<path fill="none" stroke="#88d856" stroke-width="2" d="M391.198,-324C391.198,-324 299.198,-324 299.198,-324 293.198,-324 287.198,-318 287.198,-312 287.198,-312 287.198,-300 287.198,-300 287.198,-294 293.198,-288 299.198,-288 299.198,-288 391.198,-288 391.198,-288 397.198,-288 403.198,-294 403.198,-300 403.198,-300 403.198,-312 403.198,-312 403.198,-318 397.198,-324 391.198,-324"/>
<text text-anchor="middle" x="345.198" y="-303.5" font-family="sans" font-size="10.00">map_nuclear_MT_PE</text>
</g>
<!-- 20&#45;&gt;11 -->
<g id="edge20" class="edge"><title>20&#45;&gt;11</title>
<path fill="none" stroke="grey" stroke-width="2" d="M377.978,-287.876C395.823,-278.554 418.095,-266.919 437.2,-256.939"/>
<polygon fill="grey" stroke="grey" stroke-width="2" points="439.049,-259.922 446.292,-252.19 435.808,-253.718 439.049,-259.922"/>
</g>
<!-- 21 -->
<g id="node22" class="node"><title>21</title>
<path fill="none" stroke="#56d8c1" stroke-width="2" d="M525.198,-324C525.198,-324 433.198,-324 433.198,-324 427.198,-324 421.198,-318 421.198,-312 421.198,-312 421.198,-300 421.198,-300 421.198,-294 427.198,-288 433.198,-288 433.198,-288 525.198,-288 525.198,-288 531.198,-288 537.198,-294 537.198,-300 537.198,-300 537.198,-312 537.198,-312 537.198,-318 531.198,-324 525.198,-324"/>
<text text-anchor="middle" x="479.198" y="-303.5" font-family="sans" font-size="10.00">map_nuclear_MT_SE</text>
</g>
<!-- 21&#45;&gt;11 -->
<g id="edge21" class="edge"><title>21&#45;&gt;11</title>
<path fill="none" stroke="grey" stroke-width="2" d="M479.198,-287.697C479.198,-279.983 479.198,-270.712 479.198,-262.112"/>
<polygon fill="grey" stroke="grey" stroke-width="2" points="482.698,-262.104 479.198,-252.104 475.698,-262.104 482.698,-262.104"/>
</g>
<!-- 22 -->
<g id="node23" class="node"><title>22</title>
<path fill="none" stroke="#568ad8" stroke-width="2" stroke-dasharray="5,2" d="M808.698,-478C808.698,-478 703.698,-478 703.698,-478 697.698,-478 691.698,-472 691.698,-466 691.698,-466 691.698,-449 691.698,-449 691.698,-443 697.698,-437 703.698,-437 703.698,-437 808.698,-437 808.698,-437 814.698,-437 820.698,-443 820.698,-449 820.698,-449 820.698,-466 820.698,-466 820.698,-472 814.698,-478 808.698,-478"/>
<text text-anchor="middle" x="756.198" y="-466" font-family="sans" font-size="10.00">map_MT_PE_SE</text>
<text text-anchor="middle" x="756.198" y="-455" font-family="sans" font-size="10.00">ref_genome_n: n1/map</text>
<text text-anchor="middle" x="756.198" y="-444" font-family="sans" font-size="10.00">sample: B</text>
</g>
<!-- 22&#45;&gt;12 -->
<g id="edge22" class="edge"><title>22&#45;&gt;12</title>
<path fill="none" stroke="grey" stroke-width="2" d="M719.919,-436.756C668.277,-406.025 583.847,-344.41 622.198,-288 635.613,-268.268 657.631,-255.882 679.98,-248.108"/>
<polygon fill="grey" stroke="grey" stroke-width="2" points="681.094,-251.426 689.555,-245.05 678.964,-244.758 681.094,-251.426"/>
</g>
<!-- 39 -->
<g id="node40" class="node"><title>39</title>
<path fill="none" stroke="#56d88a" stroke-width="2" d="M796.198,-398.5C796.198,-398.5 716.198,-398.5 716.198,-398.5 710.198,-398.5 704.198,-392.5 704.198,-386.5 704.198,-386.5 704.198,-374.5 704.198,-374.5 704.198,-368.5 710.198,-362.5 716.198,-362.5 716.198,-362.5 796.198,-362.5 796.198,-362.5 802.198,-362.5 808.198,-368.5 808.198,-374.5 808.198,-374.5 808.198,-386.5 808.198,-386.5 808.198,-392.5 802.198,-398.5 796.198,-398.5"/>
<text text-anchor="middle" x="756.198" y="-383.5" font-family="sans" font-size="10.00">sam2fastq</text>
<text text-anchor="middle" x="756.198" y="-372.5" font-family="sans" font-size="10.00">ref_genome_n: n1</text>
</g>
<!-- 22&#45;&gt;39 -->
<g id="edge66" class="edge"><title>22&#45;&gt;39</title>
<path fill="none" stroke="grey" stroke-width="2" d="M756.198,-436.795C756.198,-428.31 756.198,-418.243 756.198,-409.039"/>
<polygon fill="grey" stroke="grey" stroke-width="2" points="759.698,-408.777 756.198,-398.777 752.698,-408.777 759.698,-408.777"/>
</g>
<!-- 23 -->
<g id="node24" class="node"><title>23</title>
<path fill="none" stroke="#56d8c1" stroke-width="2" d="M869.198,-324C869.198,-324 777.198,-324 777.198,-324 771.198,-324 765.198,-318 765.198,-312 765.198,-312 765.198,-300 765.198,-300 765.198,-294 771.198,-288 777.198,-288 777.198,-288 869.198,-288 869.198,-288 875.198,-288 881.198,-294 881.198,-300 881.198,-300 881.198,-312 881.198,-312 881.198,-318 875.198,-324 869.198,-324"/>
<text text-anchor="middle" x="823.198" y="-303.5" font-family="sans" font-size="10.00">map_nuclear_MT_SE</text>
</g>
<!-- 23&#45;&gt;12 -->
<g id="edge23" class="edge"><title>23&#45;&gt;12</title>
<path fill="none" stroke="grey" stroke-width="2" d="M806.636,-287.697C798.522,-279.22 788.61,-268.864 779.727,-259.583"/>
<polygon fill="grey" stroke="grey" stroke-width="2" points="782.012,-256.908 772.569,-252.104 776.955,-261.749 782.012,-256.908"/>
</g>
<!-- 24 -->
<g id="node25" class="node"><title>24</title>
<path fill="none" stroke="#88d856" stroke-width="2" d="M735.198,-324C735.198,-324 643.198,-324 643.198,-324 637.198,-324 631.198,-318 631.198,-312 631.198,-312 631.198,-300 631.198,-300 631.198,-294 637.198,-288 643.198,-288 643.198,-288 735.198,-288 735.198,-288 741.198,-288 747.198,-294 747.198,-300 747.198,-300 747.198,-312 747.198,-312 747.198,-318 741.198,-324 735.198,-324"/>
<text text-anchor="middle" x="689.198" y="-303.5" font-family="sans" font-size="10.00">map_nuclear_MT_PE</text>
</g>
<!-- 24&#45;&gt;12 -->
<g id="edge24" class="edge"><title>24&#45;&gt;12</title>
<path fill="none" stroke="grey" stroke-width="2" d="M705.759,-287.697C713.873,-279.22 723.785,-268.864 732.669,-259.583"/>
<polygon fill="grey" stroke="grey" stroke-width="2" points="735.44,-261.749 739.826,-252.104 730.383,-256.908 735.44,-261.749"/>
</g>
<!-- 25 -->
<g id="node26" class="node"><title>25</title>
<path fill="none" stroke="#88d856" stroke-width="2" d="M1003.2,-324C1003.2,-324 911.198,-324 911.198,-324 905.198,-324 899.198,-318 899.198,-312 899.198,-312 899.198,-300 899.198,-300 899.198,-294 905.198,-288 911.198,-288 911.198,-288 1003.2,-288 1003.2,-288 1009.2,-288 1015.2,-294 1015.2,-300 1015.2,-300 1015.2,-312 1015.2,-312 1015.2,-318 1009.2,-324 1003.2,-324"/>
<text text-anchor="middle" x="957.198" y="-303.5" font-family="sans" font-size="10.00">map_nuclear_MT_PE</text>
</g>
<!-- 25&#45;&gt;13 -->
<g id="edge25" class="edge"><title>25&#45;&gt;13</title>
<path fill="none" stroke="grey" stroke-width="2" d="M989.978,-287.876C1007.82,-278.554 1030.09,-266.919 1049.2,-256.939"/>
<polygon fill="grey" stroke="grey" stroke-width="2" points="1051.05,-259.922 1058.29,-252.19 1047.81,-253.718 1051.05,-259.922"/>
</g>
<!-- 26 -->
<g id="node27" class="node"><title>26</title>
<path fill="none" stroke="#56d8c1" stroke-width="2" d="M1137.2,-324C1137.2,-324 1045.2,-324 1045.2,-324 1039.2,-324 1033.2,-318 1033.2,-312 1033.2,-312 1033.2,-300 1033.2,-300 1033.2,-294 1039.2,-288 1045.2,-288 1045.2,-288 1137.2,-288 1137.2,-288 1143.2,-288 1149.2,-294 1149.2,-300 1149.2,-300 1149.2,-312 1149.2,-312 1149.2,-318 1143.2,-324 1137.2,-324"/>
<text text-anchor="middle" x="1091.2" y="-303.5" font-family="sans" font-size="10.00">map_nuclear_MT_SE</text>
</g>
<!-- 26&#45;&gt;13 -->
<g id="edge26" class="edge"><title>26&#45;&gt;13</title>
<path fill="none" stroke="grey" stroke-width="2" d="M1091.2,-287.697C1091.2,-279.983 1091.2,-270.712 1091.2,-262.112"/>
<polygon fill="grey" stroke="grey" stroke-width="2" points="1094.7,-262.104 1091.2,-252.104 1087.7,-262.104 1094.7,-262.104"/>
</g>
<!-- 27 -->
<g id="node28" class="node"><title>27</title>
<path fill="none" stroke="#568ad8" stroke-width="2" stroke-dasharray="5,2" d="M1117.7,-478C1117.7,-478 1012.7,-478 1012.7,-478 1006.7,-478 1000.7,-472 1000.7,-466 1000.7,-466 1000.7,-449 1000.7,-449 1000.7,-443 1006.7,-437 1012.7,-437 1012.7,-437 1117.7,-437 1117.7,-437 1123.7,-437 1129.7,-443 1129.7,-449 1129.7,-449 1129.7,-466 1129.7,-466 1129.7,-472 1123.7,-478 1117.7,-478"/>
<text text-anchor="middle" x="1065.2" y="-466" font-family="sans" font-size="10.00">map_MT_PE_SE</text>
<text text-anchor="middle" x="1065.2" y="-455" font-family="sans" font-size="10.00">ref_genome_n: n1/map</text>
<text text-anchor="middle" x="1065.2" y="-444" font-family="sans" font-size="10.00">sample: A</text>
</g>
<!-- 27&#45;&gt;13 -->
<g id="edge27" class="edge"><title>27&#45;&gt;13</title>
<path fill="none" stroke="grey" stroke-width="2" d="M1117.65,-436.767C1133.13,-428.225 1148.29,-416.536 1157.2,-401 1182.17,-357.427 1180.08,-333.207 1158.2,-288 1152.44,-276.097 1142.56,-266.056 1132.14,-258.024"/>
<polygon fill="grey" stroke="grey" stroke-width="2" points="1133.9,-254.98 1123.72,-252.016 1129.83,-260.676 1133.9,-254.98"/>
</g>
<!-- 41 -->
<g id="node42" class="node"><title>41</title>
<path fill="none" stroke="#56d88a" stroke-width="2" d="M993.198,-398.5C993.198,-398.5 913.198,-398.5 913.198,-398.5 907.198,-398.5 901.198,-392.5 901.198,-386.5 901.198,-386.5 901.198,-374.5 901.198,-374.5 901.198,-368.5 907.198,-362.5 913.198,-362.5 913.198,-362.5 993.198,-362.5 993.198,-362.5 999.198,-362.5 1005.2,-368.5 1005.2,-374.5 1005.2,-374.5 1005.2,-386.5 1005.2,-386.5 1005.2,-392.5 999.198,-398.5 993.198,-398.5"/>
<text text-anchor="middle" x="953.198" y="-383.5" font-family="sans" font-size="10.00">sam2fastq</text>
<text text-anchor="middle" x="953.198" y="-372.5" font-family="sans" font-size="10.00">ref_genome_n: n1</text>
</g>
<!-- 27&#45;&gt;41 -->
<g id="edge67" class="edge"><title>27&#45;&gt;41</title>
<path fill="none" stroke="grey" stroke-width="2" d="M1036.06,-436.99C1021.08,-426.956 1002.73,-414.67 987.113,-404.211"/>
<polygon fill="grey" stroke="grey" stroke-width="2" points="989.012,-401.271 978.756,-398.615 985.117,-407.087 989.012,-401.271"/>
</g>
<!-- 28 -->
<g id="node29" class="node"><title>28</title>
<path fill="none" stroke="#568ad8" stroke-width="2" stroke-dasharray="5,2" d="M1413.7,-478C1413.7,-478 1308.7,-478 1308.7,-478 1302.7,-478 1296.7,-472 1296.7,-466 1296.7,-466 1296.7,-449 1296.7,-449 1296.7,-443 1302.7,-437 1308.7,-437 1308.7,-437 1413.7,-437 1413.7,-437 1419.7,-437 1425.7,-443 1425.7,-449 1425.7,-449 1425.7,-466 1425.7,-466 1425.7,-472 1419.7,-478 1413.7,-478"/>
<text text-anchor="middle" x="1361.2" y="-466" font-family="sans" font-size="10.00">map_MT_PE_SE</text>
<text text-anchor="middle" x="1361.2" y="-455" font-family="sans" font-size="10.00">ref_genome_n: n1/map</text>
<text text-anchor="middle" x="1361.2" y="-444" font-family="sans" font-size="10.00">sample: C</text>
</g>
<!-- 28&#45;&gt;14 -->
<g id="edge28" class="edge"><title>28&#45;&gt;14</title>
<path fill="none" stroke="grey" stroke-width="2" d="M1388.8,-436.911C1430.19,-405.092 1499.86,-340.455 1464.2,-288 1450.78,-268.268 1428.76,-255.882 1406.41,-248.108"/>
<polygon fill="grey" stroke="grey" stroke-width="2" points="1407.43,-244.758 1396.84,-245.05 1405.3,-251.426 1407.43,-244.758"/>
</g>
<!-- 42 -->
<g id="node43" class="node"><title>42</title>
<path fill="none" stroke="#56d88a" stroke-width="2" d="M1401.2,-398.5C1401.2,-398.5 1321.2,-398.5 1321.2,-398.5 1315.2,-398.5 1309.2,-392.5 1309.2,-386.5 1309.2,-386.5 1309.2,-374.5 1309.2,-374.5 1309.2,-368.5 1315.2,-362.5 1321.2,-362.5 1321.2,-362.5 1401.2,-362.5 1401.2,-362.5 1407.2,-362.5 1413.2,-368.5 1413.2,-374.5 1413.2,-374.5 1413.2,-386.5 1413.2,-386.5 1413.2,-392.5 1407.2,-398.5 1401.2,-398.5"/>
<text text-anchor="middle" x="1361.2" y="-383.5" font-family="sans" font-size="10.00">sam2fastq</text>
<text text-anchor="middle" x="1361.2" y="-372.5" font-family="sans" font-size="10.00">ref_genome_n: n1</text>
</g>
<!-- 28&#45;&gt;42 -->
<g id="edge68" class="edge"><title>28&#45;&gt;42</title>
<path fill="none" stroke="grey" stroke-width="2" d="M1361.2,-436.795C1361.2,-428.31 1361.2,-418.243 1361.2,-409.039"/>
<polygon fill="grey" stroke="grey" stroke-width="2" points="1364.7,-408.777 1361.2,-398.777 1357.7,-408.777 1364.7,-408.777"/>
</g>
<!-- 29 -->
<g id="node30" class="node"><title>29</title>
<path fill="none" stroke="#56d8c1" stroke-width="2" d="M1309.2,-324C1309.2,-324 1217.2,-324 1217.2,-324 1211.2,-324 1205.2,-318 1205.2,-312 1205.2,-312 1205.2,-300 1205.2,-300 1205.2,-294 1211.2,-288 1217.2,-288 1217.2,-288 1309.2,-288 1309.2,-288 1315.2,-288 1321.2,-294 1321.2,-300 1321.2,-300 1321.2,-312 1321.2,-312 1321.2,-318 1315.2,-324 1309.2,-324"/>
<text text-anchor="middle" x="1263.2" y="-303.5" font-family="sans" font-size="10.00">map_nuclear_MT_SE</text>
</g>
<!-- 29&#45;&gt;14 -->
<g id="edge29" class="edge"><title>29&#45;&gt;14</title>
<path fill="none" stroke="grey" stroke-width="2" d="M1279.76,-287.697C1287.87,-279.22 1297.79,-268.864 1306.67,-259.583"/>
<polygon fill="grey" stroke="grey" stroke-width="2" points="1309.44,-261.749 1313.83,-252.104 1304.38,-256.908 1309.44,-261.749"/>
</g>
<!-- 30 -->
<g id="node31" class="node"><title>30</title>
<path fill="none" stroke="#88d856" stroke-width="2" d="M1443.2,-324C1443.2,-324 1351.2,-324 1351.2,-324 1345.2,-324 1339.2,-318 1339.2,-312 1339.2,-312 1339.2,-300 1339.2,-300 1339.2,-294 1345.2,-288 1351.2,-288 1351.2,-288 1443.2,-288 1443.2,-288 1449.2,-288 1455.2,-294 1455.2,-300 1455.2,-300 1455.2,-312 1455.2,-312 1455.2,-318 1449.2,-324 1443.2,-324"/>
<text text-anchor="middle" x="1397.2" y="-303.5" font-family="sans" font-size="10.00">map_nuclear_MT_PE</text>
</g>
<!-- 30&#45;&gt;14 -->
<g id="edge30" class="edge"><title>30&#45;&gt;14</title>
<path fill="none" stroke="grey" stroke-width="2" d="M1380.64,-287.697C1372.52,-279.22 1362.61,-268.864 1353.73,-259.583"/>
<polygon fill="grey" stroke="grey" stroke-width="2" points="1356.01,-256.908 1346.57,-252.104 1350.96,-261.749 1356.01,-256.908"/>
</g>
<!-- 31 -->
<g id="node32" class="node"><title>31</title>
<path fill="none" stroke="#56d8c1" stroke-width="2" d="M1751.2,-324C1751.2,-324 1659.2,-324 1659.2,-324 1653.2,-324 1647.2,-318 1647.2,-312 1647.2,-312 1647.2,-300 1647.2,-300 1647.2,-294 1653.2,-288 1659.2,-288 1659.2,-288 1751.2,-288 1751.2,-288 1757.2,-288 1763.2,-294 1763.2,-300 1763.2,-300 1763.2,-312 1763.2,-312 1763.2,-318 1757.2,-324 1751.2,-324"/>
<text text-anchor="middle" x="1705.2" y="-303.5" font-family="sans" font-size="10.00">map_nuclear_MT_SE</text>
</g>
<!-- 31&#45;&gt;15 -->
<g id="edge31" class="edge"><title>31&#45;&gt;15</title>
<path fill="none" stroke="grey" stroke-width="2" d="M1688.64,-287.697C1680.52,-279.22 1670.61,-268.864 1661.73,-259.583"/>
<polygon fill="grey" stroke="grey" stroke-width="2" points="1664.01,-256.908 1654.57,-252.104 1658.96,-261.749 1664.01,-256.908"/>
</g>
<!-- 32 -->
<g id="node33" class="node"><title>32</title>
<path fill="none" stroke="#568ad8" stroke-width="2" stroke-dasharray="5,2" d="M1800.7,-478C1800.7,-478 1695.7,-478 1695.7,-478 1689.7,-478 1683.7,-472 1683.7,-466 1683.7,-466 1683.7,-449 1683.7,-449 1683.7,-443 1689.7,-437 1695.7,-437 1695.7,-437 1800.7,-437 1800.7,-437 1806.7,-437 1812.7,-443 1812.7,-449 1812.7,-449 1812.7,-466 1812.7,-466 1812.7,-472 1806.7,-478 1800.7,-478"/>
<text text-anchor="middle" x="1748.2" y="-466" font-family="sans" font-size="10.00">map_MT_PE_SE</text>
<text text-anchor="middle" x="1748.2" y="-455" font-family="sans" font-size="10.00">ref_genome_n: n3/map</text>
<text text-anchor="middle" x="1748.2" y="-444" font-family="sans" font-size="10.00">sample: F</text>
</g>
<!-- 32&#45;&gt;15 -->
<g id="edge32" class="edge"><title>32&#45;&gt;15</title>
<path fill="none" stroke="grey" stroke-width="2" d="M1758.99,-436.874C1775.85,-403.279 1803.43,-333.94 1772.2,-288 1758.78,-268.268 1736.76,-255.882 1714.41,-248.108"/>
<polygon fill="grey" stroke="grey" stroke-width="2" points="1715.43,-244.758 1704.84,-245.05 1713.3,-251.426 1715.43,-244.758"/>
</g>
<!-- 44 -->
<g id="node45" class="node"><title>44</title>
<path fill="none" stroke="#56d88a" stroke-width="2" d="M1747.2,-398.5C1747.2,-398.5 1667.2,-398.5 1667.2,-398.5 1661.2,-398.5 1655.2,-392.5 1655.2,-386.5 1655.2,-386.5 1655.2,-374.5 1655.2,-374.5 1655.2,-368.5 1661.2,-362.5 1667.2,-362.5 1667.2,-362.5 1747.2,-362.5 1747.2,-362.5 1753.2,-362.5 1759.2,-368.5 1759.2,-374.5 1759.2,-374.5 1759.2,-386.5 1759.2,-386.5 1759.2,-392.5 1753.2,-398.5 1747.2,-398.5"/>
<text text-anchor="middle" x="1707.2" y="-383.5" font-family="sans" font-size="10.00">sam2fastq</text>
<text text-anchor="middle" x="1707.2" y="-372.5" font-family="sans" font-size="10.00">ref_genome_n: n3</text>
</g>
<!-- 32&#45;&gt;44 -->
<g id="edge69" class="edge"><title>32&#45;&gt;44</title>
<path fill="none" stroke="grey" stroke-width="2" d="M1737.43,-436.795C1732.59,-427.941 1726.8,-417.364 1721.6,-407.843"/>
<polygon fill="grey" stroke="grey" stroke-width="2" points="1724.51,-405.873 1716.64,-398.777 1718.37,-409.23 1724.51,-405.873"/>
</g>
<!-- 33 -->
<g id="node34" class="node"><title>33</title>
<path fill="none" stroke="#88d856" stroke-width="2" d="M1617.2,-324C1617.2,-324 1525.2,-324 1525.2,-324 1519.2,-324 1513.2,-318 1513.2,-312 1513.2,-312 1513.2,-300 1513.2,-300 1513.2,-294 1519.2,-288 1525.2,-288 1525.2,-288 1617.2,-288 1617.2,-288 1623.2,-288 1629.2,-294 1629.2,-300 1629.2,-300 1629.2,-312 1629.2,-312 1629.2,-318 1623.2,-324 1617.2,-324"/>
<text text-anchor="middle" x="1571.2" y="-303.5" font-family="sans" font-size="10.00">map_nuclear_MT_PE</text>
</g>
<!-- 33&#45;&gt;15 -->
<g id="edge33" class="edge"><title>33&#45;&gt;15</title>
<path fill="none" stroke="grey" stroke-width="2" d="M1587.76,-287.697C1595.87,-279.22 1605.79,-268.864 1614.67,-259.583"/>
<polygon fill="grey" stroke="grey" stroke-width="2" points="1617.44,-261.749 1621.83,-252.104 1612.38,-256.908 1617.44,-261.749"/>
</g>
<!-- 34 -->
<g id="node35" class="node"><title>34</title>
<path fill="none" stroke="#d8bc56" stroke-width="2" stroke-dasharray="5,2" d="M326.698,-550C326.698,-550 231.698,-550 231.698,-550 225.698,-550 219.698,-544 219.698,-538 219.698,-538 219.698,-526 219.698,-526 219.698,-520 225.698,-514 231.698,-514 231.698,-514 326.698,-514 326.698,-514 332.698,-514 338.698,-520 338.698,-526 338.698,-526 338.698,-538 338.698,-538 338.698,-544 332.698,-550 326.698,-550"/>
<text text-anchor="middle" x="279.198" y="-535" font-family="sans" font-size="10.00">make_mt_gmap_db</text>
<text text-anchor="middle" x="279.198" y="-524" font-family="sans" font-size="10.00">ref_genome_mt: mt2</text>
</g>
<!-- 34&#45;&gt;16 -->
<g id="edge34" class="edge"><title>34&#45;&gt;16</title>
<path fill="none" stroke="grey" stroke-width="2" d="M247.442,-513.819C230.415,-504.606 209.143,-493.097 190.418,-482.966"/>
<polygon fill="grey" stroke="grey" stroke-width="2" points="191.921,-479.8 181.46,-478.12 188.59,-485.957 191.921,-479.8"/>
</g>
<!-- 34&#45;&gt;19 -->
<g id="edge39" class="edge"><title>34&#45;&gt;19</title>
<path fill="none" stroke="grey" stroke-width="2" d="M326.106,-513.91C352.638,-504.244 386.172,-492.027 414.996,-481.526"/>
<polygon fill="grey" stroke="grey" stroke-width="2" points="416.376,-484.748 424.573,-478.037 413.979,-478.171 416.376,-484.748"/>
</g>
<!-- 35&#45;&gt;17 -->
<g id="edge35" class="edge"><title>35&#45;&gt;17</title>
<path fill="none" stroke="grey" stroke-width="2" d="M160.839,-362.319C169.223,-353.109 179.696,-341.604 188.917,-331.475"/>
<polygon fill="grey" stroke="grey" stroke-width="2" points="191.525,-333.809 195.669,-324.058 186.349,-329.097 191.525,-333.809"/>
</g>
<!-- 35&#45;&gt;18 -->
<g id="edge37" class="edge"><title>35&#45;&gt;18</title>
<path fill="none" stroke="grey" stroke-width="2" d="M129.083,-362.319C120.445,-353.109 109.654,-341.604 100.153,-331.475"/>
<polygon fill="grey" stroke="grey" stroke-width="2" points="102.591,-328.958 93.1971,-324.058 97.4853,-333.746 102.591,-328.958"/>
</g>
<!-- 36 -->
<g id="node37" class="node"><title>36</title>
<path fill="none" stroke="#d88d56" stroke-width="2" stroke-dasharray="5,2" d="M328.698,-401C328.698,-401 227.698,-401 227.698,-401 221.698,-401 215.698,-395 215.698,-389 215.698,-389 215.698,-372 215.698,-372 215.698,-366 221.698,-360 227.698,-360 227.698,-360 328.698,-360 328.698,-360 334.698,-360 340.698,-366 340.698,-372 340.698,-372 340.698,-389 340.698,-389 340.698,-395 334.698,-401 328.698,-401"/>
<text text-anchor="middle" x="278.198" y="-389" font-family="sans" font-size="10.00">make_mt_n_gmap_db</text>
<text text-anchor="middle" x="278.198" y="-378" font-family="sans" font-size="10.00">ref_genome_mt: mt2</text>
<text text-anchor="middle" x="278.198" y="-367" font-family="sans" font-size="10.00">ref_genome_n: n2</text>
</g>
<!-- 36&#45;&gt;17 -->
<g id="edge36" class="edge"><title>36&#45;&gt;17</title>
<path fill="none" stroke="grey" stroke-width="2" d="M259.89,-359.689C251.898,-351.042 242.444,-340.811 234.002,-331.676"/>
<polygon fill="grey" stroke="grey" stroke-width="2" points="236.561,-329.288 227.203,-324.319 231.42,-334.039 236.561,-329.288"/>
</g>
<!-- 36&#45;&gt;18 -->
<g id="edge38" class="edge"><title>36&#45;&gt;18</title>
<path fill="none" stroke="grey" stroke-width="2" d="M224.069,-359.976C196.298,-349.959 162.476,-337.76 134.292,-327.594"/>
<polygon fill="grey" stroke="grey" stroke-width="2" points="135.171,-324.19 124.577,-324.09 132.796,-330.775 135.171,-324.19"/>
</g>
<!-- 36&#45;&gt;20 -->
<g id="edge41" class="edge"><title>36&#45;&gt;20</title>
<path fill="none" stroke="grey" stroke-width="2" d="M296.506,-359.689C304.497,-351.042 313.951,-340.811 322.393,-331.676"/>
<polygon fill="grey" stroke="grey" stroke-width="2" points="324.976,-334.039 329.192,-324.319 319.835,-329.288 324.976,-334.039"/>
</g>
<!-- 36&#45;&gt;21 -->
<g id="edge42" class="edge"><title>36&#45;&gt;21</title>
<path fill="none" stroke="grey" stroke-width="2" d="M332.326,-359.976C360.098,-349.959 393.92,-337.76 422.104,-327.594"/>
<polygon fill="grey" stroke="grey" stroke-width="2" points="423.599,-330.775 431.819,-324.09 421.224,-324.19 423.599,-330.775"/>
</g>
<!-- 37&#45;&gt;20 -->
<g id="edge40" class="edge"><title>37&#45;&gt;20</title>
<path fill="none" stroke="grey" stroke-width="2" d="M446.679,-362.319C428.376,-352.341 405.131,-339.67 385.507,-328.973"/>
<polygon fill="grey" stroke="grey" stroke-width="2" points="386.946,-325.771 376.491,-324.058 383.596,-331.917 386.946,-325.771"/>
</g>
<!-- 37&#45;&gt;21 -->
<g id="edge43" class="edge"><title>37&#45;&gt;21</title>
<path fill="none" stroke="grey" stroke-width="2" d="M478.435,-362.319C478.55,-353.922 478.693,-343.616 478.823,-334.186"/>
<polygon fill="grey" stroke="grey" stroke-width="2" points="482.324,-334.106 478.962,-324.058 475.325,-334.009 482.324,-334.106"/>
</g>
<!-- 38 -->
<g id="node39" class="node"><title>38</title>
<path fill="none" stroke="#d8bc56" stroke-width="2" stroke-dasharray="5,2" d="M1112.7,-550C1112.7,-550 1017.7,-550 1017.7,-550 1011.7,-550 1005.7,-544 1005.7,-538 1005.7,-538 1005.7,-526 1005.7,-526 1005.7,-520 1011.7,-514 1017.7,-514 1017.7,-514 1112.7,-514 1112.7,-514 1118.7,-514 1124.7,-520 1124.7,-526 1124.7,-526 1124.7,-538 1124.7,-538 1124.7,-544 1118.7,-550 1112.7,-550"/>
<text text-anchor="middle" x="1065.2" y="-535" font-family="sans" font-size="10.00">make_mt_gmap_db</text>
<text text-anchor="middle" x="1065.2" y="-524" font-family="sans" font-size="10.00">ref_genome_mt: mt1</text>
</g>
<!-- 38&#45;&gt;22 -->
<g id="edge44" class="edge"><title>38&#45;&gt;22</title>
<path fill="none" stroke="grey" stroke-width="2" d="M1005.62,-517.021C955.76,-505.323 884.366,-488.572 830.727,-475.987"/>
<polygon fill="grey" stroke="grey" stroke-width="2" points="831.462,-472.564 820.927,-473.687 829.863,-479.379 831.462,-472.564"/>
</g>
<!-- 38&#45;&gt;27 -->
<g id="edge53" class="edge"><title>38&#45;&gt;27</title>
<path fill="none" stroke="grey" stroke-width="2" d="M1065.2,-513.819C1065.2,-506.198 1065.2,-497.005 1065.2,-488.32"/>
<polygon fill="grey" stroke="grey" stroke-width="2" points="1068.7,-488.12 1065.2,-478.12 1061.7,-488.12 1068.7,-488.12"/>
</g>
<!-- 38&#45;&gt;28 -->
<g id="edge54" class="edge"><title>38&#45;&gt;28</title>
<path fill="none" stroke="grey" stroke-width="2" d="M1124.74,-516.416C1171.43,-504.98 1236.67,-489 1286.8,-476.722"/>
<polygon fill="grey" stroke="grey" stroke-width="2" points="1287.74,-480.097 1296.62,-474.318 1286.07,-473.298 1287.74,-480.097"/>
</g>
<!-- 39&#45;&gt;23 -->
<g id="edge45" class="edge"><title>39&#45;&gt;23</title>
<path fill="none" stroke="grey" stroke-width="2" d="M772.076,-362.319C780.587,-353.109 791.219,-341.604 800.58,-331.475"/>
<polygon fill="grey" stroke="grey" stroke-width="2" points="803.217,-333.778 807.434,-324.058 798.076,-329.027 803.217,-333.778"/>
</g>
<!-- 39&#45;&gt;24 -->
<g id="edge47" class="edge"><title>39&#45;&gt;24</title>
<path fill="none" stroke="grey" stroke-width="2" d="M740.32,-362.319C731.809,-353.109 721.176,-341.604 711.816,-331.475"/>
<polygon fill="grey" stroke="grey" stroke-width="2" points="714.319,-329.027 704.962,-324.058 709.178,-333.778 714.319,-329.027"/>
</g>
<!-- 40 -->
<g id="node41" class="node"><title>40</title>
<path fill="none" stroke="#d88d56" stroke-width="2" stroke-dasharray="5,2" d="M1136.7,-401C1136.7,-401 1035.7,-401 1035.7,-401 1029.7,-401 1023.7,-395 1023.7,-389 1023.7,-389 1023.7,-372 1023.7,-372 1023.7,-366 1029.7,-360 1035.7,-360 1035.7,-360 1136.7,-360 1136.7,-360 1142.7,-360 1148.7,-366 1148.7,-372 1148.7,-372 1148.7,-389 1148.7,-389 1148.7,-395 1142.7,-401 1136.7,-401"/>
<text text-anchor="middle" x="1086.2" y="-389" font-family="sans" font-size="10.00">make_mt_n_gmap_db</text>
<text text-anchor="middle" x="1086.2" y="-378" font-family="sans" font-size="10.00">ref_genome_mt: mt1</text>
<text text-anchor="middle" x="1086.2" y="-367" font-family="sans" font-size="10.00">ref_genome_n: n1</text>
</g>
<!-- 40&#45;&gt;23 -->
<g id="edge46" class="edge"><title>40&#45;&gt;23</title>
<path fill="none" stroke="grey" stroke-width="2" d="M1023.54,-362.227C983.674,-351.238 932.059,-337.009 891.203,-325.747"/>
<polygon fill="grey" stroke="grey" stroke-width="2" points="891.899,-322.308 881.329,-323.025 890.039,-329.056 891.899,-322.308"/>
</g>
<!-- 40&#45;&gt;24 -->
<g id="edge48" class="edge"><title>40&#45;&gt;24</title>
<path fill="none" stroke="grey" stroke-width="2" d="M1023.48,-362.015C1020.35,-361.299 1017.24,-360.622 1014.2,-360 903.866,-337.455 871.567,-345.778 757.069,-324.041"/>
<polygon fill="grey" stroke="grey" stroke-width="2" points="757.697,-320.598 747.214,-322.136 756.368,-327.471 757.697,-320.598"/>
</g>
<!-- 40&#45;&gt;25 -->
<g id="edge50" class="edge"><title>40&#45;&gt;25</title>
<path fill="none" stroke="grey" stroke-width="2" d="M1051.29,-359.88C1034.39,-350.381 1014.02,-338.937 996.57,-329.128"/>
<polygon fill="grey" stroke="grey" stroke-width="2" points="998.174,-326.015 987.742,-324.166 994.745,-332.117 998.174,-326.015"/>
</g>
<!-- 40&#45;&gt;26 -->
<g id="edge52" class="edge"><title>40&#45;&gt;26</title>
<path fill="none" stroke="grey" stroke-width="2" d="M1087.56,-359.689C1088.1,-351.907 1088.73,-342.842 1089.3,-334.447"/>
<polygon fill="grey" stroke="grey" stroke-width="2" points="1092.81,-334.537 1090,-324.319 1085.82,-334.055 1092.81,-334.537"/>
</g>
<!-- 40&#45;&gt;29 -->
<g id="edge56" class="edge"><title>40&#45;&gt;29</title>
<path fill="none" stroke="grey" stroke-width="2" d="M1134.1,-359.88C1158.23,-349.996 1187.5,-338.005 1212.07,-327.942"/>
<polygon fill="grey" stroke="grey" stroke-width="2" points="1213.66,-331.075 1221.58,-324.046 1211,-324.597 1213.66,-331.075"/>
</g>
<!-- 40&#45;&gt;30 -->
<g id="edge57" class="edge"><title>40&#45;&gt;30</title>
<path fill="none" stroke="grey" stroke-width="2" d="M1148.73,-365.725C1195.77,-355.26 1262.07,-340.292 1329.21,-324.212"/>
<polygon fill="grey" stroke="grey" stroke-width="2" points="1330.21,-327.57 1339.11,-321.831 1328.57,-320.764 1330.21,-327.57"/>
</g>
<!-- 41&#45;&gt;25 -->
<g id="edge49" class="edge"><title>41&#45;&gt;25</title>
<path fill="none" stroke="grey" stroke-width="2" d="M954.146,-362.319C954.609,-353.922 955.177,-343.616 955.698,-334.186"/>
<polygon fill="grey" stroke="grey" stroke-width="2" points="959.2,-334.236 956.257,-324.058 952.211,-333.85 959.2,-334.236"/>
</g>
<!-- 41&#45;&gt;26 -->
<g id="edge51" class="edge"><title>41&#45;&gt;26</title>
<path fill="none" stroke="grey" stroke-width="2" d="M985.902,-362.319C1004.98,-352.296 1029.23,-339.556 1049.65,-328.828"/>
<polygon fill="grey" stroke="grey" stroke-width="2" points="1051.5,-331.807 1058.73,-324.058 1048.25,-325.611 1051.5,-331.807"/>
</g>
<!-- 42&#45;&gt;29 -->
<g id="edge55" class="edge"><title>42&#45;&gt;29</title>
<path fill="none" stroke="grey" stroke-width="2" d="M1337.97,-362.319C1325.04,-352.748 1308.75,-340.698 1294.68,-330.29"/>
<polygon fill="grey" stroke="grey" stroke-width="2" points="1296.38,-327.192 1286.26,-324.058 1292.21,-332.819 1296.38,-327.192"/>
</g>
<!-- 42&#45;&gt;30 -->
<g id="edge58" class="edge"><title>42&#45;&gt;30</title>
<path fill="none" stroke="grey" stroke-width="2" d="M1369.73,-362.319C1374.03,-353.651 1379.35,-342.949 1384.15,-333.276"/>
<polygon fill="grey" stroke="grey" stroke-width="2" points="1387.41,-334.571 1388.73,-324.058 1381.15,-331.458 1387.41,-334.571"/>
</g>
<!-- 43 -->
<g id="node44" class="node"><title>43</title>
<path fill="none" stroke="#d88d56" stroke-width="2" stroke-dasharray="5,2" d="M1624.7,-401C1624.7,-401 1523.7,-401 1523.7,-401 1517.7,-401 1511.7,-395 1511.7,-389 1511.7,-389 1511.7,-372 1511.7,-372 1511.7,-366 1517.7,-360 1523.7,-360 1523.7,-360 1624.7,-360 1624.7,-360 1630.7,-360 1636.7,-366 1636.7,-372 1636.7,-372 1636.7,-389 1636.7,-389 1636.7,-395 1630.7,-401 1624.7,-401"/>
<text text-anchor="middle" x="1574.2" y="-389" font-family="sans" font-size="10.00">make_mt_n_gmap_db</text>
<text text-anchor="middle" x="1574.2" y="-378" font-family="sans" font-size="10.00">ref_genome_mt: mt3</text>
<text text-anchor="middle" x="1574.2" y="-367" font-family="sans" font-size="10.00">ref_genome_n: n3</text>
</g>
<!-- 43&#45;&gt;31 -->
<g id="edge59" class="edge"><title>43&#45;&gt;31</title>
<path fill="none" stroke="grey" stroke-width="2" d="M1609.65,-359.88C1626.81,-350.381 1647.49,-338.937 1665.21,-329.128"/>
<polygon fill="grey" stroke="grey" stroke-width="2" points="1667.13,-332.071 1674.18,-324.166 1663.74,-325.946 1667.13,-332.071"/>
</g>
<!-- 43&#45;&gt;33 -->
<g id="edge63" class="edge"><title>43&#45;&gt;33</title>
<path fill="none" stroke="grey" stroke-width="2" d="M1573.38,-359.689C1573.06,-351.907 1572.68,-342.842 1572.33,-334.447"/>
<polygon fill="grey" stroke="grey" stroke-width="2" points="1575.82,-334.166 1571.91,-324.319 1568.83,-334.456 1575.82,-334.166"/>
</g>
<!-- 44&#45;&gt;31 -->
<g id="edge60" class="edge"><title>44&#45;&gt;31</title>
<path fill="none" stroke="grey" stroke-width="2" d="M1706.72,-362.319C1706.49,-353.922 1706.21,-343.616 1705.95,-334.186"/>
<polygon fill="grey" stroke="grey" stroke-width="2" points="1709.44,-333.958 1705.67,-324.058 1702.45,-334.151 1709.44,-333.958"/>
</g>
<!-- 44&#45;&gt;33 -->
<g id="edge62" class="edge"><title>44&#45;&gt;33</title>
<path fill="none" stroke="grey" stroke-width="2" d="M1674.97,-362.319C1656.17,-352.296 1632.27,-339.556 1612.14,-328.828"/>
<polygon fill="grey" stroke="grey" stroke-width="2" points="1613.67,-325.674 1603.2,-324.058 1610.37,-331.851 1613.67,-325.674"/>
</g>
<!-- 45 -->
<g id="node46" class="node"><title>45</title>
<path fill="none" stroke="#d8bc56" stroke-width="2" stroke-dasharray="5,2" d="M1795.7,-550C1795.7,-550 1700.7,-550 1700.7,-550 1694.7,-550 1688.7,-544 1688.7,-538 1688.7,-538 1688.7,-526 1688.7,-526 1688.7,-520 1694.7,-514 1700.7,-514 1700.7,-514 1795.7,-514 1795.7,-514 1801.7,-514 1807.7,-520 1807.7,-526 1807.7,-526 1807.7,-538 1807.7,-538 1807.7,-544 1801.7,-550 1795.7,-550"/>
<text text-anchor="middle" x="1748.2" y="-535" font-family="sans" font-size="10.00">make_mt_gmap_db</text>
<text text-anchor="middle" x="1748.2" y="-524" font-family="sans" font-size="10.00">ref_genome_mt: mt3</text>
</g>
<!-- 45&#45;&gt;32 -->
<g id="edge61" class="edge"><title>45&#45;&gt;32</title>
<path fill="none" stroke="grey" stroke-width="2" d="M1748.2,-513.819C1748.2,-506.198 1748.2,-497.005 1748.2,-488.32"/>
<polygon fill="grey" stroke="grey" stroke-width="2" points="1751.7,-488.12 1748.2,-478.12 1744.7,-488.12 1751.7,-488.12"/>
</g>
</g>
</svg>
