<?xml version="1.0" encoding="UTF-8" standalone="no"?>
<!DOCTYPE svg PUBLIC "-//W3C//DTD SVG 1.1//EN"
 "http://www.w3.org/Graphics/SVG/1.1/DTD/svg11.dtd">
<!-- Generated by graphviz version 2.38.0 (20140413.2041)
 -->
<!-- Title: snakemake_dag Pages: 1 -->
<svg width="1785pt" height="425pt"
 viewBox="0.00 0.00 1784.91 425.00" xmlns="http://www.w3.org/2000/svg" xmlns:xlink="http://www.w3.org/1999/xlink">
<g id="graph0" class="graph" transform="scale(1 1) rotate(0) translate(4 421)">
<title>snakemake_dag</title>
<polygon fill="white" stroke="none" points="-4,4 -4,-421 1780.91,-421 1780.91,4 -4,4"/>
<!-- 0 -->
<g id="node1" class="node"><title>0</title>
<path fill="none" stroke="#d6d856" stroke-width="2" d="M904.383,-36C904.383,-36 874.383,-36 874.383,-36 868.383,-36 862.383,-30 862.383,-24 862.383,-24 862.383,-12 862.383,-12 862.383,-6 868.383,-0 874.383,-0 874.383,-0 904.383,-0 904.383,-0 910.383,-0 916.383,-6 916.383,-12 916.383,-12 916.383,-24 916.383,-24 916.383,-30 910.383,-36 904.383,-36"/>
<text text-anchor="middle" x="889.383" y="-15.5" font-family="sans" font-size="10.00">all</text>
</g>
<!-- 1 -->
<g id="node2" class="node"><title>1</title>
<path fill="none" stroke="#56d8d8" stroke-width="2" d="M852.883,-108C852.883,-108 747.883,-108 747.883,-108 741.883,-108 735.883,-102 735.883,-96 735.883,-96 735.883,-84 735.883,-84 735.883,-78 741.883,-72 747.883,-72 747.883,-72 852.883,-72 852.883,-72 858.883,-72 864.883,-78 864.883,-84 864.883,-84 864.883,-96 864.883,-96 864.883,-102 858.883,-108 852.883,-108"/>
<text text-anchor="middle" x="800.383" y="-87.5" font-family="sans" font-size="10.00">filtering_mt_alignments</text>
</g>
<!-- 1&#45;&gt;0 -->
<g id="edge1" class="edge"><title>1&#45;&gt;0</title>
<path fill="none" stroke="grey" stroke-width="2" d="M822.383,-71.6966C833.592,-62.8807 847.385,-52.0321 859.537,-42.4742"/>
<polygon fill="grey" stroke="grey" stroke-width="2" points="861.94,-45.0375 867.636,-36.1043 857.612,-39.5354 861.94,-45.0375"/>
</g>
<!-- 2 -->
<g id="node3" class="node"><title>2</title>
<path fill="none" stroke="#56d8d8" stroke-width="2" d="M1381.88,-108C1381.88,-108 1276.88,-108 1276.88,-108 1270.88,-108 1264.88,-102 1264.88,-96 1264.88,-96 1264.88,-84 1264.88,-84 1264.88,-78 1270.88,-72 1276.88,-72 1276.88,-72 1381.88,-72 1381.88,-72 1387.88,-72 1393.88,-78 1393.88,-84 1393.88,-84 1393.88,-96 1393.88,-96 1393.88,-102 1387.88,-108 1381.88,-108"/>
<text text-anchor="middle" x="1329.38" y="-87.5" font-family="sans" font-size="10.00">filtering_mt_alignments</text>
</g>
<!-- 2&#45;&gt;0 -->
<g id="edge2" class="edge"><title>2&#45;&gt;0</title>
<path fill="none" stroke="grey" stroke-width="2" d="M1264.46,-78.6713C1170.85,-63.7792 1001.03,-36.7626 926.332,-24.8783"/>
<polygon fill="grey" stroke="grey" stroke-width="2" points="926.866,-21.4193 916.441,-23.3046 925.766,-28.3324 926.866,-21.4193"/>
</g>
<!-- 3 -->
<g id="node4" class="node"><title>3</title>
<path fill="none" stroke="#56d8d8" stroke-width="2" d="M1687.88,-108C1687.88,-108 1582.88,-108 1582.88,-108 1576.88,-108 1570.88,-102 1570.88,-96 1570.88,-96 1570.88,-84 1570.88,-84 1570.88,-78 1576.88,-72 1582.88,-72 1582.88,-72 1687.88,-72 1687.88,-72 1693.88,-72 1699.88,-78 1699.88,-84 1699.88,-84 1699.88,-96 1699.88,-96 1699.88,-102 1693.88,-108 1687.88,-108"/>
<text text-anchor="middle" x="1635.38" y="-87.5" font-family="sans" font-size="10.00">filtering_mt_alignments</text>
</g>
<!-- 3&#45;&gt;0 -->
<g id="edge3" class="edge"><title>3&#45;&gt;0</title>
<path fill="none" stroke="grey" stroke-width="2" d="M1570.81,-82.9409C1419.46,-68.7392 1045.63,-33.6617 926.495,-22.4823"/>
<polygon fill="grey" stroke="grey" stroke-width="2" points="926.7,-18.9863 916.416,-21.5366 926.046,-25.9557 926.7,-18.9863"/>
</g>
<!-- 4 -->
<g id="node5" class="node"><title>4</title>
<path fill="none" stroke="#56d8d8" stroke-width="2" d="M196.883,-108C196.883,-108 91.883,-108 91.883,-108 85.883,-108 79.883,-102 79.883,-96 79.883,-96 79.883,-84 79.883,-84 79.883,-78 85.883,-72 91.883,-72 91.883,-72 196.883,-72 196.883,-72 202.883,-72 208.883,-78 208.883,-84 208.883,-84 208.883,-96 208.883,-96 208.883,-102 202.883,-108 196.883,-108"/>
<text text-anchor="middle" x="144.383" y="-87.5" font-family="sans" font-size="10.00">filtering_mt_alignments</text>
</g>
<!-- 4&#45;&gt;0 -->
<g id="edge4" class="edge"><title>4&#45;&gt;0</title>
<path fill="none" stroke="grey" stroke-width="2" d="M209.194,-82.9104C360.395,-68.7035 732.667,-33.725 851.957,-22.5165"/>
<polygon fill="grey" stroke="grey" stroke-width="2" points="852.425,-25.988 862.054,-21.5678 851.77,-19.0187 852.425,-25.988"/>
</g>
<!-- 5 -->
<g id="node6" class="node"><title>5</title>
<path fill="none" stroke="#56d8d8" stroke-width="2" d="M573.883,-108C573.883,-108 468.883,-108 468.883,-108 462.883,-108 456.883,-102 456.883,-96 456.883,-96 456.883,-84 456.883,-84 456.883,-78 462.883,-72 468.883,-72 468.883,-72 573.883,-72 573.883,-72 579.883,-72 585.883,-78 585.883,-84 585.883,-84 585.883,-96 585.883,-96 585.883,-102 579.883,-108 573.883,-108"/>
<text text-anchor="middle" x="521.383" y="-87.5" font-family="sans" font-size="10.00">filtering_mt_alignments</text>
</g>
<!-- 5&#45;&gt;0 -->
<g id="edge5" class="edge"><title>5&#45;&gt;0</title>
<path fill="none" stroke="grey" stroke-width="2" d="M585.905,-76.7268C663.07,-62.0487 789.627,-37.9753 852.101,-26.0916"/>
<polygon fill="grey" stroke="grey" stroke-width="2" points="853.109,-29.4628 862.279,-24.1557 851.801,-22.5861 853.109,-29.4628"/>
</g>
<!-- 6 -->
<g id="node7" class="node"><title>6</title>
<path fill="none" stroke="#56d8d8" stroke-width="2" d="M1030.88,-108C1030.88,-108 925.883,-108 925.883,-108 919.883,-108 913.883,-102 913.883,-96 913.883,-96 913.883,-84 913.883,-84 913.883,-78 919.883,-72 925.883,-72 925.883,-72 1030.88,-72 1030.88,-72 1036.88,-72 1042.88,-78 1042.88,-84 1042.88,-84 1042.88,-96 1042.88,-96 1042.88,-102 1036.88,-108 1030.88,-108"/>
<text text-anchor="middle" x="978.383" y="-87.5" font-family="sans" font-size="10.00">filtering_mt_alignments</text>
</g>
<!-- 6&#45;&gt;0 -->
<g id="edge6" class="edge"><title>6&#45;&gt;0</title>
<path fill="none" stroke="grey" stroke-width="2" d="M956.383,-71.6966C945.174,-62.8807 931.381,-52.0321 919.229,-42.4742"/>
<polygon fill="grey" stroke="grey" stroke-width="2" points="921.154,-39.5354 911.13,-36.1043 916.826,-45.0375 921.154,-39.5354"/>
</g>
<!-- 7 -->
<g id="node8" class="node"><title>7</title>
<path fill="none" stroke="#569ad8" stroke-width="2" d="M799.383,-345C799.383,-345 695.383,-345 695.383,-345 689.383,-345 683.383,-339 683.383,-333 683.383,-333 683.383,-305 683.383,-305 683.383,-299 689.383,-293 695.383,-293 695.383,-293 799.383,-293 799.383,-293 805.383,-293 811.383,-299 811.383,-305 811.383,-305 811.383,-333 811.383,-333 811.383,-339 805.383,-345 799.383,-345"/>
<text text-anchor="middle" x="747.383" y="-333" font-family="sans" font-size="10.00">map_MT_PE_SE</text>
<text text-anchor="middle" x="747.383" y="-322" font-family="sans" font-size="10.00">ref_genome_n: n1/map</text>
<text text-anchor="middle" x="747.383" y="-311" font-family="sans" font-size="10.00">res_dir: results</text>
<text text-anchor="middle" x="747.383" y="-300" font-family="sans" font-size="10.00">sample: C</text>
</g>
<!-- 7&#45;&gt;1 -->
<g id="edge7" class="edge"><title>7&#45;&gt;1</title>
<path fill="none" stroke="grey" stroke-width="2" d="M775.978,-292.936C802.212,-267.61 838.712,-225.771 850.383,-180 854.336,-164.496 856.29,-158.87 850.383,-144 846.092,-133.199 838.441,-123.324 830.395,-115.102"/>
<polygon fill="grey" stroke="grey" stroke-width="2" points="832.633,-112.401 822.979,-108.037 827.804,-117.469 832.633,-112.401"/>
</g>
<!-- 26 -->
<g id="node27" class="node"><title>26</title>
<path fill="none" stroke="#56d89a" stroke-width="2" d="M787.383,-257C787.383,-257 707.383,-257 707.383,-257 701.383,-257 695.383,-251 695.383,-245 695.383,-245 695.383,-228 695.383,-228 695.383,-222 701.383,-216 707.383,-216 707.383,-216 787.383,-216 787.383,-216 793.383,-216 799.383,-222 799.383,-228 799.383,-228 799.383,-245 799.383,-245 799.383,-251 793.383,-257 787.383,-257"/>
<text text-anchor="middle" x="747.383" y="-245" font-family="sans" font-size="10.00">sam2fastq</text>
<text text-anchor="middle" x="747.383" y="-234" font-family="sans" font-size="10.00">map_dir: map</text>
<text text-anchor="middle" x="747.383" y="-223" font-family="sans" font-size="10.00">ref_genome_n: n1</text>
</g>
<!-- 7&#45;&gt;26 -->
<g id="edge55" class="edge"><title>7&#45;&gt;26</title>
<path fill="none" stroke="grey" stroke-width="2" d="M747.383,-292.971C747.383,-284.858 747.383,-275.777 747.383,-267.349"/>
<polygon fill="grey" stroke="grey" stroke-width="2" points="750.883,-267.146 747.383,-257.146 743.883,-267.146 750.883,-267.146"/>
</g>
<!-- 8 -->
<g id="node9" class="node"><title>8</title>
<path fill="none" stroke="#d89556" stroke-width="2" d="M829.883,-180C829.883,-180 738.883,-180 738.883,-180 732.883,-180 726.883,-174 726.883,-168 726.883,-168 726.883,-156 726.883,-156 726.883,-150 732.883,-144 738.883,-144 738.883,-144 829.883,-144 829.883,-144 835.883,-144 841.883,-150 841.883,-156 841.883,-156 841.883,-168 841.883,-168 841.883,-174 835.883,-180 829.883,-180"/>
<text text-anchor="middle" x="784.383" y="-159.5" font-family="sans" font-size="10.00">map_nuclear_MT_PE</text>
</g>
<!-- 8&#45;&gt;1 -->
<g id="edge8" class="edge"><title>8&#45;&gt;1</title>
<path fill="none" stroke="grey" stroke-width="2" d="M788.338,-143.697C790.101,-135.983 792.22,-126.712 794.186,-118.112"/>
<polygon fill="grey" stroke="grey" stroke-width="2" points="797.657,-118.633 796.473,-108.104 790.833,-117.073 797.657,-118.633"/>
</g>
<!-- 9 -->
<g id="node10" class="node"><title>9</title>
<path fill="none" stroke="#59d856" stroke-width="2" d="M696.383,-180C696.383,-180 604.383,-180 604.383,-180 598.383,-180 592.383,-174 592.383,-168 592.383,-168 592.383,-156 592.383,-156 592.383,-150 598.383,-144 604.383,-144 604.383,-144 696.383,-144 696.383,-144 702.383,-144 708.383,-150 708.383,-156 708.383,-156 708.383,-168 708.383,-168 708.383,-174 702.383,-180 696.383,-180"/>
<text text-anchor="middle" x="650.383" y="-159.5" font-family="sans" font-size="10.00">map_nuclear_MT_SE</text>
</g>
<!-- 9&#45;&gt;1 -->
<g id="edge9" class="edge"><title>9&#45;&gt;1</title>
<path fill="none" stroke="grey" stroke-width="2" d="M687.077,-143.876C707.401,-134.392 732.854,-122.513 754.485,-112.419"/>
<polygon fill="grey" stroke="grey" stroke-width="2" points="756.226,-115.469 763.808,-108.068 753.266,-109.126 756.226,-115.469"/>
</g>
<!-- 10 -->
<g id="node11" class="node"><title>10</title>
<path fill="none" stroke="#59d856" stroke-width="2" d="M1442.38,-180C1442.38,-180 1350.38,-180 1350.38,-180 1344.38,-180 1338.38,-174 1338.38,-168 1338.38,-168 1338.38,-156 1338.38,-156 1338.38,-150 1344.38,-144 1350.38,-144 1350.38,-144 1442.38,-144 1442.38,-144 1448.38,-144 1454.38,-150 1454.38,-156 1454.38,-156 1454.38,-168 1454.38,-168 1454.38,-174 1448.38,-180 1442.38,-180"/>
<text text-anchor="middle" x="1396.38" y="-159.5" font-family="sans" font-size="10.00">map_nuclear_MT_SE</text>
</g>
<!-- 10&#45;&gt;2 -->
<g id="edge10" class="edge"><title>10&#45;&gt;2</title>
<path fill="none" stroke="grey" stroke-width="2" d="M1379.82,-143.697C1371.71,-135.22 1361.8,-124.864 1352.91,-115.583"/>
<polygon fill="grey" stroke="grey" stroke-width="2" points="1355.2,-112.908 1345.75,-108.104 1350.14,-117.749 1355.2,-112.908"/>
</g>
<!-- 11 -->
<g id="node12" class="node"><title>11</title>
<path fill="none" stroke="#569ad8" stroke-width="2" d="M1413.38,-345C1413.38,-345 1309.38,-345 1309.38,-345 1303.38,-345 1297.38,-339 1297.38,-333 1297.38,-333 1297.38,-305 1297.38,-305 1297.38,-299 1303.38,-293 1309.38,-293 1309.38,-293 1413.38,-293 1413.38,-293 1419.38,-293 1425.38,-299 1425.38,-305 1425.38,-305 1425.38,-333 1425.38,-333 1425.38,-339 1419.38,-345 1413.38,-345"/>
<text text-anchor="middle" x="1361.38" y="-333" font-family="sans" font-size="10.00">map_MT_PE_SE</text>
<text text-anchor="middle" x="1361.38" y="-322" font-family="sans" font-size="10.00">ref_genome_n: n2/map</text>
<text text-anchor="middle" x="1361.38" y="-311" font-family="sans" font-size="10.00">res_dir: results</text>
<text text-anchor="middle" x="1361.38" y="-300" font-family="sans" font-size="10.00">sample: D</text>
</g>
<!-- 11&#45;&gt;2 -->
<g id="edge11" class="edge"><title>11&#45;&gt;2</title>
<path fill="none" stroke="grey" stroke-width="2" d="M1394.84,-292.868C1436.48,-258.454 1498.13,-195.11 1463.38,-144 1449.6,-123.725 1426.73,-111.206 1403.75,-103.476"/>
<polygon fill="grey" stroke="grey" stroke-width="2" points="1404.51,-100.048 1393.93,-100.448 1402.45,-106.737 1404.51,-100.048"/>
</g>
<!-- 28 -->
<g id="node29" class="node"><title>28</title>
<path fill="none" stroke="#56d89a" stroke-width="2" d="M1401.38,-257C1401.38,-257 1321.38,-257 1321.38,-257 1315.38,-257 1309.38,-251 1309.38,-245 1309.38,-245 1309.38,-228 1309.38,-228 1309.38,-222 1315.38,-216 1321.38,-216 1321.38,-216 1401.38,-216 1401.38,-216 1407.38,-216 1413.38,-222 1413.38,-228 1413.38,-228 1413.38,-245 1413.38,-245 1413.38,-251 1407.38,-257 1401.38,-257"/>
<text text-anchor="middle" x="1361.38" y="-245" font-family="sans" font-size="10.00">sam2fastq</text>
<text text-anchor="middle" x="1361.38" y="-234" font-family="sans" font-size="10.00">map_dir: map</text>
<text text-anchor="middle" x="1361.38" y="-223" font-family="sans" font-size="10.00">ref_genome_n: n2</text>
</g>
<!-- 11&#45;&gt;28 -->
<g id="edge56" class="edge"><title>11&#45;&gt;28</title>
<path fill="none" stroke="grey" stroke-width="2" d="M1361.38,-292.971C1361.38,-284.858 1361.38,-275.777 1361.38,-267.349"/>
<polygon fill="grey" stroke="grey" stroke-width="2" points="1364.88,-267.146 1361.38,-257.146 1357.88,-267.146 1364.88,-267.146"/>
</g>
<!-- 12 -->
<g id="node13" class="node"><title>12</title>
<path fill="none" stroke="#d89556" stroke-width="2" d="M1307.88,-180C1307.88,-180 1216.88,-180 1216.88,-180 1210.88,-180 1204.88,-174 1204.88,-168 1204.88,-168 1204.88,-156 1204.88,-156 1204.88,-150 1210.88,-144 1216.88,-144 1216.88,-144 1307.88,-144 1307.88,-144 1313.88,-144 1319.88,-150 1319.88,-156 1319.88,-156 1319.88,-168 1319.88,-168 1319.88,-174 1313.88,-180 1307.88,-180"/>
<text text-anchor="middle" x="1262.38" y="-159.5" font-family="sans" font-size="10.00">map_nuclear_MT_PE</text>
</g>
<!-- 12&#45;&gt;2 -->
<g id="edge12" class="edge"><title>12&#45;&gt;2</title>
<path fill="none" stroke="grey" stroke-width="2" d="M1278.94,-143.697C1287.06,-135.22 1296.97,-124.864 1305.85,-115.583"/>
<polygon fill="grey" stroke="grey" stroke-width="2" points="1308.63,-117.749 1313.01,-108.104 1303.57,-112.908 1308.63,-117.749"/>
</g>
<!-- 13 -->
<g id="node14" class="node"><title>13</title>
<path fill="none" stroke="#d89556" stroke-width="2" d="M1613.88,-180C1613.88,-180 1522.88,-180 1522.88,-180 1516.88,-180 1510.88,-174 1510.88,-168 1510.88,-168 1510.88,-156 1510.88,-156 1510.88,-150 1516.88,-144 1522.88,-144 1522.88,-144 1613.88,-144 1613.88,-144 1619.88,-144 1625.88,-150 1625.88,-156 1625.88,-156 1625.88,-168 1625.88,-168 1625.88,-174 1619.88,-180 1613.88,-180"/>
<text text-anchor="middle" x="1568.38" y="-159.5" font-family="sans" font-size="10.00">map_nuclear_MT_PE</text>
</g>
<!-- 13&#45;&gt;3 -->
<g id="edge13" class="edge"><title>13&#45;&gt;3</title>
<path fill="none" stroke="grey" stroke-width="2" d="M1584.94,-143.697C1593.06,-135.22 1602.97,-124.864 1611.85,-115.583"/>
<polygon fill="grey" stroke="grey" stroke-width="2" points="1614.63,-117.749 1619.01,-108.104 1609.57,-112.908 1614.63,-117.749"/>
</g>
<!-- 14 -->
<g id="node15" class="node"><title>14</title>
<path fill="none" stroke="#569ad8" stroke-width="2" d="M1731.38,-345C1731.38,-345 1627.38,-345 1627.38,-345 1621.38,-345 1615.38,-339 1615.38,-333 1615.38,-333 1615.38,-305 1615.38,-305 1615.38,-299 1621.38,-293 1627.38,-293 1627.38,-293 1731.38,-293 1731.38,-293 1737.38,-293 1743.38,-299 1743.38,-305 1743.38,-305 1743.38,-333 1743.38,-333 1743.38,-339 1737.38,-345 1731.38,-345"/>
<text text-anchor="middle" x="1679.38" y="-333" font-family="sans" font-size="10.00">map_MT_PE_SE</text>
<text text-anchor="middle" x="1679.38" y="-322" font-family="sans" font-size="10.00">ref_genome_n: n3/map</text>
<text text-anchor="middle" x="1679.38" y="-311" font-family="sans" font-size="10.00">res_dir: results</text>
<text text-anchor="middle" x="1679.38" y="-300" font-family="sans" font-size="10.00">sample: F</text>
</g>
<!-- 14&#45;&gt;3 -->
<g id="edge14" class="edge"><title>14&#45;&gt;3</title>
<path fill="none" stroke="grey" stroke-width="2" d="M1735.94,-292.866C1750.04,-283.71 1763.41,-271.859 1771.38,-257 1778.75,-243.276 1779.15,-157.95 1769.38,-144 1755.38,-124.008 1732.59,-111.556 1709.74,-103.801"/>
<polygon fill="grey" stroke="grey" stroke-width="2" points="1710.56,-100.39 1699.97,-100.757 1708.48,-107.073 1710.56,-100.39"/>
</g>
<!-- 31 -->
<g id="node32" class="node"><title>31</title>
<path fill="none" stroke="#56d89a" stroke-width="2" d="M1608.38,-257C1608.38,-257 1528.38,-257 1528.38,-257 1522.38,-257 1516.38,-251 1516.38,-245 1516.38,-245 1516.38,-228 1516.38,-228 1516.38,-222 1522.38,-216 1528.38,-216 1528.38,-216 1608.38,-216 1608.38,-216 1614.38,-216 1620.38,-222 1620.38,-228 1620.38,-228 1620.38,-245 1620.38,-245 1620.38,-251 1614.38,-257 1608.38,-257"/>
<text text-anchor="middle" x="1568.38" y="-245" font-family="sans" font-size="10.00">sam2fastq</text>
<text text-anchor="middle" x="1568.38" y="-234" font-family="sans" font-size="10.00">map_dir: map</text>
<text text-anchor="middle" x="1568.38" y="-223" font-family="sans" font-size="10.00">ref_genome_n: n3</text>
</g>
<!-- 14&#45;&gt;31 -->
<g id="edge57" class="edge"><title>14&#45;&gt;31</title>
<path fill="none" stroke="grey" stroke-width="2" d="M1644.87,-292.971C1631.82,-283.505 1616.95,-272.723 1603.82,-263.198"/>
<polygon fill="grey" stroke="grey" stroke-width="2" points="1605.62,-260.183 1595.47,-257.146 1601.51,-265.85 1605.62,-260.183"/>
</g>
<!-- 15 -->
<g id="node16" class="node"><title>15</title>
<path fill="none" stroke="#59d856" stroke-width="2" d="M1748.38,-180C1748.38,-180 1656.38,-180 1656.38,-180 1650.38,-180 1644.38,-174 1644.38,-168 1644.38,-168 1644.38,-156 1644.38,-156 1644.38,-150 1650.38,-144 1656.38,-144 1656.38,-144 1748.38,-144 1748.38,-144 1754.38,-144 1760.38,-150 1760.38,-156 1760.38,-156 1760.38,-168 1760.38,-168 1760.38,-174 1754.38,-180 1748.38,-180"/>
<text text-anchor="middle" x="1702.38" y="-159.5" font-family="sans" font-size="10.00">map_nuclear_MT_SE</text>
</g>
<!-- 15&#45;&gt;3 -->
<g id="edge15" class="edge"><title>15&#45;&gt;3</title>
<path fill="none" stroke="grey" stroke-width="2" d="M1685.82,-143.697C1677.71,-135.22 1667.8,-124.864 1658.91,-115.583"/>
<polygon fill="grey" stroke="grey" stroke-width="2" points="1661.2,-112.908 1651.75,-108.104 1656.14,-117.749 1661.2,-112.908"/>
</g>
<!-- 16 -->
<g id="node17" class="node"><title>16</title>
<path fill="none" stroke="#59d856" stroke-width="2" d="M123.383,-180C123.383,-180 31.383,-180 31.383,-180 25.383,-180 19.383,-174 19.383,-168 19.383,-168 19.383,-156 19.383,-156 19.383,-150 25.383,-144 31.383,-144 31.383,-144 123.383,-144 123.383,-144 129.383,-144 135.383,-150 135.383,-156 135.383,-156 135.383,-168 135.383,-168 135.383,-174 129.383,-180 123.383,-180"/>
<text text-anchor="middle" x="77.383" y="-159.5" font-family="sans" font-size="10.00">map_nuclear_MT_SE</text>
</g>
<!-- 16&#45;&gt;4 -->
<g id="edge16" class="edge"><title>16&#45;&gt;4</title>
<path fill="none" stroke="grey" stroke-width="2" d="M93.9448,-143.697C102.058,-135.22 111.971,-124.864 120.854,-115.583"/>
<polygon fill="grey" stroke="grey" stroke-width="2" points="123.626,-117.749 128.012,-108.104 118.569,-112.908 123.626,-117.749"/>
</g>
<!-- 17 -->
<g id="node18" class="node"><title>17</title>
<path fill="none" stroke="#569ad8" stroke-width="2" d="M196.383,-345C196.383,-345 92.383,-345 92.383,-345 86.383,-345 80.383,-339 80.383,-333 80.383,-333 80.383,-305 80.383,-305 80.383,-299 86.383,-293 92.383,-293 92.383,-293 196.383,-293 196.383,-293 202.383,-293 208.383,-299 208.383,-305 208.383,-305 208.383,-333 208.383,-333 208.383,-339 202.383,-345 196.383,-345"/>
<text text-anchor="middle" x="144.383" y="-333" font-family="sans" font-size="10.00">map_MT_PE_SE</text>
<text text-anchor="middle" x="144.383" y="-322" font-family="sans" font-size="10.00">ref_genome_n: n1/map</text>
<text text-anchor="middle" x="144.383" y="-311" font-family="sans" font-size="10.00">res_dir: results</text>
<text text-anchor="middle" x="144.383" y="-300" font-family="sans" font-size="10.00">sample: B</text>
</g>
<!-- 17&#45;&gt;4 -->
<g id="edge17" class="edge"><title>17&#45;&gt;4</title>
<path fill="none" stroke="grey" stroke-width="2" d="M100.464,-292.767C48.3924,-259.531 -26.9169,-198.864 10.383,-144 24.1672,-123.725 47.035,-111.206 70.0117,-103.476"/>
<polygon fill="grey" stroke="grey" stroke-width="2" points="71.3134,-106.737 79.8393,-100.448 69.2521,-100.048 71.3134,-106.737"/>
</g>
<!-- 34 -->
<g id="node35" class="node"><title>34</title>
<path fill="none" stroke="#56d89a" stroke-width="2" d="M184.383,-257C184.383,-257 104.383,-257 104.383,-257 98.383,-257 92.383,-251 92.383,-245 92.383,-245 92.383,-228 92.383,-228 92.383,-222 98.383,-216 104.383,-216 104.383,-216 184.383,-216 184.383,-216 190.383,-216 196.383,-222 196.383,-228 196.383,-228 196.383,-245 196.383,-245 196.383,-251 190.383,-257 184.383,-257"/>
<text text-anchor="middle" x="144.383" y="-245" font-family="sans" font-size="10.00">sam2fastq</text>
<text text-anchor="middle" x="144.383" y="-234" font-family="sans" font-size="10.00">map_dir: map</text>
<text text-anchor="middle" x="144.383" y="-223" font-family="sans" font-size="10.00">ref_genome_n: n1</text>
</g>
<!-- 17&#45;&gt;34 -->
<g id="edge58" class="edge"><title>17&#45;&gt;34</title>
<path fill="none" stroke="grey" stroke-width="2" d="M144.383,-292.971C144.383,-284.858 144.383,-275.777 144.383,-267.349"/>
<polygon fill="grey" stroke="grey" stroke-width="2" points="147.883,-267.146 144.383,-257.146 140.883,-267.146 147.883,-267.146"/>
</g>
<!-- 18 -->
<g id="node19" class="node"><title>18</title>
<path fill="none" stroke="#d89556" stroke-width="2" d="M256.883,-180C256.883,-180 165.883,-180 165.883,-180 159.883,-180 153.883,-174 153.883,-168 153.883,-168 153.883,-156 153.883,-156 153.883,-150 159.883,-144 165.883,-144 165.883,-144 256.883,-144 256.883,-144 262.883,-144 268.883,-150 268.883,-156 268.883,-156 268.883,-168 268.883,-168 268.883,-174 262.883,-180 256.883,-180"/>
<text text-anchor="middle" x="211.383" y="-159.5" font-family="sans" font-size="10.00">map_nuclear_MT_PE</text>
</g>
<!-- 18&#45;&gt;4 -->
<g id="edge18" class="edge"><title>18&#45;&gt;4</title>
<path fill="none" stroke="grey" stroke-width="2" d="M194.821,-143.697C186.708,-135.22 176.795,-124.864 167.912,-115.583"/>
<polygon fill="grey" stroke="grey" stroke-width="2" points="170.197,-112.908 160.754,-108.104 165.14,-117.749 170.197,-112.908"/>
</g>
<!-- 19 -->
<g id="node20" class="node"><title>19</title>
<path fill="none" stroke="#d89556" stroke-width="2" d="M389.883,-180C389.883,-180 298.883,-180 298.883,-180 292.883,-180 286.883,-174 286.883,-168 286.883,-168 286.883,-156 286.883,-156 286.883,-150 292.883,-144 298.883,-144 298.883,-144 389.883,-144 389.883,-144 395.883,-144 401.883,-150 401.883,-156 401.883,-156 401.883,-168 401.883,-168 401.883,-174 395.883,-180 389.883,-180"/>
<text text-anchor="middle" x="344.383" y="-159.5" font-family="sans" font-size="10.00">map_nuclear_MT_PE</text>
</g>
<!-- 19&#45;&gt;5 -->
<g id="edge19" class="edge"><title>19&#45;&gt;5</title>
<path fill="none" stroke="grey" stroke-width="2" d="M387.682,-143.876C412.094,-134.222 442.779,-122.087 468.593,-111.878"/>
<polygon fill="grey" stroke="grey" stroke-width="2" points="470.213,-115.001 478.225,-108.068 467.638,-108.491 470.213,-115.001"/>
</g>
<!-- 20 -->
<g id="node21" class="node"><title>20</title>
<path fill="none" stroke="#59d856" stroke-width="2" d="M524.383,-180C524.383,-180 432.383,-180 432.383,-180 426.383,-180 420.383,-174 420.383,-168 420.383,-168 420.383,-156 420.383,-156 420.383,-150 426.383,-144 432.383,-144 432.383,-144 524.383,-144 524.383,-144 530.383,-144 536.383,-150 536.383,-156 536.383,-156 536.383,-168 536.383,-168 536.383,-174 530.383,-180 524.383,-180"/>
<text text-anchor="middle" x="478.383" y="-159.5" font-family="sans" font-size="10.00">map_nuclear_MT_SE</text>
</g>
<!-- 20&#45;&gt;5 -->
<g id="edge20" class="edge"><title>20&#45;&gt;5</title>
<path fill="none" stroke="grey" stroke-width="2" d="M489.012,-143.697C494.011,-135.559 500.074,-125.689 505.595,-116.701"/>
<polygon fill="grey" stroke="grey" stroke-width="2" points="508.624,-118.457 510.876,-108.104 502.66,-114.793 508.624,-118.457"/>
</g>
<!-- 21 -->
<g id="node22" class="node"><title>21</title>
<path fill="none" stroke="#569ad8" stroke-width="2" d="M513.383,-345C513.383,-345 409.383,-345 409.383,-345 403.383,-345 397.383,-339 397.383,-333 397.383,-333 397.383,-305 397.383,-305 397.383,-299 403.383,-293 409.383,-293 409.383,-293 513.383,-293 513.383,-293 519.383,-293 525.383,-299 525.383,-305 525.383,-305 525.383,-333 525.383,-333 525.383,-339 519.383,-345 513.383,-345"/>
<text text-anchor="middle" x="461.383" y="-333" font-family="sans" font-size="10.00">map_MT_PE_SE</text>
<text text-anchor="middle" x="461.383" y="-322" font-family="sans" font-size="10.00">ref_genome_n: n1/map</text>
<text text-anchor="middle" x="461.383" y="-311" font-family="sans" font-size="10.00">res_dir: results</text>
<text text-anchor="middle" x="461.383" y="-300" font-family="sans" font-size="10.00">sample: A</text>
</g>
<!-- 21&#45;&gt;5 -->
<g id="edge21" class="edge"><title>21&#45;&gt;5</title>
<path fill="none" stroke="grey" stroke-width="2" d="M511.805,-292.855C525.169,-283.544 537.935,-271.612 545.383,-257 568.189,-212.254 555.98,-193.091 545.383,-144 543.422,-134.916 539.771,-125.517 535.898,-117.201"/>
<polygon fill="grey" stroke="grey" stroke-width="2" points="538.921,-115.42 531.337,-108.022 532.652,-118.534 538.921,-115.42"/>
</g>
<!-- 35 -->
<g id="node36" class="node"><title>35</title>
<path fill="none" stroke="#56d89a" stroke-width="2" d="M382.383,-257C382.383,-257 302.383,-257 302.383,-257 296.383,-257 290.383,-251 290.383,-245 290.383,-245 290.383,-228 290.383,-228 290.383,-222 296.383,-216 302.383,-216 302.383,-216 382.383,-216 382.383,-216 388.383,-216 394.383,-222 394.383,-228 394.383,-228 394.383,-245 394.383,-245 394.383,-251 388.383,-257 382.383,-257"/>
<text text-anchor="middle" x="342.383" y="-245" font-family="sans" font-size="10.00">sam2fastq</text>
<text text-anchor="middle" x="342.383" y="-234" font-family="sans" font-size="10.00">map_dir: map</text>
<text text-anchor="middle" x="342.383" y="-223" font-family="sans" font-size="10.00">ref_genome_n: n1</text>
</g>
<!-- 21&#45;&gt;35 -->
<g id="edge59" class="edge"><title>21&#45;&gt;35</title>
<path fill="none" stroke="grey" stroke-width="2" d="M424.383,-292.971C410.258,-283.415 394.148,-272.518 379.969,-262.926"/>
<polygon fill="grey" stroke="grey" stroke-width="2" points="381.669,-259.85 371.425,-257.146 377.746,-265.648 381.669,-259.85"/>
</g>
<!-- 22 -->
<g id="node23" class="node"><title>22</title>
<path fill="none" stroke="#569ad8" stroke-width="2" d="M1114.38,-345C1114.38,-345 1010.38,-345 1010.38,-345 1004.38,-345 998.383,-339 998.383,-333 998.383,-333 998.383,-305 998.383,-305 998.383,-299 1004.38,-293 1010.38,-293 1010.38,-293 1114.38,-293 1114.38,-293 1120.38,-293 1126.38,-299 1126.38,-305 1126.38,-305 1126.38,-333 1126.38,-333 1126.38,-339 1120.38,-345 1114.38,-345"/>
<text text-anchor="middle" x="1062.38" y="-333" font-family="sans" font-size="10.00">map_MT_PE_SE</text>
<text text-anchor="middle" x="1062.38" y="-322" font-family="sans" font-size="10.00">ref_genome_n: n2/map</text>
<text text-anchor="middle" x="1062.38" y="-311" font-family="sans" font-size="10.00">res_dir: results</text>
<text text-anchor="middle" x="1062.38" y="-300" font-family="sans" font-size="10.00">sample: E</text>
</g>
<!-- 22&#45;&gt;6 -->
<g id="edge22" class="edge"><title>22&#45;&gt;6</title>
<path fill="none" stroke="grey" stroke-width="2" d="M1024.67,-292.775C991.89,-268.354 946.723,-228.035 927.383,-180 921.407,-165.158 921.402,-158.84 927.383,-144 931.732,-133.209 939.445,-123.386 947.577,-115.209"/>
<polygon fill="grey" stroke="grey" stroke-width="2" points="950.173,-117.572 955.078,-108.181 945.387,-112.464 950.173,-117.572"/>
</g>
<!-- 36 -->
<g id="node37" class="node"><title>36</title>
<path fill="none" stroke="#56d89a" stroke-width="2" d="M1102.38,-257C1102.38,-257 1022.38,-257 1022.38,-257 1016.38,-257 1010.38,-251 1010.38,-245 1010.38,-245 1010.38,-228 1010.38,-228 1010.38,-222 1016.38,-216 1022.38,-216 1022.38,-216 1102.38,-216 1102.38,-216 1108.38,-216 1114.38,-222 1114.38,-228 1114.38,-228 1114.38,-245 1114.38,-245 1114.38,-251 1108.38,-257 1102.38,-257"/>
<text text-anchor="middle" x="1062.38" y="-245" font-family="sans" font-size="10.00">sam2fastq</text>
<text text-anchor="middle" x="1062.38" y="-234" font-family="sans" font-size="10.00">map_dir: map</text>
<text text-anchor="middle" x="1062.38" y="-223" font-family="sans" font-size="10.00">ref_genome_n: n2</text>
</g>
<!-- 22&#45;&gt;36 -->
<g id="edge60" class="edge"><title>22&#45;&gt;36</title>
<path fill="none" stroke="grey" stroke-width="2" d="M1062.38,-292.971C1062.38,-284.858 1062.38,-275.777 1062.38,-267.349"/>
<polygon fill="grey" stroke="grey" stroke-width="2" points="1065.88,-267.146 1062.38,-257.146 1058.88,-267.146 1065.88,-267.146"/>
</g>
<!-- 23 -->
<g id="node24" class="node"><title>23</title>
<path fill="none" stroke="#d89556" stroke-width="2" d="M1039.88,-180C1039.88,-180 948.883,-180 948.883,-180 942.883,-180 936.883,-174 936.883,-168 936.883,-168 936.883,-156 936.883,-156 936.883,-150 942.883,-144 948.883,-144 948.883,-144 1039.88,-144 1039.88,-144 1045.88,-144 1051.88,-150 1051.88,-156 1051.88,-156 1051.88,-168 1051.88,-168 1051.88,-174 1045.88,-180 1039.88,-180"/>
<text text-anchor="middle" x="994.383" y="-159.5" font-family="sans" font-size="10.00">map_nuclear_MT_PE</text>
</g>
<!-- 23&#45;&gt;6 -->
<g id="edge23" class="edge"><title>23&#45;&gt;6</title>
<path fill="none" stroke="grey" stroke-width="2" d="M990.428,-143.697C988.665,-135.983 986.546,-126.712 984.58,-118.112"/>
<polygon fill="grey" stroke="grey" stroke-width="2" points="987.933,-117.073 982.293,-108.104 981.109,-118.633 987.933,-117.073"/>
</g>
<!-- 24 -->
<g id="node25" class="node"><title>24</title>
<path fill="none" stroke="#59d856" stroke-width="2" d="M1174.38,-180C1174.38,-180 1082.38,-180 1082.38,-180 1076.38,-180 1070.38,-174 1070.38,-168 1070.38,-168 1070.38,-156 1070.38,-156 1070.38,-150 1076.38,-144 1082.38,-144 1082.38,-144 1174.38,-144 1174.38,-144 1180.38,-144 1186.38,-150 1186.38,-156 1186.38,-156 1186.38,-168 1186.38,-168 1186.38,-174 1180.38,-180 1174.38,-180"/>
<text text-anchor="middle" x="1128.38" y="-159.5" font-family="sans" font-size="10.00">map_nuclear_MT_SE</text>
</g>
<!-- 24&#45;&gt;6 -->
<g id="edge24" class="edge"><title>24&#45;&gt;6</title>
<path fill="none" stroke="grey" stroke-width="2" d="M1091.69,-143.876C1071.37,-134.392 1045.91,-122.513 1024.28,-112.419"/>
<polygon fill="grey" stroke="grey" stroke-width="2" points="1025.5,-109.126 1014.96,-108.068 1022.54,-115.469 1025.5,-109.126"/>
</g>
<!-- 25 -->
<g id="node26" class="node"><title>25</title>
<path fill="none" stroke="#97d856" stroke-width="2" d="M508.883,-417C508.883,-417 413.883,-417 413.883,-417 407.883,-417 401.883,-411 401.883,-405 401.883,-405 401.883,-393 401.883,-393 401.883,-387 407.883,-381 413.883,-381 413.883,-381 508.883,-381 508.883,-381 514.883,-381 520.883,-387 520.883,-393 520.883,-393 520.883,-405 520.883,-405 520.883,-411 514.883,-417 508.883,-417"/>
<text text-anchor="middle" x="461.383" y="-402" font-family="sans" font-size="10.00">make_mt_gmap_db</text>
<text text-anchor="middle" x="461.383" y="-391" font-family="sans" font-size="10.00">ref_genome_mt: mt1</text>
</g>
<!-- 25&#45;&gt;7 -->
<g id="edge25" class="edge"><title>25&#45;&gt;7</title>
<path fill="none" stroke="grey" stroke-width="2" d="M520.99,-381.744C565.312,-369.656 626.065,-353.087 673.477,-340.156"/>
<polygon fill="grey" stroke="grey" stroke-width="2" points="674.655,-343.463 683.381,-337.455 672.813,-336.71 674.655,-343.463"/>
</g>
<!-- 25&#45;&gt;17 -->
<g id="edge42" class="edge"><title>25&#45;&gt;17</title>
<path fill="none" stroke="grey" stroke-width="2" d="M401.758,-383.329C349.816,-370.548 274.287,-351.964 218.474,-338.231"/>
<polygon fill="grey" stroke="grey" stroke-width="2" points="219.19,-334.802 208.643,-335.812 217.517,-341.6 219.19,-334.802"/>
</g>
<!-- 25&#45;&gt;21 -->
<g id="edge49" class="edge"><title>25&#45;&gt;21</title>
<path fill="none" stroke="grey" stroke-width="2" d="M461.383,-380.689C461.383,-373.205 461.383,-364.159 461.383,-355.361"/>
<polygon fill="grey" stroke="grey" stroke-width="2" points="464.883,-355.257 461.383,-345.257 457.883,-355.257 464.883,-355.257"/>
</g>
<!-- 26&#45;&gt;8 -->
<g id="edge26" class="edge"><title>26&#45;&gt;8</title>
<path fill="none" stroke="grey" stroke-width="2" d="M757.493,-215.689C761.642,-207.561 766.504,-198.033 770.945,-189.332"/>
<polygon fill="grey" stroke="grey" stroke-width="2" points="774.116,-190.818 775.544,-180.319 767.881,-187.636 774.116,-190.818"/>
</g>
<!-- 26&#45;&gt;9 -->
<g id="edge29" class="edge"><title>26&#45;&gt;9</title>
<path fill="none" stroke="grey" stroke-width="2" d="M721.133,-215.88C708.891,-206.73 694.233,-195.774 681.442,-186.214"/>
<polygon fill="grey" stroke="grey" stroke-width="2" points="683.456,-183.35 673.35,-180.166 679.265,-188.957 683.456,-183.35"/>
</g>
<!-- 27 -->
<g id="node28" class="node"><title>27</title>
<path fill="none" stroke="#d85656" stroke-width="2" d="M524.383,-257C524.383,-257 424.383,-257 424.383,-257 418.383,-257 412.383,-251 412.383,-245 412.383,-245 412.383,-228 412.383,-228 412.383,-222 418.383,-216 424.383,-216 424.383,-216 524.383,-216 524.383,-216 530.383,-216 536.383,-222 536.383,-228 536.383,-228 536.383,-245 536.383,-245 536.383,-251 530.383,-257 524.383,-257"/>
<text text-anchor="middle" x="474.383" y="-245" font-family="sans" font-size="10.00">make_mt_n_gmap_db</text>
<text text-anchor="middle" x="474.383" y="-234" font-family="sans" font-size="10.00">ref_genome_mt: mt1</text>
<text text-anchor="middle" x="474.383" y="-223" font-family="sans" font-size="10.00">ref_genome_n: n1</text>
</g>
<!-- 27&#45;&gt;8 -->
<g id="edge27" class="edge"><title>27&#45;&gt;8</title>
<path fill="none" stroke="grey" stroke-width="2" d="M536.402,-221.765C583.258,-211.289 649.409,-196.29 716.723,-180.131"/>
<polygon fill="grey" stroke="grey" stroke-width="2" points="717.758,-183.482 726.661,-177.739 716.12,-176.677 717.758,-183.482"/>
</g>
<!-- 27&#45;&gt;9 -->
<g id="edge28" class="edge"><title>27&#45;&gt;9</title>
<path fill="none" stroke="grey" stroke-width="2" d="M522.011,-215.88C546.007,-205.996 575.117,-194.005 599.545,-183.942"/>
<polygon fill="grey" stroke="grey" stroke-width="2" points="601.09,-187.091 609.003,-180.046 598.424,-180.618 601.09,-187.091"/>
</g>
<!-- 27&#45;&gt;16 -->
<g id="edge41" class="edge"><title>27&#45;&gt;16</title>
<path fill="none" stroke="grey" stroke-width="2" d="M412.156,-217.918C409.198,-217.237 406.263,-216.593 403.383,-216 292.666,-193.202 260.2,-201.816 145.289,-180.047"/>
<polygon fill="grey" stroke="grey" stroke-width="2" points="145.881,-176.597 135.399,-178.138 144.554,-183.47 145.881,-176.597"/>
</g>
<!-- 27&#45;&gt;18 -->
<g id="edge44" class="edge"><title>27&#45;&gt;18</title>
<path fill="none" stroke="grey" stroke-width="2" d="M412.056,-218.319C371.977,-207.27 319.915,-192.918 278.863,-181.602"/>
<polygon fill="grey" stroke="grey" stroke-width="2" points="279.784,-178.225 269.214,-178.942 277.924,-184.974 279.784,-178.225"/>
</g>
<!-- 27&#45;&gt;19 -->
<g id="edge46" class="edge"><title>27&#45;&gt;19</title>
<path fill="none" stroke="grey" stroke-width="2" d="M439.203,-215.88C422.17,-206.381 401.649,-194.937 384.061,-185.128"/>
<polygon fill="grey" stroke="grey" stroke-width="2" points="385.603,-181.98 375.164,-180.166 382.193,-188.094 385.603,-181.98"/>
</g>
<!-- 27&#45;&gt;20 -->
<g id="edge47" class="edge"><title>27&#45;&gt;20</title>
<path fill="none" stroke="grey" stroke-width="2" d="M475.476,-215.689C475.905,-207.907 476.406,-198.842 476.869,-190.447"/>
<polygon fill="grey" stroke="grey" stroke-width="2" points="480.371,-190.497 477.427,-180.319 473.382,-190.111 480.371,-190.497"/>
</g>
<!-- 28&#45;&gt;10 -->
<g id="edge30" class="edge"><title>28&#45;&gt;10</title>
<path fill="none" stroke="grey" stroke-width="2" d="M1370.95,-215.689C1374.87,-207.561 1379.47,-198.033 1383.67,-189.332"/>
<polygon fill="grey" stroke="grey" stroke-width="2" points="1386.83,-190.847 1388.02,-180.319 1380.52,-187.803 1386.83,-190.847"/>
</g>
<!-- 28&#45;&gt;12 -->
<g id="edge33" class="edge"><title>28&#45;&gt;12</title>
<path fill="none" stroke="grey" stroke-width="2" d="M1334.59,-215.88C1322.1,-206.73 1307.14,-195.774 1294.08,-186.214"/>
<polygon fill="grey" stroke="grey" stroke-width="2" points="1295.96,-183.251 1285.82,-180.166 1291.82,-188.899 1295.96,-183.251"/>
</g>
<!-- 29 -->
<g id="node30" class="node"><title>29</title>
<path fill="none" stroke="#d85656" stroke-width="2" d="M1261.38,-257C1261.38,-257 1161.38,-257 1161.38,-257 1155.38,-257 1149.38,-251 1149.38,-245 1149.38,-245 1149.38,-228 1149.38,-228 1149.38,-222 1155.38,-216 1161.38,-216 1161.38,-216 1261.38,-216 1261.38,-216 1267.38,-216 1273.38,-222 1273.38,-228 1273.38,-228 1273.38,-245 1273.38,-245 1273.38,-251 1267.38,-257 1261.38,-257"/>
<text text-anchor="middle" x="1211.38" y="-245" font-family="sans" font-size="10.00">make_mt_n_gmap_db</text>
<text text-anchor="middle" x="1211.38" y="-234" font-family="sans" font-size="10.00">ref_genome_mt: mt2</text>
<text text-anchor="middle" x="1211.38" y="-223" font-family="sans" font-size="10.00">ref_genome_n: n2</text>
</g>
<!-- 29&#45;&gt;10 -->
<g id="edge31" class="edge"><title>29&#45;&gt;10</title>
<path fill="none" stroke="grey" stroke-width="2" d="M1261.45,-215.88C1286.78,-205.952 1317.54,-193.898 1343.29,-183.808"/>
<polygon fill="grey" stroke="grey" stroke-width="2" points="1344.85,-186.953 1352.89,-180.046 1342.3,-180.436 1344.85,-186.953"/>
</g>
<!-- 29&#45;&gt;12 -->
<g id="edge34" class="edge"><title>29&#45;&gt;12</title>
<path fill="none" stroke="grey" stroke-width="2" d="M1225.32,-215.689C1231.22,-207.301 1238.17,-197.424 1244.44,-188.501"/>
<polygon fill="grey" stroke="grey" stroke-width="2" points="1247.31,-190.512 1250.2,-180.319 1241.58,-186.485 1247.31,-190.512"/>
</g>
<!-- 29&#45;&gt;23 -->
<g id="edge52" class="edge"><title>29&#45;&gt;23</title>
<path fill="none" stroke="grey" stroke-width="2" d="M1152.95,-215.976C1122.7,-205.871 1085.81,-193.546 1055.23,-183.328"/>
<polygon fill="grey" stroke="grey" stroke-width="2" points="1056.13,-179.939 1045.53,-180.09 1053.91,-186.578 1056.13,-179.939"/>
</g>
<!-- 29&#45;&gt;24 -->
<g id="edge53" class="edge"><title>29&#45;&gt;24</title>
<path fill="none" stroke="grey" stroke-width="2" d="M1188.7,-215.689C1178.53,-206.802 1166.44,-196.243 1155.77,-186.919"/>
<polygon fill="grey" stroke="grey" stroke-width="2" points="1157.77,-184.021 1147.93,-180.078 1153.16,-189.293 1157.77,-184.021"/>
</g>
<!-- 30 -->
<g id="node31" class="node"><title>30</title>
<path fill="none" stroke="#97d856" stroke-width="2" d="M1259.88,-417C1259.88,-417 1164.88,-417 1164.88,-417 1158.88,-417 1152.88,-411 1152.88,-405 1152.88,-405 1152.88,-393 1152.88,-393 1152.88,-387 1158.88,-381 1164.88,-381 1164.88,-381 1259.88,-381 1259.88,-381 1265.88,-381 1271.88,-387 1271.88,-393 1271.88,-393 1271.88,-405 1271.88,-405 1271.88,-411 1265.88,-417 1259.88,-417"/>
<text text-anchor="middle" x="1212.38" y="-402" font-family="sans" font-size="10.00">make_mt_gmap_db</text>
<text text-anchor="middle" x="1212.38" y="-391" font-family="sans" font-size="10.00">ref_genome_mt: mt2</text>
</g>
<!-- 30&#45;&gt;11 -->
<g id="edge32" class="edge"><title>30&#45;&gt;11</title>
<path fill="none" stroke="grey" stroke-width="2" d="M1245.08,-380.883C1262.47,-371.783 1284.34,-360.332 1304.41,-349.824"/>
<polygon fill="grey" stroke="grey" stroke-width="2" points="1306.25,-352.813 1313.48,-345.075 1303,-346.612 1306.25,-352.813"/>
</g>
<!-- 30&#45;&gt;22 -->
<g id="edge50" class="edge"><title>30&#45;&gt;22</title>
<path fill="none" stroke="grey" stroke-width="2" d="M1179.46,-380.883C1161.96,-371.783 1139.95,-360.332 1119.74,-349.824"/>
<polygon fill="grey" stroke="grey" stroke-width="2" points="1121.09,-346.583 1110.6,-345.075 1117.86,-352.793 1121.09,-346.583"/>
</g>
<!-- 31&#45;&gt;13 -->
<g id="edge35" class="edge"><title>31&#45;&gt;13</title>
<path fill="none" stroke="grey" stroke-width="2" d="M1568.38,-215.689C1568.38,-207.907 1568.38,-198.842 1568.38,-190.447"/>
<polygon fill="grey" stroke="grey" stroke-width="2" points="1571.88,-190.319 1568.38,-180.319 1564.88,-190.32 1571.88,-190.319"/>
</g>
<!-- 31&#45;&gt;15 -->
<g id="edge38" class="edge"><title>31&#45;&gt;15</title>
<path fill="none" stroke="grey" stroke-width="2" d="M1604.65,-215.88C1622.2,-206.381 1643.35,-194.937 1661.48,-185.128"/>
<polygon fill="grey" stroke="grey" stroke-width="2" points="1663.53,-188.003 1670.65,-180.166 1660.19,-181.847 1663.53,-188.003"/>
</g>
<!-- 32 -->
<g id="node33" class="node"><title>32</title>
<path fill="none" stroke="#d85656" stroke-width="2" d="M1750.38,-257C1750.38,-257 1650.38,-257 1650.38,-257 1644.38,-257 1638.38,-251 1638.38,-245 1638.38,-245 1638.38,-228 1638.38,-228 1638.38,-222 1644.38,-216 1650.38,-216 1650.38,-216 1750.38,-216 1750.38,-216 1756.38,-216 1762.38,-222 1762.38,-228 1762.38,-228 1762.38,-245 1762.38,-245 1762.38,-251 1756.38,-257 1750.38,-257"/>
<text text-anchor="middle" x="1700.38" y="-245" font-family="sans" font-size="10.00">make_mt_n_gmap_db</text>
<text text-anchor="middle" x="1700.38" y="-234" font-family="sans" font-size="10.00">ref_genome_mt: mt3</text>
<text text-anchor="middle" x="1700.38" y="-223" font-family="sans" font-size="10.00">ref_genome_n: n3</text>
</g>
<!-- 32&#45;&gt;13 -->
<g id="edge36" class="edge"><title>32&#45;&gt;13</title>
<path fill="none" stroke="grey" stroke-width="2" d="M1664.66,-215.88C1647.37,-206.381 1626.53,-194.937 1608.67,-185.128"/>
<polygon fill="grey" stroke="grey" stroke-width="2" points="1610.09,-181.913 1599.64,-180.166 1606.72,-188.048 1610.09,-181.913"/>
</g>
<!-- 32&#45;&gt;15 -->
<g id="edge39" class="edge"><title>32&#45;&gt;15</title>
<path fill="none" stroke="grey" stroke-width="2" d="M1700.93,-215.689C1701.14,-207.907 1701.39,-198.842 1701.63,-190.447"/>
<polygon fill="grey" stroke="grey" stroke-width="2" points="1705.13,-190.412 1701.91,-180.319 1698.13,-190.219 1705.13,-190.412"/>
</g>
<!-- 33 -->
<g id="node34" class="node"><title>33</title>
<path fill="none" stroke="#97d856" stroke-width="2" d="M1726.88,-417C1726.88,-417 1631.88,-417 1631.88,-417 1625.88,-417 1619.88,-411 1619.88,-405 1619.88,-405 1619.88,-393 1619.88,-393 1619.88,-387 1625.88,-381 1631.88,-381 1631.88,-381 1726.88,-381 1726.88,-381 1732.88,-381 1738.88,-387 1738.88,-393 1738.88,-393 1738.88,-405 1738.88,-405 1738.88,-411 1732.88,-417 1726.88,-417"/>
<text text-anchor="middle" x="1679.38" y="-402" font-family="sans" font-size="10.00">make_mt_gmap_db</text>
<text text-anchor="middle" x="1679.38" y="-391" font-family="sans" font-size="10.00">ref_genome_mt: mt3</text>
</g>
<!-- 33&#45;&gt;14 -->
<g id="edge37" class="edge"><title>33&#45;&gt;14</title>
<path fill="none" stroke="grey" stroke-width="2" d="M1679.38,-380.689C1679.38,-373.205 1679.38,-364.159 1679.38,-355.361"/>
<polygon fill="grey" stroke="grey" stroke-width="2" points="1682.88,-355.257 1679.38,-345.257 1675.88,-355.257 1682.88,-355.257"/>
</g>
<!-- 34&#45;&gt;16 -->
<g id="edge40" class="edge"><title>34&#45;&gt;16</title>
<path fill="none" stroke="grey" stroke-width="2" d="M126.075,-215.689C118.084,-207.042 108.629,-196.811 100.187,-187.676"/>
<polygon fill="grey" stroke="grey" stroke-width="2" points="102.746,-185.288 93.3886,-180.319 97.6052,-190.039 102.746,-185.288"/>
</g>
<!-- 34&#45;&gt;18 -->
<g id="edge43" class="edge"><title>34&#45;&gt;18</title>
<path fill="none" stroke="grey" stroke-width="2" d="M162.691,-215.689C170.682,-207.042 180.137,-196.811 188.579,-187.676"/>
<polygon fill="grey" stroke="grey" stroke-width="2" points="191.161,-190.039 195.377,-180.319 186.02,-185.288 191.161,-190.039"/>
</g>
<!-- 35&#45;&gt;19 -->
<g id="edge45" class="edge"><title>35&#45;&gt;19</title>
<path fill="none" stroke="grey" stroke-width="2" d="M342.929,-215.689C343.144,-207.907 343.394,-198.842 343.626,-190.447"/>
<polygon fill="grey" stroke="grey" stroke-width="2" points="347.128,-190.412 343.905,-180.319 340.131,-190.219 347.128,-190.412"/>
</g>
<!-- 35&#45;&gt;20 -->
<g id="edge48" class="edge"><title>35&#45;&gt;20</title>
<path fill="none" stroke="grey" stroke-width="2" d="M379.187,-215.88C397.087,-206.338 418.671,-194.832 437.127,-184.993"/>
<polygon fill="grey" stroke="grey" stroke-width="2" points="439.003,-187.959 446.181,-180.166 435.71,-181.782 439.003,-187.959"/>
</g>
<!-- 36&#45;&gt;23 -->
<g id="edge51" class="edge"><title>36&#45;&gt;23</title>
<path fill="none" stroke="grey" stroke-width="2" d="M1043.8,-215.689C1035.69,-207.042 1026.1,-196.811 1017.53,-187.676"/>
<polygon fill="grey" stroke="grey" stroke-width="2" points="1020.02,-185.219 1010.63,-180.319 1014.92,-190.008 1020.02,-185.219"/>
</g>
<!-- 36&#45;&gt;24 -->
<g id="edge54" class="edge"><title>36&#45;&gt;24</title>
<path fill="none" stroke="grey" stroke-width="2" d="M1080.42,-215.689C1088.21,-207.128 1097.42,-197.016 1105.67,-187.951"/>
<polygon fill="grey" stroke="grey" stroke-width="2" points="1108.47,-190.07 1112.62,-180.319 1103.3,-185.358 1108.47,-190.07"/>
</g>
</g>
</svg>
