<?xml version="1.0" encoding="UTF-8" standalone="no"?>
<!DOCTYPE svg PUBLIC "-//W3C//DTD SVG 1.1//EN"
 "http://www.w3.org/Graphics/SVG/1.1/DTD/svg11.dtd">
<!-- Generated by graphviz version 2.40.1 (20161225.0304)
 -->
<!-- Title: snakemake_dag Pages: 1 -->
<svg width="1068pt" height="913pt"
 viewBox="0.00 0.00 1067.50 913.00" xmlns="http://www.w3.org/2000/svg" xmlns:xlink="http://www.w3.org/1999/xlink">
<g id="graph0" class="graph" transform="scale(1 1) rotate(0) translate(4 909)">
<title>snakemake_dag</title>
<polygon fill="#ffffff" stroke="transparent" points="-4,4 -4,-909 1063.5,-909 1063.5,4 -4,4"/>
<!-- 0 -->
<g id="node1" class="node">
<title>0</title>
<path fill="none" stroke="#568ad8" stroke-width="2" d="M666.5,-36C666.5,-36 636.5,-36 636.5,-36 630.5,-36 624.5,-30 624.5,-24 624.5,-24 624.5,-12 624.5,-12 624.5,-6 630.5,0 636.5,0 636.5,0 666.5,0 666.5,0 672.5,0 678.5,-6 678.5,-12 678.5,-12 678.5,-24 678.5,-24 678.5,-30 672.5,-36 666.5,-36"/>
<text text-anchor="middle" x="651.5" y="-15.5" font-family="sans" font-size="10.00" fill="#000000">all</text>
</g>
<!-- 1 -->
<g id="node2" class="node">
<title>1</title>
<path fill="none" stroke="#d87556" stroke-width="2" d="M537.5,-108C537.5,-108 489.5,-108 489.5,-108 483.5,-108 477.5,-102 477.5,-96 477.5,-96 477.5,-84 477.5,-84 477.5,-78 483.5,-72 489.5,-72 489.5,-72 537.5,-72 537.5,-72 543.5,-72 549.5,-78 549.5,-84 549.5,-84 549.5,-96 549.5,-96 549.5,-102 543.5,-108 537.5,-108"/>
<text text-anchor="middle" x="513.5" y="-87.5" font-family="sans" font-size="10.00" fill="#000000">merge_VCF</text>
</g>
<!-- 1&#45;&gt;0 -->
<g id="edge1" class="edge">
<title>1&#45;&gt;0</title>
<path fill="none" stroke="#c0c0c0" stroke-width="2" d="M548.3232,-71.8314C568.6803,-61.2103 594.3472,-47.8188 614.9881,-37.0497"/>
<polygon fill="#c0c0c0" stroke="#c0c0c0" stroke-width="2" points="616.8341,-40.0343 624.081,-32.3056 613.5961,-33.8282 616.8341,-40.0343"/>
</g>
<!-- 2 -->
<g id="node3" class="node">
<title>2</title>
<path fill="none" stroke="#d87556" stroke-width="2" d="M739.5,-108C739.5,-108 691.5,-108 691.5,-108 685.5,-108 679.5,-102 679.5,-96 679.5,-96 679.5,-84 679.5,-84 679.5,-78 685.5,-72 691.5,-72 691.5,-72 739.5,-72 739.5,-72 745.5,-72 751.5,-78 751.5,-84 751.5,-84 751.5,-96 751.5,-96 751.5,-102 745.5,-108 739.5,-108"/>
<text text-anchor="middle" x="715.5" y="-87.5" font-family="sans" font-size="10.00" fill="#000000">merge_VCF</text>
</g>
<!-- 2&#45;&gt;0 -->
<g id="edge2" class="edge">
<title>2&#45;&gt;0</title>
<path fill="none" stroke="#c0c0c0" stroke-width="2" d="M699.3501,-71.8314C691.8283,-63.3694 682.7435,-53.1489 674.5196,-43.8971"/>
<polygon fill="#c0c0c0" stroke="#c0c0c0" stroke-width="2" points="677.127,-41.5621 667.8673,-36.4133 671.8951,-46.2127 677.127,-41.5621"/>
</g>
<!-- 3 -->
<g id="node4" class="node">
<title>3</title>
<path fill="none" stroke="#b6d856" stroke-width="2" d="M411,-252C411,-252 332,-252 332,-252 326,-252 320,-246 320,-240 320,-240 320,-228 320,-228 320,-222 326,-216 332,-216 332,-216 411,-216 411,-216 417,-216 423,-222 423,-228 423,-228 423,-240 423,-240 423,-246 417,-252 411,-252"/>
<text text-anchor="middle" x="371.5" y="-231.5" font-family="sans" font-size="10.00" fill="#000000">make_single_VCF</text>
</g>
<!-- 3&#45;&gt;0 -->
<g id="edge3" class="edge">
<title>3&#45;&gt;0</title>
<path fill="none" stroke="#c0c0c0" stroke-width="2" d="M358.5943,-215.7357C346.9449,-196.7945 333.4734,-166.8138 346.5,-144 377.7194,-89.3246 410.7586,-97.0994 468.5,-72 517.2336,-50.8161 576.7494,-34.9772 614.3983,-26.1028"/>
<polygon fill="#c0c0c0" stroke="#c0c0c0" stroke-width="2" points="615.4569,-29.4504 624.4102,-23.7858 613.8786,-22.6306 615.4569,-29.4504"/>
</g>
<!-- 3&#45;&gt;1 -->
<g id="edge10" class="edge">
<title>3&#45;&gt;1</title>
<path fill="none" stroke="#c0c0c0" stroke-width="2" d="M393.2111,-215.8312C405.1096,-205.6164 419.9474,-192.45 432.5,-180 453.3381,-159.3323 475.5394,-134.4386 491.4189,-116.0758"/>
<polygon fill="#c0c0c0" stroke="#c0c0c0" stroke-width="2" points="494.3784,-118.0021 498.2425,-108.137 489.0699,-113.4393 494.3784,-118.0021"/>
</g>
<!-- 10 -->
<g id="node11" class="node">
<title>10</title>
<path fill="none" stroke="#56d89a" stroke-width="2" d="M411.5,-180C411.5,-180 367.5,-180 367.5,-180 361.5,-180 355.5,-174 355.5,-168 355.5,-168 355.5,-156 355.5,-156 355.5,-150 361.5,-144 367.5,-144 367.5,-144 411.5,-144 411.5,-144 417.5,-144 423.5,-150 423.5,-156 423.5,-156 423.5,-168 423.5,-168 423.5,-174 417.5,-180 411.5,-180"/>
<text text-anchor="middle" x="389.5" y="-159.5" font-family="sans" font-size="10.00" fill="#000000">index_VCF</text>
</g>
<!-- 3&#45;&gt;10 -->
<g id="edge24" class="edge">
<title>3&#45;&gt;10</title>
<path fill="none" stroke="#c0c0c0" stroke-width="2" d="M376.0422,-215.8314C377.9884,-208.0463 380.3068,-198.7729 382.4663,-190.1347"/>
<polygon fill="#c0c0c0" stroke="#c0c0c0" stroke-width="2" points="385.8668,-190.9636 384.8967,-180.4133 379.0758,-189.2658 385.8668,-190.9636"/>
</g>
<!-- 4 -->
<g id="node5" class="node">
<title>4</title>
<path fill="none" stroke="#b6d856" stroke-width="2" d="M611,-252C611,-252 532,-252 532,-252 526,-252 520,-246 520,-240 520,-240 520,-228 520,-228 520,-222 526,-216 532,-216 532,-216 611,-216 611,-216 617,-216 623,-222 623,-228 623,-228 623,-240 623,-240 623,-246 617,-252 611,-252"/>
<text text-anchor="middle" x="571.5" y="-231.5" font-family="sans" font-size="10.00" fill="#000000">make_single_VCF</text>
</g>
<!-- 4&#45;&gt;0 -->
<g id="edge4" class="edge">
<title>4&#45;&gt;0</title>
<path fill="none" stroke="#c0c0c0" stroke-width="2" d="M578.1832,-215.9555C592.1831,-178.1556 624.6665,-90.4506 641.2939,-45.5564"/>
<polygon fill="#c0c0c0" stroke="#c0c0c0" stroke-width="2" points="644.5885,-46.7382 644.7796,-36.1451 638.0243,-44.3069 644.5885,-46.7382"/>
</g>
<!-- 4&#45;&gt;1 -->
<g id="edge11" class="edge">
<title>4&#45;&gt;1</title>
<path fill="none" stroke="#c0c0c0" stroke-width="2" d="M571.1392,-215.9905C570.1707,-197.2572 566.936,-167.4438 556.5,-144 552.1137,-134.1464 545.4968,-124.5469 538.76,-116.2408"/>
<polygon fill="#c0c0c0" stroke="#c0c0c0" stroke-width="2" points="541.2194,-113.7314 532.0612,-108.4042 535.8984,-118.2797 541.2194,-113.7314"/>
</g>
<!-- 11 -->
<g id="node12" class="node">
<title>11</title>
<path fill="none" stroke="#56d89a" stroke-width="2" d="M535.5,-180C535.5,-180 491.5,-180 491.5,-180 485.5,-180 479.5,-174 479.5,-168 479.5,-168 479.5,-156 479.5,-156 479.5,-150 485.5,-144 491.5,-144 491.5,-144 535.5,-144 535.5,-144 541.5,-144 547.5,-150 547.5,-156 547.5,-156 547.5,-168 547.5,-168 547.5,-174 541.5,-180 535.5,-180"/>
<text text-anchor="middle" x="513.5" y="-159.5" font-family="sans" font-size="10.00" fill="#000000">index_VCF</text>
</g>
<!-- 4&#45;&gt;11 -->
<g id="edge25" class="edge">
<title>4&#45;&gt;11</title>
<path fill="none" stroke="#c0c0c0" stroke-width="2" d="M556.8642,-215.8314C550.1839,-207.5386 542.1432,-197.557 534.8096,-188.4533"/>
<polygon fill="#c0c0c0" stroke="#c0c0c0" stroke-width="2" points="537.3319,-186.0052 528.3329,-180.4133 531.8806,-190.3965 537.3319,-186.0052"/>
</g>
<!-- 5 -->
<g id="node6" class="node">
<title>5</title>
<path fill="none" stroke="#b6d856" stroke-width="2" d="M852,-252C852,-252 773,-252 773,-252 767,-252 761,-246 761,-240 761,-240 761,-228 761,-228 761,-222 767,-216 773,-216 773,-216 852,-216 852,-216 858,-216 864,-222 864,-228 864,-228 864,-240 864,-240 864,-246 858,-252 852,-252"/>
<text text-anchor="middle" x="812.5" y="-231.5" font-family="sans" font-size="10.00" fill="#000000">make_single_VCF</text>
</g>
<!-- 5&#45;&gt;0 -->
<g id="edge5" class="edge">
<title>5&#45;&gt;0</title>
<path fill="none" stroke="#c0c0c0" stroke-width="2" d="M811.239,-215.987C808.0797,-183.5302 797.2095,-114.6474 760.5,-72 741.6941,-50.1522 711.9537,-36.2505 688.2859,-28.0326"/>
<polygon fill="#c0c0c0" stroke="#c0c0c0" stroke-width="2" points="689.1566,-24.635 678.564,-24.8521 686.98,-31.288 689.1566,-24.635"/>
</g>
<!-- 5&#45;&gt;2 -->
<g id="edge14" class="edge">
<title>5&#45;&gt;2</title>
<path fill="none" stroke="#c0c0c0" stroke-width="2" d="M801.8259,-215.7546C790.8988,-197.3449 773.1984,-168.2516 756.5,-144 750.1259,-134.7427 742.8028,-124.8787 736.1255,-116.1484"/>
<polygon fill="#c0c0c0" stroke="#c0c0c0" stroke-width="2" points="738.8558,-113.9576 729.9734,-108.1824 733.3156,-118.2362 738.8558,-113.9576"/>
</g>
<!-- 12 -->
<g id="node13" class="node">
<title>12</title>
<path fill="none" stroke="#56d89a" stroke-width="2" d="M735.5,-180C735.5,-180 691.5,-180 691.5,-180 685.5,-180 679.5,-174 679.5,-168 679.5,-168 679.5,-156 679.5,-156 679.5,-150 685.5,-144 691.5,-144 691.5,-144 735.5,-144 735.5,-144 741.5,-144 747.5,-150 747.5,-156 747.5,-156 747.5,-168 747.5,-168 747.5,-174 741.5,-180 735.5,-180"/>
<text text-anchor="middle" x="713.5" y="-159.5" font-family="sans" font-size="10.00" fill="#000000">index_VCF</text>
</g>
<!-- 5&#45;&gt;12 -->
<g id="edge26" class="edge">
<title>5&#45;&gt;12</title>
<path fill="none" stroke="#c0c0c0" stroke-width="2" d="M787.5181,-215.8314C775.2072,-206.8779 760.1893,-195.9558 746.9063,-186.2955"/>
<polygon fill="#c0c0c0" stroke="#c0c0c0" stroke-width="2" points="748.6199,-183.214 738.4739,-180.1628 744.5027,-188.8752 748.6199,-183.214"/>
</g>
<!-- 6 -->
<g id="node7" class="node">
<title>6</title>
<path fill="none" stroke="#56d863" stroke-width="2" d="M929.5,-108C929.5,-108 853.5,-108 853.5,-108 847.5,-108 841.5,-102 841.5,-96 841.5,-96 841.5,-84 841.5,-84 841.5,-78 847.5,-72 853.5,-72 853.5,-72 929.5,-72 929.5,-72 935.5,-72 941.5,-78 941.5,-84 941.5,-84 941.5,-96 941.5,-96 941.5,-102 935.5,-108 929.5,-108"/>
<text text-anchor="middle" x="891.5" y="-93" font-family="sans" font-size="10.00" fill="#000000">fastqc_raw</text>
<text text-anchor="middle" x="891.5" y="-82" font-family="sans" font-size="10.00" fill="#000000">sample: 87074_1</text>
</g>
<!-- 6&#45;&gt;0 -->
<g id="edge6" class="edge">
<title>6&#45;&gt;0</title>
<path fill="none" stroke="#c0c0c0" stroke-width="2" d="M841.4803,-74.9941C795.7916,-61.2875 729.299,-41.3397 688.3072,-29.0422"/>
<polygon fill="#c0c0c0" stroke="#c0c0c0" stroke-width="2" points="689.2976,-25.6852 678.7136,-26.1641 687.2861,-32.39 689.2976,-25.6852"/>
</g>
<!-- 7 -->
<g id="node8" class="node">
<title>7</title>
<path fill="none" stroke="#56d863" stroke-width="2" d="M1047.5,-108C1047.5,-108 971.5,-108 971.5,-108 965.5,-108 959.5,-102 959.5,-96 959.5,-96 959.5,-84 959.5,-84 959.5,-78 965.5,-72 971.5,-72 971.5,-72 1047.5,-72 1047.5,-72 1053.5,-72 1059.5,-78 1059.5,-84 1059.5,-84 1059.5,-96 1059.5,-96 1059.5,-102 1053.5,-108 1047.5,-108"/>
<text text-anchor="middle" x="1009.5" y="-93" font-family="sans" font-size="10.00" fill="#000000">fastqc_raw</text>
<text text-anchor="middle" x="1009.5" y="-82" font-family="sans" font-size="10.00" fill="#000000">sample: 87075_2</text>
</g>
<!-- 7&#45;&gt;0 -->
<g id="edge7" class="edge">
<title>7&#45;&gt;0</title>
<path fill="none" stroke="#c0c0c0" stroke-width="2" d="M959.3984,-74.277C956.3972,-73.4714 953.4145,-72.7052 950.5,-72 857.1053,-49.4024 745.231,-31.6224 688.4649,-23.2458"/>
<polygon fill="#c0c0c0" stroke="#c0c0c0" stroke-width="2" points="688.9248,-19.7759 678.5236,-21.7921 687.9119,-26.7022 688.9248,-19.7759"/>
</g>
<!-- 8 -->
<g id="node9" class="node">
<title>8</title>
<path fill="none" stroke="#d8ac56" stroke-width="2" d="M75,-612C75,-612 12,-612 12,-612 6,-612 0,-606 0,-600 0,-600 0,-588 0,-588 0,-582 6,-576 12,-576 12,-576 75,-576 75,-576 81,-576 87,-582 87,-588 87,-588 87,-600 87,-600 87,-606 81,-612 75,-612"/>
<text text-anchor="middle" x="43.5" y="-591.5" font-family="sans" font-size="10.00" fill="#000000">fastqc_filtered</text>
</g>
<!-- 8&#45;&gt;0 -->
<g id="edge8" class="edge">
<title>8&#45;&gt;0</title>
<path fill="none" stroke="#c0c0c0" stroke-width="2" d="M58.5914,-575.7475C78.6248,-549.6068 111.5,-499.2121 111.5,-450 111.5,-450 111.5,-450 111.5,-162 111.5,-57.7046 492.326,-27.0264 614.3566,-19.8732"/>
<polygon fill="#c0c0c0" stroke="#c0c0c0" stroke-width="2" points="614.5655,-23.367 624.3512,-19.3064 614.1691,-16.3783 614.5655,-23.367"/>
</g>
<!-- 9 -->
<g id="node10" class="node">
<title>9</title>
<path fill="none" stroke="#d8ac56" stroke-width="2" d="M708,-540C708,-540 645,-540 645,-540 639,-540 633,-534 633,-528 633,-528 633,-516 633,-516 633,-510 639,-504 645,-504 645,-504 708,-504 708,-504 714,-504 720,-510 720,-516 720,-516 720,-528 720,-528 720,-534 714,-540 708,-540"/>
<text text-anchor="middle" x="676.5" y="-519.5" font-family="sans" font-size="10.00" fill="#000000">fastqc_filtered</text>
</g>
<!-- 9&#45;&gt;0 -->
<g id="edge9" class="edge">
<title>9&#45;&gt;0</title>
<path fill="none" stroke="#c0c0c0" stroke-width="2" d="M671.32,-503.9889C663.9973,-476.8949 651.5,-423.9269 651.5,-378 651.5,-378 651.5,-378 651.5,-162 651.5,-121.876 651.5,-75.4631 651.5,-46.4177"/>
<polygon fill="#c0c0c0" stroke="#c0c0c0" stroke-width="2" points="655.0001,-46.1853 651.5,-36.1854 648.0001,-46.1854 655.0001,-46.1853"/>
</g>
<!-- 10&#45;&gt;1 -->
<g id="edge12" class="edge">
<title>10&#45;&gt;1</title>
<path fill="none" stroke="#c0c0c0" stroke-width="2" d="M420.7904,-143.8314C436.7977,-134.5368 456.4586,-123.1208 473.5494,-113.1971"/>
<polygon fill="#c0c0c0" stroke="#c0c0c0" stroke-width="2" points="475.3292,-116.211 482.2196,-108.1628 471.8142,-110.1575 475.3292,-116.211"/>
</g>
<!-- 11&#45;&gt;1 -->
<g id="edge13" class="edge">
<title>11&#45;&gt;1</title>
<path fill="none" stroke="#c0c0c0" stroke-width="2" d="M513.5,-143.8314C513.5,-136.131 513.5,-126.9743 513.5,-118.4166"/>
<polygon fill="#c0c0c0" stroke="#c0c0c0" stroke-width="2" points="517.0001,-118.4132 513.5,-108.4133 510.0001,-118.4133 517.0001,-118.4132"/>
</g>
<!-- 12&#45;&gt;2 -->
<g id="edge15" class="edge">
<title>12&#45;&gt;2</title>
<path fill="none" stroke="#c0c0c0" stroke-width="2" d="M714.0047,-143.8314C714.2186,-136.131 714.4729,-126.9743 714.7106,-118.4166"/>
<polygon fill="#c0c0c0" stroke="#c0c0c0" stroke-width="2" points="718.2094,-118.5066 714.9885,-108.4133 711.2121,-118.3122 718.2094,-118.5066"/>
</g>
<!-- 13 -->
<g id="node14" class="node">
<title>13</title>
<path fill="none" stroke="#d88d56" stroke-width="2" d="M272.5,-612C272.5,-612 162.5,-612 162.5,-612 156.5,-612 150.5,-606 150.5,-600 150.5,-600 150.5,-588 150.5,-588 150.5,-582 156.5,-576 162.5,-576 162.5,-576 272.5,-576 272.5,-576 278.5,-576 284.5,-582 284.5,-588 284.5,-588 284.5,-600 284.5,-600 284.5,-606 278.5,-612 272.5,-612"/>
<text text-anchor="middle" x="217.5" y="-591.5" font-family="sans" font-size="10.00" fill="#000000">filtering_mt_alignments</text>
</g>
<!-- 13&#45;&gt;3 -->
<g id="edge16" class="edge">
<title>13&#45;&gt;3</title>
<path fill="none" stroke="#c0c0c0" stroke-width="2" d="M217.5,-575.8146C217.5,-548.4983 217.5,-495.25 217.5,-450 217.5,-450 217.5,-450 217.5,-378 217.5,-320.9832 274.5165,-280.0384 319.1637,-256.7167"/>
<polygon fill="#c0c0c0" stroke="#c0c0c0" stroke-width="2" points="320.8501,-259.7859 328.1926,-252.148 317.6896,-253.54 320.8501,-259.7859"/>
</g>
<!-- 45 -->
<g id="node46" class="node">
<title>45</title>
<path fill="none" stroke="#56a9d8" stroke-width="2" d="M299,-540C299,-540 258,-540 258,-540 252,-540 246,-534 246,-528 246,-528 246,-516 246,-516 246,-510 252,-504 258,-504 258,-504 299,-504 299,-504 305,-504 311,-510 311,-516 311,-516 311,-528 311,-528 311,-534 305,-540 299,-540"/>
<text text-anchor="middle" x="278.5" y="-519.5" font-family="sans" font-size="10.00" fill="#000000">sam2bam</text>
</g>
<!-- 13&#45;&gt;45 -->
<g id="edge71" class="edge">
<title>13&#45;&gt;45</title>
<path fill="none" stroke="#c0c0c0" stroke-width="2" d="M232.8929,-575.8314C239.9904,-567.454 248.548,-557.3531 256.324,-548.1749"/>
<polygon fill="#c0c0c0" stroke="#c0c0c0" stroke-width="2" points="259.1061,-550.3056 262.8999,-540.4133 253.7652,-545.7807 259.1061,-550.3056"/>
</g>
<!-- 14 -->
<g id="node15" class="node">
<title>14</title>
<path fill="none" stroke="#56d882" stroke-width="2" d="M407.5,-324C407.5,-324 335.5,-324 335.5,-324 329.5,-324 323.5,-318 323.5,-312 323.5,-312 323.5,-300 323.5,-300 323.5,-294 329.5,-288 335.5,-288 335.5,-288 407.5,-288 407.5,-288 413.5,-288 419.5,-294 419.5,-300 419.5,-300 419.5,-312 419.5,-312 419.5,-318 413.5,-324 407.5,-324"/>
<text text-anchor="middle" x="371.5" y="-303.5" font-family="sans" font-size="10.00" fill="#000000">pileup2mt_table</text>
</g>
<!-- 14&#45;&gt;3 -->
<g id="edge17" class="edge">
<title>14&#45;&gt;3</title>
<path fill="none" stroke="#c0c0c0" stroke-width="2" d="M371.5,-287.8314C371.5,-280.131 371.5,-270.9743 371.5,-262.4166"/>
<polygon fill="#c0c0c0" stroke="#c0c0c0" stroke-width="2" points="375.0001,-262.4132 371.5,-252.4133 368.0001,-262.4133 375.0001,-262.4132"/>
</g>
<!-- 15 -->
<g id="node16" class="node">
<title>15</title>
<path fill="none" stroke="#d88d56" stroke-width="2" d="M630.5,-612C630.5,-612 520.5,-612 520.5,-612 514.5,-612 508.5,-606 508.5,-600 508.5,-600 508.5,-588 508.5,-588 508.5,-582 514.5,-576 520.5,-576 520.5,-576 630.5,-576 630.5,-576 636.5,-576 642.5,-582 642.5,-588 642.5,-588 642.5,-600 642.5,-600 642.5,-606 636.5,-612 630.5,-612"/>
<text text-anchor="middle" x="575.5" y="-591.5" font-family="sans" font-size="10.00" fill="#000000">filtering_mt_alignments</text>
</g>
<!-- 15&#45;&gt;4 -->
<g id="edge18" class="edge">
<title>15&#45;&gt;4</title>
<path fill="none" stroke="#c0c0c0" stroke-width="2" d="M575.5,-575.8146C575.5,-548.4983 575.5,-495.25 575.5,-450 575.5,-450 575.5,-450 575.5,-378 575.5,-337.8605 573.9278,-291.4516 572.7547,-262.4112"/>
<polygon fill="#c0c0c0" stroke="#c0c0c0" stroke-width="2" points="576.2419,-262.0266 572.3288,-252.1809 569.2479,-262.3179 576.2419,-262.0266"/>
</g>
<!-- 46 -->
<g id="node47" class="node">
<title>46</title>
<path fill="none" stroke="#56a9d8" stroke-width="2" d="M528,-540C528,-540 487,-540 487,-540 481,-540 475,-534 475,-528 475,-528 475,-516 475,-516 475,-510 481,-504 487,-504 487,-504 528,-504 528,-504 534,-504 540,-510 540,-516 540,-516 540,-528 540,-528 540,-534 534,-540 528,-540"/>
<text text-anchor="middle" x="507.5" y="-519.5" font-family="sans" font-size="10.00" fill="#000000">sam2bam</text>
</g>
<!-- 15&#45;&gt;46 -->
<g id="edge72" class="edge">
<title>15&#45;&gt;46</title>
<path fill="none" stroke="#c0c0c0" stroke-width="2" d="M558.3407,-575.8314C550.3489,-567.3694 540.6962,-557.1489 531.9584,-547.8971"/>
<polygon fill="#c0c0c0" stroke="#c0c0c0" stroke-width="2" points="534.3011,-545.2802 524.8903,-540.4133 529.212,-550.0866 534.3011,-545.2802"/>
</g>
<!-- 16 -->
<g id="node17" class="node">
<title>16</title>
<path fill="none" stroke="#56d882" stroke-width="2" d="M535.5,-324C535.5,-324 463.5,-324 463.5,-324 457.5,-324 451.5,-318 451.5,-312 451.5,-312 451.5,-300 451.5,-300 451.5,-294 457.5,-288 463.5,-288 463.5,-288 535.5,-288 535.5,-288 541.5,-288 547.5,-294 547.5,-300 547.5,-300 547.5,-312 547.5,-312 547.5,-318 541.5,-324 535.5,-324"/>
<text text-anchor="middle" x="499.5" y="-303.5" font-family="sans" font-size="10.00" fill="#000000">pileup2mt_table</text>
</g>
<!-- 16&#45;&gt;4 -->
<g id="edge19" class="edge">
<title>16&#45;&gt;4</title>
<path fill="none" stroke="#c0c0c0" stroke-width="2" d="M517.6686,-287.8314C526.2152,-279.2848 536.5557,-268.9443 545.8802,-259.6198"/>
<polygon fill="#c0c0c0" stroke="#c0c0c0" stroke-width="2" points="548.4905,-261.9592 553.0867,-252.4133 543.5408,-257.0095 548.4905,-261.9592"/>
</g>
<!-- 17 -->
<g id="node18" class="node">
<title>17</title>
<path fill="none" stroke="#d88d56" stroke-width="2" d="M933.5,-612C933.5,-612 823.5,-612 823.5,-612 817.5,-612 811.5,-606 811.5,-600 811.5,-600 811.5,-588 811.5,-588 811.5,-582 817.5,-576 823.5,-576 823.5,-576 933.5,-576 933.5,-576 939.5,-576 945.5,-582 945.5,-588 945.5,-588 945.5,-600 945.5,-600 945.5,-606 939.5,-612 933.5,-612"/>
<text text-anchor="middle" x="878.5" y="-591.5" font-family="sans" font-size="10.00" fill="#000000">filtering_mt_alignments</text>
</g>
<!-- 17&#45;&gt;5 -->
<g id="edge20" class="edge">
<title>17&#45;&gt;5</title>
<path fill="none" stroke="#c0c0c0" stroke-width="2" d="M862.2823,-575.5894C854.1915,-565.62 844.8112,-552.7579 838.5,-540 820.0387,-502.681 812.5,-491.6357 812.5,-450 812.5,-450 812.5,-450 812.5,-378 812.5,-337.876 812.5,-291.4631 812.5,-262.4177"/>
<polygon fill="#c0c0c0" stroke="#c0c0c0" stroke-width="2" points="816.0001,-262.1853 812.5,-252.1854 809.0001,-262.1854 816.0001,-262.1853"/>
</g>
<!-- 47 -->
<g id="node48" class="node">
<title>47</title>
<path fill="none" stroke="#56a9d8" stroke-width="2" d="M901,-540C901,-540 860,-540 860,-540 854,-540 848,-534 848,-528 848,-528 848,-516 848,-516 848,-510 854,-504 860,-504 860,-504 901,-504 901,-504 907,-504 913,-510 913,-516 913,-516 913,-528 913,-528 913,-534 907,-540 901,-540"/>
<text text-anchor="middle" x="880.5" y="-519.5" font-family="sans" font-size="10.00" fill="#000000">sam2bam</text>
</g>
<!-- 17&#45;&gt;47 -->
<g id="edge73" class="edge">
<title>17&#45;&gt;47</title>
<path fill="none" stroke="#c0c0c0" stroke-width="2" d="M879.0047,-575.8314C879.2186,-568.131 879.4729,-558.9743 879.7106,-550.4166"/>
<polygon fill="#c0c0c0" stroke="#c0c0c0" stroke-width="2" points="883.2094,-550.5066 879.9885,-540.4133 876.2121,-550.3122 883.2094,-550.5066"/>
</g>
<!-- 18 -->
<g id="node19" class="node">
<title>18</title>
<path fill="none" stroke="#56d882" stroke-width="2" d="M924.5,-324C924.5,-324 852.5,-324 852.5,-324 846.5,-324 840.5,-318 840.5,-312 840.5,-312 840.5,-300 840.5,-300 840.5,-294 846.5,-288 852.5,-288 852.5,-288 924.5,-288 924.5,-288 930.5,-288 936.5,-294 936.5,-300 936.5,-300 936.5,-312 936.5,-312 936.5,-318 930.5,-324 924.5,-324"/>
<text text-anchor="middle" x="888.5" y="-303.5" font-family="sans" font-size="10.00" fill="#000000">pileup2mt_table</text>
</g>
<!-- 18&#45;&gt;5 -->
<g id="edge21" class="edge">
<title>18&#45;&gt;5</title>
<path fill="none" stroke="#c0c0c0" stroke-width="2" d="M869.322,-287.8314C860.1412,-279.1337 848.9994,-268.5783 839.0224,-259.1265"/>
<polygon fill="#c0c0c0" stroke="#c0c0c0" stroke-width="2" points="841.3385,-256.4995 831.6719,-252.1628 836.5243,-261.5811 841.3385,-256.4995"/>
</g>
<!-- 19 -->
<g id="node20" class="node">
<title>19</title>
<path fill="none" stroke="#56d8b9" stroke-width="2" d="M101.5,-905C101.5,-905 25.5,-905 25.5,-905 19.5,-905 13.5,-899 13.5,-893 13.5,-893 13.5,-881 13.5,-881 13.5,-875 19.5,-869 25.5,-869 25.5,-869 101.5,-869 101.5,-869 107.5,-869 113.5,-875 113.5,-881 113.5,-881 113.5,-893 113.5,-893 113.5,-899 107.5,-905 101.5,-905"/>
<text text-anchor="middle" x="63.5" y="-890" font-family="sans" font-size="10.00" fill="#000000">trimmomatic</text>
<text text-anchor="middle" x="63.5" y="-879" font-family="sans" font-size="10.00" fill="#000000">sample: 87074_1</text>
</g>
<!-- 19&#45;&gt;8 -->
<g id="edge22" class="edge">
<title>19&#45;&gt;8</title>
<path fill="none" stroke="#c0c0c0" stroke-width="2" d="M56.7594,-868.7879C53.2755,-858.449 49.3703,-845.1773 47.5,-833 35.9184,-757.5919 38.9082,-667.2342 41.5138,-622.2875"/>
<polygon fill="#c0c0c0" stroke="#c0c0c0" stroke-width="2" points="45.018,-622.3266 42.1421,-612.1295 38.0313,-621.8944 45.018,-622.3266"/>
</g>
<!-- 21 -->
<g id="node22" class="node">
<title>21</title>
<path fill="none" stroke="#d85656" stroke-width="2" d="M182,-833C182,-833 69,-833 69,-833 63,-833 57,-827 57,-821 57,-821 57,-809 57,-809 57,-803 63,-797 69,-797 69,-797 182,-797 182,-797 188,-797 194,-803 194,-809 194,-809 194,-821 194,-821 194,-827 188,-833 182,-833"/>
<text text-anchor="middle" x="125.5" y="-818" font-family="sans" font-size="10.00" fill="#000000">map_MT_PE_SE</text>
<text text-anchor="middle" x="125.5" y="-807" font-family="sans" font-size="10.00" fill="#000000">ref_genome_n: pb_121&#45;1</text>
</g>
<!-- 19&#45;&gt;21 -->
<g id="edge39" class="edge">
<title>19&#45;&gt;21</title>
<path fill="none" stroke="#c0c0c0" stroke-width="2" d="M79.1452,-868.8314C86.3591,-860.454 95.057,-850.3531 102.9605,-841.1749"/>
<polygon fill="#c0c0c0" stroke="#c0c0c0" stroke-width="2" points="105.7711,-843.2748 109.6441,-833.4133 100.4667,-838.7071 105.7711,-843.2748"/>
</g>
<!-- 20 -->
<g id="node21" class="node">
<title>20</title>
<path fill="none" stroke="#56d8b9" stroke-width="2" d="M725.5,-905C725.5,-905 649.5,-905 649.5,-905 643.5,-905 637.5,-899 637.5,-893 637.5,-893 637.5,-881 637.5,-881 637.5,-875 643.5,-869 649.5,-869 649.5,-869 725.5,-869 725.5,-869 731.5,-869 737.5,-875 737.5,-881 737.5,-881 737.5,-893 737.5,-893 737.5,-899 731.5,-905 725.5,-905"/>
<text text-anchor="middle" x="687.5" y="-890" font-family="sans" font-size="10.00" fill="#000000">trimmomatic</text>
<text text-anchor="middle" x="687.5" y="-879" font-family="sans" font-size="10.00" fill="#000000">sample: 87075_2</text>
</g>
<!-- 20&#45;&gt;9 -->
<g id="edge23" class="edge">
<title>20&#45;&gt;9</title>
<path fill="none" stroke="#c0c0c0" stroke-width="2" d="M690.608,-868.5609C695.0016,-840.8494 702.5,-786.7763 702.5,-740.5 702.5,-740.5 702.5,-740.5 702.5,-666 702.5,-625.2738 692.304,-579.0849 684.682,-550.2458"/>
<polygon fill="#c0c0c0" stroke="#c0c0c0" stroke-width="2" points="688.0185,-549.1771 682.0139,-540.4481 681.2644,-551.0164 688.0185,-549.1771"/>
</g>
<!-- 25 -->
<g id="node26" class="node">
<title>25</title>
<path fill="none" stroke="#d85656" stroke-width="2" d="M649,-833C649,-833 536,-833 536,-833 530,-833 524,-827 524,-821 524,-821 524,-809 524,-809 524,-803 530,-797 536,-797 536,-797 649,-797 649,-797 655,-797 661,-803 661,-809 661,-809 661,-821 661,-821 661,-827 655,-833 649,-833"/>
<text text-anchor="middle" x="592.5" y="-818" font-family="sans" font-size="10.00" fill="#000000">map_MT_PE_SE</text>
<text text-anchor="middle" x="592.5" y="-807" font-family="sans" font-size="10.00" fill="#000000">ref_genome_n: pb_121&#45;1</text>
</g>
<!-- 20&#45;&gt;25 -->
<g id="edge47" class="edge">
<title>20&#45;&gt;25</title>
<path fill="none" stroke="#c0c0c0" stroke-width="2" d="M663.5275,-868.8314C651.7139,-859.8779 637.3028,-848.9558 624.5565,-839.2955"/>
<polygon fill="#c0c0c0" stroke="#c0c0c0" stroke-width="2" points="626.5486,-836.4137 616.4648,-833.1628 622.3205,-841.9925 626.5486,-836.4137"/>
</g>
<!-- 29 -->
<g id="node30" class="node">
<title>29</title>
<path fill="none" stroke="#d85656" stroke-width="2" d="M868,-833C868,-833 755,-833 755,-833 749,-833 743,-827 743,-821 743,-821 743,-809 743,-809 743,-803 749,-797 755,-797 755,-797 868,-797 868,-797 874,-797 880,-803 880,-809 880,-809 880,-821 880,-821 880,-827 874,-833 868,-833"/>
<text text-anchor="middle" x="811.5" y="-818" font-family="sans" font-size="10.00" fill="#000000">map_MT_PE_SE</text>
<text text-anchor="middle" x="811.5" y="-807" font-family="sans" font-size="10.00" fill="#000000">ref_genome_n: pb_121&#45;1</text>
</g>
<!-- 20&#45;&gt;29 -->
<g id="edge55" class="edge">
<title>20&#45;&gt;29</title>
<path fill="none" stroke="#c0c0c0" stroke-width="2" d="M718.7904,-868.8314C734.7977,-859.5368 754.4586,-848.1208 771.5494,-838.1971"/>
<polygon fill="#c0c0c0" stroke="#c0c0c0" stroke-width="2" points="773.3292,-841.211 780.2196,-833.1628 769.8142,-835.1575 773.3292,-841.211"/>
</g>
<!-- 21&#45;&gt;13 -->
<g id="edge27" class="edge">
<title>21&#45;&gt;13</title>
<path fill="none" stroke="#c0c0c0" stroke-width="2" d="M109.986,-796.8971C84.1865,-764.4885 38.416,-695.511 71.5,-648 80.2793,-635.3923 110.0582,-623.3321 140.4522,-613.8199"/>
<polygon fill="#c0c0c0" stroke="#c0c0c0" stroke-width="2" points="141.7651,-617.0791 150.3161,-610.8236 139.7305,-610.3812 141.7651,-617.0791"/>
</g>
<!-- 34 -->
<g id="node35" class="node">
<title>34</title>
<path fill="none" stroke="#56d8d0" stroke-width="2" d="M160.5,-758.5C160.5,-758.5 116.5,-758.5 116.5,-758.5 110.5,-758.5 104.5,-752.5 104.5,-746.5 104.5,-746.5 104.5,-734.5 104.5,-734.5 104.5,-728.5 110.5,-722.5 116.5,-722.5 116.5,-722.5 160.5,-722.5 160.5,-722.5 166.5,-722.5 172.5,-728.5 172.5,-734.5 172.5,-734.5 172.5,-746.5 172.5,-746.5 172.5,-752.5 166.5,-758.5 160.5,-758.5"/>
<text text-anchor="middle" x="138.5" y="-738" font-family="sans" font-size="10.00" fill="#000000">sam2fastq</text>
</g>
<!-- 21&#45;&gt;34 -->
<g id="edge63" class="edge">
<title>21&#45;&gt;34</title>
<path fill="none" stroke="#c0c0c0" stroke-width="2" d="M128.6469,-796.9656C130.1369,-788.427 131.9506,-778.0333 133.6138,-768.502"/>
<polygon fill="#c0c0c0" stroke="#c0c0c0" stroke-width="2" points="137.0658,-769.0793 135.337,-758.6265 130.17,-767.876 137.0658,-769.0793"/>
</g>
<!-- 22 -->
<g id="node23" class="node">
<title>22</title>
<path fill="none" stroke="#d8c356" stroke-width="2" d="M184.5,-684C184.5,-684 92.5,-684 92.5,-684 86.5,-684 80.5,-678 80.5,-672 80.5,-672 80.5,-660 80.5,-660 80.5,-654 86.5,-648 92.5,-648 92.5,-648 184.5,-648 184.5,-648 190.5,-648 196.5,-654 196.5,-660 196.5,-660 196.5,-672 196.5,-672 196.5,-678 190.5,-684 184.5,-684"/>
<text text-anchor="middle" x="138.5" y="-663.5" font-family="sans" font-size="10.00" fill="#000000">map_nuclear_MT_SE</text>
</g>
<!-- 22&#45;&gt;13 -->
<g id="edge28" class="edge">
<title>22&#45;&gt;13</title>
<path fill="none" stroke="#c0c0c0" stroke-width="2" d="M158.435,-647.8314C167.9783,-639.1337 179.5599,-628.5783 189.9306,-619.1265"/>
<polygon fill="#c0c0c0" stroke="#c0c0c0" stroke-width="2" points="192.538,-621.4857 197.5713,-612.1628 187.8228,-616.3121 192.538,-621.4857"/>
</g>
<!-- 23 -->
<g id="node24" class="node">
<title>23</title>
<path fill="none" stroke="#97d856" stroke-width="2" d="M318.5,-684C318.5,-684 226.5,-684 226.5,-684 220.5,-684 214.5,-678 214.5,-672 214.5,-672 214.5,-660 214.5,-660 214.5,-654 220.5,-648 226.5,-648 226.5,-648 318.5,-648 318.5,-648 324.5,-648 330.5,-654 330.5,-660 330.5,-660 330.5,-672 330.5,-672 330.5,-678 324.5,-684 318.5,-684"/>
<text text-anchor="middle" x="272.5" y="-663.5" font-family="sans" font-size="10.00" fill="#000000">map_nuclear_MT_PE</text>
</g>
<!-- 23&#45;&gt;13 -->
<g id="edge29" class="edge">
<title>23&#45;&gt;13</title>
<path fill="none" stroke="#c0c0c0" stroke-width="2" d="M258.6212,-647.8314C252.2864,-639.5386 244.6616,-629.557 237.7074,-620.4533"/>
<polygon fill="#c0c0c0" stroke="#c0c0c0" stroke-width="2" points="240.4175,-618.2353 231.5657,-612.4133 234.8548,-622.4847 240.4175,-618.2353"/>
</g>
<!-- 24 -->
<g id="node25" class="node">
<title>24</title>
<path fill="none" stroke="#ced856" stroke-width="2" d="M396.5,-396C396.5,-396 346.5,-396 346.5,-396 340.5,-396 334.5,-390 334.5,-384 334.5,-384 334.5,-372 334.5,-372 334.5,-366 340.5,-360 346.5,-360 346.5,-360 396.5,-360 396.5,-360 402.5,-360 408.5,-366 408.5,-372 408.5,-372 408.5,-384 408.5,-384 408.5,-390 402.5,-396 396.5,-396"/>
<text text-anchor="middle" x="371.5" y="-375.5" font-family="sans" font-size="10.00" fill="#000000">bam2pileup</text>
</g>
<!-- 24&#45;&gt;14 -->
<g id="edge30" class="edge">
<title>24&#45;&gt;14</title>
<path fill="none" stroke="#c0c0c0" stroke-width="2" d="M371.5,-359.8314C371.5,-352.131 371.5,-342.9743 371.5,-334.4166"/>
<polygon fill="#c0c0c0" stroke="#c0c0c0" stroke-width="2" points="375.0001,-334.4132 371.5,-324.4133 368.0001,-334.4133 375.0001,-334.4132"/>
</g>
<!-- 25&#45;&gt;15 -->
<g id="edge31" class="edge">
<title>25&#45;&gt;15</title>
<path fill="none" stroke="#c0c0c0" stroke-width="2" d="M607.0716,-796.774C630.3184,-765.3286 670.7267,-699.3212 645.5,-648 639.6766,-636.1528 629.8649,-626.171 619.4022,-618.1383"/>
<polygon fill="#c0c0c0" stroke="#c0c0c0" stroke-width="2" points="621.1129,-615.0601 610.9354,-612.1158 617.0555,-620.7642 621.1129,-615.0601"/>
</g>
<!-- 38 -->
<g id="node39" class="node">
<title>38</title>
<path fill="none" stroke="#56d8d0" stroke-width="2" d="M600.5,-758.5C600.5,-758.5 556.5,-758.5 556.5,-758.5 550.5,-758.5 544.5,-752.5 544.5,-746.5 544.5,-746.5 544.5,-734.5 544.5,-734.5 544.5,-728.5 550.5,-722.5 556.5,-722.5 556.5,-722.5 600.5,-722.5 600.5,-722.5 606.5,-722.5 612.5,-728.5 612.5,-734.5 612.5,-734.5 612.5,-746.5 612.5,-746.5 612.5,-752.5 606.5,-758.5 600.5,-758.5"/>
<text text-anchor="middle" x="578.5" y="-738" font-family="sans" font-size="10.00" fill="#000000">sam2fastq</text>
</g>
<!-- 25&#45;&gt;38 -->
<g id="edge66" class="edge">
<title>25&#45;&gt;38</title>
<path fill="none" stroke="#c0c0c0" stroke-width="2" d="M589.111,-796.9656C587.5064,-788.427 585.5532,-778.0333 583.7621,-768.502"/>
<polygon fill="#c0c0c0" stroke="#c0c0c0" stroke-width="2" points="587.1931,-767.8081 581.9063,-758.6265 580.3135,-769.1009 587.1931,-767.8081"/>
</g>
<!-- 26 -->
<g id="node27" class="node">
<title>26</title>
<path fill="none" stroke="#d8c356" stroke-width="2" d="M624.5,-684C624.5,-684 532.5,-684 532.5,-684 526.5,-684 520.5,-678 520.5,-672 520.5,-672 520.5,-660 520.5,-660 520.5,-654 526.5,-648 532.5,-648 532.5,-648 624.5,-648 624.5,-648 630.5,-648 636.5,-654 636.5,-660 636.5,-660 636.5,-672 636.5,-672 636.5,-678 630.5,-684 624.5,-684"/>
<text text-anchor="middle" x="578.5" y="-663.5" font-family="sans" font-size="10.00" fill="#000000">map_nuclear_MT_SE</text>
</g>
<!-- 26&#45;&gt;15 -->
<g id="edge32" class="edge">
<title>26&#45;&gt;15</title>
<path fill="none" stroke="#c0c0c0" stroke-width="2" d="M577.743,-647.8314C577.4221,-640.131 577.0406,-630.9743 576.684,-622.4166"/>
<polygon fill="#c0c0c0" stroke="#c0c0c0" stroke-width="2" points="580.1806,-622.2589 576.2672,-612.4133 573.1867,-622.5503 580.1806,-622.2589"/>
</g>
<!-- 27 -->
<g id="node28" class="node">
<title>27</title>
<path fill="none" stroke="#97d856" stroke-width="2" d="M490.5,-684C490.5,-684 398.5,-684 398.5,-684 392.5,-684 386.5,-678 386.5,-672 386.5,-672 386.5,-660 386.5,-660 386.5,-654 392.5,-648 398.5,-648 398.5,-648 490.5,-648 490.5,-648 496.5,-648 502.5,-654 502.5,-660 502.5,-660 502.5,-672 502.5,-672 502.5,-678 496.5,-684 490.5,-684"/>
<text text-anchor="middle" x="444.5" y="-663.5" font-family="sans" font-size="10.00" fill="#000000">map_nuclear_MT_PE</text>
</g>
<!-- 27&#45;&gt;15 -->
<g id="edge33" class="edge">
<title>27&#45;&gt;15</title>
<path fill="none" stroke="#c0c0c0" stroke-width="2" d="M477.5568,-647.8314C494.4677,-638.5368 515.2385,-627.1208 533.2941,-617.1971"/>
<polygon fill="#c0c0c0" stroke="#c0c0c0" stroke-width="2" points="535.376,-620.0468 542.4537,-612.1628 532.0043,-613.9122 535.376,-620.0468"/>
</g>
<!-- 28 -->
<g id="node29" class="node">
<title>28</title>
<path fill="none" stroke="#ced856" stroke-width="2" d="M524.5,-396C524.5,-396 474.5,-396 474.5,-396 468.5,-396 462.5,-390 462.5,-384 462.5,-384 462.5,-372 462.5,-372 462.5,-366 468.5,-360 474.5,-360 474.5,-360 524.5,-360 524.5,-360 530.5,-360 536.5,-366 536.5,-372 536.5,-372 536.5,-384 536.5,-384 536.5,-390 530.5,-396 524.5,-396"/>
<text text-anchor="middle" x="499.5" y="-375.5" font-family="sans" font-size="10.00" fill="#000000">bam2pileup</text>
</g>
<!-- 28&#45;&gt;16 -->
<g id="edge34" class="edge">
<title>28&#45;&gt;16</title>
<path fill="none" stroke="#c0c0c0" stroke-width="2" d="M499.5,-359.8314C499.5,-352.131 499.5,-342.9743 499.5,-334.4166"/>
<polygon fill="#c0c0c0" stroke="#c0c0c0" stroke-width="2" points="503.0001,-334.4132 499.5,-324.4133 496.0001,-334.4133 503.0001,-334.4132"/>
</g>
<!-- 29&#45;&gt;17 -->
<g id="edge35" class="edge">
<title>29&#45;&gt;17</title>
<path fill="none" stroke="#c0c0c0" stroke-width="2" d="M880.0595,-805.056C930.1213,-796.2283 991.8601,-781.5316 1007.5,-761 1024.8659,-738.2026 992.5152,-651.7172 989.5,-648 978.6097,-634.5741 963.5611,-624.2476 948.0561,-616.4003"/>
<polygon fill="#c0c0c0" stroke="#c0c0c0" stroke-width="2" points="949.4377,-613.182 938.9022,-612.0617 946.4396,-619.5075 949.4377,-613.182"/>
</g>
<!-- 41 -->
<g id="node42" class="node">
<title>41</title>
<path fill="none" stroke="#56d8d0" stroke-width="2" d="M827.5,-758.5C827.5,-758.5 783.5,-758.5 783.5,-758.5 777.5,-758.5 771.5,-752.5 771.5,-746.5 771.5,-746.5 771.5,-734.5 771.5,-734.5 771.5,-728.5 777.5,-722.5 783.5,-722.5 783.5,-722.5 827.5,-722.5 827.5,-722.5 833.5,-722.5 839.5,-728.5 839.5,-734.5 839.5,-734.5 839.5,-746.5 839.5,-746.5 839.5,-752.5 833.5,-758.5 827.5,-758.5"/>
<text text-anchor="middle" x="805.5" y="-738" font-family="sans" font-size="10.00" fill="#000000">sam2fastq</text>
</g>
<!-- 29&#45;&gt;41 -->
<g id="edge68" class="edge">
<title>29&#45;&gt;41</title>
<path fill="none" stroke="#c0c0c0" stroke-width="2" d="M810.0476,-796.9656C809.3672,-788.5178 808.5406,-778.2542 807.7797,-768.8064"/>
<polygon fill="#c0c0c0" stroke="#c0c0c0" stroke-width="2" points="811.2514,-768.3132 806.9599,-758.6265 804.274,-768.8752 811.2514,-768.3132"/>
</g>
<!-- 30 -->
<g id="node31" class="node">
<title>30</title>
<path fill="none" stroke="#d8c356" stroke-width="2" d="M968.5,-684C968.5,-684 876.5,-684 876.5,-684 870.5,-684 864.5,-678 864.5,-672 864.5,-672 864.5,-660 864.5,-660 864.5,-654 870.5,-648 876.5,-648 876.5,-648 968.5,-648 968.5,-648 974.5,-648 980.5,-654 980.5,-660 980.5,-660 980.5,-672 980.5,-672 980.5,-678 974.5,-684 968.5,-684"/>
<text text-anchor="middle" x="922.5" y="-663.5" font-family="sans" font-size="10.00" fill="#000000">map_nuclear_MT_SE</text>
</g>
<!-- 30&#45;&gt;17 -->
<g id="edge36" class="edge">
<title>30&#45;&gt;17</title>
<path fill="none" stroke="#c0c0c0" stroke-width="2" d="M911.3969,-647.8314C906.4326,-639.7079 900.4778,-629.9637 895.0072,-621.0118"/>
<polygon fill="#c0c0c0" stroke="#c0c0c0" stroke-width="2" points="897.9536,-619.121 889.7526,-612.4133 891.9806,-622.7712 897.9536,-619.121"/>
</g>
<!-- 31 -->
<g id="node32" class="node">
<title>31</title>
<path fill="none" stroke="#97d856" stroke-width="2" d="M834.5,-684C834.5,-684 742.5,-684 742.5,-684 736.5,-684 730.5,-678 730.5,-672 730.5,-672 730.5,-660 730.5,-660 730.5,-654 736.5,-648 742.5,-648 742.5,-648 834.5,-648 834.5,-648 840.5,-648 846.5,-654 846.5,-660 846.5,-660 846.5,-672 846.5,-672 846.5,-678 840.5,-684 834.5,-684"/>
<text text-anchor="middle" x="788.5" y="-663.5" font-family="sans" font-size="10.00" fill="#000000">map_nuclear_MT_PE</text>
</g>
<!-- 31&#45;&gt;17 -->
<g id="edge37" class="edge">
<title>31&#45;&gt;17</title>
<path fill="none" stroke="#c0c0c0" stroke-width="2" d="M811.2108,-647.8314C822.296,-638.9632 835.7954,-628.1637 847.7852,-618.5718"/>
<polygon fill="#c0c0c0" stroke="#c0c0c0" stroke-width="2" points="850.1742,-621.1429 855.7965,-612.1628 845.8013,-615.6768 850.1742,-621.1429"/>
</g>
<!-- 32 -->
<g id="node33" class="node">
<title>32</title>
<path fill="none" stroke="#ced856" stroke-width="2" d="M913.5,-396C913.5,-396 863.5,-396 863.5,-396 857.5,-396 851.5,-390 851.5,-384 851.5,-384 851.5,-372 851.5,-372 851.5,-366 857.5,-360 863.5,-360 863.5,-360 913.5,-360 913.5,-360 919.5,-360 925.5,-366 925.5,-372 925.5,-372 925.5,-384 925.5,-384 925.5,-390 919.5,-396 913.5,-396"/>
<text text-anchor="middle" x="888.5" y="-375.5" font-family="sans" font-size="10.00" fill="#000000">bam2pileup</text>
</g>
<!-- 32&#45;&gt;18 -->
<g id="edge38" class="edge">
<title>32&#45;&gt;18</title>
<path fill="none" stroke="#c0c0c0" stroke-width="2" d="M888.5,-359.8314C888.5,-352.131 888.5,-342.9743 888.5,-334.4166"/>
<polygon fill="#c0c0c0" stroke="#c0c0c0" stroke-width="2" points="892.0001,-334.4132 888.5,-324.4133 885.0001,-334.4133 892.0001,-334.4132"/>
</g>
<!-- 33 -->
<g id="node34" class="node">
<title>33</title>
<path fill="none" stroke="#5673d8" stroke-width="2" d="M454,-905C454,-905 337,-905 337,-905 331,-905 325,-899 325,-893 325,-893 325,-881 325,-881 325,-875 331,-869 337,-869 337,-869 454,-869 454,-869 460,-869 466,-875 466,-881 466,-881 466,-893 466,-893 466,-899 460,-905 454,-905"/>
<text text-anchor="middle" x="395.5" y="-890" font-family="sans" font-size="10.00" fill="#000000">make_mt_gmap_db</text>
<text text-anchor="middle" x="395.5" y="-879" font-family="sans" font-size="10.00" fill="#000000">ref_genome_mt: 87074_1</text>
</g>
<!-- 33&#45;&gt;21 -->
<g id="edge40" class="edge">
<title>33&#45;&gt;21</title>
<path fill="none" stroke="#c0c0c0" stroke-width="2" d="M327.7161,-868.9243C289.8426,-858.8247 242.4933,-846.1982 203.1352,-835.7027"/>
<polygon fill="#c0c0c0" stroke="#c0c0c0" stroke-width="2" points="203.876,-832.278 193.3118,-833.0831 202.0723,-839.0417 203.876,-832.278"/>
</g>
<!-- 33&#45;&gt;25 -->
<g id="edge48" class="edge">
<title>33&#45;&gt;25</title>
<path fill="none" stroke="#c0c0c0" stroke-width="2" d="M444.9571,-868.9243C471.7711,-859.1243 505.0949,-846.945 533.2847,-836.6422"/>
<polygon fill="#c0c0c0" stroke="#c0c0c0" stroke-width="2" points="534.8316,-839.8033 543.0225,-833.0831 532.4287,-833.2286 534.8316,-839.8033"/>
</g>
<!-- 34&#45;&gt;22 -->
<g id="edge41" class="edge">
<title>34&#45;&gt;22</title>
<path fill="none" stroke="#c0c0c0" stroke-width="2" d="M138.5,-722.4656C138.5,-714.0178 138.5,-703.7542 138.5,-694.3064"/>
<polygon fill="#c0c0c0" stroke="#c0c0c0" stroke-width="2" points="142.0001,-694.1265 138.5,-684.1265 135.0001,-694.1265 142.0001,-694.1265"/>
</g>
<!-- 34&#45;&gt;23 -->
<g id="edge43" class="edge">
<title>34&#45;&gt;23</title>
<path fill="none" stroke="#c0c0c0" stroke-width="2" d="M170.9377,-722.4656C188.9917,-712.4281 211.6563,-699.8273 230.992,-689.0772"/>
<polygon fill="#c0c0c0" stroke="#c0c0c0" stroke-width="2" points="232.8573,-692.0448 239.8966,-684.1265 229.4558,-685.9267 232.8573,-692.0448"/>
</g>
<!-- 35 -->
<g id="node36" class="node">
<title>35</title>
<path fill="none" stroke="#80d856" stroke-width="2" d="M417,-761C417,-761 300,-761 300,-761 294,-761 288,-755 288,-749 288,-749 288,-732 288,-732 288,-726 294,-720 300,-720 300,-720 417,-720 417,-720 423,-720 429,-726 429,-732 429,-732 429,-749 429,-749 429,-755 423,-761 417,-761"/>
<text text-anchor="middle" x="358.5" y="-749" font-family="sans" font-size="10.00" fill="#000000">make_mt_n_gmap_db</text>
<text text-anchor="middle" x="358.5" y="-738" font-family="sans" font-size="10.00" fill="#000000">ref_genome_mt: 87074_1</text>
<text text-anchor="middle" x="358.5" y="-727" font-family="sans" font-size="10.00" fill="#000000">ref_genome_n: pb_121&#45;1</text>
</g>
<!-- 35&#45;&gt;22 -->
<g id="edge42" class="edge">
<title>35&#45;&gt;22</title>
<path fill="none" stroke="#c0c0c0" stroke-width="2" d="M297.8017,-719.9453C267.8481,-709.802 231.745,-697.5761 201.4874,-687.3298"/>
<polygon fill="#c0c0c0" stroke="#c0c0c0" stroke-width="2" points="202.4785,-683.9703 191.8842,-684.0778 200.2332,-690.6004 202.4785,-683.9703"/>
</g>
<!-- 35&#45;&gt;23 -->
<g id="edge44" class="edge">
<title>35&#45;&gt;23</title>
<path fill="none" stroke="#c0c0c0" stroke-width="2" d="M334.5442,-719.7476C324.1459,-710.7398 311.8857,-700.119 301.0215,-690.7076"/>
<polygon fill="#c0c0c0" stroke="#c0c0c0" stroke-width="2" points="303.254,-688.0109 293.404,-684.1087 298.6706,-693.3018 303.254,-688.0109"/>
</g>
<!-- 35&#45;&gt;26 -->
<g id="edge50" class="edge">
<title>35&#45;&gt;26</title>
<path fill="none" stroke="#c0c0c0" stroke-width="2" d="M419.1983,-719.9453C449.1519,-709.802 485.255,-697.5761 515.5126,-687.3298"/>
<polygon fill="#c0c0c0" stroke="#c0c0c0" stroke-width="2" points="516.7668,-690.6004 525.1158,-684.0778 514.5215,-683.9703 516.7668,-690.6004"/>
</g>
<!-- 35&#45;&gt;27 -->
<g id="edge52" class="edge">
<title>35&#45;&gt;27</title>
<path fill="none" stroke="#c0c0c0" stroke-width="2" d="M382.4558,-719.7476C392.8541,-710.7398 405.1143,-700.119 415.9785,-690.7076"/>
<polygon fill="#c0c0c0" stroke="#c0c0c0" stroke-width="2" points="418.3294,-693.3018 423.596,-684.1087 413.746,-688.0109 418.3294,-693.3018"/>
</g>
<!-- 37 -->
<g id="node38" class="node">
<title>37</title>
<path fill="none" stroke="#61d856" stroke-width="2" d="M405,-468C405,-468 340,-468 340,-468 334,-468 328,-462 328,-456 328,-456 328,-444 328,-444 328,-438 334,-432 340,-432 340,-432 405,-432 405,-432 411,-432 417,-438 417,-444 417,-444 417,-456 417,-456 417,-462 411,-468 405,-468"/>
<text text-anchor="middle" x="372.5" y="-447.5" font-family="sans" font-size="10.00" fill="#000000">index_genome</text>
</g>
<!-- 35&#45;&gt;37 -->
<g id="edge65" class="edge">
<title>35&#45;&gt;37</title>
<path fill="none" stroke="#c0c0c0" stroke-width="2" d="M359.5068,-719.608C361.9748,-668.3983 368.3278,-536.5727 371.1334,-478.3563"/>
<polygon fill="#c0c0c0" stroke="#c0c0c0" stroke-width="2" points="374.6442,-478.2158 371.6297,-468.0589 367.6523,-477.8788 374.6442,-478.2158"/>
</g>
<!-- 36 -->
<g id="node37" class="node">
<title>36</title>
<path fill="none" stroke="#56c1d8" stroke-width="2" d="M297.5,-468C297.5,-468 259.5,-468 259.5,-468 253.5,-468 247.5,-462 247.5,-456 247.5,-456 247.5,-444 247.5,-444 247.5,-438 253.5,-432 259.5,-432 259.5,-432 297.5,-432 297.5,-432 303.5,-432 309.5,-438 309.5,-444 309.5,-444 309.5,-456 309.5,-456 309.5,-462 303.5,-468 297.5,-468"/>
<text text-anchor="middle" x="278.5" y="-447.5" font-family="sans" font-size="10.00" fill="#000000">sort_bam</text>
</g>
<!-- 36&#45;&gt;24 -->
<g id="edge45" class="edge">
<title>36&#45;&gt;24</title>
<path fill="none" stroke="#c0c0c0" stroke-width="2" d="M301.9678,-431.8314C313.5327,-422.8779 327.6404,-411.9558 340.1183,-402.2955"/>
<polygon fill="#c0c0c0" stroke="#c0c0c0" stroke-width="2" points="342.275,-405.0521 348.0397,-396.1628 337.9898,-399.5171 342.275,-405.0521"/>
</g>
<!-- 37&#45;&gt;24 -->
<g id="edge46" class="edge">
<title>37&#45;&gt;24</title>
<path fill="none" stroke="#c0c0c0" stroke-width="2" d="M372.2477,-431.8314C372.1407,-424.131 372.0135,-414.9743 371.8947,-406.4166"/>
<polygon fill="#c0c0c0" stroke="#c0c0c0" stroke-width="2" points="375.3944,-406.3637 371.7557,-396.4133 368.3951,-406.4609 375.3944,-406.3637"/>
</g>
<!-- 37&#45;&gt;28 -->
<g id="edge54" class="edge">
<title>37&#45;&gt;28</title>
<path fill="none" stroke="#c0c0c0" stroke-width="2" d="M404.5475,-431.8314C420.942,-422.5368 441.0786,-411.1208 458.5829,-401.1971"/>
<polygon fill="#c0c0c0" stroke="#c0c0c0" stroke-width="2" points="460.4897,-404.1395 467.4628,-396.1628 457.0374,-398.05 460.4897,-404.1395"/>
</g>
<!-- 38&#45;&gt;26 -->
<g id="edge49" class="edge">
<title>38&#45;&gt;26</title>
<path fill="none" stroke="#c0c0c0" stroke-width="2" d="M578.5,-722.4656C578.5,-714.0178 578.5,-703.7542 578.5,-694.3064"/>
<polygon fill="#c0c0c0" stroke="#c0c0c0" stroke-width="2" points="582.0001,-694.1265 578.5,-684.1265 575.0001,-694.1265 582.0001,-694.1265"/>
</g>
<!-- 38&#45;&gt;27 -->
<g id="edge51" class="edge">
<title>38&#45;&gt;27</title>
<path fill="none" stroke="#c0c0c0" stroke-width="2" d="M546.0623,-722.4656C528.0083,-712.4281 505.3437,-699.8273 486.008,-689.0772"/>
<polygon fill="#c0c0c0" stroke="#c0c0c0" stroke-width="2" points="487.5442,-685.9267 477.1034,-684.1265 484.1427,-692.0448 487.5442,-685.9267"/>
</g>
<!-- 39 -->
<g id="node40" class="node">
<title>39</title>
<path fill="none" stroke="#56c1d8" stroke-width="2" d="M522.5,-468C522.5,-468 484.5,-468 484.5,-468 478.5,-468 472.5,-462 472.5,-456 472.5,-456 472.5,-444 472.5,-444 472.5,-438 478.5,-432 484.5,-432 484.5,-432 522.5,-432 522.5,-432 528.5,-432 534.5,-438 534.5,-444 534.5,-444 534.5,-456 534.5,-456 534.5,-462 528.5,-468 522.5,-468"/>
<text text-anchor="middle" x="503.5" y="-447.5" font-family="sans" font-size="10.00" fill="#000000">sort_bam</text>
</g>
<!-- 39&#45;&gt;28 -->
<g id="edge53" class="edge">
<title>39&#45;&gt;28</title>
<path fill="none" stroke="#c0c0c0" stroke-width="2" d="M502.4906,-431.8314C502.0628,-424.131 501.5541,-414.9743 501.0787,-406.4166"/>
<polygon fill="#c0c0c0" stroke="#c0c0c0" stroke-width="2" points="504.5724,-406.2037 500.523,-396.4133 497.5831,-406.592 504.5724,-406.2037"/>
</g>
<!-- 40 -->
<g id="node41" class="node">
<title>40</title>
<path fill="none" stroke="#5673d8" stroke-width="2" d="M885,-905C885,-905 768,-905 768,-905 762,-905 756,-899 756,-893 756,-893 756,-881 756,-881 756,-875 762,-869 768,-869 768,-869 885,-869 885,-869 891,-869 897,-875 897,-881 897,-881 897,-893 897,-893 897,-899 891,-905 885,-905"/>
<text text-anchor="middle" x="826.5" y="-890" font-family="sans" font-size="10.00" fill="#000000">make_mt_gmap_db</text>
<text text-anchor="middle" x="826.5" y="-879" font-family="sans" font-size="10.00" fill="#000000">ref_genome_mt: 87075_2</text>
</g>
<!-- 40&#45;&gt;29 -->
<g id="edge56" class="edge">
<title>40&#45;&gt;29</title>
<path fill="none" stroke="#c0c0c0" stroke-width="2" d="M822.7149,-868.8314C821.1106,-861.131 819.203,-851.9743 817.4201,-843.4166"/>
<polygon fill="#c0c0c0" stroke="#c0c0c0" stroke-width="2" points="820.8021,-842.4892 815.3361,-833.4133 813.9493,-843.9169 820.8021,-842.4892"/>
</g>
<!-- 41&#45;&gt;30 -->
<g id="edge57" class="edge">
<title>41&#45;&gt;30</title>
<path fill="none" stroke="#c0c0c0" stroke-width="2" d="M833.8224,-722.4656C849.372,-712.5644 868.8388,-700.1689 885.5688,-689.516"/>
<polygon fill="#c0c0c0" stroke="#c0c0c0" stroke-width="2" points="887.4776,-692.4499 894.0329,-684.1265 883.7178,-686.5453 887.4776,-692.4499"/>
</g>
<!-- 41&#45;&gt;31 -->
<g id="edge59" class="edge">
<title>41&#45;&gt;31</title>
<path fill="none" stroke="#c0c0c0" stroke-width="2" d="M801.3848,-722.4656C799.4364,-713.927 797.0646,-703.5333 794.8897,-694.002"/>
<polygon fill="#c0c0c0" stroke="#c0c0c0" stroke-width="2" points="798.2733,-693.0972 792.6363,-684.1265 791.4487,-694.6546 798.2733,-693.0972"/>
</g>
<!-- 42 -->
<g id="node43" class="node">
<title>42</title>
<path fill="none" stroke="#80d856" stroke-width="2" d="M987,-761C987,-761 870,-761 870,-761 864,-761 858,-755 858,-749 858,-749 858,-732 858,-732 858,-726 864,-720 870,-720 870,-720 987,-720 987,-720 993,-720 999,-726 999,-732 999,-732 999,-749 999,-749 999,-755 993,-761 987,-761"/>
<text text-anchor="middle" x="928.5" y="-749" font-family="sans" font-size="10.00" fill="#000000">make_mt_n_gmap_db</text>
<text text-anchor="middle" x="928.5" y="-738" font-family="sans" font-size="10.00" fill="#000000">ref_genome_mt: 87075_2</text>
<text text-anchor="middle" x="928.5" y="-727" font-family="sans" font-size="10.00" fill="#000000">ref_genome_n: pb_121&#45;1</text>
</g>
<!-- 42&#45;&gt;30 -->
<g id="edge58" class="edge">
<title>42&#45;&gt;30</title>
<path fill="none" stroke="#c0c0c0" stroke-width="2" d="M926.8287,-719.7476C926.1948,-711.8767 925.4617,-702.7743 924.7811,-694.3232"/>
<polygon fill="#c0c0c0" stroke="#c0c0c0" stroke-width="2" points="928.25,-693.7954 923.9584,-684.1087 921.2726,-694.3574 928.25,-693.7954"/>
</g>
<!-- 42&#45;&gt;31 -->
<g id="edge60" class="edge">
<title>42&#45;&gt;31</title>
<path fill="none" stroke="#c0c0c0" stroke-width="2" d="M889.8738,-719.9453C871.7897,-710.322 850.1832,-698.8243 831.5727,-688.9208"/>
<polygon fill="#c0c0c0" stroke="#c0c0c0" stroke-width="2" points="833.178,-685.8104 822.7059,-684.2024 829.8896,-691.9899 833.178,-685.8104"/>
</g>
<!-- 44 -->
<g id="node45" class="node">
<title>44</title>
<path fill="none" stroke="#61d856" stroke-width="2" d="M1041,-612C1041,-612 976,-612 976,-612 970,-612 964,-606 964,-600 964,-600 964,-588 964,-588 964,-582 970,-576 976,-576 976,-576 1041,-576 1041,-576 1047,-576 1053,-582 1053,-588 1053,-588 1053,-600 1053,-600 1053,-606 1047,-612 1041,-612"/>
<text text-anchor="middle" x="1008.5" y="-591.5" font-family="sans" font-size="10.00" fill="#000000">index_genome</text>
</g>
<!-- 42&#45;&gt;44 -->
<g id="edge70" class="edge">
<title>42&#45;&gt;44</title>
<path fill="none" stroke="#c0c0c0" stroke-width="2" d="M957.7483,-719.8078C969.3033,-710.1862 981.6673,-697.8122 989.5,-684 1000.2337,-665.0721 1004.9239,-640.7965 1006.9631,-622.228"/>
<polygon fill="#c0c0c0" stroke="#c0c0c0" stroke-width="2" points="1010.4697,-622.3125 1007.8831,-612.0383 1003.498,-621.683 1010.4697,-622.3125"/>
</g>
<!-- 43 -->
<g id="node44" class="node">
<title>43</title>
<path fill="none" stroke="#56c1d8" stroke-width="2" d="M900.5,-468C900.5,-468 862.5,-468 862.5,-468 856.5,-468 850.5,-462 850.5,-456 850.5,-456 850.5,-444 850.5,-444 850.5,-438 856.5,-432 862.5,-432 862.5,-432 900.5,-432 900.5,-432 906.5,-432 912.5,-438 912.5,-444 912.5,-444 912.5,-456 912.5,-456 912.5,-462 906.5,-468 900.5,-468"/>
<text text-anchor="middle" x="881.5" y="-447.5" font-family="sans" font-size="10.00" fill="#000000">sort_bam</text>
</g>
<!-- 43&#45;&gt;32 -->
<g id="edge61" class="edge">
<title>43&#45;&gt;32</title>
<path fill="none" stroke="#c0c0c0" stroke-width="2" d="M883.2664,-431.8314C884.015,-424.131 884.9053,-414.9743 885.7373,-406.4166"/>
<polygon fill="#c0c0c0" stroke="#c0c0c0" stroke-width="2" points="889.2256,-406.7051 886.7098,-396.4133 882.2585,-406.0276 889.2256,-406.7051"/>
</g>
<!-- 44&#45;&gt;32 -->
<g id="edge62" class="edge">
<title>44&#45;&gt;32</title>
<path fill="none" stroke="#c0c0c0" stroke-width="2" d="M999.1688,-575.8405C983.5813,-545.6881 951.0399,-483.5097 921.5,-432 916.3886,-423.0871 910.608,-413.4801 905.3292,-404.8754"/>
<polygon fill="#c0c0c0" stroke="#c0c0c0" stroke-width="2" points="908.2916,-403.0111 900.0588,-396.3424 902.336,-406.6896 908.2916,-403.0111"/>
</g>
<!-- 45&#45;&gt;36 -->
<g id="edge64" class="edge">
<title>45&#45;&gt;36</title>
<path fill="none" stroke="#c0c0c0" stroke-width="2" d="M278.5,-503.8314C278.5,-496.131 278.5,-486.9743 278.5,-478.4166"/>
<polygon fill="#c0c0c0" stroke="#c0c0c0" stroke-width="2" points="282.0001,-478.4132 278.5,-468.4133 275.0001,-478.4133 282.0001,-478.4132"/>
</g>
<!-- 46&#45;&gt;39 -->
<g id="edge67" class="edge">
<title>46&#45;&gt;39</title>
<path fill="none" stroke="#c0c0c0" stroke-width="2" d="M506.4906,-503.8314C506.0628,-496.131 505.5541,-486.9743 505.0787,-478.4166"/>
<polygon fill="#c0c0c0" stroke="#c0c0c0" stroke-width="2" points="508.5724,-478.2037 504.523,-468.4133 501.5831,-478.592 508.5724,-478.2037"/>
</g>
<!-- 47&#45;&gt;43 -->
<g id="edge69" class="edge">
<title>47&#45;&gt;43</title>
<path fill="none" stroke="#c0c0c0" stroke-width="2" d="M880.7523,-503.8314C880.8593,-496.131 880.9865,-486.9743 881.1053,-478.4166"/>
<polygon fill="#c0c0c0" stroke="#c0c0c0" stroke-width="2" points="884.6049,-478.4609 881.2443,-468.4133 877.6056,-478.3637 884.6049,-478.4609"/>
</g>
</g>
</svg>
