<?xml version="1.0" encoding="UTF-8" standalone="no"?>
<!DOCTYPE svg PUBLIC "-//W3C//DTD SVG 1.1//EN"
 "http://www.w3.org/Graphics/SVG/1.1/DTD/svg11.dtd">
<!-- Generated by graphviz version 2.40.1 (20161225.0304)
 -->
<!-- Title: snakemake_dag Pages: 1 -->
<svg width="862pt" height="779pt"
 viewBox="0.00 0.00 862.15 779.00" xmlns="http://www.w3.org/2000/svg" xmlns:xlink="http://www.w3.org/1999/xlink">
<g id="graph0" class="graph" transform="scale(1 1) rotate(0) translate(4 775)">
<title>snakemake_dag</title>
<polygon fill="#ffffff" stroke="transparent" points="-4,4 -4,-775 858.1464,-775 858.1464,4 -4,4"/>
<!-- 0 -->
<g id="node1" class="node">
<title>0</title>
<path fill="none" stroke="#d87d56" stroke-width="2" stroke-dasharray="5,2" d="M460.8463,-36C460.8463,-36 430.8463,-36 430.8463,-36 424.8463,-36 418.8463,-30 418.8463,-24 418.8463,-24 418.8463,-12 418.8463,-12 418.8463,-6 424.8463,0 430.8463,0 430.8463,0 460.8463,0 460.8463,0 466.8463,0 472.8463,-6 472.8463,-12 472.8463,-12 472.8463,-24 472.8463,-24 472.8463,-30 466.8463,-36 460.8463,-36"/>
<text text-anchor="middle" x="445.8463" y="-15.5" font-family="sans" font-size="10.00" fill="#000000">all</text>
</g>
<!-- 1 -->
<g id="node2" class="node">
<title>1</title>
<path fill="none" stroke="#56d8c9" stroke-width="2" stroke-dasharray="5,2" d="M485.3463,-108C485.3463,-108 406.3463,-108 406.3463,-108 400.3463,-108 394.3463,-102 394.3463,-96 394.3463,-96 394.3463,-84 394.3463,-84 394.3463,-78 400.3463,-72 406.3463,-72 406.3463,-72 485.3463,-72 485.3463,-72 491.3463,-72 497.3463,-78 497.3463,-84 497.3463,-84 497.3463,-96 497.3463,-96 497.3463,-102 491.3463,-108 485.3463,-108"/>
<text text-anchor="middle" x="445.8463" y="-87.5" font-family="sans" font-size="10.00" fill="#000000">make_single_VCF</text>
</g>
<!-- 1&#45;&gt;0 -->
<g id="edge1" class="edge">
<title>1&#45;&gt;0</title>
<path fill="none" stroke="#c0c0c0" stroke-width="2" d="M445.8463,-71.8314C445.8463,-64.131 445.8463,-54.9743 445.8463,-46.4166"/>
<polygon fill="#c0c0c0" stroke="#c0c0c0" stroke-width="2" points="449.3464,-46.4132 445.8463,-36.4133 442.3464,-46.4133 449.3464,-46.4132"/>
</g>
<!-- 2 -->
<g id="node3" class="node">
<title>2</title>
<path fill="none" stroke="#56d8c9" stroke-width="2" stroke-dasharray="5,2" d="M681.3463,-108C681.3463,-108 602.3463,-108 602.3463,-108 596.3463,-108 590.3463,-102 590.3463,-96 590.3463,-96 590.3463,-84 590.3463,-84 590.3463,-78 596.3463,-72 602.3463,-72 602.3463,-72 681.3463,-72 681.3463,-72 687.3463,-72 693.3463,-78 693.3463,-84 693.3463,-84 693.3463,-96 693.3463,-96 693.3463,-102 687.3463,-108 681.3463,-108"/>
<text text-anchor="middle" x="641.8463" y="-87.5" font-family="sans" font-size="10.00" fill="#000000">make_single_VCF</text>
</g>
<!-- 2&#45;&gt;0 -->
<g id="edge2" class="edge">
<title>2&#45;&gt;0</title>
<path fill="none" stroke="#c0c0c0" stroke-width="2" d="M592.6402,-71.9243C558.4644,-59.3699 513.6596,-42.911 482.5808,-31.4943"/>
<polygon fill="#c0c0c0" stroke="#c0c0c0" stroke-width="2" points="483.5971,-28.139 473.0035,-27.9761 481.1833,-34.7097 483.5971,-28.139"/>
</g>
<!-- 3 -->
<g id="node4" class="node">
<title>3</title>
<path fill="none" stroke="#56d8c9" stroke-width="2" stroke-dasharray="5,2" d="M323.3463,-108C323.3463,-108 244.3463,-108 244.3463,-108 238.3463,-108 232.3463,-102 232.3463,-96 232.3463,-96 232.3463,-84 232.3463,-84 232.3463,-78 238.3463,-72 244.3463,-72 244.3463,-72 323.3463,-72 323.3463,-72 329.3463,-72 335.3463,-78 335.3463,-84 335.3463,-84 335.3463,-96 335.3463,-96 335.3463,-102 329.3463,-108 323.3463,-108"/>
<text text-anchor="middle" x="283.8463" y="-87.5" font-family="sans" font-size="10.00" fill="#000000">make_single_VCF</text>
</g>
<!-- 3&#45;&gt;0 -->
<g id="edge3" class="edge">
<title>3&#45;&gt;0</title>
<path fill="none" stroke="#c0c0c0" stroke-width="2" d="M324.7257,-71.8314C350.8237,-60.2323 384.3557,-45.3291 409.5185,-34.1457"/>
<polygon fill="#c0c0c0" stroke="#c0c0c0" stroke-width="2" points="411.0031,-37.316 418.7197,-30.0563 408.1601,-30.9194 411.0031,-37.316"/>
</g>
<!-- 4 -->
<g id="node5" class="node">
<title>4</title>
<path fill="none" stroke="#567bd8" stroke-width="2" stroke-dasharray="5,2" d="M526.8463,-180C526.8463,-180 454.8463,-180 454.8463,-180 448.8463,-180 442.8463,-174 442.8463,-168 442.8463,-168 442.8463,-156 442.8463,-156 442.8463,-150 448.8463,-144 454.8463,-144 454.8463,-144 526.8463,-144 526.8463,-144 532.8463,-144 538.8463,-150 538.8463,-156 538.8463,-156 538.8463,-168 538.8463,-168 538.8463,-174 532.8463,-180 526.8463,-180"/>
<text text-anchor="middle" x="490.8463" y="-159.5" font-family="sans" font-size="10.00" fill="#000000">pileup2mt_table</text>
</g>
<!-- 4&#45;&gt;1 -->
<g id="edge4" class="edge">
<title>4&#45;&gt;1</title>
<path fill="none" stroke="#c0c0c0" stroke-width="2" d="M479.4909,-143.8314C474.4137,-135.7079 468.3236,-125.9637 462.7286,-117.0118"/>
<polygon fill="#c0c0c0" stroke="#c0c0c0" stroke-width="2" points="465.6226,-115.0383 457.3545,-108.4133 459.6866,-118.7483 465.6226,-115.0383"/>
</g>
<!-- 5 -->
<g id="node6" class="node">
<title>5</title>
<path fill="none" stroke="#9fd856" stroke-width="2" stroke-dasharray="5,2" d="M529.8463,-473C529.8463,-473 419.8463,-473 419.8463,-473 413.8463,-473 407.8463,-467 407.8463,-461 407.8463,-461 407.8463,-449 407.8463,-449 407.8463,-443 413.8463,-437 419.8463,-437 419.8463,-437 529.8463,-437 529.8463,-437 535.8463,-437 541.8463,-443 541.8463,-449 541.8463,-449 541.8463,-461 541.8463,-461 541.8463,-467 535.8463,-473 529.8463,-473"/>
<text text-anchor="middle" x="474.8463" y="-452.5" font-family="sans" font-size="10.00" fill="#000000">filtering_mt_alignments</text>
</g>
<!-- 5&#45;&gt;1 -->
<g id="edge5" class="edge">
<title>5&#45;&gt;1</title>
<path fill="none" stroke="#c0c0c0" stroke-width="2" d="M458.751,-436.671C450.785,-426.7238 441.6553,-413.8571 435.8463,-401 418.4884,-362.5821 414.8463,-350.6573 414.8463,-308.5 414.8463,-308.5 414.8463,-308.5 414.8463,-234 414.8463,-193.0037 427.003,-146.8829 436.0908,-118.1326"/>
<polygon fill="#c0c0c0" stroke="#c0c0c0" stroke-width="2" points="439.5022,-118.9603 439.272,-108.3679 432.8465,-116.7919 439.5022,-118.9603"/>
</g>
<!-- 34 -->
<g id="node35" class="node">
<title>34</title>
<path fill="none" stroke="#56c9d8" stroke-width="2" stroke-dasharray="5,2" d="M498.3463,-401C498.3463,-401 457.3463,-401 457.3463,-401 451.3463,-401 445.3463,-395 445.3463,-389 445.3463,-389 445.3463,-377 445.3463,-377 445.3463,-371 451.3463,-365 457.3463,-365 457.3463,-365 498.3463,-365 498.3463,-365 504.3463,-365 510.3463,-371 510.3463,-377 510.3463,-377 510.3463,-389 510.3463,-389 510.3463,-395 504.3463,-401 498.3463,-401"/>
<text text-anchor="middle" x="477.8463" y="-380.5" font-family="sans" font-size="10.00" fill="#000000">sam2bam</text>
</g>
<!-- 5&#45;&gt;34 -->
<g id="edge49" class="edge">
<title>5&#45;&gt;34</title>
<path fill="none" stroke="#c0c0c0" stroke-width="2" d="M475.6033,-436.8314C475.9241,-429.131 476.3057,-419.9743 476.6622,-411.4166"/>
<polygon fill="#c0c0c0" stroke="#c0c0c0" stroke-width="2" points="480.1596,-411.5503 477.079,-401.4133 473.1657,-411.2589 480.1596,-411.5503"/>
</g>
<!-- 6 -->
<g id="node7" class="node">
<title>6</title>
<path fill="none" stroke="#9fd856" stroke-width="2" stroke-dasharray="5,2" d="M834.8463,-473C834.8463,-473 724.8463,-473 724.8463,-473 718.8463,-473 712.8463,-467 712.8463,-461 712.8463,-461 712.8463,-449 712.8463,-449 712.8463,-443 718.8463,-437 724.8463,-437 724.8463,-437 834.8463,-437 834.8463,-437 840.8463,-437 846.8463,-443 846.8463,-449 846.8463,-449 846.8463,-461 846.8463,-461 846.8463,-467 840.8463,-473 834.8463,-473"/>
<text text-anchor="middle" x="779.8463" y="-452.5" font-family="sans" font-size="10.00" fill="#000000">filtering_mt_alignments</text>
</g>
<!-- 6&#45;&gt;2 -->
<g id="edge6" class="edge">
<title>6&#45;&gt;2</title>
<path fill="none" stroke="#c0c0c0" stroke-width="2" d="M779.8463,-436.9571C779.8463,-409.3072 779.8463,-354.7899 779.8463,-308.5 779.8463,-308.5 779.8463,-308.5 779.8463,-234 779.8463,-179.4347 727.557,-137.4825 687.3523,-113.2906"/>
<polygon fill="#c0c0c0" stroke="#c0c0c0" stroke-width="2" points="688.8671,-110.1224 678.4654,-108.1087 685.341,-116.1695 688.8671,-110.1224"/>
</g>
<!-- 35 -->
<g id="node36" class="node">
<title>35</title>
<path fill="none" stroke="#56c9d8" stroke-width="2" stroke-dasharray="5,2" d="M662.3463,-401C662.3463,-401 621.3463,-401 621.3463,-401 615.3463,-401 609.3463,-395 609.3463,-389 609.3463,-389 609.3463,-377 609.3463,-377 609.3463,-371 615.3463,-365 621.3463,-365 621.3463,-365 662.3463,-365 662.3463,-365 668.3463,-365 674.3463,-371 674.3463,-377 674.3463,-377 674.3463,-389 674.3463,-389 674.3463,-395 668.3463,-401 662.3463,-401"/>
<text text-anchor="middle" x="641.8463" y="-380.5" font-family="sans" font-size="10.00" fill="#000000">sam2bam</text>
</g>
<!-- 6&#45;&gt;35 -->
<g id="edge50" class="edge">
<title>6&#45;&gt;35</title>
<path fill="none" stroke="#c0c0c0" stroke-width="2" d="M745.023,-436.8314C726.412,-427.1212 703.3628,-415.0956 683.7736,-404.8751"/>
<polygon fill="#c0c0c0" stroke="#c0c0c0" stroke-width="2" points="685.2431,-401.6941 674.7582,-400.1715 682.0051,-407.9002 685.2431,-401.6941"/>
</g>
<!-- 7 -->
<g id="node8" class="node">
<title>7</title>
<path fill="none" stroke="#567bd8" stroke-width="2" stroke-dasharray="5,2" d="M677.8463,-180C677.8463,-180 605.8463,-180 605.8463,-180 599.8463,-180 593.8463,-174 593.8463,-168 593.8463,-168 593.8463,-156 593.8463,-156 593.8463,-150 599.8463,-144 605.8463,-144 605.8463,-144 677.8463,-144 677.8463,-144 683.8463,-144 689.8463,-150 689.8463,-156 689.8463,-156 689.8463,-168 689.8463,-168 689.8463,-174 683.8463,-180 677.8463,-180"/>
<text text-anchor="middle" x="641.8463" y="-159.5" font-family="sans" font-size="10.00" fill="#000000">pileup2mt_table</text>
</g>
<!-- 7&#45;&gt;2 -->
<g id="edge7" class="edge">
<title>7&#45;&gt;2</title>
<path fill="none" stroke="#c0c0c0" stroke-width="2" d="M641.8463,-143.8314C641.8463,-136.131 641.8463,-126.9743 641.8463,-118.4166"/>
<polygon fill="#c0c0c0" stroke="#c0c0c0" stroke-width="2" points="645.3464,-118.4132 641.8463,-108.4133 638.3464,-118.4133 645.3464,-118.4132"/>
</g>
<!-- 8 -->
<g id="node9" class="node">
<title>8</title>
<path fill="none" stroke="#567bd8" stroke-width="2" stroke-dasharray="5,2" d="M319.8463,-180C319.8463,-180 247.8463,-180 247.8463,-180 241.8463,-180 235.8463,-174 235.8463,-168 235.8463,-168 235.8463,-156 235.8463,-156 235.8463,-150 241.8463,-144 247.8463,-144 247.8463,-144 319.8463,-144 319.8463,-144 325.8463,-144 331.8463,-150 331.8463,-156 331.8463,-156 331.8463,-168 331.8463,-168 331.8463,-174 325.8463,-180 319.8463,-180"/>
<text text-anchor="middle" x="283.8463" y="-159.5" font-family="sans" font-size="10.00" fill="#000000">pileup2mt_table</text>
</g>
<!-- 8&#45;&gt;3 -->
<g id="edge8" class="edge">
<title>8&#45;&gt;3</title>
<path fill="none" stroke="#c0c0c0" stroke-width="2" d="M283.8463,-143.8314C283.8463,-136.131 283.8463,-126.9743 283.8463,-118.4166"/>
<polygon fill="#c0c0c0" stroke="#c0c0c0" stroke-width="2" points="287.3464,-118.4132 283.8463,-108.4133 280.3464,-118.4133 287.3464,-118.4132"/>
</g>
<!-- 9 -->
<g id="node10" class="node">
<title>9</title>
<path fill="none" stroke="#9fd856" stroke-width="2" stroke-dasharray="5,2" d="M189.8463,-473C189.8463,-473 79.8463,-473 79.8463,-473 73.8463,-473 67.8463,-467 67.8463,-461 67.8463,-461 67.8463,-449 67.8463,-449 67.8463,-443 73.8463,-437 79.8463,-437 79.8463,-437 189.8463,-437 189.8463,-437 195.8463,-437 201.8463,-443 201.8463,-449 201.8463,-449 201.8463,-461 201.8463,-461 201.8463,-467 195.8463,-473 189.8463,-473"/>
<text text-anchor="middle" x="134.8463" y="-452.5" font-family="sans" font-size="10.00" fill="#000000">filtering_mt_alignments</text>
</g>
<!-- 9&#45;&gt;3 -->
<g id="edge9" class="edge">
<title>9&#45;&gt;3</title>
<path fill="none" stroke="#c0c0c0" stroke-width="2" d="M134.8463,-436.9571C134.8463,-409.3072 134.8463,-354.7899 134.8463,-308.5 134.8463,-308.5 134.8463,-308.5 134.8463,-234 134.8463,-177.7444 190.4433,-136.4846 233.7148,-112.8912"/>
<polygon fill="#c0c0c0" stroke="#c0c0c0" stroke-width="2" points="235.5293,-115.8911 242.7369,-108.1257 232.2599,-109.7014 235.5293,-115.8911"/>
</g>
<!-- 36 -->
<g id="node37" class="node">
<title>36</title>
<path fill="none" stroke="#56c9d8" stroke-width="2" stroke-dasharray="5,2" d="M216.3463,-401C216.3463,-401 175.3463,-401 175.3463,-401 169.3463,-401 163.3463,-395 163.3463,-389 163.3463,-389 163.3463,-377 163.3463,-377 163.3463,-371 169.3463,-365 175.3463,-365 175.3463,-365 216.3463,-365 216.3463,-365 222.3463,-365 228.3463,-371 228.3463,-377 228.3463,-377 228.3463,-389 228.3463,-389 228.3463,-395 222.3463,-401 216.3463,-401"/>
<text text-anchor="middle" x="195.8463" y="-380.5" font-family="sans" font-size="10.00" fill="#000000">sam2bam</text>
</g>
<!-- 9&#45;&gt;36 -->
<g id="edge51" class="edge">
<title>9&#45;&gt;36</title>
<path fill="none" stroke="#c0c0c0" stroke-width="2" d="M150.2391,-436.8314C157.3366,-428.454 165.8943,-418.3531 173.6703,-409.1749"/>
<polygon fill="#c0c0c0" stroke="#c0c0c0" stroke-width="2" points="176.4524,-411.3056 180.2461,-401.4133 171.1115,-406.7807 176.4524,-411.3056"/>
</g>
<!-- 10 -->
<g id="node11" class="node">
<title>10</title>
<path fill="none" stroke="#d85656" stroke-width="2" stroke-dasharray="5,2" d="M504.8463,-252C504.8463,-252 454.8463,-252 454.8463,-252 448.8463,-252 442.8463,-246 442.8463,-240 442.8463,-240 442.8463,-228 442.8463,-228 442.8463,-222 448.8463,-216 454.8463,-216 454.8463,-216 504.8463,-216 504.8463,-216 510.8463,-216 516.8463,-222 516.8463,-228 516.8463,-228 516.8463,-240 516.8463,-240 516.8463,-246 510.8463,-252 504.8463,-252"/>
<text text-anchor="middle" x="479.8463" y="-231.5" font-family="sans" font-size="10.00" fill="#000000">bam2pileup</text>
</g>
<!-- 10&#45;&gt;4 -->
<g id="edge10" class="edge">
<title>10&#45;&gt;4</title>
<path fill="none" stroke="#c0c0c0" stroke-width="2" d="M482.622,-215.8314C483.7985,-208.131 485.1974,-198.9743 486.5048,-190.4166"/>
<polygon fill="#c0c0c0" stroke="#c0c0c0" stroke-width="2" points="489.9826,-190.8272 488.0331,-180.4133 483.0629,-189.7699 489.9826,-190.8272"/>
</g>
<!-- 11 -->
<g id="node12" class="node">
<title>11</title>
<path fill="none" stroke="#59d856" stroke-width="2" stroke-dasharray="5,2" d="M386.8463,-545C386.8463,-545 294.8463,-545 294.8463,-545 288.8463,-545 282.8463,-539 282.8463,-533 282.8463,-533 282.8463,-521 282.8463,-521 282.8463,-515 288.8463,-509 294.8463,-509 294.8463,-509 386.8463,-509 386.8463,-509 392.8463,-509 398.8463,-515 398.8463,-521 398.8463,-521 398.8463,-533 398.8463,-533 398.8463,-539 392.8463,-545 386.8463,-545"/>
<text text-anchor="middle" x="340.8463" y="-524.5" font-family="sans" font-size="10.00" fill="#000000">map_nuclear_MT_SE</text>
</g>
<!-- 11&#45;&gt;5 -->
<g id="edge11" class="edge">
<title>11&#45;&gt;5</title>
<path fill="none" stroke="#c0c0c0" stroke-width="2" d="M374.6601,-508.8314C392.1169,-499.4516 413.5949,-487.9112 432.1815,-477.9244"/>
<polygon fill="#c0c0c0" stroke="#c0c0c0" stroke-width="2" points="433.8909,-480.9792 441.0432,-473.1628 430.5777,-474.8129 433.8909,-480.9792"/>
</g>
<!-- 12 -->
<g id="node13" class="node">
<title>12</title>
<path fill="none" stroke="#56d87b" stroke-width="2" stroke-dasharray="5,2" d="M520.8463,-545C520.8463,-545 428.8463,-545 428.8463,-545 422.8463,-545 416.8463,-539 416.8463,-533 416.8463,-533 416.8463,-521 416.8463,-521 416.8463,-515 422.8463,-509 428.8463,-509 428.8463,-509 520.8463,-509 520.8463,-509 526.8463,-509 532.8463,-515 532.8463,-521 532.8463,-521 532.8463,-533 532.8463,-533 532.8463,-539 526.8463,-545 520.8463,-545"/>
<text text-anchor="middle" x="474.8463" y="-524.5" font-family="sans" font-size="10.00" fill="#000000">map_nuclear_MT_PE</text>
</g>
<!-- 12&#45;&gt;5 -->
<g id="edge12" class="edge">
<title>12&#45;&gt;5</title>
<path fill="none" stroke="#c0c0c0" stroke-width="2" d="M474.8463,-508.8314C474.8463,-501.131 474.8463,-491.9743 474.8463,-483.4166"/>
<polygon fill="#c0c0c0" stroke="#c0c0c0" stroke-width="2" points="478.3464,-483.4132 474.8463,-473.4133 471.3464,-483.4133 478.3464,-483.4132"/>
</g>
<!-- 13 -->
<g id="node14" class="node">
<title>13</title>
<path fill="none" stroke="#c6d856" stroke-width="2" stroke-dasharray="5,2" d="M508.3463,-699C508.3463,-699 395.3463,-699 395.3463,-699 389.3463,-699 383.3463,-693 383.3463,-687 383.3463,-687 383.3463,-670 383.3463,-670 383.3463,-664 389.3463,-658 395.3463,-658 395.3463,-658 508.3463,-658 508.3463,-658 514.3463,-658 520.3463,-664 520.3463,-670 520.3463,-670 520.3463,-687 520.3463,-687 520.3463,-693 514.3463,-699 508.3463,-699"/>
<text text-anchor="middle" x="451.8463" y="-687" font-family="sans" font-size="10.00" fill="#000000">map_MT_PE_SE</text>
<text text-anchor="middle" x="451.8463" y="-676" font-family="sans" font-size="10.00" fill="#000000">ref_genome_n: pb_121&#45;1</text>
<text text-anchor="middle" x="451.8463" y="-665" font-family="sans" font-size="10.00" fill="#000000">sample: 87074_1</text>
</g>
<!-- 13&#45;&gt;5 -->
<g id="edge13" class="edge">
<title>13&#45;&gt;5</title>
<path fill="none" stroke="#c0c0c0" stroke-width="2" d="M472.3362,-657.6072C494.7638,-633.0575 529.2149,-589.9385 541.8463,-545 546.1758,-529.5969 548.7511,-523.4334 541.8463,-509 536.2503,-497.3025 526.7469,-487.3295 516.6291,-479.2563"/>
<polygon fill="#c0c0c0" stroke="#c0c0c0" stroke-width="2" points="518.5643,-476.3341 508.446,-473.1924 514.3967,-481.9583 518.5643,-476.3341"/>
</g>
<!-- 24 -->
<g id="node25" class="node">
<title>24</title>
<path fill="none" stroke="#56d8a2" stroke-width="2" stroke-dasharray="5,2" d="M473.8463,-619.5C473.8463,-619.5 429.8463,-619.5 429.8463,-619.5 423.8463,-619.5 417.8463,-613.5 417.8463,-607.5 417.8463,-607.5 417.8463,-595.5 417.8463,-595.5 417.8463,-589.5 423.8463,-583.5 429.8463,-583.5 429.8463,-583.5 473.8463,-583.5 473.8463,-583.5 479.8463,-583.5 485.8463,-589.5 485.8463,-595.5 485.8463,-595.5 485.8463,-607.5 485.8463,-607.5 485.8463,-613.5 479.8463,-619.5 473.8463,-619.5"/>
<text text-anchor="middle" x="451.8463" y="-599" font-family="sans" font-size="10.00" fill="#000000">sam2fastq</text>
</g>
<!-- 13&#45;&gt;24 -->
<g id="edge44" class="edge">
<title>13&#45;&gt;24</title>
<path fill="none" stroke="#c0c0c0" stroke-width="2" d="M451.8463,-657.8654C451.8463,-649.1912 451.8463,-638.9623 451.8463,-629.6158"/>
<polygon fill="#c0c0c0" stroke="#c0c0c0" stroke-width="2" points="455.3464,-629.5682 451.8463,-619.5683 448.3464,-629.5683 455.3464,-629.5682"/>
</g>
<!-- 14 -->
<g id="node15" class="node">
<title>14</title>
<path fill="none" stroke="#56d87b" stroke-width="2" stroke-dasharray="5,2" d="M692.8463,-545C692.8463,-545 600.8463,-545 600.8463,-545 594.8463,-545 588.8463,-539 588.8463,-533 588.8463,-533 588.8463,-521 588.8463,-521 588.8463,-515 594.8463,-509 600.8463,-509 600.8463,-509 692.8463,-509 692.8463,-509 698.8463,-509 704.8463,-515 704.8463,-521 704.8463,-521 704.8463,-533 704.8463,-533 704.8463,-539 698.8463,-545 692.8463,-545"/>
<text text-anchor="middle" x="646.8463" y="-524.5" font-family="sans" font-size="10.00" fill="#000000">map_nuclear_MT_PE</text>
</g>
<!-- 14&#45;&gt;6 -->
<g id="edge14" class="edge">
<title>14&#45;&gt;6</title>
<path fill="none" stroke="#c0c0c0" stroke-width="2" d="M680.4078,-508.8314C697.7343,-499.4516 719.052,-487.9112 737.4999,-477.9244"/>
<polygon fill="#c0c0c0" stroke="#c0c0c0" stroke-width="2" points="739.1677,-481.0015 746.2955,-473.1628 735.8351,-474.8457 739.1677,-481.0015"/>
</g>
<!-- 15 -->
<g id="node16" class="node">
<title>15</title>
<path fill="none" stroke="#59d856" stroke-width="2" stroke-dasharray="5,2" d="M826.8463,-545C826.8463,-545 734.8463,-545 734.8463,-545 728.8463,-545 722.8463,-539 722.8463,-533 722.8463,-533 722.8463,-521 722.8463,-521 722.8463,-515 728.8463,-509 734.8463,-509 734.8463,-509 826.8463,-509 826.8463,-509 832.8463,-509 838.8463,-515 838.8463,-521 838.8463,-521 838.8463,-533 838.8463,-533 838.8463,-539 832.8463,-545 826.8463,-545"/>
<text text-anchor="middle" x="780.8463" y="-524.5" font-family="sans" font-size="10.00" fill="#000000">map_nuclear_MT_SE</text>
</g>
<!-- 15&#45;&gt;6 -->
<g id="edge15" class="edge">
<title>15&#45;&gt;6</title>
<path fill="none" stroke="#c0c0c0" stroke-width="2" d="M780.5939,-508.8314C780.487,-501.131 780.3598,-491.9743 780.2409,-483.4166"/>
<polygon fill="#c0c0c0" stroke="#c0c0c0" stroke-width="2" points="783.7406,-483.3637 780.102,-473.4133 776.7413,-483.4609 783.7406,-483.3637"/>
</g>
<!-- 16 -->
<g id="node17" class="node">
<title>16</title>
<path fill="none" stroke="#c6d856" stroke-width="2" stroke-dasharray="5,2" d="M814.3463,-699C814.3463,-699 701.3463,-699 701.3463,-699 695.3463,-699 689.3463,-693 689.3463,-687 689.3463,-687 689.3463,-670 689.3463,-670 689.3463,-664 695.3463,-658 701.3463,-658 701.3463,-658 814.3463,-658 814.3463,-658 820.3463,-658 826.3463,-664 826.3463,-670 826.3463,-670 826.3463,-687 826.3463,-687 826.3463,-693 820.3463,-699 814.3463,-699"/>
<text text-anchor="middle" x="757.8463" y="-687" font-family="sans" font-size="10.00" fill="#000000">map_MT_PE_SE</text>
<text text-anchor="middle" x="757.8463" y="-676" font-family="sans" font-size="10.00" fill="#000000">ref_genome_n: pb_121&#45;1</text>
<text text-anchor="middle" x="757.8463" y="-665" font-family="sans" font-size="10.00" fill="#000000">sample: 87075_2</text>
</g>
<!-- 16&#45;&gt;6 -->
<g id="edge16" class="edge">
<title>16&#45;&gt;6</title>
<path fill="none" stroke="#c0c0c0" stroke-width="2" d="M810.3631,-657.8866C825.5138,-649.1999 840.2593,-637.4389 848.8463,-622 854.9702,-610.9895 857.0151,-527.6574 847.8463,-509 842.0752,-497.2566 832.4005,-487.2689 822.1327,-479.1962"/>
<polygon fill="#c0c0c0" stroke="#c0c0c0" stroke-width="2" points="823.9742,-476.207 813.8342,-473.1357 819.8457,-481.86 823.9742,-476.207"/>
</g>
<!-- 27 -->
<g id="node28" class="node">
<title>27</title>
<path fill="none" stroke="#56d8a2" stroke-width="2" stroke-dasharray="5,2" d="M668.8463,-619.5C668.8463,-619.5 624.8463,-619.5 624.8463,-619.5 618.8463,-619.5 612.8463,-613.5 612.8463,-607.5 612.8463,-607.5 612.8463,-595.5 612.8463,-595.5 612.8463,-589.5 618.8463,-583.5 624.8463,-583.5 624.8463,-583.5 668.8463,-583.5 668.8463,-583.5 674.8463,-583.5 680.8463,-589.5 680.8463,-595.5 680.8463,-595.5 680.8463,-607.5 680.8463,-607.5 680.8463,-613.5 674.8463,-619.5 668.8463,-619.5"/>
<text text-anchor="middle" x="646.8463" y="-599" font-family="sans" font-size="10.00" fill="#000000">sam2fastq</text>
</g>
<!-- 16&#45;&gt;27 -->
<g id="edge45" class="edge">
<title>16&#45;&gt;27</title>
<path fill="none" stroke="#c0c0c0" stroke-width="2" d="M728.1003,-657.8654C713.7135,-647.8854 696.36,-635.8474 681.3906,-625.4632"/>
<polygon fill="#c0c0c0" stroke="#c0c0c0" stroke-width="2" points="683.1043,-622.3923 672.8927,-619.5683 679.1144,-628.1439 683.1043,-622.3923"/>
</g>
<!-- 17 -->
<g id="node18" class="node">
<title>17</title>
<path fill="none" stroke="#d85656" stroke-width="2" stroke-dasharray="5,2" d="M666.8463,-252C666.8463,-252 616.8463,-252 616.8463,-252 610.8463,-252 604.8463,-246 604.8463,-240 604.8463,-240 604.8463,-228 604.8463,-228 604.8463,-222 610.8463,-216 616.8463,-216 616.8463,-216 666.8463,-216 666.8463,-216 672.8463,-216 678.8463,-222 678.8463,-228 678.8463,-228 678.8463,-240 678.8463,-240 678.8463,-246 672.8463,-252 666.8463,-252"/>
<text text-anchor="middle" x="641.8463" y="-231.5" font-family="sans" font-size="10.00" fill="#000000">bam2pileup</text>
</g>
<!-- 17&#45;&gt;7 -->
<g id="edge17" class="edge">
<title>17&#45;&gt;7</title>
<path fill="none" stroke="#c0c0c0" stroke-width="2" d="M641.8463,-215.8314C641.8463,-208.131 641.8463,-198.9743 641.8463,-190.4166"/>
<polygon fill="#c0c0c0" stroke="#c0c0c0" stroke-width="2" points="645.3464,-190.4132 641.8463,-180.4133 638.3464,-190.4133 645.3464,-190.4132"/>
</g>
<!-- 18 -->
<g id="node19" class="node">
<title>18</title>
<path fill="none" stroke="#d85656" stroke-width="2" stroke-dasharray="5,2" d="M308.8463,-252C308.8463,-252 258.8463,-252 258.8463,-252 252.8463,-252 246.8463,-246 246.8463,-240 246.8463,-240 246.8463,-228 246.8463,-228 246.8463,-222 252.8463,-216 258.8463,-216 258.8463,-216 308.8463,-216 308.8463,-216 314.8463,-216 320.8463,-222 320.8463,-228 320.8463,-228 320.8463,-240 320.8463,-240 320.8463,-246 314.8463,-252 308.8463,-252"/>
<text text-anchor="middle" x="283.8463" y="-231.5" font-family="sans" font-size="10.00" fill="#000000">bam2pileup</text>
</g>
<!-- 18&#45;&gt;8 -->
<g id="edge18" class="edge">
<title>18&#45;&gt;8</title>
<path fill="none" stroke="#c0c0c0" stroke-width="2" d="M283.8463,-215.8314C283.8463,-208.131 283.8463,-198.9743 283.8463,-190.4166"/>
<polygon fill="#c0c0c0" stroke="#c0c0c0" stroke-width="2" points="287.3464,-190.4132 283.8463,-180.4133 280.3464,-190.4133 287.3464,-190.4132"/>
</g>
<!-- 19 -->
<g id="node20" class="node">
<title>19</title>
<path fill="none" stroke="#c6d856" stroke-width="2" stroke-dasharray="5,2" d="M202.3463,-699C202.3463,-699 89.3463,-699 89.3463,-699 83.3463,-699 77.3463,-693 77.3463,-687 77.3463,-687 77.3463,-670 77.3463,-670 77.3463,-664 83.3463,-658 89.3463,-658 89.3463,-658 202.3463,-658 202.3463,-658 208.3463,-658 214.3463,-664 214.3463,-670 214.3463,-670 214.3463,-687 214.3463,-687 214.3463,-693 208.3463,-699 202.3463,-699"/>
<text text-anchor="middle" x="145.8463" y="-687" font-family="sans" font-size="10.00" fill="#000000">map_MT_PE_SE</text>
<text text-anchor="middle" x="145.8463" y="-676" font-family="sans" font-size="10.00" fill="#000000">ref_genome_n: pb_121&#45;1</text>
<text text-anchor="middle" x="145.8463" y="-665" font-family="sans" font-size="10.00" fill="#000000">sample: 87075_2</text>
</g>
<!-- 19&#45;&gt;9 -->
<g id="edge19" class="edge">
<title>19&#45;&gt;9</title>
<path fill="none" stroke="#c0c0c0" stroke-width="2" d="M111.7435,-657.9502C77.6372,-635.19 27.2628,-595.0149 5.8463,-545 -.4519,-530.2917 -3.018,-522.3201 5.8463,-509 17.9806,-490.7659 37.5823,-478.6771 57.8815,-470.6669"/>
<polygon fill="#c0c0c0" stroke="#c0c0c0" stroke-width="2" points="59.344,-473.8596 67.5515,-467.1598 56.9573,-467.2791 59.344,-473.8596"/>
</g>
<!-- 33 -->
<g id="node34" class="node">
<title>33</title>
<path fill="none" stroke="#56d8a2" stroke-width="2" stroke-dasharray="5,2" d="M167.8463,-619.5C167.8463,-619.5 123.8463,-619.5 123.8463,-619.5 117.8463,-619.5 111.8463,-613.5 111.8463,-607.5 111.8463,-607.5 111.8463,-595.5 111.8463,-595.5 111.8463,-589.5 117.8463,-583.5 123.8463,-583.5 123.8463,-583.5 167.8463,-583.5 167.8463,-583.5 173.8463,-583.5 179.8463,-589.5 179.8463,-595.5 179.8463,-595.5 179.8463,-607.5 179.8463,-607.5 179.8463,-613.5 173.8463,-619.5 167.8463,-619.5"/>
<text text-anchor="middle" x="145.8463" y="-599" font-family="sans" font-size="10.00" fill="#000000">sam2fastq</text>
</g>
<!-- 19&#45;&gt;33 -->
<g id="edge48" class="edge">
<title>19&#45;&gt;33</title>
<path fill="none" stroke="#c0c0c0" stroke-width="2" d="M145.8463,-657.8654C145.8463,-649.1912 145.8463,-638.9623 145.8463,-629.6158"/>
<polygon fill="#c0c0c0" stroke="#c0c0c0" stroke-width="2" points="149.3464,-629.5682 145.8463,-619.5683 142.3464,-629.5683 149.3464,-629.5682"/>
</g>
<!-- 20 -->
<g id="node21" class="node">
<title>20</title>
<path fill="none" stroke="#59d856" stroke-width="2" stroke-dasharray="5,2" d="M252.8463,-545C252.8463,-545 160.8463,-545 160.8463,-545 154.8463,-545 148.8463,-539 148.8463,-533 148.8463,-533 148.8463,-521 148.8463,-521 148.8463,-515 154.8463,-509 160.8463,-509 160.8463,-509 252.8463,-509 252.8463,-509 258.8463,-509 264.8463,-515 264.8463,-521 264.8463,-521 264.8463,-533 264.8463,-533 264.8463,-539 258.8463,-545 252.8463,-545"/>
<text text-anchor="middle" x="206.8463" y="-524.5" font-family="sans" font-size="10.00" fill="#000000">map_nuclear_MT_SE</text>
</g>
<!-- 20&#45;&gt;9 -->
<g id="edge20" class="edge">
<title>20&#45;&gt;9</title>
<path fill="none" stroke="#c0c0c0" stroke-width="2" d="M188.6776,-508.8314C180.131,-500.2848 169.7906,-489.9443 160.4661,-480.6198"/>
<polygon fill="#c0c0c0" stroke="#c0c0c0" stroke-width="2" points="162.8055,-478.0095 153.2595,-473.4133 157.8557,-482.9592 162.8055,-478.0095"/>
</g>
<!-- 21 -->
<g id="node22" class="node">
<title>21</title>
<path fill="none" stroke="#56d87b" stroke-width="2" stroke-dasharray="5,2" d="M118.8463,-545C118.8463,-545 26.8463,-545 26.8463,-545 20.8463,-545 14.8463,-539 14.8463,-533 14.8463,-533 14.8463,-521 14.8463,-521 14.8463,-515 20.8463,-509 26.8463,-509 26.8463,-509 118.8463,-509 118.8463,-509 124.8463,-509 130.8463,-515 130.8463,-521 130.8463,-521 130.8463,-533 130.8463,-533 130.8463,-539 124.8463,-545 118.8463,-545"/>
<text text-anchor="middle" x="72.8463" y="-524.5" font-family="sans" font-size="10.00" fill="#000000">map_nuclear_MT_PE</text>
</g>
<!-- 21&#45;&gt;9 -->
<g id="edge21" class="edge">
<title>21&#45;&gt;9</title>
<path fill="none" stroke="#c0c0c0" stroke-width="2" d="M88.4915,-508.8314C95.7053,-500.454 104.4033,-490.3531 112.3067,-481.1749"/>
<polygon fill="#c0c0c0" stroke="#c0c0c0" stroke-width="2" points="115.1173,-483.2748 118.9904,-473.4133 109.8129,-478.7071 115.1173,-483.2748"/>
</g>
<!-- 22 -->
<g id="node23" class="node">
<title>22</title>
<path fill="none" stroke="#78d856" stroke-width="2" stroke-dasharray="5,2" d="M497.8463,-326.5C497.8463,-326.5 459.8463,-326.5 459.8463,-326.5 453.8463,-326.5 447.8463,-320.5 447.8463,-314.5 447.8463,-314.5 447.8463,-302.5 447.8463,-302.5 447.8463,-296.5 453.8463,-290.5 459.8463,-290.5 459.8463,-290.5 497.8463,-290.5 497.8463,-290.5 503.8463,-290.5 509.8463,-296.5 509.8463,-302.5 509.8463,-302.5 509.8463,-314.5 509.8463,-314.5 509.8463,-320.5 503.8463,-326.5 497.8463,-326.5"/>
<text text-anchor="middle" x="478.8463" y="-306" font-family="sans" font-size="10.00" fill="#000000">sort_bam</text>
</g>
<!-- 22&#45;&gt;10 -->
<g id="edge22" class="edge">
<title>22&#45;&gt;10</title>
<path fill="none" stroke="#c0c0c0" stroke-width="2" d="M479.0883,-290.4656C479.2017,-282.0178 479.3395,-271.7542 479.4663,-262.3064"/>
<polygon fill="#c0c0c0" stroke="#c0c0c0" stroke-width="2" points="482.9683,-262.1726 479.6029,-252.1265 475.969,-262.0786 482.9683,-262.1726"/>
</g>
<!-- 23 -->
<g id="node24" class="node">
<title>23</title>
<path fill="none" stroke="#d8c356" stroke-width="2" stroke-dasharray="5,2" d="M374.3463,-329C374.3463,-329 257.3463,-329 257.3463,-329 251.3463,-329 245.3463,-323 245.3463,-317 245.3463,-317 245.3463,-300 245.3463,-300 245.3463,-294 251.3463,-288 257.3463,-288 257.3463,-288 374.3463,-288 374.3463,-288 380.3463,-288 386.3463,-294 386.3463,-300 386.3463,-300 386.3463,-317 386.3463,-317 386.3463,-323 380.3463,-329 374.3463,-329"/>
<text text-anchor="middle" x="315.8463" y="-317" font-family="sans" font-size="10.00" fill="#000000">index_genome</text>
<text text-anchor="middle" x="315.8463" y="-306" font-family="sans" font-size="10.00" fill="#000000">ref_genome_mt: 87074_1</text>
<text text-anchor="middle" x="315.8463" y="-295" font-family="sans" font-size="10.00" fill="#000000">ref_genome_n: pb_121&#45;1</text>
</g>
<!-- 23&#45;&gt;10 -->
<g id="edge23" class="edge">
<title>23&#45;&gt;10</title>
<path fill="none" stroke="#c0c0c0" stroke-width="2" d="M361.0941,-287.9453C383.5761,-277.7325 410.7053,-265.4086 433.3549,-255.1196"/>
<polygon fill="#c0c0c0" stroke="#c0c0c0" stroke-width="2" points="435.104,-258.1693 442.761,-250.8467 432.2088,-251.796 435.104,-258.1693"/>
</g>
<!-- 23&#45;&gt;18 -->
<g id="edge37" class="edge">
<title>23&#45;&gt;18</title>
<path fill="none" stroke="#c0c0c0" stroke-width="2" d="M306.9325,-287.7476C303.439,-279.6143 299.3807,-270.1661 295.6499,-261.4804"/>
<polygon fill="#c0c0c0" stroke="#c0c0c0" stroke-width="2" points="298.7871,-259.9156 291.6245,-252.1087 292.3553,-262.6783 298.7871,-259.9156"/>
</g>
<!-- 24&#45;&gt;11 -->
<g id="edge24" class="edge">
<title>24&#45;&gt;11</title>
<path fill="none" stroke="#c0c0c0" stroke-width="2" d="M424.9763,-583.4656C410.3594,-573.6552 392.0942,-561.3961 376.321,-550.8096"/>
<polygon fill="#c0c0c0" stroke="#c0c0c0" stroke-width="2" points="378.1073,-547.7933 367.8535,-545.1265 374.2062,-553.6055 378.1073,-547.7933"/>
</g>
<!-- 24&#45;&gt;12 -->
<g id="edge26" class="edge">
<title>24&#45;&gt;12</title>
<path fill="none" stroke="#c0c0c0" stroke-width="2" d="M457.4139,-583.4656C460.0781,-574.8361 463.3271,-564.3119 466.2952,-554.6981"/>
<polygon fill="#c0c0c0" stroke="#c0c0c0" stroke-width="2" points="469.6445,-555.714 469.2502,-545.1265 462.956,-553.649 469.6445,-555.714"/>
</g>
<!-- 25 -->
<g id="node26" class="node">
<title>25</title>
<path fill="none" stroke="#56a2d8" stroke-width="2" stroke-dasharray="5,2" d="M363.3463,-622C363.3463,-622 246.3463,-622 246.3463,-622 240.3463,-622 234.3463,-616 234.3463,-610 234.3463,-610 234.3463,-593 234.3463,-593 234.3463,-587 240.3463,-581 246.3463,-581 246.3463,-581 363.3463,-581 363.3463,-581 369.3463,-581 375.3463,-587 375.3463,-593 375.3463,-593 375.3463,-610 375.3463,-610 375.3463,-616 369.3463,-622 363.3463,-622"/>
<text text-anchor="middle" x="304.8463" y="-610" font-family="sans" font-size="10.00" fill="#000000">make_mt_n_gmap_db</text>
<text text-anchor="middle" x="304.8463" y="-599" font-family="sans" font-size="10.00" fill="#000000">ref_genome_mt: 87074_1</text>
<text text-anchor="middle" x="304.8463" y="-588" font-family="sans" font-size="10.00" fill="#000000">ref_genome_n: pb_121&#45;1</text>
</g>
<!-- 25&#45;&gt;11 -->
<g id="edge25" class="edge">
<title>25&#45;&gt;11</title>
<path fill="none" stroke="#c0c0c0" stroke-width="2" d="M314.8743,-580.7476C318.8467,-572.5269 323.4683,-562.9627 327.7024,-554.2004"/>
<polygon fill="#c0c0c0" stroke="#c0c0c0" stroke-width="2" points="330.8962,-555.6354 332.0958,-545.1087 324.5935,-552.5897 330.8962,-555.6354"/>
</g>
<!-- 25&#45;&gt;12 -->
<g id="edge27" class="edge">
<title>25&#45;&gt;12</title>
<path fill="none" stroke="#c0c0c0" stroke-width="2" d="M351.7495,-580.9453C374.2942,-571.0654 401.3473,-559.2099 424.3433,-549.1322"/>
<polygon fill="#c0c0c0" stroke="#c0c0c0" stroke-width="2" points="425.8406,-552.2974 433.5949,-545.0778 423.0309,-545.886 425.8406,-552.2974"/>
</g>
<!-- 25&#45;&gt;20 -->
<g id="edge40" class="edge">
<title>25&#45;&gt;20</title>
<path fill="none" stroke="#c0c0c0" stroke-width="2" d="M277.8079,-580.9453C265.7244,-571.7594 251.3943,-560.8656 238.7862,-551.2809"/>
<polygon fill="#c0c0c0" stroke="#c0c0c0" stroke-width="2" points="240.8694,-548.468 230.7904,-545.2024 236.6331,-554.0406 240.8694,-548.468"/>
</g>
<!-- 25&#45;&gt;21 -->
<g id="edge42" class="edge">
<title>25&#45;&gt;21</title>
<path fill="none" stroke="#c0c0c0" stroke-width="2" d="M240.8371,-580.9453C209.113,-570.7581 170.8476,-558.4703 138.8553,-548.1969"/>
<polygon fill="#c0c0c0" stroke="#c0c0c0" stroke-width="2" points="139.7336,-544.8029 129.1423,-545.0778 137.5933,-551.4677 139.7336,-544.8029"/>
</g>
<!-- 26 -->
<g id="node27" class="node">
<title>26</title>
<path fill="none" stroke="#d8a456" stroke-width="2" stroke-dasharray="5,2" d="M376.3463,-771C376.3463,-771 259.3463,-771 259.3463,-771 253.3463,-771 247.3463,-765 247.3463,-759 247.3463,-759 247.3463,-747 247.3463,-747 247.3463,-741 253.3463,-735 259.3463,-735 259.3463,-735 376.3463,-735 376.3463,-735 382.3463,-735 388.3463,-741 388.3463,-747 388.3463,-747 388.3463,-759 388.3463,-759 388.3463,-765 382.3463,-771 376.3463,-771"/>
<text text-anchor="middle" x="317.8463" y="-756" font-family="sans" font-size="10.00" fill="#000000">make_mt_gmap_db</text>
<text text-anchor="middle" x="317.8463" y="-745" font-family="sans" font-size="10.00" fill="#000000">ref_genome_mt: 87074_1</text>
</g>
<!-- 26&#45;&gt;13 -->
<g id="edge28" class="edge">
<title>26&#45;&gt;13</title>
<path fill="none" stroke="#c0c0c0" stroke-width="2" d="M350.2839,-734.9656C366.9249,-725.7137 387.4832,-714.284 405.741,-704.1331"/>
<polygon fill="#c0c0c0" stroke="#c0c0c0" stroke-width="2" points="407.4527,-707.1861 414.492,-699.2679 404.0512,-701.0681 407.4527,-707.1861"/>
</g>
<!-- 26&#45;&gt;19 -->
<g id="edge38" class="edge">
<title>26&#45;&gt;19</title>
<path fill="none" stroke="#c0c0c0" stroke-width="2" d="M276.2099,-734.9656C254.1794,-725.4234 226.8004,-713.5644 202.8287,-703.1814"/>
<polygon fill="#c0c0c0" stroke="#c0c0c0" stroke-width="2" points="204.0504,-699.8964 193.4831,-699.1334 201.2682,-706.3197 204.0504,-699.8964"/>
</g>
<!-- 27&#45;&gt;14 -->
<g id="edge29" class="edge">
<title>27&#45;&gt;14</title>
<path fill="none" stroke="#c0c0c0" stroke-width="2" d="M646.8463,-583.4656C646.8463,-575.0178 646.8463,-564.7542 646.8463,-555.3064"/>
<polygon fill="#c0c0c0" stroke="#c0c0c0" stroke-width="2" points="650.3464,-555.1265 646.8463,-545.1265 643.3464,-555.1265 650.3464,-555.1265"/>
</g>
<!-- 27&#45;&gt;15 -->
<g id="edge32" class="edge">
<title>27&#45;&gt;15</title>
<path fill="none" stroke="#c0c0c0" stroke-width="2" d="M679.2839,-583.4656C697.3379,-573.4281 720.0026,-560.8273 739.3383,-550.0772"/>
<polygon fill="#c0c0c0" stroke="#c0c0c0" stroke-width="2" points="741.2036,-553.0448 748.2429,-545.1265 737.8021,-546.9267 741.2036,-553.0448"/>
</g>
<!-- 28 -->
<g id="node29" class="node">
<title>28</title>
<path fill="none" stroke="#56a2d8" stroke-width="2" stroke-dasharray="5,2" d="M828.3463,-622C828.3463,-622 711.3463,-622 711.3463,-622 705.3463,-622 699.3463,-616 699.3463,-610 699.3463,-610 699.3463,-593 699.3463,-593 699.3463,-587 705.3463,-581 711.3463,-581 711.3463,-581 828.3463,-581 828.3463,-581 834.3463,-581 840.3463,-587 840.3463,-593 840.3463,-593 840.3463,-610 840.3463,-610 840.3463,-616 834.3463,-622 828.3463,-622"/>
<text text-anchor="middle" x="769.8463" y="-610" font-family="sans" font-size="10.00" fill="#000000">make_mt_n_gmap_db</text>
<text text-anchor="middle" x="769.8463" y="-599" font-family="sans" font-size="10.00" fill="#000000">ref_genome_mt: 87075_2</text>
<text text-anchor="middle" x="769.8463" y="-588" font-family="sans" font-size="10.00" fill="#000000">ref_genome_n: pb_121&#45;1</text>
</g>
<!-- 28&#45;&gt;14 -->
<g id="edge30" class="edge">
<title>28&#45;&gt;14</title>
<path fill="none" stroke="#c0c0c0" stroke-width="2" d="M735.9104,-580.9453C720.3111,-571.497 701.7286,-560.2417 685.5831,-550.4626"/>
<polygon fill="#c0c0c0" stroke="#c0c0c0" stroke-width="2" points="687.2652,-547.3895 676.8986,-545.2024 683.6387,-553.3768 687.2652,-547.3895"/>
</g>
<!-- 28&#45;&gt;15 -->
<g id="edge31" class="edge">
<title>28&#45;&gt;15</title>
<path fill="none" stroke="#c0c0c0" stroke-width="2" d="M772.9104,-580.7476C774.0854,-572.7892 775.4464,-563.5718 776.7059,-555.0418"/>
<polygon fill="#c0c0c0" stroke="#c0c0c0" stroke-width="2" points="780.1742,-555.5127 778.1725,-545.1087 773.2493,-554.4901 780.1742,-555.5127"/>
</g>
<!-- 29 -->
<g id="node30" class="node">
<title>29</title>
<path fill="none" stroke="#d8a456" stroke-width="2" stroke-dasharray="5,2" d="M816.3463,-771C816.3463,-771 699.3463,-771 699.3463,-771 693.3463,-771 687.3463,-765 687.3463,-759 687.3463,-759 687.3463,-747 687.3463,-747 687.3463,-741 693.3463,-735 699.3463,-735 699.3463,-735 816.3463,-735 816.3463,-735 822.3463,-735 828.3463,-741 828.3463,-747 828.3463,-747 828.3463,-759 828.3463,-759 828.3463,-765 822.3463,-771 816.3463,-771"/>
<text text-anchor="middle" x="757.8463" y="-756" font-family="sans" font-size="10.00" fill="#000000">make_mt_gmap_db</text>
<text text-anchor="middle" x="757.8463" y="-745" font-family="sans" font-size="10.00" fill="#000000">ref_genome_mt: 87075_2</text>
</g>
<!-- 29&#45;&gt;16 -->
<g id="edge33" class="edge">
<title>29&#45;&gt;16</title>
<path fill="none" stroke="#c0c0c0" stroke-width="2" d="M757.8463,-734.9656C757.8463,-727.3118 757.8463,-718.1674 757.8463,-709.4898"/>
<polygon fill="#c0c0c0" stroke="#c0c0c0" stroke-width="2" points="761.3464,-709.2678 757.8463,-699.2679 754.3464,-709.2679 761.3464,-709.2678"/>
</g>
<!-- 30 -->
<g id="node31" class="node">
<title>30</title>
<path fill="none" stroke="#d8c356" stroke-width="2" stroke-dasharray="5,2" d="M739.3463,-329C739.3463,-329 622.3463,-329 622.3463,-329 616.3463,-329 610.3463,-323 610.3463,-317 610.3463,-317 610.3463,-300 610.3463,-300 610.3463,-294 616.3463,-288 622.3463,-288 622.3463,-288 739.3463,-288 739.3463,-288 745.3463,-288 751.3463,-294 751.3463,-300 751.3463,-300 751.3463,-317 751.3463,-317 751.3463,-323 745.3463,-329 739.3463,-329"/>
<text text-anchor="middle" x="680.8463" y="-317" font-family="sans" font-size="10.00" fill="#000000">index_genome</text>
<text text-anchor="middle" x="680.8463" y="-306" font-family="sans" font-size="10.00" fill="#000000">ref_genome_mt: 87075_2</text>
<text text-anchor="middle" x="680.8463" y="-295" font-family="sans" font-size="10.00" fill="#000000">ref_genome_n: pb_121&#45;1</text>
</g>
<!-- 30&#45;&gt;17 -->
<g id="edge34" class="edge">
<title>30&#45;&gt;17</title>
<path fill="none" stroke="#c0c0c0" stroke-width="2" d="M669.9826,-287.7476C665.6791,-279.5269 660.6724,-269.9627 656.0854,-261.2004"/>
<polygon fill="#c0c0c0" stroke="#c0c0c0" stroke-width="2" points="659.0647,-259.3449 651.326,-252.1087 652.863,-262.5914 659.0647,-259.3449"/>
</g>
<!-- 31 -->
<g id="node32" class="node">
<title>31</title>
<path fill="none" stroke="#78d856" stroke-width="2" stroke-dasharray="5,2" d="M579.8463,-326.5C579.8463,-326.5 541.8463,-326.5 541.8463,-326.5 535.8463,-326.5 529.8463,-320.5 529.8463,-314.5 529.8463,-314.5 529.8463,-302.5 529.8463,-302.5 529.8463,-296.5 535.8463,-290.5 541.8463,-290.5 541.8463,-290.5 579.8463,-290.5 579.8463,-290.5 585.8463,-290.5 591.8463,-296.5 591.8463,-302.5 591.8463,-302.5 591.8463,-314.5 591.8463,-314.5 591.8463,-320.5 585.8463,-326.5 579.8463,-326.5"/>
<text text-anchor="middle" x="560.8463" y="-306" font-family="sans" font-size="10.00" fill="#000000">sort_bam</text>
</g>
<!-- 31&#45;&gt;17 -->
<g id="edge35" class="edge">
<title>31&#45;&gt;17</title>
<path fill="none" stroke="#c0c0c0" stroke-width="2" d="M580.4541,-290.4656C590.7254,-281.0186 603.4655,-269.3009 614.6731,-258.9926"/>
<polygon fill="#c0c0c0" stroke="#c0c0c0" stroke-width="2" points="617.1474,-261.4722 622.1382,-252.1265 612.4086,-256.32 617.1474,-261.4722"/>
</g>
<!-- 32 -->
<g id="node33" class="node">
<title>32</title>
<path fill="none" stroke="#78d856" stroke-width="2" stroke-dasharray="5,2" d="M214.8463,-326.5C214.8463,-326.5 176.8463,-326.5 176.8463,-326.5 170.8463,-326.5 164.8463,-320.5 164.8463,-314.5 164.8463,-314.5 164.8463,-302.5 164.8463,-302.5 164.8463,-296.5 170.8463,-290.5 176.8463,-290.5 176.8463,-290.5 214.8463,-290.5 214.8463,-290.5 220.8463,-290.5 226.8463,-296.5 226.8463,-302.5 226.8463,-302.5 226.8463,-314.5 226.8463,-314.5 226.8463,-320.5 220.8463,-326.5 214.8463,-326.5"/>
<text text-anchor="middle" x="195.8463" y="-306" font-family="sans" font-size="10.00" fill="#000000">sort_bam</text>
</g>
<!-- 32&#45;&gt;18 -->
<g id="edge36" class="edge">
<title>32&#45;&gt;18</title>
<path fill="none" stroke="#c0c0c0" stroke-width="2" d="M217.1486,-290.4656C228.4148,-280.9277 242.415,-269.0753 254.6756,-258.6956"/>
<polygon fill="#c0c0c0" stroke="#c0c0c0" stroke-width="2" points="257.0643,-261.2592 262.4351,-252.1265 252.5413,-255.9166 257.0643,-261.2592"/>
</g>
<!-- 33&#45;&gt;20 -->
<g id="edge39" class="edge">
<title>33&#45;&gt;20</title>
<path fill="none" stroke="#c0c0c0" stroke-width="2" d="M160.6127,-583.4656C168.1247,-574.2911 177.3902,-562.975 185.6493,-552.8881"/>
<polygon fill="#c0c0c0" stroke="#c0c0c0" stroke-width="2" points="188.3772,-555.0811 192.0044,-545.1265 182.9611,-550.6465 188.3772,-555.0811"/>
</g>
<!-- 33&#45;&gt;21 -->
<g id="edge41" class="edge">
<title>33&#45;&gt;21</title>
<path fill="none" stroke="#c0c0c0" stroke-width="2" d="M128.175,-583.4656C119.0072,-574.1094 107.657,-562.526 97.6274,-552.2903"/>
<polygon fill="#c0c0c0" stroke="#c0c0c0" stroke-width="2" points="100.1066,-549.8196 90.6078,-545.1265 95.1067,-554.7187 100.1066,-549.8196"/>
</g>
<!-- 34&#45;&gt;22 -->
<g id="edge43" class="edge">
<title>34&#45;&gt;22</title>
<path fill="none" stroke="#c0c0c0" stroke-width="2" d="M478.0883,-364.9656C478.2017,-356.5178 478.3395,-346.2542 478.4663,-336.8064"/>
<polygon fill="#c0c0c0" stroke="#c0c0c0" stroke-width="2" points="481.9683,-336.6726 478.6029,-326.6265 474.969,-336.5786 481.9683,-336.6726"/>
</g>
<!-- 35&#45;&gt;31 -->
<g id="edge46" class="edge">
<title>35&#45;&gt;31</title>
<path fill="none" stroke="#c0c0c0" stroke-width="2" d="M622.2384,-364.9656C611.9671,-355.5186 599.2271,-343.8009 588.0194,-333.4926"/>
<polygon fill="#c0c0c0" stroke="#c0c0c0" stroke-width="2" points="590.2839,-330.82 580.5543,-326.6265 585.5452,-335.9722 590.2839,-330.82"/>
</g>
<!-- 36&#45;&gt;32 -->
<g id="edge47" class="edge">
<title>36&#45;&gt;32</title>
<path fill="none" stroke="#c0c0c0" stroke-width="2" d="M195.8463,-364.9656C195.8463,-356.5178 195.8463,-346.2542 195.8463,-336.8064"/>
<polygon fill="#c0c0c0" stroke="#c0c0c0" stroke-width="2" points="199.3464,-336.6265 195.8463,-326.6265 192.3464,-336.6265 199.3464,-336.6265"/>
</g>
</g>
</svg>
