<?xml version="1.0" encoding="UTF-8" standalone="no"?>
<!DOCTYPE svg PUBLIC "-//W3C//DTD SVG 1.1//EN"
 "http://www.w3.org/Graphics/SVG/1.1/DTD/svg11.dtd">
<!-- Generated by graphviz version 2.40.1 (20161225.0304)
 -->
<!-- Title: snakemake_dag Pages: 1 -->
<svg width="1528pt" height="558pt"
 viewBox="0.00 0.00 1527.50 558.00" xmlns="http://www.w3.org/2000/svg" xmlns:xlink="http://www.w3.org/1999/xlink">
<g id="graph0" class="graph" transform="scale(1 1) rotate(0) translate(4 554)">
<title>snakemake_dag</title>
<polygon fill="#ffffff" stroke="transparent" points="-4,4 -4,-554 1523.5,-554 1523.5,4 -4,4"/>
<!-- 0 -->
<g id="node1" class="node">
<title>0</title>
<path fill="none" stroke="#d85656" stroke-width="2" d="M877,-36C877,-36 847,-36 847,-36 841,-36 835,-30 835,-24 835,-24 835,-12 835,-12 835,-6 841,0 847,0 847,0 877,0 877,0 883,0 889,-6 889,-12 889,-12 889,-24 889,-24 889,-30 883,-36 877,-36"/>
<text text-anchor="middle" x="862" y="-15.5" font-family="sans" font-size="10.00" fill="#000000">all</text>
</g>
<!-- 1 -->
<g id="node2" class="node">
<title>1</title>
<path fill="none" stroke="#56d8c1" stroke-width="2" d="M528,-108C528,-108 484,-108 484,-108 478,-108 472,-102 472,-96 472,-96 472,-84 472,-84 472,-78 478,-72 484,-72 484,-72 528,-72 528,-72 534,-72 540,-78 540,-84 540,-84 540,-96 540,-96 540,-102 534,-108 528,-108"/>
<text text-anchor="middle" x="506" y="-87.5" font-family="sans" font-size="10.00" fill="#000000">make_VCF</text>
</g>
<!-- 1&#45;&gt;0 -->
<g id="edge1" class="edge">
<title>1&#45;&gt;0</title>
<path fill="none" stroke="#c0c0c0" stroke-width="2" d="M540.1348,-83.0963C607.1758,-69.5375 755.5404,-39.5312 824.9027,-25.5028"/>
<polygon fill="#c0c0c0" stroke="#c0c0c0" stroke-width="2" points="825.8308,-28.8861 834.9385,-23.4731 824.4431,-22.025 825.8308,-28.8861"/>
</g>
<!-- 2 -->
<g id="node3" class="node">
<title>2</title>
<path fill="none" stroke="#56d8c1" stroke-width="2" d="M826,-108C826,-108 782,-108 782,-108 776,-108 770,-102 770,-96 770,-96 770,-84 770,-84 770,-78 776,-72 782,-72 782,-72 826,-72 826,-72 832,-72 838,-78 838,-84 838,-84 838,-96 838,-96 838,-102 832,-108 826,-108"/>
<text text-anchor="middle" x="804" y="-87.5" font-family="sans" font-size="10.00" fill="#000000">make_VCF</text>
</g>
<!-- 2&#45;&gt;0 -->
<g id="edge2" class="edge">
<title>2&#45;&gt;0</title>
<path fill="none" stroke="#c0c0c0" stroke-width="2" d="M818.6358,-71.8314C825.3161,-63.5386 833.3568,-53.557 840.6904,-44.4533"/>
<polygon fill="#c0c0c0" stroke="#c0c0c0" stroke-width="2" points="843.6194,-46.3965 847.1671,-36.4133 838.1681,-42.0052 843.6194,-46.3965"/>
</g>
<!-- 3 -->
<g id="node4" class="node">
<title>3</title>
<path fill="none" stroke="#56d8c1" stroke-width="2" d="M942,-108C942,-108 898,-108 898,-108 892,-108 886,-102 886,-96 886,-96 886,-84 886,-84 886,-78 892,-72 898,-72 898,-72 942,-72 942,-72 948,-72 954,-78 954,-84 954,-84 954,-96 954,-96 954,-102 948,-108 942,-108"/>
<text text-anchor="middle" x="920" y="-87.5" font-family="sans" font-size="10.00" fill="#000000">make_VCF</text>
</g>
<!-- 3&#45;&gt;0 -->
<g id="edge3" class="edge">
<title>3&#45;&gt;0</title>
<path fill="none" stroke="#c0c0c0" stroke-width="2" d="M905.3642,-71.8314C898.6839,-63.5386 890.6432,-53.557 883.3096,-44.4533"/>
<polygon fill="#c0c0c0" stroke="#c0c0c0" stroke-width="2" points="885.8319,-42.0052 876.8329,-36.4133 880.3806,-46.3965 885.8319,-42.0052"/>
</g>
<!-- 4 -->
<g id="node5" class="node">
<title>4</title>
<path fill="none" stroke="#56d8c1" stroke-width="2" d="M1113,-108C1113,-108 1069,-108 1069,-108 1063,-108 1057,-102 1057,-96 1057,-96 1057,-84 1057,-84 1057,-78 1063,-72 1069,-72 1069,-72 1113,-72 1113,-72 1119,-72 1125,-78 1125,-84 1125,-84 1125,-96 1125,-96 1125,-102 1119,-108 1113,-108"/>
<text text-anchor="middle" x="1091" y="-87.5" font-family="sans" font-size="10.00" fill="#000000">make_VCF</text>
</g>
<!-- 4&#45;&gt;0 -->
<g id="edge4" class="edge">
<title>4&#45;&gt;0</title>
<path fill="none" stroke="#c0c0c0" stroke-width="2" d="M1056.7164,-79.2209C1014.3499,-65.9004 942.538,-43.322 898.9696,-29.6236"/>
<polygon fill="#c0c0c0" stroke="#c0c0c0" stroke-width="2" points="899.9191,-26.2533 889.3297,-26.5927 897.8195,-32.931 899.9191,-26.2533"/>
</g>
<!-- 5 -->
<g id="node6" class="node">
<title>5</title>
<path fill="none" stroke="#568ad8" stroke-width="2" d="M292.5,-180C292.5,-180 213.5,-180 213.5,-180 207.5,-180 201.5,-174 201.5,-168 201.5,-168 201.5,-156 201.5,-156 201.5,-150 207.5,-144 213.5,-144 213.5,-144 292.5,-144 292.5,-144 298.5,-144 304.5,-150 304.5,-156 304.5,-156 304.5,-168 304.5,-168 304.5,-174 298.5,-180 292.5,-180"/>
<text text-anchor="middle" x="253" y="-159.5" font-family="sans" font-size="10.00" fill="#000000">make_single_VCF</text>
</g>
<!-- 5&#45;&gt;1 -->
<g id="edge5" class="edge">
<title>5&#45;&gt;1</title>
<path fill="none" stroke="#c0c0c0" stroke-width="2" d="M304.5033,-147.3429C350.8806,-134.1447 418.3063,-114.9563 462.1588,-102.4765"/>
<polygon fill="#c0c0c0" stroke="#c0c0c0" stroke-width="2" points="463.2962,-105.7919 471.9563,-99.6883 461.3801,-99.0592 463.2962,-105.7919"/>
</g>
<!-- 6 -->
<g id="node7" class="node">
<title>6</title>
<path fill="none" stroke="#568ad8" stroke-width="2" d="M582.5,-180C582.5,-180 503.5,-180 503.5,-180 497.5,-180 491.5,-174 491.5,-168 491.5,-168 491.5,-156 491.5,-156 491.5,-150 497.5,-144 503.5,-144 503.5,-144 582.5,-144 582.5,-144 588.5,-144 594.5,-150 594.5,-156 594.5,-156 594.5,-168 594.5,-168 594.5,-174 588.5,-180 582.5,-180"/>
<text text-anchor="middle" x="543" y="-159.5" font-family="sans" font-size="10.00" fill="#000000">make_single_VCF</text>
</g>
<!-- 6&#45;&gt;2 -->
<g id="edge6" class="edge">
<title>6&#45;&gt;2</title>
<path fill="none" stroke="#c0c0c0" stroke-width="2" d="M594.5652,-147.7751C642.9057,-134.4398 714.3926,-114.7193 760.081,-102.1156"/>
<polygon fill="#c0c0c0" stroke="#c0c0c0" stroke-width="2" points="761.2743,-105.4172 769.9834,-99.3839 759.4127,-98.6693 761.2743,-105.4172"/>
</g>
<!-- 7 -->
<g id="node8" class="node">
<title>7</title>
<path fill="none" stroke="#568ad8" stroke-width="2" d="M843.5,-180C843.5,-180 764.5,-180 764.5,-180 758.5,-180 752.5,-174 752.5,-168 752.5,-168 752.5,-156 752.5,-156 752.5,-150 758.5,-144 764.5,-144 764.5,-144 843.5,-144 843.5,-144 849.5,-144 855.5,-150 855.5,-156 855.5,-156 855.5,-168 855.5,-168 855.5,-174 849.5,-180 843.5,-180"/>
<text text-anchor="middle" x="804" y="-159.5" font-family="sans" font-size="10.00" fill="#000000">make_single_VCF</text>
</g>
<!-- 7&#45;&gt;2 -->
<g id="edge7" class="edge">
<title>7&#45;&gt;2</title>
<path fill="none" stroke="#c0c0c0" stroke-width="2" d="M804,-143.8314C804,-136.131 804,-126.9743 804,-118.4166"/>
<polygon fill="#c0c0c0" stroke="#c0c0c0" stroke-width="2" points="807.5001,-118.4132 804,-108.4133 800.5001,-118.4133 807.5001,-118.4132"/>
</g>
<!-- 8 -->
<g id="node9" class="node">
<title>8</title>
<path fill="none" stroke="#568ad8" stroke-width="2" d="M989.5,-180C989.5,-180 910.5,-180 910.5,-180 904.5,-180 898.5,-174 898.5,-168 898.5,-168 898.5,-156 898.5,-156 898.5,-150 904.5,-144 910.5,-144 910.5,-144 989.5,-144 989.5,-144 995.5,-144 1001.5,-150 1001.5,-156 1001.5,-156 1001.5,-168 1001.5,-168 1001.5,-174 995.5,-180 989.5,-180"/>
<text text-anchor="middle" x="950" y="-159.5" font-family="sans" font-size="10.00" fill="#000000">make_single_VCF</text>
</g>
<!-- 8&#45;&gt;3 -->
<g id="edge8" class="edge">
<title>8&#45;&gt;3</title>
<path fill="none" stroke="#c0c0c0" stroke-width="2" d="M942.4297,-143.8314C939.1507,-135.9617 935.238,-126.5712 931.6055,-117.8533"/>
<polygon fill="#c0c0c0" stroke="#c0c0c0" stroke-width="2" points="934.7492,-116.2979 927.6722,-108.4133 928.2876,-118.9902 934.7492,-116.2979"/>
</g>
<!-- 9 -->
<g id="node10" class="node">
<title>9</title>
<path fill="none" stroke="#568ad8" stroke-width="2" d="M1216.5,-180C1216.5,-180 1137.5,-180 1137.5,-180 1131.5,-180 1125.5,-174 1125.5,-168 1125.5,-168 1125.5,-156 1125.5,-156 1125.5,-150 1131.5,-144 1137.5,-144 1137.5,-144 1216.5,-144 1216.5,-144 1222.5,-144 1228.5,-150 1228.5,-156 1228.5,-156 1228.5,-168 1228.5,-168 1228.5,-174 1222.5,-180 1216.5,-180"/>
<text text-anchor="middle" x="1177" y="-159.5" font-family="sans" font-size="10.00" fill="#000000">make_single_VCF</text>
</g>
<!-- 9&#45;&gt;4 -->
<g id="edge9" class="edge">
<title>9&#45;&gt;4</title>
<path fill="none" stroke="#c0c0c0" stroke-width="2" d="M1155.2986,-143.8314C1144.8079,-135.0485 1132.0545,-124.3712 1120.6806,-114.8489"/>
<polygon fill="#c0c0c0" stroke="#c0c0c0" stroke-width="2" points="1122.6089,-111.8986 1112.6945,-108.1628 1118.1153,-117.2659 1122.6089,-111.8986"/>
</g>
<!-- 10 -->
<g id="node11" class="node">
<title>10</title>
<path fill="none" stroke="#d88d56" stroke-width="2" stroke-dasharray="5,2" d="M293,-252C293,-252 183,-252 183,-252 177,-252 171,-246 171,-240 171,-240 171,-228 171,-228 171,-222 177,-216 183,-216 183,-216 293,-216 293,-216 299,-216 305,-222 305,-228 305,-228 305,-240 305,-240 305,-246 299,-252 293,-252"/>
<text text-anchor="middle" x="238" y="-231.5" font-family="sans" font-size="10.00" fill="#000000">filtering_mt_alignments</text>
</g>
<!-- 10&#45;&gt;5 -->
<g id="edge10" class="edge">
<title>10&#45;&gt;5</title>
<path fill="none" stroke="#c0c0c0" stroke-width="2" d="M241.7851,-215.8314C243.3894,-208.131 245.297,-198.9743 247.0799,-190.4166"/>
<polygon fill="#c0c0c0" stroke="#c0c0c0" stroke-width="2" points="250.5507,-190.9169 249.1639,-180.4133 243.6979,-189.4892 250.5507,-190.9169"/>
</g>
<!-- 11 -->
<g id="node12" class="node">
<title>11</title>
<path fill="none" stroke="#d88d56" stroke-width="2" d="M498,-252C498,-252 388,-252 388,-252 382,-252 376,-246 376,-240 376,-240 376,-228 376,-228 376,-222 382,-216 388,-216 388,-216 498,-216 498,-216 504,-216 510,-222 510,-228 510,-228 510,-240 510,-240 510,-246 504,-252 498,-252"/>
<text text-anchor="middle" x="443" y="-231.5" font-family="sans" font-size="10.00" fill="#000000">filtering_mt_alignments</text>
</g>
<!-- 11&#45;&gt;6 -->
<g id="edge11" class="edge">
<title>11&#45;&gt;6</title>
<path fill="none" stroke="#c0c0c0" stroke-width="2" d="M468.2342,-215.8314C480.788,-206.7927 496.1283,-195.7476 509.6391,-186.0198"/>
<polygon fill="#c0c0c0" stroke="#c0c0c0" stroke-width="2" points="511.7036,-188.8463 517.7739,-180.1628 507.6134,-183.1655 511.7036,-188.8463"/>
</g>
<!-- 12 -->
<g id="node13" class="node">
<title>12</title>
<path fill="none" stroke="#d88d56" stroke-width="2" d="M859,-252C859,-252 749,-252 749,-252 743,-252 737,-246 737,-240 737,-240 737,-228 737,-228 737,-222 743,-216 749,-216 749,-216 859,-216 859,-216 865,-216 871,-222 871,-228 871,-228 871,-240 871,-240 871,-246 865,-252 859,-252"/>
<text text-anchor="middle" x="804" y="-231.5" font-family="sans" font-size="10.00" fill="#000000">filtering_mt_alignments</text>
</g>
<!-- 12&#45;&gt;7 -->
<g id="edge12" class="edge">
<title>12&#45;&gt;7</title>
<path fill="none" stroke="#c0c0c0" stroke-width="2" d="M804,-215.8314C804,-208.131 804,-198.9743 804,-190.4166"/>
<polygon fill="#c0c0c0" stroke="#c0c0c0" stroke-width="2" points="807.5001,-190.4132 804,-180.4133 800.5001,-190.4133 807.5001,-190.4132"/>
</g>
<!-- 13 -->
<g id="node14" class="node">
<title>13</title>
<path fill="none" stroke="#d88d56" stroke-width="2" d="M1098,-252C1098,-252 988,-252 988,-252 982,-252 976,-246 976,-240 976,-240 976,-228 976,-228 976,-222 982,-216 988,-216 988,-216 1098,-216 1098,-216 1104,-216 1110,-222 1110,-228 1110,-228 1110,-240 1110,-240 1110,-246 1104,-252 1098,-252"/>
<text text-anchor="middle" x="1043" y="-231.5" font-family="sans" font-size="10.00" fill="#000000">filtering_mt_alignments</text>
</g>
<!-- 13&#45;&gt;8 -->
<g id="edge13" class="edge">
<title>13&#45;&gt;8</title>
<path fill="none" stroke="#c0c0c0" stroke-width="2" d="M1019.5322,-215.8314C1007.9673,-206.8779 993.8596,-195.9558 981.3817,-186.2955"/>
<polygon fill="#c0c0c0" stroke="#c0c0c0" stroke-width="2" points="983.5102,-183.5171 973.4603,-180.1628 979.225,-189.0521 983.5102,-183.5171"/>
</g>
<!-- 14 -->
<g id="node15" class="node">
<title>14</title>
<path fill="none" stroke="#d88d56" stroke-width="2" stroke-dasharray="5,2" d="M1405,-252C1405,-252 1295,-252 1295,-252 1289,-252 1283,-246 1283,-240 1283,-240 1283,-228 1283,-228 1283,-222 1289,-216 1295,-216 1295,-216 1405,-216 1405,-216 1411,-216 1417,-222 1417,-228 1417,-228 1417,-240 1417,-240 1417,-246 1411,-252 1405,-252"/>
<text text-anchor="middle" x="1350" y="-231.5" font-family="sans" font-size="10.00" fill="#000000">filtering_mt_alignments</text>
</g>
<!-- 14&#45;&gt;9 -->
<g id="edge14" class="edge">
<title>14&#45;&gt;9</title>
<path fill="none" stroke="#c0c0c0" stroke-width="2" d="M1306.3448,-215.8314C1283.1042,-206.159 1254.3432,-194.1891 1229.8477,-183.9944"/>
<polygon fill="#c0c0c0" stroke="#c0c0c0" stroke-width="2" points="1230.9185,-180.6491 1220.3413,-180.038 1228.2288,-187.1117 1230.9185,-180.6491"/>
</g>
<!-- 15 -->
<g id="node16" class="node">
<title>15</title>
<path fill="none" stroke="#d8bc56" stroke-width="2" stroke-dasharray="5,2" d="M104,-324C104,-324 12,-324 12,-324 6,-324 0,-318 0,-312 0,-312 0,-300 0,-300 0,-294 6,-288 12,-288 12,-288 104,-288 104,-288 110,-288 116,-294 116,-300 116,-300 116,-312 116,-312 116,-318 110,-324 104,-324"/>
<text text-anchor="middle" x="58" y="-303.5" font-family="sans" font-size="10.00" fill="#000000">map_nuclear_MT_SE</text>
</g>
<!-- 15&#45;&gt;10 -->
<g id="edge15" class="edge">
<title>15&#45;&gt;10</title>
<path fill="none" stroke="#c0c0c0" stroke-width="2" d="M103.4216,-287.8314C127.7095,-278.1162 157.7922,-266.0831 183.352,-255.8592"/>
<polygon fill="#c0c0c0" stroke="#c0c0c0" stroke-width="2" points="184.9201,-259.0016 192.905,-252.038 182.3204,-252.5023 184.9201,-259.0016"/>
</g>
<!-- 16 -->
<g id="node17" class="node">
<title>16</title>
<path fill="none" stroke="#88d856" stroke-width="2" stroke-dasharray="5,2" d="M215,-478C215,-478 135,-478 135,-478 129,-478 123,-472 123,-466 123,-466 123,-449 123,-449 123,-443 129,-437 135,-437 135,-437 215,-437 215,-437 221,-437 227,-443 227,-449 227,-449 227,-466 227,-466 227,-472 221,-478 215,-478"/>
<text text-anchor="middle" x="175" y="-466" font-family="sans" font-size="10.00" fill="#000000">map_MT_PE_SE</text>
<text text-anchor="middle" x="175" y="-455" font-family="sans" font-size="10.00" fill="#000000">ref_genome_n: n2</text>
<text text-anchor="middle" x="175" y="-444" font-family="sans" font-size="10.00" fill="#000000">sample: D</text>
</g>
<!-- 16&#45;&gt;10 -->
<g id="edge16" class="edge">
<title>16&#45;&gt;10</title>
<path fill="none" stroke="#c0c0c0" stroke-width="2" d="M221.1457,-436.9664C235.5685,-428.0955 249.8318,-416.2017 258,-401 281.8378,-356.6357 264.477,-296.2474 250.6107,-261.5641"/>
<polygon fill="#c0c0c0" stroke="#c0c0c0" stroke-width="2" points="253.7346,-259.962 246.6495,-252.0847 247.2758,-262.661 253.7346,-259.962"/>
</g>
<!-- 31 -->
<g id="node32" class="node">
<title>31</title>
<path fill="none" stroke="#56c1d8" stroke-width="2" stroke-dasharray="5,2" d="M94,-398.5C94,-398.5 50,-398.5 50,-398.5 44,-398.5 38,-392.5 38,-386.5 38,-386.5 38,-374.5 38,-374.5 38,-368.5 44,-362.5 50,-362.5 50,-362.5 94,-362.5 94,-362.5 100,-362.5 106,-368.5 106,-374.5 106,-374.5 106,-386.5 106,-386.5 106,-392.5 100,-398.5 94,-398.5"/>
<text text-anchor="middle" x="72" y="-378" font-family="sans" font-size="10.00" fill="#000000">sam2fastq</text>
</g>
<!-- 16&#45;&gt;31 -->
<g id="edge55" class="edge">
<title>16&#45;&gt;31</title>
<path fill="none" stroke="#c0c0c0" stroke-width="2" d="M147.3979,-436.8654C134.1727,-426.9786 118.246,-415.0722 104.4447,-404.7548"/>
<polygon fill="#c0c0c0" stroke="#c0c0c0" stroke-width="2" points="106.2743,-401.7526 96.1693,-398.5683 102.0829,-407.3591 106.2743,-401.7526"/>
</g>
<!-- 17 -->
<g id="node18" class="node">
<title>17</title>
<path fill="none" stroke="#56d88a" stroke-width="2" stroke-dasharray="5,2" d="M238,-324C238,-324 146,-324 146,-324 140,-324 134,-318 134,-312 134,-312 134,-300 134,-300 134,-294 140,-288 146,-288 146,-288 238,-288 238,-288 244,-288 250,-294 250,-300 250,-300 250,-312 250,-312 250,-318 244,-324 238,-324"/>
<text text-anchor="middle" x="192" y="-303.5" font-family="sans" font-size="10.00" fill="#000000">map_nuclear_MT_PE</text>
</g>
<!-- 17&#45;&gt;10 -->
<g id="edge17" class="edge">
<title>17&#45;&gt;10</title>
<path fill="none" stroke="#c0c0c0" stroke-width="2" d="M203.6077,-287.8314C208.7978,-279.7079 215.0232,-269.9637 220.7425,-261.0118"/>
<polygon fill="#c0c0c0" stroke="#c0c0c0" stroke-width="2" points="223.8015,-262.7246 226.236,-252.4133 217.9026,-258.9559 223.8015,-262.7246"/>
</g>
<!-- 18 -->
<g id="node19" class="node">
<title>18</title>
<path fill="none" stroke="#56d88a" stroke-width="2" d="M582,-324C582,-324 490,-324 490,-324 484,-324 478,-318 478,-312 478,-312 478,-300 478,-300 478,-294 484,-288 490,-288 490,-288 582,-288 582,-288 588,-288 594,-294 594,-300 594,-300 594,-312 594,-312 594,-318 588,-324 582,-324"/>
<text text-anchor="middle" x="536" y="-303.5" font-family="sans" font-size="10.00" fill="#000000">map_nuclear_MT_PE</text>
</g>
<!-- 18&#45;&gt;11 -->
<g id="edge18" class="edge">
<title>18&#45;&gt;11</title>
<path fill="none" stroke="#c0c0c0" stroke-width="2" d="M512.5322,-287.8314C500.9673,-278.8779 486.8596,-267.9558 474.3817,-258.2955"/>
<polygon fill="#c0c0c0" stroke="#c0c0c0" stroke-width="2" points="476.5102,-255.5171 466.4603,-252.1628 472.225,-261.0521 476.5102,-255.5171"/>
</g>
<!-- 19 -->
<g id="node20" class="node">
<title>19</title>
<path fill="none" stroke="#88d856" stroke-width="2" d="M487,-478C487,-478 407,-478 407,-478 401,-478 395,-472 395,-466 395,-466 395,-449 395,-449 395,-443 401,-437 407,-437 407,-437 487,-437 487,-437 493,-437 499,-443 499,-449 499,-449 499,-466 499,-466 499,-472 493,-478 487,-478"/>
<text text-anchor="middle" x="447" y="-466" font-family="sans" font-size="10.00" fill="#000000">map_MT_PE_SE</text>
<text text-anchor="middle" x="447" y="-455" font-family="sans" font-size="10.00" fill="#000000">ref_genome_n: n1</text>
<text text-anchor="middle" x="447" y="-444" font-family="sans" font-size="10.00" fill="#000000">sample: F</text>
</g>
<!-- 19&#45;&gt;11 -->
<g id="edge19" class="edge">
<title>19&#45;&gt;11</title>
<path fill="none" stroke="#c0c0c0" stroke-width="2" d="M421.0761,-436.668C393.6635,-412.8075 352.0709,-370.9083 335,-324 329.5283,-308.9647 326.5883,-301.6104 335,-288 343.2722,-274.6153 355.9778,-264.4372 369.806,-256.7361"/>
<polygon fill="#c0c0c0" stroke="#c0c0c0" stroke-width="2" points="371.7101,-259.6935 379.0199,-252.0241 368.5229,-253.4611 371.7101,-259.6935"/>
</g>
<!-- 33 -->
<g id="node34" class="node">
<title>33</title>
<path fill="none" stroke="#56c1d8" stroke-width="2" d="M469,-398.5C469,-398.5 425,-398.5 425,-398.5 419,-398.5 413,-392.5 413,-386.5 413,-386.5 413,-374.5 413,-374.5 413,-368.5 419,-362.5 425,-362.5 425,-362.5 469,-362.5 469,-362.5 475,-362.5 481,-368.5 481,-374.5 481,-374.5 481,-386.5 481,-386.5 481,-392.5 475,-398.5 469,-398.5"/>
<text text-anchor="middle" x="447" y="-378" font-family="sans" font-size="10.00" fill="#000000">sam2fastq</text>
</g>
<!-- 19&#45;&gt;33 -->
<g id="edge56" class="edge">
<title>19&#45;&gt;33</title>
<path fill="none" stroke="#c0c0c0" stroke-width="2" d="M447,-436.8654C447,-428.1912 447,-417.9623 447,-408.6158"/>
<polygon fill="#c0c0c0" stroke="#c0c0c0" stroke-width="2" points="450.5001,-408.5682 447,-398.5683 443.5001,-408.5683 450.5001,-408.5682"/>
</g>
<!-- 20 -->
<g id="node21" class="node">
<title>20</title>
<path fill="none" stroke="#d8bc56" stroke-width="2" d="M448,-324C448,-324 356,-324 356,-324 350,-324 344,-318 344,-312 344,-312 344,-300 344,-300 344,-294 350,-288 356,-288 356,-288 448,-288 448,-288 454,-288 460,-294 460,-300 460,-300 460,-312 460,-312 460,-318 454,-324 448,-324"/>
<text text-anchor="middle" x="402" y="-303.5" font-family="sans" font-size="10.00" fill="#000000">map_nuclear_MT_SE</text>
</g>
<!-- 20&#45;&gt;11 -->
<g id="edge20" class="edge">
<title>20&#45;&gt;11</title>
<path fill="none" stroke="#c0c0c0" stroke-width="2" d="M412.346,-287.8314C416.9237,-279.7925 422.4052,-270.1666 427.4588,-261.2918"/>
<polygon fill="#c0c0c0" stroke="#c0c0c0" stroke-width="2" points="430.6077,-262.8351 432.5147,-252.4133 424.5248,-259.3712 430.6077,-262.8351"/>
</g>
<!-- 21 -->
<g id="node22" class="node">
<title>21</title>
<path fill="none" stroke="#d8bc56" stroke-width="2" d="M850,-324C850,-324 758,-324 758,-324 752,-324 746,-318 746,-312 746,-312 746,-300 746,-300 746,-294 752,-288 758,-288 758,-288 850,-288 850,-288 856,-288 862,-294 862,-300 862,-300 862,-312 862,-312 862,-318 856,-324 850,-324"/>
<text text-anchor="middle" x="804" y="-303.5" font-family="sans" font-size="10.00" fill="#000000">map_nuclear_MT_SE</text>
</g>
<!-- 21&#45;&gt;12 -->
<g id="edge21" class="edge">
<title>21&#45;&gt;12</title>
<path fill="none" stroke="#c0c0c0" stroke-width="2" d="M804,-287.8314C804,-280.131 804,-270.9743 804,-262.4166"/>
<polygon fill="#c0c0c0" stroke="#c0c0c0" stroke-width="2" points="807.5001,-262.4132 804,-252.4133 800.5001,-262.4133 807.5001,-262.4132"/>
</g>
<!-- 22 -->
<g id="node23" class="node">
<title>22</title>
<path fill="none" stroke="#56d88a" stroke-width="2" d="M716,-324C716,-324 624,-324 624,-324 618,-324 612,-318 612,-312 612,-312 612,-300 612,-300 612,-294 618,-288 624,-288 624,-288 716,-288 716,-288 722,-288 728,-294 728,-300 728,-300 728,-312 728,-312 728,-318 722,-324 716,-324"/>
<text text-anchor="middle" x="670" y="-303.5" font-family="sans" font-size="10.00" fill="#000000">map_nuclear_MT_PE</text>
</g>
<!-- 22&#45;&gt;12 -->
<g id="edge22" class="edge">
<title>22&#45;&gt;12</title>
<path fill="none" stroke="#c0c0c0" stroke-width="2" d="M703.8139,-287.8314C721.2707,-278.4516 742.7487,-266.9112 761.3352,-256.9244"/>
<polygon fill="#c0c0c0" stroke="#c0c0c0" stroke-width="2" points="763.0446,-259.9792 770.197,-252.1628 759.7314,-253.8129 763.0446,-259.9792"/>
</g>
<!-- 23 -->
<g id="node24" class="node">
<title>23</title>
<path fill="none" stroke="#88d856" stroke-width="2" d="M772,-478C772,-478 692,-478 692,-478 686,-478 680,-472 680,-466 680,-466 680,-449 680,-449 680,-443 686,-437 692,-437 692,-437 772,-437 772,-437 778,-437 784,-443 784,-449 784,-449 784,-466 784,-466 784,-472 778,-478 772,-478"/>
<text text-anchor="middle" x="732" y="-466" font-family="sans" font-size="10.00" fill="#000000">map_MT_PE_SE</text>
<text text-anchor="middle" x="732" y="-455" font-family="sans" font-size="10.00" fill="#000000">ref_genome_n: n1</text>
<text text-anchor="middle" x="732" y="-444" font-family="sans" font-size="10.00" fill="#000000">sample: 87074_1</text>
</g>
<!-- 23&#45;&gt;12 -->
<g id="edge23" class="edge">
<title>23&#45;&gt;12</title>
<path fill="none" stroke="#c0c0c0" stroke-width="2" d="M765.8658,-436.8901C799.7338,-414.0808 849.7527,-373.8662 871,-324 877.2718,-309.2805 877.9048,-302.4334 871,-288 865.404,-276.3025 855.9007,-266.3295 845.7828,-258.2563"/>
<polygon fill="#c0c0c0" stroke="#c0c0c0" stroke-width="2" points="847.718,-255.3341 837.5997,-252.1924 843.5504,-260.9583 847.718,-255.3341"/>
</g>
<!-- 36 -->
<g id="node37" class="node">
<title>36</title>
<path fill="none" stroke="#56c1d8" stroke-width="2" d="M754,-398.5C754,-398.5 710,-398.5 710,-398.5 704,-398.5 698,-392.5 698,-386.5 698,-386.5 698,-374.5 698,-374.5 698,-368.5 704,-362.5 710,-362.5 710,-362.5 754,-362.5 754,-362.5 760,-362.5 766,-368.5 766,-374.5 766,-374.5 766,-386.5 766,-386.5 766,-392.5 760,-398.5 754,-398.5"/>
<text text-anchor="middle" x="732" y="-378" font-family="sans" font-size="10.00" fill="#000000">sam2fastq</text>
</g>
<!-- 23&#45;&gt;36 -->
<g id="edge57" class="edge">
<title>23&#45;&gt;36</title>
<path fill="none" stroke="#c0c0c0" stroke-width="2" d="M732,-436.8654C732,-428.1912 732,-417.9623 732,-408.6158"/>
<polygon fill="#c0c0c0" stroke="#c0c0c0" stroke-width="2" points="735.5001,-408.5682 732,-398.5683 728.5001,-408.5683 735.5001,-408.5682"/>
</g>
<!-- 24 -->
<g id="node25" class="node">
<title>24</title>
<path fill="none" stroke="#56d88a" stroke-width="2" d="M1022,-324C1022,-324 930,-324 930,-324 924,-324 918,-318 918,-312 918,-312 918,-300 918,-300 918,-294 924,-288 930,-288 930,-288 1022,-288 1022,-288 1028,-288 1034,-294 1034,-300 1034,-300 1034,-312 1034,-312 1034,-318 1028,-324 1022,-324"/>
<text text-anchor="middle" x="976" y="-303.5" font-family="sans" font-size="10.00" fill="#000000">map_nuclear_MT_PE</text>
</g>
<!-- 24&#45;&gt;13 -->
<g id="edge24" class="edge">
<title>24&#45;&gt;13</title>
<path fill="none" stroke="#c0c0c0" stroke-width="2" d="M992.9069,-287.8314C1000.7813,-279.3694 1010.292,-269.1489 1018.9013,-259.8971"/>
<polygon fill="#c0c0c0" stroke="#c0c0c0" stroke-width="2" points="1021.6153,-262.1183 1025.8654,-252.4133 1016.4908,-257.3497 1021.6153,-262.1183"/>
</g>
<!-- 25 -->
<g id="node26" class="node">
<title>25</title>
<path fill="none" stroke="#d8bc56" stroke-width="2" d="M1156,-324C1156,-324 1064,-324 1064,-324 1058,-324 1052,-318 1052,-312 1052,-312 1052,-300 1052,-300 1052,-294 1058,-288 1064,-288 1064,-288 1156,-288 1156,-288 1162,-288 1168,-294 1168,-300 1168,-300 1168,-312 1168,-312 1168,-318 1162,-324 1156,-324"/>
<text text-anchor="middle" x="1110" y="-303.5" font-family="sans" font-size="10.00" fill="#000000">map_nuclear_MT_SE</text>
</g>
<!-- 25&#45;&gt;13 -->
<g id="edge25" class="edge">
<title>25&#45;&gt;13</title>
<path fill="none" stroke="#c0c0c0" stroke-width="2" d="M1093.0931,-287.8314C1085.2187,-279.3694 1075.708,-269.1489 1067.0987,-259.8971"/>
<polygon fill="#c0c0c0" stroke="#c0c0c0" stroke-width="2" points="1069.5092,-257.3497 1060.1346,-252.4133 1064.3847,-262.1183 1069.5092,-257.3497"/>
</g>
<!-- 26 -->
<g id="node27" class="node">
<title>26</title>
<path fill="none" stroke="#88d856" stroke-width="2" d="M1142.5,-478C1142.5,-478 1029.5,-478 1029.5,-478 1023.5,-478 1017.5,-472 1017.5,-466 1017.5,-466 1017.5,-449 1017.5,-449 1017.5,-443 1023.5,-437 1029.5,-437 1029.5,-437 1142.5,-437 1142.5,-437 1148.5,-437 1154.5,-443 1154.5,-449 1154.5,-449 1154.5,-466 1154.5,-466 1154.5,-472 1148.5,-478 1142.5,-478"/>
<text text-anchor="middle" x="1086" y="-466" font-family="sans" font-size="10.00" fill="#000000">map_MT_PE_SE</text>
<text text-anchor="middle" x="1086" y="-455" font-family="sans" font-size="10.00" fill="#000000">ref_genome_n: pb_121&#45;1</text>
<text text-anchor="middle" x="1086" y="-444" font-family="sans" font-size="10.00" fill="#000000">sample: 87074_1</text>
</g>
<!-- 26&#45;&gt;13 -->
<g id="edge26" class="edge">
<title>26&#45;&gt;13</title>
<path fill="none" stroke="#c0c0c0" stroke-width="2" d="M1138.5168,-436.8866C1153.6675,-428.1999 1168.413,-416.4389 1177,-401 1201.4113,-357.1097 1205.1025,-329.6235 1177,-288 1163.6756,-268.2649 1141.805,-255.7407 1119.5593,-247.7932"/>
<polygon fill="#c0c0c0" stroke="#c0c0c0" stroke-width="2" points="1120.6192,-244.4575 1110.0263,-244.6597 1118.4333,-251.1074 1120.6192,-244.4575"/>
</g>
<!-- 38 -->
<g id="node39" class="node">
<title>38</title>
<path fill="none" stroke="#56c1d8" stroke-width="2" d="M997,-398.5C997,-398.5 953,-398.5 953,-398.5 947,-398.5 941,-392.5 941,-386.5 941,-386.5 941,-374.5 941,-374.5 941,-368.5 947,-362.5 953,-362.5 953,-362.5 997,-362.5 997,-362.5 1003,-362.5 1009,-368.5 1009,-374.5 1009,-374.5 1009,-386.5 1009,-386.5 1009,-392.5 1003,-398.5 997,-398.5"/>
<text text-anchor="middle" x="975" y="-378" font-family="sans" font-size="10.00" fill="#000000">sam2fastq</text>
</g>
<!-- 26&#45;&gt;38 -->
<g id="edge58" class="edge">
<title>26&#45;&gt;38</title>
<path fill="none" stroke="#c0c0c0" stroke-width="2" d="M1056.254,-436.8654C1041.8672,-426.8854 1024.5138,-414.8474 1009.5443,-404.4632"/>
<polygon fill="#c0c0c0" stroke="#c0c0c0" stroke-width="2" points="1011.258,-401.3923 1001.0465,-398.5683 1007.2681,-407.1439 1011.258,-401.3923"/>
</g>
<!-- 27 -->
<g id="node28" class="node">
<title>27</title>
<path fill="none" stroke="#d8bc56" stroke-width="2" stroke-dasharray="5,2" d="M1329,-324C1329,-324 1237,-324 1237,-324 1231,-324 1225,-318 1225,-312 1225,-312 1225,-300 1225,-300 1225,-294 1231,-288 1237,-288 1237,-288 1329,-288 1329,-288 1335,-288 1341,-294 1341,-300 1341,-300 1341,-312 1341,-312 1341,-318 1335,-324 1329,-324"/>
<text text-anchor="middle" x="1283" y="-303.5" font-family="sans" font-size="10.00" fill="#000000">map_nuclear_MT_SE</text>
</g>
<!-- 27&#45;&gt;14 -->
<g id="edge27" class="edge">
<title>27&#45;&gt;14</title>
<path fill="none" stroke="#c0c0c0" stroke-width="2" d="M1299.9069,-287.8314C1307.7813,-279.3694 1317.292,-269.1489 1325.9013,-259.8971"/>
<polygon fill="#c0c0c0" stroke="#c0c0c0" stroke-width="2" points="1328.6153,-262.1183 1332.8654,-252.4133 1323.4908,-257.3497 1328.6153,-262.1183"/>
</g>
<!-- 28 -->
<g id="node29" class="node">
<title>28</title>
<path fill="none" stroke="#56d88a" stroke-width="2" stroke-dasharray="5,2" d="M1463,-324C1463,-324 1371,-324 1371,-324 1365,-324 1359,-318 1359,-312 1359,-312 1359,-300 1359,-300 1359,-294 1365,-288 1371,-288 1371,-288 1463,-288 1463,-288 1469,-288 1475,-294 1475,-300 1475,-300 1475,-312 1475,-312 1475,-318 1469,-324 1463,-324"/>
<text text-anchor="middle" x="1417" y="-303.5" font-family="sans" font-size="10.00" fill="#000000">map_nuclear_MT_PE</text>
</g>
<!-- 28&#45;&gt;14 -->
<g id="edge28" class="edge">
<title>28&#45;&gt;14</title>
<path fill="none" stroke="#c0c0c0" stroke-width="2" d="M1400.0931,-287.8314C1392.2187,-279.3694 1382.708,-269.1489 1374.0987,-259.8971"/>
<polygon fill="#c0c0c0" stroke="#c0c0c0" stroke-width="2" points="1376.5092,-257.3497 1367.1346,-252.4133 1371.3847,-262.1183 1376.5092,-257.3497"/>
</g>
<!-- 29 -->
<g id="node30" class="node">
<title>29</title>
<path fill="none" stroke="#88d856" stroke-width="2" stroke-dasharray="5,2" d="M1500,-478C1500,-478 1420,-478 1420,-478 1414,-478 1408,-472 1408,-466 1408,-466 1408,-449 1408,-449 1408,-443 1414,-437 1420,-437 1420,-437 1500,-437 1500,-437 1506,-437 1512,-443 1512,-449 1512,-449 1512,-466 1512,-466 1512,-472 1506,-478 1500,-478"/>
<text text-anchor="middle" x="1460" y="-466" font-family="sans" font-size="10.00" fill="#000000">map_MT_PE_SE</text>
<text text-anchor="middle" x="1460" y="-455" font-family="sans" font-size="10.00" fill="#000000">ref_genome_n: n2</text>
<text text-anchor="middle" x="1460" y="-444" font-family="sans" font-size="10.00" fill="#000000">sample: E</text>
</g>
<!-- 29&#45;&gt;14 -->
<g id="edge29" class="edge">
<title>29&#45;&gt;14</title>
<path fill="none" stroke="#c0c0c0" stroke-width="2" d="M1471.2042,-436.9624C1488.1031,-402.9029 1515.016,-333.9388 1484,-288 1470.6756,-268.2649 1448.805,-255.7407 1426.5593,-247.7932"/>
<polygon fill="#c0c0c0" stroke="#c0c0c0" stroke-width="2" points="1427.6192,-244.4575 1417.0263,-244.6597 1425.4333,-251.1074 1427.6192,-244.4575"/>
</g>
<!-- 40 -->
<g id="node41" class="node">
<title>40</title>
<path fill="none" stroke="#56c1d8" stroke-width="2" stroke-dasharray="5,2" d="M1439,-398.5C1439,-398.5 1395,-398.5 1395,-398.5 1389,-398.5 1383,-392.5 1383,-386.5 1383,-386.5 1383,-374.5 1383,-374.5 1383,-368.5 1389,-362.5 1395,-362.5 1395,-362.5 1439,-362.5 1439,-362.5 1445,-362.5 1451,-368.5 1451,-374.5 1451,-374.5 1451,-386.5 1451,-386.5 1451,-392.5 1445,-398.5 1439,-398.5"/>
<text text-anchor="middle" x="1417" y="-378" font-family="sans" font-size="10.00" fill="#000000">sam2fastq</text>
</g>
<!-- 29&#45;&gt;40 -->
<g id="edge59" class="edge">
<title>29&#45;&gt;40</title>
<path fill="none" stroke="#c0c0c0" stroke-width="2" d="M1448.4768,-436.8654C1443.4244,-427.8181 1437.4275,-417.0795 1432.0304,-407.4149"/>
<polygon fill="#c0c0c0" stroke="#c0c0c0" stroke-width="2" points="1435.0216,-405.5926 1427.0901,-398.5683 1428.91,-409.0056 1435.0216,-405.5926"/>
</g>
<!-- 30 -->
<g id="node31" class="node">
<title>30</title>
<path fill="none" stroke="#59d856" stroke-width="2" stroke-dasharray="5,2" d="M237.5,-401C237.5,-401 136.5,-401 136.5,-401 130.5,-401 124.5,-395 124.5,-389 124.5,-389 124.5,-372 124.5,-372 124.5,-366 130.5,-360 136.5,-360 136.5,-360 237.5,-360 237.5,-360 243.5,-360 249.5,-366 249.5,-372 249.5,-372 249.5,-389 249.5,-389 249.5,-395 243.5,-401 237.5,-401"/>
<text text-anchor="middle" x="187" y="-389" font-family="sans" font-size="10.00" fill="#000000">make_mt_n_gmap_db</text>
<text text-anchor="middle" x="187" y="-378" font-family="sans" font-size="10.00" fill="#000000">ref_genome_mt: mt_2</text>
<text text-anchor="middle" x="187" y="-367" font-family="sans" font-size="10.00" fill="#000000">ref_genome_n: n2</text>
</g>
<!-- 30&#45;&gt;15 -->
<g id="edge30" class="edge">
<title>30&#45;&gt;15</title>
<path fill="none" stroke="#c0c0c0" stroke-width="2" d="M151.4087,-359.9453C135.0485,-350.497 115.5595,-339.2417 98.6265,-329.4626"/>
<polygon fill="#c0c0c0" stroke="#c0c0c0" stroke-width="2" points="99.9283,-326.1727 89.5183,-324.2024 96.4275,-332.2344 99.9283,-326.1727"/>
</g>
<!-- 30&#45;&gt;17 -->
<g id="edge34" class="edge">
<title>30&#45;&gt;17</title>
<path fill="none" stroke="#c0c0c0" stroke-width="2" d="M188.3928,-359.7476C188.921,-351.8767 189.5319,-342.7743 190.0991,-334.3232"/>
<polygon fill="#c0c0c0" stroke="#c0c0c0" stroke-width="2" points="193.6071,-334.3206 190.7847,-324.1087 186.6228,-333.8518 193.6071,-334.3206"/>
</g>
<!-- 31&#45;&gt;15 -->
<g id="edge31" class="edge">
<title>31&#45;&gt;15</title>
<path fill="none" stroke="#c0c0c0" stroke-width="2" d="M68.611,-362.4656C67.0064,-353.927 65.0532,-343.5333 63.2621,-334.002"/>
<polygon fill="#c0c0c0" stroke="#c0c0c0" stroke-width="2" points="66.6931,-333.3081 61.4063,-324.1265 59.8135,-334.6009 66.6931,-333.3081"/>
</g>
<!-- 31&#45;&gt;17 -->
<g id="edge33" class="edge">
<title>31&#45;&gt;17</title>
<path fill="none" stroke="#c0c0c0" stroke-width="2" d="M101.0487,-362.4656C116.9969,-352.5644 136.9628,-340.1689 154.1219,-329.516"/>
<polygon fill="#c0c0c0" stroke="#c0c0c0" stroke-width="2" points="156.1532,-332.3746 162.8029,-324.1265 152.461,-326.4275 156.1532,-332.3746"/>
</g>
<!-- 32 -->
<g id="node33" class="node">
<title>32</title>
<path fill="none" stroke="#bed856" stroke-width="2" stroke-dasharray="5,2" d="M225.5,-550C225.5,-550 124.5,-550 124.5,-550 118.5,-550 112.5,-544 112.5,-538 112.5,-538 112.5,-526 112.5,-526 112.5,-520 118.5,-514 124.5,-514 124.5,-514 225.5,-514 225.5,-514 231.5,-514 237.5,-520 237.5,-526 237.5,-526 237.5,-538 237.5,-538 237.5,-544 231.5,-550 225.5,-550"/>
<text text-anchor="middle" x="175" y="-535" font-family="sans" font-size="10.00" fill="#000000">make_mt_gmap_db</text>
<text text-anchor="middle" x="175" y="-524" font-family="sans" font-size="10.00" fill="#000000">ref_genome_mt: mt_2</text>
</g>
<!-- 32&#45;&gt;16 -->
<g id="edge32" class="edge">
<title>32&#45;&gt;16</title>
<path fill="none" stroke="#c0c0c0" stroke-width="2" d="M175,-513.9656C175,-506.3118 175,-497.1674 175,-488.4898"/>
<polygon fill="#c0c0c0" stroke="#c0c0c0" stroke-width="2" points="178.5001,-488.2678 175,-478.2679 171.5001,-488.2679 178.5001,-488.2678"/>
</g>
<!-- 33&#45;&gt;18 -->
<g id="edge35" class="edge">
<title>33&#45;&gt;18</title>
<path fill="none" stroke="#c0c0c0" stroke-width="2" d="M468.5444,-362.4656C479.9387,-352.9277 494.098,-341.0753 506.4978,-330.6956"/>
<polygon fill="#c0c0c0" stroke="#c0c0c0" stroke-width="2" points="508.924,-333.2292 514.3455,-324.1265 504.4308,-327.8615 508.924,-333.2292"/>
</g>
<!-- 33&#45;&gt;20 -->
<g id="edge38" class="edge">
<title>33&#45;&gt;20</title>
<path fill="none" stroke="#c0c0c0" stroke-width="2" d="M436.1068,-362.4656C430.7297,-353.5636 424.1348,-342.6453 418.1819,-332.7901"/>
<polygon fill="#c0c0c0" stroke="#c0c0c0" stroke-width="2" points="421.1151,-330.8766 412.9489,-324.1265 415.1233,-334.4958 421.1151,-330.8766"/>
</g>
<!-- 34 -->
<g id="node35" class="node">
<title>34</title>
<path fill="none" stroke="#59d856" stroke-width="2" stroke-dasharray="5,2" d="M658.5,-401C658.5,-401 557.5,-401 557.5,-401 551.5,-401 545.5,-395 545.5,-389 545.5,-389 545.5,-372 545.5,-372 545.5,-366 551.5,-360 557.5,-360 557.5,-360 658.5,-360 658.5,-360 664.5,-360 670.5,-366 670.5,-372 670.5,-372 670.5,-389 670.5,-389 670.5,-395 664.5,-401 658.5,-401"/>
<text text-anchor="middle" x="608" y="-389" font-family="sans" font-size="10.00" fill="#000000">make_mt_n_gmap_db</text>
<text text-anchor="middle" x="608" y="-378" font-family="sans" font-size="10.00" fill="#000000">ref_genome_mt: mt1</text>
<text text-anchor="middle" x="608" y="-367" font-family="sans" font-size="10.00" fill="#000000">ref_genome_n: n1</text>
</g>
<!-- 34&#45;&gt;18 -->
<g id="edge36" class="edge">
<title>34&#45;&gt;18</title>
<path fill="none" stroke="#c0c0c0" stroke-width="2" d="M587.944,-359.7476C579.492,-351.0021 569.5707,-340.7363 560.6761,-331.5329"/>
<polygon fill="#c0c0c0" stroke="#c0c0c0" stroke-width="2" points="562.9672,-328.8671 553.501,-324.1087 557.9337,-333.7317 562.9672,-328.8671"/>
</g>
<!-- 34&#45;&gt;20 -->
<g id="edge39" class="edge">
<title>34&#45;&gt;20</title>
<path fill="none" stroke="#c0c0c0" stroke-width="2" d="M551.1643,-359.9453C523.3597,-349.8898 489.8962,-337.7877 461.7163,-327.5964"/>
<polygon fill="#c0c0c0" stroke="#c0c0c0" stroke-width="2" points="462.5813,-324.1874 451.987,-324.0778 460.2006,-330.7702 462.5813,-324.1874"/>
</g>
<!-- 34&#45;&gt;21 -->
<g id="edge41" class="edge">
<title>34&#45;&gt;21</title>
<path fill="none" stroke="#c0c0c0" stroke-width="2" d="M662.0767,-359.9453C688.416,-349.9337 720.0927,-337.8934 746.831,-327.73"/>
<polygon fill="#c0c0c0" stroke="#c0c0c0" stroke-width="2" points="748.3356,-330.9025 756.4396,-324.0778 745.8485,-324.3593 748.3356,-330.9025"/>
</g>
<!-- 34&#45;&gt;22 -->
<g id="edge43" class="edge">
<title>34&#45;&gt;22</title>
<path fill="none" stroke="#c0c0c0" stroke-width="2" d="M625.2705,-359.7476C632.4758,-351.0896 640.9212,-340.9415 648.5211,-331.8093"/>
<polygon fill="#c0c0c0" stroke="#c0c0c0" stroke-width="2" points="651.2232,-334.034 654.9297,-324.1087 645.8426,-329.5562 651.2232,-334.034"/>
</g>
<!-- 35 -->
<g id="node36" class="node">
<title>35</title>
<path fill="none" stroke="#bed856" stroke-width="2" d="M596.5,-550C596.5,-550 501.5,-550 501.5,-550 495.5,-550 489.5,-544 489.5,-538 489.5,-538 489.5,-526 489.5,-526 489.5,-520 495.5,-514 501.5,-514 501.5,-514 596.5,-514 596.5,-514 602.5,-514 608.5,-520 608.5,-526 608.5,-526 608.5,-538 608.5,-538 608.5,-544 602.5,-550 596.5,-550"/>
<text text-anchor="middle" x="549" y="-535" font-family="sans" font-size="10.00" fill="#000000">make_mt_gmap_db</text>
<text text-anchor="middle" x="549" y="-524" font-family="sans" font-size="10.00" fill="#000000">ref_genome_mt: mt1</text>
</g>
<!-- 35&#45;&gt;19 -->
<g id="edge37" class="edge">
<title>35&#45;&gt;19</title>
<path fill="none" stroke="#c0c0c0" stroke-width="2" d="M524.3086,-513.9656C512.1022,-505.0501 497.1269,-494.1123 483.6179,-484.2454"/>
<polygon fill="#c0c0c0" stroke="#c0c0c0" stroke-width="2" points="485.5736,-481.3397 475.4339,-478.2679 481.4449,-486.9925 485.5736,-481.3397"/>
</g>
<!-- 35&#45;&gt;23 -->
<g id="edge44" class="edge">
<title>35&#45;&gt;23</title>
<path fill="none" stroke="#c0c0c0" stroke-width="2" d="M593.2992,-513.9656C616.946,-504.3389 646.3846,-492.3544 672.0496,-481.906"/>
<polygon fill="#c0c0c0" stroke="#c0c0c0" stroke-width="2" points="673.3744,-485.1457 681.3166,-478.1334 670.735,-478.6623 673.3744,-485.1457"/>
</g>
<!-- 36&#45;&gt;21 -->
<g id="edge40" class="edge">
<title>36&#45;&gt;21</title>
<path fill="none" stroke="#c0c0c0" stroke-width="2" d="M749.4292,-362.4656C758.3836,-353.2003 769.449,-341.7507 779.2698,-331.5888"/>
<polygon fill="#c0c0c0" stroke="#c0c0c0" stroke-width="2" points="782.0491,-333.7495 786.4818,-324.1265 777.0156,-328.8849 782.0491,-333.7495"/>
</g>
<!-- 36&#45;&gt;22 -->
<g id="edge42" class="edge">
<title>36&#45;&gt;22</title>
<path fill="none" stroke="#c0c0c0" stroke-width="2" d="M716.9915,-362.4656C709.3563,-353.2911 699.9389,-341.975 691.5444,-331.8881"/>
<polygon fill="#c0c0c0" stroke="#c0c0c0" stroke-width="2" points="694.1722,-329.5741 685.0851,-324.1265 688.7917,-334.0519 694.1722,-329.5741"/>
</g>
<!-- 37 -->
<g id="node38" class="node">
<title>37</title>
<path fill="none" stroke="#59d856" stroke-width="2" d="M1156.5,-401C1156.5,-401 1039.5,-401 1039.5,-401 1033.5,-401 1027.5,-395 1027.5,-389 1027.5,-389 1027.5,-372 1027.5,-372 1027.5,-366 1033.5,-360 1039.5,-360 1039.5,-360 1156.5,-360 1156.5,-360 1162.5,-360 1168.5,-366 1168.5,-372 1168.5,-372 1168.5,-389 1168.5,-389 1168.5,-395 1162.5,-401 1156.5,-401"/>
<text text-anchor="middle" x="1098" y="-389" font-family="sans" font-size="10.00" fill="#000000">make_mt_n_gmap_db</text>
<text text-anchor="middle" x="1098" y="-378" font-family="sans" font-size="10.00" fill="#000000">ref_genome_mt: 87074_1</text>
<text text-anchor="middle" x="1098" y="-367" font-family="sans" font-size="10.00" fill="#000000">ref_genome_n: pb_121&#45;1</text>
</g>
<!-- 37&#45;&gt;24 -->
<g id="edge45" class="edge">
<title>37&#45;&gt;24</title>
<path fill="none" stroke="#c0c0c0" stroke-width="2" d="M1064.34,-359.9453C1048.8675,-350.497 1030.4361,-339.2417 1014.4219,-329.4626"/>
<polygon fill="#c0c0c0" stroke="#c0c0c0" stroke-width="2" points="1016.1666,-326.427 1005.808,-324.2024 1012.5184,-332.4012 1016.1666,-326.427"/>
</g>
<!-- 37&#45;&gt;25 -->
<g id="edge48" class="edge">
<title>37&#45;&gt;25</title>
<path fill="none" stroke="#c0c0c0" stroke-width="2" d="M1101.3427,-359.7476C1102.6246,-351.7892 1104.1092,-342.5718 1105.4832,-334.0418"/>
<polygon fill="#c0c0c0" stroke="#c0c0c0" stroke-width="2" points="1108.9483,-334.538 1107.0832,-324.1087 1102.0374,-333.4248 1108.9483,-334.538"/>
</g>
<!-- 38&#45;&gt;24 -->
<g id="edge46" class="edge">
<title>38&#45;&gt;24</title>
<path fill="none" stroke="#c0c0c0" stroke-width="2" d="M975.2421,-362.4656C975.3555,-354.0178 975.4932,-343.7542 975.62,-334.3064"/>
<polygon fill="#c0c0c0" stroke="#c0c0c0" stroke-width="2" points="979.1221,-334.1726 975.7567,-324.1265 972.1227,-334.0786 979.1221,-334.1726"/>
</g>
<!-- 38&#45;&gt;25 -->
<g id="edge47" class="edge">
<title>38&#45;&gt;25</title>
<path fill="none" stroke="#c0c0c0" stroke-width="2" d="M1007.6797,-362.4656C1025.8685,-352.4281 1048.7023,-339.8273 1068.1822,-329.0772"/>
<polygon fill="#c0c0c0" stroke="#c0c0c0" stroke-width="2" points="1070.0891,-332.0226 1077.1533,-324.1265 1066.7069,-325.8938 1070.0891,-332.0226"/>
</g>
<!-- 39 -->
<g id="node40" class="node">
<title>39</title>
<path fill="none" stroke="#bed856" stroke-width="2" d="M1144.5,-550C1144.5,-550 1027.5,-550 1027.5,-550 1021.5,-550 1015.5,-544 1015.5,-538 1015.5,-538 1015.5,-526 1015.5,-526 1015.5,-520 1021.5,-514 1027.5,-514 1027.5,-514 1144.5,-514 1144.5,-514 1150.5,-514 1156.5,-520 1156.5,-526 1156.5,-526 1156.5,-538 1156.5,-538 1156.5,-544 1150.5,-550 1144.5,-550"/>
<text text-anchor="middle" x="1086" y="-535" font-family="sans" font-size="10.00" fill="#000000">make_mt_gmap_db</text>
<text text-anchor="middle" x="1086" y="-524" font-family="sans" font-size="10.00" fill="#000000">ref_genome_mt: 87074_1</text>
</g>
<!-- 39&#45;&gt;26 -->
<g id="edge49" class="edge">
<title>39&#45;&gt;26</title>
<path fill="none" stroke="#c0c0c0" stroke-width="2" d="M1086,-513.9656C1086,-506.3118 1086,-497.1674 1086,-488.4898"/>
<polygon fill="#c0c0c0" stroke="#c0c0c0" stroke-width="2" points="1089.5001,-488.2678 1086,-478.2679 1082.5001,-488.2679 1089.5001,-488.2678"/>
</g>
<!-- 40&#45;&gt;27 -->
<g id="edge50" class="edge">
<title>40&#45;&gt;27</title>
<path fill="none" stroke="#c0c0c0" stroke-width="2" d="M1384.5623,-362.4656C1366.5083,-352.4281 1343.8437,-339.8273 1324.508,-329.0772"/>
<polygon fill="#c0c0c0" stroke="#c0c0c0" stroke-width="2" points="1326.0442,-325.9267 1315.6034,-324.1265 1322.6427,-332.0448 1326.0442,-325.9267"/>
</g>
<!-- 40&#45;&gt;28 -->
<g id="edge52" class="edge">
<title>40&#45;&gt;28</title>
<path fill="none" stroke="#c0c0c0" stroke-width="2" d="M1417,-362.4656C1417,-354.0178 1417,-343.7542 1417,-334.3064"/>
<polygon fill="#c0c0c0" stroke="#c0c0c0" stroke-width="2" points="1420.5001,-334.1265 1417,-324.1265 1413.5001,-334.1265 1420.5001,-334.1265"/>
</g>
<!-- 41 -->
<g id="node42" class="node">
<title>41</title>
<path fill="none" stroke="#59d856" stroke-width="2" stroke-dasharray="5,2" d="M1345.5,-401C1345.5,-401 1244.5,-401 1244.5,-401 1238.5,-401 1232.5,-395 1232.5,-389 1232.5,-389 1232.5,-372 1232.5,-372 1232.5,-366 1238.5,-360 1244.5,-360 1244.5,-360 1345.5,-360 1345.5,-360 1351.5,-360 1357.5,-366 1357.5,-372 1357.5,-372 1357.5,-389 1357.5,-389 1357.5,-395 1351.5,-401 1345.5,-401"/>
<text text-anchor="middle" x="1295" y="-389" font-family="sans" font-size="10.00" fill="#000000">make_mt_n_gmap_db</text>
<text text-anchor="middle" x="1295" y="-378" font-family="sans" font-size="10.00" fill="#000000">ref_genome_mt: mt2</text>
<text text-anchor="middle" x="1295" y="-367" font-family="sans" font-size="10.00" fill="#000000">ref_genome_n: n2</text>
</g>
<!-- 41&#45;&gt;27 -->
<g id="edge51" class="edge">
<title>41&#45;&gt;27</title>
<path fill="none" stroke="#c0c0c0" stroke-width="2" d="M1291.6573,-359.7476C1290.3754,-351.7892 1288.8908,-342.5718 1287.5168,-334.0418"/>
<polygon fill="#c0c0c0" stroke="#c0c0c0" stroke-width="2" points="1290.9626,-333.4248 1285.9168,-324.1087 1284.0517,-334.538 1290.9626,-333.4248"/>
</g>
<!-- 41&#45;&gt;28 -->
<g id="edge53" class="edge">
<title>41&#45;&gt;28</title>
<path fill="none" stroke="#c0c0c0" stroke-width="2" d="M1328.66,-359.9453C1344.1325,-350.497 1362.5639,-339.2417 1378.5781,-329.4626"/>
<polygon fill="#c0c0c0" stroke="#c0c0c0" stroke-width="2" points="1380.4816,-332.4012 1387.192,-324.2024 1376.8334,-326.427 1380.4816,-332.4012"/>
</g>
<!-- 42 -->
<g id="node43" class="node">
<title>42</title>
<path fill="none" stroke="#bed856" stroke-width="2" stroke-dasharray="5,2" d="M1507.5,-550C1507.5,-550 1412.5,-550 1412.5,-550 1406.5,-550 1400.5,-544 1400.5,-538 1400.5,-538 1400.5,-526 1400.5,-526 1400.5,-520 1406.5,-514 1412.5,-514 1412.5,-514 1507.5,-514 1507.5,-514 1513.5,-514 1519.5,-520 1519.5,-526 1519.5,-526 1519.5,-538 1519.5,-538 1519.5,-544 1513.5,-550 1507.5,-550"/>
<text text-anchor="middle" x="1460" y="-535" font-family="sans" font-size="10.00" fill="#000000">make_mt_gmap_db</text>
<text text-anchor="middle" x="1460" y="-524" font-family="sans" font-size="10.00" fill="#000000">ref_genome_mt: mt2</text>
</g>
<!-- 42&#45;&gt;29 -->
<g id="edge54" class="edge">
<title>42&#45;&gt;29</title>
<path fill="none" stroke="#c0c0c0" stroke-width="2" d="M1460,-513.9656C1460,-506.3118 1460,-497.1674 1460,-488.4898"/>
<polygon fill="#c0c0c0" stroke="#c0c0c0" stroke-width="2" points="1463.5001,-488.2678 1460,-478.2679 1456.5001,-488.2679 1463.5001,-488.2678"/>
</g>
</g>
</svg>
